<?xml version="1.0" standalone="no"?>
<!DOCTYPE svg PUBLIC "-//W3C//DTD SVG 1.1//EN" "http://www.w3.org/Graphics/SVG/1.1/DTD/svg11.dtd" >
<svg xmlns="http://www.w3.org/2000/svg" xmlns:xlink="http://www.w3.org/1999/xlink" version="1.1">
<metadata>
Created by FontForge 20170731 at Sat Apr 30 00:25:55 2022
 By Aleksey,,,
ITC Souvenir is a registered trademark of International Typeface Corporation.
</metadata>
<defs>
<font id="Souvenir-DemiItalic" horiz-adv-x="1392" >
  <font-face 
    font-family="ITC Souvenir Demi"
    font-weight="500"
    font-style="italic"
    font-stretch="normal"
    units-per-em="2048"
    panose-1="0 0 0 0 0 0 0 0 0 0"
    ascent="1638"
    descent="-410"
    x-height="985"
    cap-height="1499"
    bbox="-252 -569 2654 2021"
    underline-thickness="110"
    underline-position="-311"
    slope="-10"
    unicode-range="U+0020-FB02"
  />
<missing-glyph horiz-adv-x="696" 
 />
    <glyph glyph-name=".notdef" horiz-adv-x="696" 
 />
    <glyph glyph-name=".null" horiz-adv-x="0" 
 />
    <glyph glyph-name="nonmarkingreturn" horiz-adv-x="682" 
 />
    <glyph glyph-name="space" unicode=" " horiz-adv-x="696" 
d="M0 0z" />
    <glyph glyph-name="exclam" unicode="!" horiz-adv-x="778" 
d="M797 1251l-232 -751q-9 -31 -15 -46.5t-18 -35.5t-31.5 -28.5t-47.5 -8.5q-49 0 -65.5 24.5t-16.5 77.5l8 224l8 495q1 142 8 181q17 93 89 125q49 21 132 22q37 0 88.5 -7t77.5 -18q54 -23 54 -80q0 -49 -39 -174zM369 -31q-56 0 -101 30.5t-45 84.5q0 79 75.5 138
t156.5 59q55 0 98 -30t43 -83q0 -80 -72.5 -139.5t-154.5 -59.5z" />
    <glyph glyph-name="quotedbl" unicode="&#x22;" horiz-adv-x="1187" 
d="M532 877h-98v489q-2 56 50.5 110t113.5 54t96.5 -54t14.5 -110zM987 877h-98v489q-2 56 50.5 110t113.5 54t96 -54t14 -110z" />
    <glyph glyph-name="numbersign" unicode="#" 
d="M1061 399l-66 -245q-23 -86 -36 -110q-26 -44 -74 -44q-40 0 -67 36t-27 87q0 25 12 65l55 211h-235l-66 -241q-23 -91 -42 -120q-25 -38 -66 -38q-42 0 -71.5 36t-29.5 91q0 22 12 68l54 204h-99q-48 0 -79 27t-31 86q0 60 30 87.5t76 27.5h164l86 321h-108
q-48 0 -78.5 27t-30.5 88q0 58 30 86.5t75 28.5h174l53 198q22 85 36 109q26 45 76 45q39 0 68 -37.5t29 -87.5q0 -20 -13 -70l-41 -157h236l53 200q1 5 4 15q7 28 11.5 42t13.5 35.5t19 32t26.5 19t36.5 8.5q38 0 65 -36t27 -87q0 -33 -10 -66l-43 -163h94q47 0 78 -28
t31 -87q0 -58 -30 -86.5t-75 -28.5h-162l-84 -321h103q110 0 110 -115q0 -58 -29.5 -85.5t-76.5 -27.5h-168zM1004 948h-236l-86 -321h238z" />
    <glyph glyph-name="dollar" unicode="$" 
d="M770 -18l-22 -138q-1 -8 -4 -27.5t-4 -26.5t-5 -22t-8 -21.5t-11.5 -16t-16.5 -13.5t-23 -7t-31 -3q-72 0 -72 49q0 23 11 78l24 148q-71 3 -146.5 24t-145.5 58.5t-115 100.5t-45 140q0 64 39 102.5t104 38.5q63 0 96 -38q6 -7 10.5 -15t6.5 -12.5t4 -15.5t2.5 -13
t1 -17t0.5 -16q3 -104 77 -152t185 -48q142 0 233 63q50 36 79.5 91t29.5 116q0 30 -9.5 57t-21.5 46t-37 39t-41.5 31t-51 26.5t-49.5 21t-52 19.5q-57 21 -87.5 33t-85 37t-86.5 45.5t-72.5 53.5t-62 66.5t-37.5 79.5t-16 98q0 102 49 194t127.5 154t177 98.5t197.5 37.5
l23 131q1 6 3.5 22t3.5 21t4 17.5t6 16.5t7.5 12.5t11 11.5t15 7t20 5.5t25.5 1.5q74 0 74 -54q0 -30 -10 -80l-19 -112q48 -5 95 -16t98 -32t89.5 -49.5t63.5 -71.5t25 -95q0 -67 -44.5 -109.5t-111.5 -42.5q-45 0 -76.5 22.5t-31.5 65.5q0 10 3 32t3 34q0 34 -21 59.5
t-53.5 39t-65.5 20t-65 6.5q-69 0 -136.5 -26t-116 -81.5t-48.5 -126.5q0 -46 24.5 -84t65.5 -66.5t94 -54t112 -49.5t117.5 -50t111.5 -59.5t94 -73t65.5 -95.5t24.5 -123q0 -110 -50.5 -206t-132.5 -161t-184.5 -104.5t-208.5 -46.5z" />
    <glyph glyph-name="percent" unicode="%" horiz-adv-x="1843" 
d="M506 739q-132 0 -204.5 85t-72.5 220q0 86 25.5 170.5t73 155.5t123.5 115.5t167 44.5q127 0 200 -83.5t73 -213.5q0 -70 -15 -139.5t-46.5 -133.5t-76 -113t-108.5 -78.5t-139 -29.5zM616 1442q-46 0 -85.5 -60t-62 -143t-34.5 -158t-12 -118q0 -136 84 -136
q41 0 75.5 41t55 101t35 130.5t20.5 126t6 91.5q0 31 -5.5 56.5t-25 47t-51.5 21.5zM1606 1405l-1035 -1354q-18 -25 -28 -37t-32 -28.5t-42 -16.5q-22 0 -40.5 11t-18.5 32q0 12 6.5 25.5t13.5 22.5t19.5 23.5t15.5 18.5l1016 1338q21 30 33.5 44.5t37.5 30t52 15.5
q22 0 39.5 -11.5t17.5 -31.5q0 -13 -23 -39zM1446 -31q-132 0 -203.5 84.5t-71.5 220.5q0 85 26 170t73 156t122.5 115.5t166.5 44.5q127 0 199.5 -83.5t72.5 -213.5q0 -70 -14.5 -139.5t-46 -133.5t-76 -113t-109 -78.5t-139.5 -29.5zM1446 55q41 0 75.5 41.5t55 101.5
t35 131t20.5 126.5t6 91.5q0 31 -5.5 56.5t-25 47t-51.5 21.5q-46 0 -85.5 -59.5t-61 -142.5t-33.5 -158t-12 -119q0 -138 82 -138z" />
    <glyph glyph-name="ampersand" unicode="&#x26;" horiz-adv-x="1802" 
d="M971 809l274 -410q70 55 133.5 132.5t63.5 138.5q0 28 -15.5 46.5t-34 25.5t-34 21t-15.5 34q0 67 113 67h307q26 0 44 -2.5t34.5 -16t16.5 -38.5q0 -19 -14.5 -35.5t-29 -24.5t-38.5 -19q-5 -2 -7 -3q-5 -2 -15 -6.5t-13 -6l-10 -5t-9.5 -5t-8 -5t-8.5 -6t-8 -7.5
l-10 -10l-12 -12l-92 -111l-250 -260q139 -139 285 -139q28 0 69 11t54 11q21 0 33 -13.5t12 -33.5q0 -40 -44.5 -71t-108.5 -46t-119 -22.5t-93 -7.5q-202 0 -344 124q-227 -135 -469 -135q-94 0 -178.5 19.5t-158.5 60.5t-118 115t-44 172q0 89 39.5 169.5t105 140.5
t143.5 103t162 68q-88 162 -88 283q0 86 34 158.5t90 121.5t130 83.5t153 50.5t160 16q70 0 135.5 -13t128 -41.5t100.5 -82.5t38 -127q0 -67 -30 -130.5t-78 -112t-111.5 -92t-125 -72.5t-124.5 -50zM899 946q47 23 89.5 51.5t85 67t68 85.5t25.5 95q0 64 -41 106t-106 42
q-87 0 -142 -61t-55 -148q0 -39 12.5 -84.5t26 -75.5t37.5 -78zM635 694q-193 -155 -193 -329q0 -107 70.5 -170.5t179.5 -63.5q121 0 271 84q-151 162 -328 479z" />
    <glyph glyph-name="quotesingle" unicode="'" horiz-adv-x="532" 
d="M483 877h-98v489q-2 56 50.5 110t113.5 54t96 -54t14 -110z" />
    <glyph glyph-name="parenleft" unicode="(" horiz-adv-x="737" 
d="M844 1550q26 0 45.5 -12t19.5 -35q0 -11 -8 -30t-24 -45t-27.5 -43.5t-30 -44.5t-20.5 -29q-132 -193 -228 -473q-88 -254 -88 -512q0 -127 21.5 -284.5t56.5 -270.5q12 -36 12 -50q0 -33 -30 -52t-66 -19q-25 0 -46.5 10.5t-39 30.5t-29 37.5t-25.5 41.5q-3 6 -5 9
q-78 137 -120 303t-42 328q0 343 215 702q35 58 82 123.5t112 141t136 124.5t129 49z" />
    <glyph glyph-name="parenright" unicode=")" horiz-adv-x="737" 
d="M121 -350q-29 0 -51.5 11t-22.5 36q0 8 2 16.5t7 18t9 17.5t11.5 18.5t11.5 16t11.5 16t9.5 12.5q68 93 135.5 226t113.5 257q99 259 99 551q0 139 -24 300.5t-66 280.5q-15 40 -15 56q0 31 30 49t64 18q116 0 232 -258q45 -106 70.5 -232.5t25.5 -242.5
q0 -366 -201 -721q-25 -44 -59 -95.5t-84 -115.5t-99.5 -115t-106 -85.5t-103.5 -34.5z" />
    <glyph glyph-name="asterisk" unicode="*" 
d="M891 1159l-29 146q-22 63 -22 90q0 54 34.5 89.5t88.5 35.5q48 0 82 -36t34 -83q0 -29 -10 -50t-33 -51l-84 -135l-8 -16l129 74q5 3 18 12.5t19 13.5t18.5 11t21 10t20.5 5.5t24 2.5q48 0 84.5 -34t36.5 -83q0 -55 -35.5 -89t-91.5 -34q-16 0 -66 15l-153 41l-19 2
l133 -119q72 -54 72 -119q0 -50 -35.5 -83.5t-85.5 -33.5q-59 0 -90 42.5t-31 101.5l-8 170l-2 18l-74 -164q-35 -110 -122 -110q-52 0 -87.5 35t-35.5 86q0 90 116 124l164 68l-145 16q-3 0 -28.5 1t-34 2t-26 5t-30.5 11q-61 33 -61 102q0 51 32.5 87t83.5 36
q40 0 67.5 -20.5t57.5 -61.5l97 -119z" />
    <glyph glyph-name="plus" unicode="+" horiz-adv-x="1351" 
d="M287 686h436v434h195v-434h434v-194h-434v-437h-195v437h-436v194z" />
    <glyph glyph-name="comma" unicode="," horiz-adv-x="696" 
d="M182 -336q-15 0 -28 12t-13 27q0 21 31 43q51 40 108.5 106.5t57.5 108.5q0 10 -14 10q-6 0 -20 -1t-21 -1q-56 0 -93.5 32t-37.5 87q0 74 72.5 124t150.5 50q77 0 130.5 -41t53.5 -115q0 -69 -50 -156.5t-108 -139.5q-35 -33 -114 -89.5t-105 -56.5z" />
    <glyph glyph-name="hyphen" unicode="-" horiz-adv-x="614" 
d="M301 711h238h25.5t23.5 -0.5t24 -2t20 -5t19.5 -8t14 -12t13 -17t6.5 -23t3 -29.5q0 -33 -14.5 -68.5t-38.5 -53.5q-17 -13 -46 -19.5t-43.5 -7t-49.5 -0.5h-260q-27 0 -41.5 0.5t-36.5 5t-33 13.5t-20 27t-9 44q0 32 15 69t39 58q8 7 17 12t22 8t20.5 5t25 3t21.5 1h24
h21z" />
    <glyph glyph-name="period" unicode="." horiz-adv-x="696" 
d="M352 -31q-76 0 -137 45t-61 119q0 75 59.5 120.5t136.5 45.5q75 0 134 -47.5t59 -120.5q0 -71 -58.5 -116.5t-132.5 -45.5z" />
    <glyph glyph-name="slash" unicode="/" horiz-adv-x="860" 
d="M1016 1436l-840 -1667q-35 -72 -49 -86q-24 -25 -85 -27h-22q-1 0 -21.5 -0.5t-29.5 0.5t-24.5 4t-22 11.5t-6.5 21.5q0 23 33 82l837 1671q16 32 22.5 44.5t19.5 28t18.5 19t25.5 8t34 4.5h50h13h14.5t14.5 -0.5t15.5 -2t12.5 -4.5t11 -7t7 -10.5t3 -14.5q0 -13 -31 -75
z" />
    <glyph glyph-name="zero" unicode="0" 
d="M705 -31q-105 0 -190.5 32.5t-143.5 89t-97.5 134.5t-57 166t-17.5 187q0 129 28.5 262.5t89 261t144.5 227t206 160.5t263 61q112 0 211.5 -45t165.5 -131q63 -80 93 -190t30 -226q0 -93 -14 -189t-43 -193t-71 -186t-102.5 -166t-132.5 -133.5t-165 -89t-197 -32.5z
M733 1239l-106 -268q-95 -326 -95 -570q0 -286 177 -286q66 0 108 40t80 113q61 109 109 281q39 135 64.5 297t25.5 289q0 46 -8 89t-25.5 86t-52.5 69t-84 26q-64 0 -109 -45.5t-84 -120.5z" />
    <glyph glyph-name="one" unicode="1" 
d="M641 520l100 643q0 20 -7.5 34t-17.5 21t-28.5 10.5t-30.5 4t-34 0.5h-72q-86 0 -86 57q0 22 11.5 37.5t32.5 24.5t36.5 13.5t38.5 8.5q10 2 53 11t57 12t50 12t56 15.5t47.5 17t51.5 22.5q14 6 43 21t46 23t43 15t50 7q93 0 93 -70q0 -20 -17 -119l-182 -1103
q0 -49 32 -68t87 -23q23 -1 37 -3t32.5 -8t27.5 -20t9 -36q0 -17 -6.5 -30t-15 -21.5t-25 -14.5t-27.5 -8.5t-32.5 -4t-29.5 -1.5h-28h-616q-5 0 -23 -0.5t-26 0t-23.5 2t-23.5 5.5t-17.5 10.5t-13.5 17.5t-4 26q0 77 127 82q33 2 52.5 4.5t43.5 11t40.5 25t27.5 43.5
q27 55 61 293z" />
    <glyph glyph-name="two" unicode="2" 
d="M590 264l174 -4l233 8q62 6 94.5 19.5t86.5 52.5q58 37 88 37q20 0 36.5 -11.5t16.5 -29.5q0 -9 -3 -19.5t-8.5 -23t-7.5 -17.5l-45 -94q-55 -130 -84 -159q-6 -6 -12.5 -10t-15 -6.5t-15 -4t-17.5 -2t-16 -0.5h-17h-15h-864q-82 0 -82 70q0 85 180 278l305 275
q189 153 283 266q66 77 116 168t50 168q0 74 -47 114.5t-123 40.5q-116 0 -197 -84q-26 -28 -46 -66t-20 -71q0 -20 15.5 -52t15.5 -50q0 -57 -56.5 -92t-117.5 -35q-74 0 -117 36.5t-43 108.5q0 98 59.5 183.5t151.5 146.5q189 125 443 125q67 0 130.5 -11t124.5 -37
t106 -64t72.5 -97t27.5 -131q0 -57 -19.5 -116t-47.5 -107.5t-77 -104t-88 -93.5t-101.5 -88.5t-97 -76.5t-94.5 -69l-291 -244z" />
    <glyph glyph-name="three" unicode="3" 
d="M442 324v-45q0 -81 51 -125.5t136 -44.5q94 0 164.5 60.5t102.5 146t32 176.5q0 53 -20.5 102t-61.5 78q-63 43 -199 43q-3 0 -19 -1t-21 -1t-19.5 0.5t-20.5 2t-17.5 4.5t-16.5 8t-11.5 12t-9 17t-2.5 23q0 12 2 22.5t8 18t10 13t14.5 10t15.5 7t19 4.5t18.5 3t21 2.5
t18.5 1.5q90 5 156 25t120 71q50 47 77.5 124.5t27.5 152.5q0 67 -40.5 106t-109.5 39q-72 0 -125 -44t-53 -113l2 -41q0 -60 -49 -91.5t-115 -31.5q-62 0 -111.5 29t-49.5 86q0 76 52.5 145.5t125.5 116.5q153 94 383 94q72 0 136.5 -9t129.5 -33t111.5 -61t76 -97.5
t29.5 -137.5q0 -78 -37 -146.5t-97.5 -115.5t-134 -77t-149.5 -40q102 -12 180 -51.5t126.5 -114t48.5 -176.5q0 -109 -64 -212t-162 -167q-199 -123 -473 -123q-53 0 -104 4.5t-110.5 16t-109 33t-91.5 52.5t-65.5 78.5t-23.5 106.5q0 77 47 123.5t125 46.5q125 0 125 -106
z" />
    <glyph glyph-name="four" unicode="4" 
d="M1174 526h137q6 0 23 0.5t24.5 0.5t20.5 -2.5t18.5 -8t10.5 -16.5t5 -27q0 -32 -13.5 -52.5t-39 -28.5t-45.5 -10.5t-51 -2.5h-113l-29 -193q0 -27 14 -42t30 -19t30 -17.5t14 -37.5q0 -70 -123 -70h-428q-88 0 -88 57q0 33 20.5 48t57.5 22q53 11 70 43q13 24 27.5 96.5
t19.5 112.5h-432q-7 0 -26 -0.5t-32.5 -0.5t-33 1t-33.5 5t-27 10.5t-19.5 19t-6.5 28.5q0 60 81.5 198t164 249.5t143.5 183.5l286 295q112 99 173 133q48 29 143 29h31t32.5 -1.5t35 -4.5t29.5 -9.5t27 -15.5t16 -23.5t7 -33.5zM791 526l71 410l99 360
q-362 -325 -601 -770h431z" />
    <glyph glyph-name="five" unicode="5" 
d="M657 1257l-96 -389q62 48 152.5 70.5t181.5 22.5q128 0 234 -44.5t173.5 -139t67.5 -224.5q0 -122 -61 -238t-162 -194q-98 -75 -227.5 -113.5t-262.5 -38.5q-54 0 -114.5 8t-128.5 28t-121 50t-88 79t-35 110q0 77 56.5 130.5t135.5 53.5q55 0 101.5 -28.5t46.5 -80.5
q0 -22 -12.5 -50t-12.5 -46q0 -56 49 -84t111 -28q76 0 139.5 43.5t102 111t59.5 143t21 144.5q0 109 -55.5 182.5t-163.5 73.5q-66 0 -122.5 -22t-88.5 -48.5t-65 -48.5t-56 -22q-27 0 -46.5 16.5t-19.5 42.5q0 17 7 48t18.5 72t13.5 50l123 500q15 84 29 108q5 13 19 17.5
t52 1.5q150 -27 355 -27l387 29l51 4q19 0 34 -10t15 -29q0 -51 -48.5 -99t-107.5 -81q-135 -74 -356 -74z" />
    <glyph glyph-name="six" unicode="6" 
d="M662 840q119 108 303 108q183 0 303.5 -99t120.5 -278q0 -120 -53.5 -235t-145.5 -195q-94 -84 -220 -128t-259 -44q-241 0 -376.5 128t-135.5 364q0 194 85 387.5t226 347.5q144 156 342 245t410 89q133 0 171 -31q19 -15 19 -37q0 -16 -5.5 -29t-17 -21t-22 -13
t-28.5 -8t-28 -4.5t-28 -2.5q-146 -13 -248 -53.5t-192 -134.5q-139 -142 -221 -356zM739 109q61 0 112 36t83 91t54 123.5t31 130t9 114.5q0 90 -38.5 149.5t-125.5 59.5q-76 0 -135.5 -51t-92 -128.5t-49 -156t-16.5 -147.5q0 -96 39 -158.5t129 -62.5z" />
    <glyph glyph-name="seven" unicode="7" 
d="M1169 1237h-395q-154 0 -201 -6q-49 -11 -90 -70q-38 -63 -84 -63q-28 0 -43.5 15.5t-15.5 41.5q0 15 4 35q7 34 19 90q33 166 70 193t227 26h24h23.5h27.5h621q4 0 26.5 1.5t37 0.5t33 -4t28.5 -13t10 -26q0 -12 -6.5 -29t-12 -27.5t-18.5 -31t-14 -22.5l-203 -351
l-367 -753q-3 -8 -17 -43.5t-25 -61t-25 -54.5t-23 -40q-29 -35 -90 -45h-307q-23 2 -41 12.5t-18 28.5q0 12 7 29.5t13 28t20 32t15 23.5l428 626z" />
    <glyph glyph-name="eight" unicode="8" 
d="M1120 854q63 -39 102.5 -70t76.5 -74.5t54 -96.5t17 -121q0 -119 -62.5 -221t-166.5 -173q-189 -129 -471 -129q-196 0 -332 68q-87 43 -139 118t-52 169q0 78 35.5 150t94.5 125.5t129 93t145 61.5q-96 48 -150.5 129t-54.5 184q0 101 64 196t159 158q86 54 203 81.5
t232 27.5q62 0 122.5 -8t124.5 -29.5t112 -54.5t79 -87t31 -122q0 -71 -30.5 -133t-83 -107.5t-111.5 -78t-128 -56.5zM973 926q38 27 62 45t55 47t48 55.5t29.5 62.5t12.5 76q0 83 -57.5 128.5t-143.5 45.5q-98 0 -172 -59.5t-74 -152.5q0 -37 15 -69t44.5 -57.5t56 -43.5
t66 -41.5t58.5 -36.5zM680 668q-46 -36 -80 -67t-69.5 -73t-54.5 -90.5t-19 -99.5q0 -103 67 -165t174 -62q121 0 208 67.5t87 183.5q0 45 -21 84.5t-59 70.5t-75 54t-85 50.5t-73 46.5z" />
    <glyph glyph-name="nine" unicode="9" 
d="M971 659q-122 -108 -303 -108q-185 0 -305.5 99t-120.5 278q0 120 54 235t146 195q94 84 220.5 128t259.5 44q240 0 376 -128.5t136 -365.5q0 -192 -86 -385t-228 -348q-142 -156 -340 -245t-409 -89q-137 0 -175 32q-18 14 -18 36q0 24 12 40t36 23.5t39.5 10t43.5 4.5
q146 13 247.5 53.5t193.5 134.5q139 142 221 356zM893 1391q-76 0 -135.5 -53.5t-91 -134.5t-47 -160.5t-15.5 -147.5q0 -90 38.5 -149.5t123.5 -59.5q61 0 112.5 34.5t84.5 87t56 119t32.5 127.5t9.5 115q0 60 -14 107t-53.5 81t-100.5 34z" />
    <glyph glyph-name="colon" unicode=":" horiz-adv-x="655" 
d="M334 -31q-64 0 -118 36.5t-54 96.5q0 84 67.5 140.5t153.5 56.5q69 0 118.5 -37t49.5 -104q0 -78 -69 -133.5t-148 -55.5zM424 537q-63 0 -116.5 36.5t-53.5 96.5q0 83 68 139.5t153 56.5q69 0 118.5 -37t49.5 -104q0 -78 -69.5 -133t-149.5 -55z" />
    <glyph glyph-name="semicolon" unicode=";" horiz-adv-x="696" 
d="M182 -336q-15 0 -27 12t-12 27q0 22 29 43q51 40 108.5 106.5t57.5 108.5q0 10 -14 10q-6 0 -20 -1t-21 -1q-55 0 -93 32t-38 87q0 76 72 125t151 49q77 0 130.5 -41t53.5 -115q0 -69 -50 -156.5t-108 -139.5q-35 -33 -114 -89.5t-105 -56.5zM420 537q-64 0 -118 36.5
t-54 96.5q0 84 67.5 140t153.5 56q69 0 118.5 -37t49.5 -104q0 -78 -69.5 -133t-147.5 -55z" />
    <glyph glyph-name="less" unicode="&#x3c;" horiz-adv-x="1351" 
d="M1386 166v-191l-1134 519v184l1134 522v-192l-944 -424z" />
    <glyph glyph-name="equal" unicode="=" horiz-adv-x="1351" 
d="M297 850h1065v-195h-1065v195zM297 522h1065v-194h-1065v194z" />
    <glyph glyph-name="greater" unicode="&#x3e;" horiz-adv-x="1351" 
d="M231 166l947 418l-947 424v192l1135 -522v-184l-1135 -519v191z" />
    <glyph glyph-name="question" unicode="?" horiz-adv-x="1064" 
d="M401 506l25 149q12 79 24.5 97.5t79.5 52.5q58 29 84 43.5t65.5 44.5t68.5 65q45 55 71.5 125.5t26.5 141.5q0 77 -43 126.5t-119 49.5q-53 0 -104 -35q-27 -21 -37 -43.5t-17 -60.5q-1 -4 -3 -17.5t-2.5 -17.5t-2.5 -14.5t-4 -14.5t-6 -12.5t-8 -13.5t-10.5 -12
t-14.5 -13q-50 -41 -123 -41q-56 0 -95.5 25.5t-39.5 78.5q0 68 46.5 131t111.5 105q139 84 354 84q69 0 134 -10.5t129 -35.5t111.5 -63t77 -98.5t29.5 -136.5q0 -83 -34.5 -159.5t-93.5 -136t-126.5 -105t-144.5 -78.5l-102 -45q-65 -29 -81.5 -55t-29.5 -103
q-4 -28 -6 -36.5t-7 -29.5t-11.5 -28t-18 -17.5t-28.5 -14t-40 -3.5q-94 0 -94 69q0 22 8 62zM422 -31q-57 0 -101.5 30t-44.5 85q0 79 74.5 138t155.5 59q55 0 99 -30t44 -83q0 -80 -73 -139.5t-154 -59.5z" />
    <glyph glyph-name="at" unicode="@" horiz-adv-x="1761" 
d="M1470 1153l-213 -539q-36 -93 -36 -118q0 -17 18 -28t39 -11q65 0 129 40.5t113 98.5q120 135 120 305q0 115 -50 212.5t-133.5 161t-190.5 99t-222 35.5q-126 0 -252 -49.5t-217 -134.5q-99 -93 -153.5 -220.5t-54.5 -261.5q0 -137 55 -259t147.5 -208t220 -136
t267.5 -50q180 0 336 84.5t247 235.5h121q-87 -212 -282.5 -326.5t-438.5 -114.5q-163 0 -311.5 61t-256.5 164.5t-172 247.5t-64 303q0 327 237 555q236 230 586 230q140 0 269 -45.5t227.5 -126t157.5 -200t59 -259.5q0 -106 -44 -210t-117 -184.5t-176 -130.5t-214 -50
q-68 0 -111.5 32t-36.5 97q-64 -59 -128 -90t-142 -31q-113 0 -173.5 76.5t-60.5 189.5q0 75 22.5 156.5t66 158t101 138t135 98.5t161.5 37q114 0 178 -88l22 55h215zM858 461q104 0 215 241q31 64 59.5 147.5t28.5 133.5q0 27 -16.5 48.5t-42.5 21.5q-58 0 -118 -60.5
t-101.5 -144.5t-68 -168t-26.5 -135q0 -36 17.5 -60t52.5 -24z" />
    <glyph glyph-name="A" unicode="A" horiz-adv-x="1556" 
d="M1073 492h-592q-131 -236 -131 -299q0 -27 14.5 -45t31.5 -25.5t31.5 -22t14.5 -34.5t-3 -33.5t-6 -20t-10 -10t-11 -3.5t-12.5 0.5t-10.5 0.5h-348q-3 1 -14.5 1.5t-15.5 3t-8.5 14.5t-4.5 34q0 45 49 70q25 14 42 26.5t30 31t19 28.5t19.5 40t20.5 44l434 776l256 352
q7 8 22 27.5t20.5 25.5t18 19t21 17t22.5 10t30 8t36 2q41 0 67.5 -8t44 -27t28.5 -40t26 -58q3 -8 5.5 -13.5t4.5 -11.5l168 -538l121 -582q0 -1 2.5 -15.5t3 -16.5t3 -14t4 -15.5t5 -13t7 -14t9 -11.5t12 -12.5t14.5 -10.5q31 -22 37 -34q6 -10 6 -25q0 -20 -8.5 -34
t-19 -21t-30 -10.5t-31 -4t-33.5 -0.5h-3.5h-3.5h-390q-41 0 -64.5 11.5t-23.5 47.5q0 24 13 38t39 26q40 18 49.5 30.5t9.5 53.5q0 25 -18 172zM905 1210l-342 -557h484q-47 329 -142 557z" />
    <glyph glyph-name="B" unicode="B" horiz-adv-x="1597" 
d="M903 0h-651q-1 0 -21.5 -0.5t-27.5 0t-25.5 2t-27 5.5t-20 10.5t-16.5 17t-5 24.5q0 36 47 64q66 43 84 84l190 1093q0 7 -1 13.5t-2.5 11t-5 9.5t-5.5 8t-7.5 8t-8 6.5t-10.5 7.5t-11 8q-41 27 -41 53q0 18 11.5 35.5t29.5 26.5q24 12 59 12h711q51 0 92 -2t93 -9
t92.5 -19t81 -34t67 -51.5t43 -74t16.5 -99.5q0 -57 -24.5 -111.5t-64.5 -97.5t-92 -80t-106 -62.5t-108 -41.5q162 -3 265.5 -88t103.5 -240q0 -118 -64 -218.5t-170 -166.5q-99 -61 -213 -82.5t-258 -21.5zM711 803l28 6q117 30 198 60.5t155 82.5q67 46 111 113t44 139
q0 42 -16 71.5t-38 45.5t-59 24.5t-66 10.5t-71 2q-41 0 -62 -0.5t-58 -9.5t-54 -27q-8 -8 -16.5 -31.5t-18.5 -66t-17 -77t-18 -96t-16 -89t-15 -90.5t-11 -68zM1016 727l-330 -76l-61 -413q0 -20 6.5 -35t20 -23.5t27 -14t34 -8t34 -3t33.5 -0.5q198 0 307 86
q58 45 91.5 109.5t33.5 135.5q0 86 -54.5 148.5t-141.5 93.5z" />
    <glyph glyph-name="C" unicode="C" horiz-adv-x="1597" 
d="M1710 1288l-10 -123q-3 -29 -5 -46.5t-9.5 -48.5t-18.5 -49.5t-31 -33t-47 -14.5q-38 0 -55 27.5t-25 70.5q-12 68 -33 117.5t-63 91.5q-102 96 -262 96q-109 0 -203 -49.5t-158.5 -129t-110.5 -181t-67.5 -205t-21.5 -201.5q0 -198 84 -311q56 -76 142.5 -116t184.5 -40
q127 0 236.5 56t218.5 157q3 2 9.5 7.5t10 8t10 7t11.5 6.5t12 4t13 2q31 0 54 -21t23 -51q0 -58 -69.5 -125t-140.5 -108q-197 -117 -455 -117q-152 0 -287 43t-239 123.5t-165 207t-61 282.5q0 185 82.5 354.5t216.5 289t310.5 190.5t359.5 71q232 0 424 -107
q87 -42 117 -77q18 -23 18 -58z" />
    <glyph glyph-name="D" unicode="D" horiz-adv-x="1761" 
d="M449 1499h698q154 0 271 -31t222 -116q197 -161 197 -459q0 -187 -85.5 -375.5t-229.5 -306.5q-147 -120 -336.5 -165.5t-421.5 -45.5h-510h-18.5h-23.5t-23.5 1t-24.5 3t-21 6.5t-18 11t-11 16.5t-5 23q0 36 47 62l26 18q36 32 45 45q8 12 15 33.5t10.5 37t9 44
t6.5 33.5l164 973q0 16 -9.5 30t-15.5 18.5t-28 18.5q-39 30 -39 56q0 69 109 69zM815 1292l-186 -1056q0 -30 14 -48.5t41.5 -26t48 -9.5t53.5 -2q155 0 283.5 61t216.5 182q73 102 115.5 243t42.5 271q0 214 -116 334.5t-333 120.5q-142 0 -180 -70z" />
    <glyph glyph-name="E" unicode="E" horiz-adv-x="1433" 
d="M733 883h371q67 13 119 55q6 3 14.5 9.5t13 9t12 4.5t17.5 2q28 0 41.5 -18t13.5 -46q0 -23 -14 -97.5t-23 -94.5q-20 -48 -71 -48q-13 0 -37 14t-54.5 35t-41.5 27h-383l-72 -483q0 -29 9.5 -48.5t21.5 -29.5t37 -15.5t41 -6t49 -0.5l241 8q78 8 130.5 32t105.5 78
q2 2 10.5 10t11.5 10.5t10 9t11 9t11 7.5t12.5 7t12.5 4.5t14 3.5t15 1q27 0 45.5 -13t18.5 -38q0 -31 -27 -115.5t-45 -120.5q-14 -29 -36.5 -37t-63.5 -8h-1022q-4 0 -21 -0.5t-26 0t-26 1.5t-26.5 5t-20.5 10.5t-16 17.5t-5 25q0 21 11.5 34.5t35.5 27.5q66 43 82 88
l192 1089q0 26 -14.5 44t-31.5 27t-31.5 24t-14.5 34q0 24 10.5 39.5t30.5 22t36.5 8.5t39.5 2h1001q53 0 78 -15t25 -63q0 -45 -8 -105.5t-23 -86.5q-9 -15 -29 -26t-39 -11t-34 8.5t-21.5 16t-22.5 28.5q-24 35 -47.5 53.5t-60.5 30.5q-71 25 -217 25q-168 0 -211 -31
q-31 -19 -47 -74z" />
    <glyph glyph-name="F" unicode="F" horiz-adv-x="1310" 
d="M772 1145l-51 -301h221q175 8 229 43q6 3 17 10t17 11t16.5 7t21.5 3q57 0 57 -66q0 -41 -11 -102.5t-27 -92.5q-9 -19 -29 -31t-43 -12q-6 0 -10.5 0.5t-9.5 3t-8 3.5t-8.5 5.5t-7.5 6t-8 7.5t-8 7q-30 30 -194 45h-236l-73 -493q0 -17 8.5 -31.5t16.5 -20.5t28 -20
q2 -1 8 -6t8 -6.5t7.5 -6t7.5 -8t5 -8t4 -9.5t1 -11q0 -72 -119 -72h-377q-23 0 -36.5 1t-33.5 6t-30 18t-10 34t11.5 34t35.5 28q42 28 63.5 57t27 50t15.5 82q3 14 4 22l160 975q0 15 -8.5 28t-18 20t-26.5 17q-15 11 -19.5 15t-12 16t-7.5 24q0 24 11 39.5t32 22
t38.5 8.5t41.5 2h946h12h14.5t13 -0.5t14 -2t11.5 -3.5t12.5 -5.5t10.5 -8.5q25 -25 25 -125v-7q0 -26 -0.5 -41t-4.5 -42t-12 -42t-24.5 -27.5t-40.5 -12.5t-37.5 8.5t-26.5 28.5q-3 4 -11.5 16t-12 16.5t-11.5 15t-12.5 15.5t-12.5 13t-15 13t-15.5 10t-17.5 9
q-67 31 -254 31q-54 0 -87 -3t-58.5 -11t-39.5 -22t-24 -37t-17 -55t-15 -77q0 -2 -0.5 -4t-0.5 -4z" />
    <glyph glyph-name="G" unicode="G" horiz-adv-x="1679" 
d="M1182 791h452h12h16t16 -1t17 -3.5t15.5 -6t14.5 -10.5t10 -15.5t7 -21t1 -28.5q-41 -127 -55.5 -198t-14.5 -185q0 -4 1 -30t0 -35.5t-6.5 -27.5t-16.5 -30q-64 -71 -316 -160q-210 -70 -395 -70q-158 0 -294 42.5t-239.5 123t-163 209t-59.5 289.5q0 177 76 349
t207 292q137 128 317 192t379 64q220 0 402 -80q104 -46 151 -88q37 -34 37 -88q0 -30 -12.5 -101t-22.5 -98q-20 -59 -78 -59q-39 0 -57 21.5t-31 64.5q-15 60 -36.5 101t-63.5 79q-104 90 -266 90q-108 0 -205 -46t-167 -122t-121.5 -173t-77 -201.5t-25.5 -204.5
q0 -91 24 -176t70 -156t123 -113.5t174 -42.5q73 0 143.5 26t112.5 77q40 50 65 137.5t25 159.5q0 31 -24.5 51t-64 27.5t-63.5 9.5t-49 2q-21 0 -33.5 1.5t-28.5 6.5t-24 18t-8 33q0 62 41 83.5t109 21.5z" />
    <glyph glyph-name="H" unicode="H" horiz-adv-x="1802" 
d="M1343 735h-636l-86 -540q0 -6 0.5 -11t3 -9.5t4 -8t5.5 -8t6 -6.5t8 -6.5t7.5 -6t9 -6.5t9.5 -6q15 -11 19.5 -15t12 -16t7.5 -24q0 -72 -111 -72h-393q-96 0 -96 59q0 21 11.5 34t35.5 28l20 14q37 29 49 47q21 32 47 176l156 945q0 8 -1 14.5t-4.5 12t-5.5 9.5
t-8.5 9.5t-9 7.5t-12 9t-12.5 9q-39 26 -39 56q0 35 27.5 52t66.5 17h410q98 0 98 -59q0 -15 -7.5 -27.5t-15 -18.5t-24.5 -18q-14 -9 -25.5 -18t-20.5 -16t-16.5 -17.5t-12 -16t-9.5 -19t-7.5 -18t-6 -22t-5 -23.5t-5.5 -28.5t-5 -30.5l-49 -278h637l60 411q0 25 -12 39.5
t-40 32.5q-2 1 -8 6t-8 6.5t-7.5 6t-7.5 8t-5 8t-4 9.5t-1 11q0 15 5 26.5t11.5 19t19.5 13t22 8t26.5 4t25 1.5h26.5h22h360q84 0 84 -59q0 -21 -11.5 -34.5t-35.5 -27.5l-24 -18q-15 -12 -26 -23t-19 -25.5t-13 -22.5t-9.5 -28t-6 -27t-5.5 -33t-5 -34l-154 -964
q0 -28 14.5 -47.5t31.5 -28.5t31.5 -23.5t14.5 -33.5q0 -70 -102 -70h-389q-21 0 -35.5 1.5t-33.5 6.5t-29.5 18t-10.5 33q0 21 11.5 34.5t35.5 29.5q58 38 75.5 73.5t30.5 114.5l3 21z" />
    <glyph glyph-name="I" unicode="I" horiz-adv-x="819" 
d="M262 254l170 1040q0 20 -7.5 35t-14 20t-29.5 23q-14 10 -20.5 15t-13.5 16t-7 24q0 72 115 72h401q27 0 43.5 -2t32.5 -15t16 -38q0 -22 -12 -35.5t-37 -28.5l-25 -18q-33 -24 -45 -43q-10 -14 -26 -72l-180 -1042q0 -29 12 -45t41 -35q15 -11 19.5 -15t12 -16t7.5 -24
q0 -23 -11 -38.5t-31 -21.5t-37 -8t-40 -2h-385q-90 0 -90 55q0 23 11 36.5t34 27.5q33 21 53 39.5t28.5 38.5t10.5 28t4 29z" />
    <glyph glyph-name="J" unicode="J" horiz-adv-x="1228" 
d="M1221 1167l-107 -635q-1 -8 -7 -45.5t-8 -47.5t-8 -44t-10 -46t-12 -42t-15 -44.5t-18 -39t-23 -41t-27.5 -35.5t-33.5 -36q-79 -73 -200.5 -107.5t-247.5 -34.5q-61 0 -120 8t-121 29t-108.5 53t-76 84.5t-29.5 118.5q0 147 105 242.5t254 95.5q59 0 99 -25.5t40 -78.5
q0 -44 -24.5 -71.5t-67.5 -35.5q-119 -26 -119 -137q0 -59 42.5 -93t104.5 -34q117 0 176 100q11 19 21.5 49t21 76.5t15.5 70t15 79.5l11 57l119 737q0 20 -8 35t-16.5 21.5t-28.5 19.5q-2 2 -6 5t-6.5 4.5t-6 4.5t-6 5.5l-5.5 5.5t-4.5 6t-3 6.5t-2.5 7.5t-1 8
q0 76 113 76h409q84 0 84 -57q0 -21 -11 -34t-34 -28q-15 -10 -27 -19t-21.5 -20t-16 -18t-12.5 -21t-9 -20t-6.5 -24.5t-5 -25t-5.5 -31.5t-5 -34z" />
    <glyph glyph-name="K" unicode="K" horiz-adv-x="1597" 
d="M270 332l160 966q0 19 -7.5 32.5t-16 20t-27.5 19.5q-2 1 -8 6t-8 6.5t-7.5 6t-7.5 8t-5 8t-4 9.5t-1 11q0 41 35 57.5t82 16.5h376q95 0 95 -61q0 -15 -7.5 -27.5t-15 -18.5t-24.5 -18q-14 -9 -25.5 -18t-20.5 -15.5t-16 -16.5t-12 -15t-9.5 -18t-7 -18t-6 -22.5
t-4.5 -23.5t-4.5 -29.5t-5.5 -32.5l-63 -385q92 51 279 203.5t304 257.5q58 50 58 86q0 9 -4 16.5t-7.5 10.5t-13.5 10q-24 14 -35.5 28t-11.5 38q0 69 100 69h291q96 0 96 -61q0 -35 -21 -55t-59 -37q-45 -20 -71 -39l-457 -412l174 -283q126 -238 168 -379
q12 -41 31.5 -66t34.5 -32t26.5 -21t11.5 -38q0 -25 -11 -41.5t-31.5 -23t-39 -9t-42.5 -2.5h-320q-4 0 -22.5 -0.5t-26.5 0t-25 2t-25.5 5.5t-18.5 11t-14.5 18.5t-4.5 26.5q0 22 12.5 36.5t38.5 31.5q2 1 10.5 6t10.5 6.5t7.5 6.5t7 8.5t3.5 9.5t2 14q0 30 -93 217.5
t-159 294.5l-186 -110l-64 -385q0 -8 1 -15t4.5 -13t5.5 -10t8 -10t8.5 -8t11.5 -9t12 -9q41 -25 41 -53q0 -72 -116 -72h-383q-88 0 -88 59q0 32 34 56q71 50 86 75t31 110q4 20 6 32z" />
    <glyph glyph-name="L" unicode="L" horiz-adv-x="1351" 
d="M795 1167l-148 -929q0 -35 13 -53t49 -25q49 -8 170 -8q123 0 208 20q36 9 69 28.5t51.5 35.5t56.5 51q24 23 34.5 32t35 23t44.5 14q27 0 48.5 -15t21.5 -40q0 -31 -37 -118.5t-61 -125.5q-9 -14 -18 -24.5t-21 -16.5l-20 -10t-24 -5l-24 -1.5t-29 0t-30 0.5h-918
q-5 0 -22 -0.5t-27.5 -0.5t-27 1t-27 5t-21.5 10t-16.5 17t-5.5 25q0 26 11 40t34 28q15 10 26.5 19t20.5 20t15.5 18t12 21.5t8.5 20.5t7 24.5t5.5 25t5.5 30.5t5 32l160 960q0 21 -7.5 35t-14.5 20t-29 21q-15 11 -19.5 15t-12 16t-7.5 24q0 40 39 60q24 12 53 12h440
q89 0 89 -59q0 -15 -8 -27.5t-15 -18t-25 -16.5q-48 -30 -65 -47q-7 -7 -13.5 -17t-11.5 -23.5t-8 -23.5t-7 -27.5t-5 -25t-4.5 -26.5t-3.5 -21z" />
    <glyph glyph-name="M" unicode="M" horiz-adv-x="1966" 
d="M1090 606l442 793q34 60 60 80t89 20h363q82 0 82 -55q0 -18 -12 -34t-23 -23.5t-33 -20.5q-49 -27 -61 -45q-13 -23 -27 -94l-176 -1026q0 -25 14 -43t30 -26t30 -23t14 -35q0 -33 -31 -60q-18 -14 -65 -14h-424q-72 0 -72 59q0 22 12.5 35.5t38.5 28.5q23 12 32 17.5
t20 17.5t18 30l213 1076l-594 -1047q-27 -27 -90 -27q-34 0 -57.5 6t-37.5 16t-23.5 29.5t-15 39t-12.5 52.5l-3 15l-199 918l-148 -1057q0 -28 5 -39.5t26 -28.5q3 -2 12 -9t13 -10.5t11.5 -10.5t11 -12.5t6.5 -14t3 -16.5q0 -32 -26.5 -50t-61.5 -18h-251q-72 0 -72 53
q0 17 8 31t18 21t29 18q47 27 61 46q7 8 11 19l184 1112q0 24 -15 41.5t-33 25.5t-33 23.5t-15 36.5q0 14 10.5 30.5t24.5 25.5q25 16 86 16h346q37 0 56.5 -3.5t32.5 -19t18 -31.5t14 -56z" />
    <glyph glyph-name="N" unicode="N" horiz-adv-x="1638" 
d="M590 1167l-146 -950q0 -32 15.5 -53t34 -30t34 -25.5t15.5 -38.5q0 -36 -31.5 -53t-71.5 -17h-245q-76 0 -76 53q0 24 13.5 39t39.5 29q23 13 33 19.5t22.5 19.5t20.5 30l190 1102q0 25 -16 43t-35 27.5t-35 25t-16 35.5q0 28 19.5 44.5t54.5 31.5h331q64 -12 74 -22
l555 -971l117 784q0 27 -14 47t-31 30t-31 25.5t-14 34.5q0 38 29 55t69 17h229q82 0 82 -57q0 -34 -47 -64q-18 -12 -27 -18.5t-20 -19t-18 -27.5l-217 -1207q-14 -69 -45 -87.5t-107 -18.5h-15h-18t-16.5 0.5t-18.5 2t-15.5 3.5t-16.5 5.5t-13 8.5q-11 9 -24 27t-27.5 45
t-24 45.5t-24 48.5t-16.5 35z" />
    <glyph glyph-name="O" unicode="O" horiz-adv-x="1761" 
d="M924 -31q-152 0 -285 45t-233 128t-158 210t-58 281q0 178 69.5 344t195.5 291q262 262 663 262q151 0 282.5 -44.5t229.5 -127t154.5 -208t56.5 -278.5q0 -189 -71.5 -356.5t-194 -287.5t-292 -189.5t-359.5 -69.5zM934 123q69 0 145 29.5t125 76.5q84 78 144 213
q49 109 78.5 244t29.5 254q0 67 -11 128t-36.5 118.5t-63.5 100t-97 68t-132 25.5q-147 0 -247.5 -83.5t-170.5 -229.5q-52 -110 -82 -242t-30 -254q0 -72 10 -135t35.5 -121.5t64 -100t99.5 -66.5t139 -25z" />
    <glyph glyph-name="P" unicode="P" horiz-adv-x="1474" 
d="M678 580l-53 -375q0 -27 11.5 -43t39.5 -35q41 -25 41 -57q0 -35 -29 -52.5t-67 -17.5h-396q-21 0 -35 1.5t-32.5 6.5t-28.5 17.5t-10 31.5q0 21 10 34.5t31 27.5q56 42 59 45q8 7 14.5 17t11.5 24t8.5 24.5t7 28t5.5 26t4.5 26.5t3.5 22l158 962q0 7 -0.5 13.5t-2.5 12
t-3 9t-5 8.5t-5.5 7t-7.5 6.5t-8 6.5t-10 7.5t-11 7.5q-15 11 -19.5 15t-12 16t-7.5 24q0 72 113 72h589q80 0 127.5 -1.5t120.5 -10.5t123 -27q100 -35 164.5 -114t64.5 -181q0 -82 -30.5 -157.5t-84 -134.5t-120 -105.5t-143.5 -79.5q-246 -108 -586 -108zM774 1190
l-76 -465q201 14 334 92q89 56 150 141t61 177q0 119 -77 175t-203 56q-114 0 -154 -59q-21 -30 -35 -117z" />
    <glyph glyph-name="Q" unicode="Q" horiz-adv-x="1802" 
d="M1163 -2q88 -88 252 -88q18 0 55 4t56 4q47 0 80.5 -26.5t33.5 -71.5q0 -51 -37 -83.5t-82 -43t-96 -10.5q-155 0 -287 76t-200 210q-157 1 -292 45t-237 126.5t-160.5 211t-58.5 287.5q0 187 73.5 353t197.5 283.5t294.5 186t358.5 68.5q157 0 291.5 -44.5t233.5 -128
t155.5 -211.5t56.5 -286q0 -141 -50 -287t-138 -260q-179 -237 -500 -315zM879 131l-13 137q0 39 9 76.5t36 69.5t68 32q30 0 50 -15t20 -44q0 -21 -5.5 -61t-5.5 -60q0 -48 15 -121q84 21 154.5 86t116.5 150.5t78 187t46 194t14 173.5q0 198 -76 309q-43 63 -116 97
t-154 34q-109 0 -199.5 -56t-149 -143t-99.5 -197.5t-58.5 -215t-17.5 -199.5q0 -177 62.5 -284.5t224.5 -149.5z" />
    <glyph glyph-name="R" unicode="R" horiz-adv-x="1597" 
d="M688 631l-70 -434q0 -18 8.5 -32.5t14.5 -19.5t29 -22q2 -2 6.5 -5.5t7 -5t6.5 -5t6 -6t5 -6.5t4.5 -8t2.5 -9t1 -10q0 -23 -10.5 -38t-30.5 -21t-36 -7.5t-40 -1.5h-379q-21 0 -33.5 1t-30 6t-26 17.5t-8.5 32.5q0 34 43 62q21 15 35 26t25 25.5t16.5 20.5t11.5 26
t7.5 27.5t7.5 39t9 46.5l160 964q0 9 -0.5 16t-4 13.5t-5 10t-8 10t-8.5 8l-12 9t-13 9.5q-41 27 -41 53q0 76 133 76h643h35q67 0 103.5 -0.5t102 -6t103.5 -16t87.5 -32.5t76 -53t45.5 -79.5t19 -111.5q0 -80 -35 -153.5t-94 -128.5t-129.5 -95t-147.5 -63l25 -43
q69 -120 102 -211.5t68 -243.5q7 -29 8.5 -36t8 -28t13 -29t18.5 -21t29 -23q37 -19 37 -55q0 -70 -121 -70h-442q-55 11 -55 57q0 23 11.5 37t28.5 22t34 16.5t28.5 28t11.5 50.5q0 42 -11 90.5t-34 105t-39 91.5t-47 96t-36 72zM766 1083l-51 -303q249 27 391 105
q79 42 127.5 118.5t48.5 165.5q0 56 -23 96.5t-63.5 62t-85.5 31t-98 9.5q-33 0 -60 -4t-47.5 -8.5t-37.5 -16.5t-28 -20.5t-21 -28t-15.5 -31.5t-11.5 -38.5t-8.5 -41t-8 -47t-8.5 -49.5z" />
    <glyph glyph-name="S" unicode="S" 
d="M719 -31q-221 0 -400 86q-96 42 -160.5 110.5t-64.5 160.5q0 70 41.5 118t108.5 48q34 0 58.5 -12.5t40 -39.5t23 -48t17.5 -58q31 -105 115 -154t204 -49q143 0 230 62q46 33 76 82t30 102q0 39 -18 71.5t-38 52t-63 39.5t-65 27.5t-71 22.5q-13 4 -19 6
q-51 16 -78 24.5t-75.5 26t-76.5 30.5t-68.5 35.5t-64.5 43.5t-51.5 51t-42.5 62.5t-25 73.5t-10 87q0 113 56 208.5t153 164.5q188 127 437 127q212 0 407 -86q84 -31 107 -60q18 -20 18 -69q0 -45 -7.5 -117t-19.5 -98q-23 -47 -73 -47q-33 0 -52 18.5t-27.5 48
t-16.5 65.5t-26.5 72t-49 65.5t-91.5 48t-147 18.5q-120 0 -197 -60q-35 -27 -58 -69t-23 -84q0 -50 26 -90t70.5 -68t102 -51.5t121 -45t126.5 -44.5t120.5 -54.5t102 -70.5t70.5 -96t26 -128q0 -106 -42.5 -198t-113 -157t-162.5 -112t-191.5 -69.5t-198.5 -22.5z" />
    <glyph glyph-name="T" unicode="T" horiz-adv-x="1351" 
d="M1079 1286l-174 -1081q0 -28 11 -42.5t40 -35.5q41 -25 41 -53q0 -40 -31.5 -57t-74.5 -17h-389q-24 0 -37.5 1t-32.5 6.5t-28 19.5t-9 36q0 20 11.5 32.5t35.5 27.5q65 46 82 84l181 1065q8 53 -2 67.5t-66 14.5q-66 0 -137 -23q-30 -11 -57 -29t-43 -32.5t-46 -44.5
q-4 -4 -17.5 -18t-19.5 -19t-17.5 -14t-23.5 -12t-26 -3q-57 0 -57 62q0 26 26 105t43 116q9 17 22 29t25 18t31.5 8.5t31 2.5t36 -0.5t34.5 -0.5h1028q87 0 97 -6q20 -11 20 -66l8 -145q0 -41 -24 -69.5t-64 -28.5q-27 0 -43.5 11.5t-33.5 37.5q-16 24 -24.5 36t-25 28.5
t-34.5 27.5q-52 29 -168 29q-65 0 -80 -19q-6 -10 -19 -49z" />
    <glyph glyph-name="U" unicode="U" horiz-adv-x="1638" 
d="M332 934l65 283q13 50 13 88q0 28 -12.5 45.5t-27.5 24t-27.5 20t-12.5 35.5q0 69 121 69h358q22 0 37 -1.5t35.5 -6.5t31.5 -18.5t11 -34.5q0 -25 -14 -39t-42 -29q-41 -24 -55 -41t-27 -61q-49 -157 -108.5 -445.5t-59.5 -414.5q0 -135 90 -210t230 -75q122 0 217 63.5
t150 175.5q22 46 43 139.5t28 143.5t21 152l24 225l17 223q0 58 -9 83t-49 54q-21 12 -29 22t-8 28q0 67 103 67h233q20 0 34 -1.5t30 -7t24.5 -19t8.5 -33.5q0 -22 -11.5 -35.5t-35.5 -26.5q-27 -15 -38 -23t-21.5 -23.5t-16.5 -41.5l-21 -139l-20 -188q-9 -95 -17.5 -168
t-25 -173t-41.5 -184.5t-58 -144.5q-45 -87 -106.5 -147t-149.5 -99q-162 -76 -360 -76q-97 0 -179.5 11.5t-164 42t-138 79t-91.5 127t-35 181.5q0 155 86 524z" />
    <glyph glyph-name="V" unicode="V" horiz-adv-x="1474" 
d="M887 281l278 462q40 78 81.5 164.5t90.5 206t49 160.5q0 49 -61 82q-20 10 -29 16t-17.5 19.5t-8.5 31.5q0 39 30.5 57.5t71.5 18.5h260q49 0 76 -13.5t27 -58.5q0 -25 -14.5 -41.5t-41.5 -33.5q-3 -2 -11.5 -7.5t-10 -6.5t-7 -5t-7.5 -6.5t-6 -7t-7.5 -9.5t-7.5 -12
l-61 -127l-379 -729l-230 -348q-28 -36 -36 -46t-29.5 -32t-36.5 -28t-41 -12.5t-59 -6.5q-38 0 -64.5 5.5t-44.5 14t-34 30.5t-26.5 41t-29.5 61q-84 184 -151.5 464t-92.5 513l-14 123q-1 8 -3 31.5t-3.5 35t-6.5 29.5t-14 30t-22 21q-21 13 -29 24t-8 33q0 74 123 74h362
q111 0 111 -63q0 -26 -15 -41t-36 -23t-42 -19t-36 -39.5t-15 -74.5q0 -181 70 -477q71 -313 158 -481z" />
    <glyph glyph-name="W" unicode="W" horiz-adv-x="2088" 
d="M1169 1499h326q1 0 20.5 0.5t26 0t24 -2t25 -5.5t18 -10.5t15 -17t4.5 -24.5q0 -16 -5.5 -28t-20 -22t-21 -13t-27.5 -13q-43 -21 -55 -59q-12 -39 -12 -142l33 -442q37 -247 92 -393q118 168 237 452q52 121 111 286t59 228q0 30 -17 49t-38 26.5t-38 22.5t-17 38
q0 22 9.5 37t27.5 21.5t34.5 8.5t38.5 2h242h26t22 -2.5t21.5 -8t12.5 -16t6 -26.5q0 -20 -12 -37t-22 -23.5t-34 -21.5q-31 -21 -43.5 -40t-23.5 -58l-334 -809l-135 -250q-97 -173 -146 -211q-39 -27 -133 -27q-67 0 -97.5 16.5t-55.5 73.5q-88 207 -146 693l-6 39
l-256 -525q-91 -165 -164 -248q-24 -30 -55.5 -39.5t-79.5 -9.5q-60 0 -92.5 14.5t-47.5 40.5t-32 85q-53 180 -81 426t-31 475l-9 272q-2 39 -9 54t-36 38q-2 1 -7 5t-6.5 5.5t-5.5 5t-5 5.5t-3 5.5t-3 6.5t-1.5 8t-0.5 10q0 74 114 74h357q24 0 39 -1t37 -6.5t33 -19.5
t11 -36q0 -47 -63 -70q-57 -23 -72 -68q-12 -40 -12 -186l80 -795q120 172 248.5 482.5t128.5 478.5q0 36 -9 55t-36 39q-29 17 -34 29q-5 10 -5 24q0 74 116 74z" />
    <glyph glyph-name="X" unicode="X" horiz-adv-x="1515" 
d="M973 938l284 334q17 31 17 49q0 22 -12 37t-27 21.5t-27 20.5t-12 34q0 19 11 33t29.5 20.5t36 9t36.5 2.5h258q22 0 36 -1.5t33 -6.5t29 -18.5t10 -34.5q0 -33 -45 -58q-51 -29 -74 -47l-491 -522l223 -348l121 -225q2 -4 10 -18t10.5 -18.5t9.5 -16t11 -16.5t11.5 -14
t14 -14.5t15 -12.5t18.5 -13q33 -22 33 -49q0 -66 -123 -66h-370q-76 0 -101 15q-24 15 -24 44q0 22 14 37.5t30 23t30 22.5t14 36q0 17 -9 43.5t-21.5 52.5t-35 63.5t-39 64t-44 67t-41 59.5t-38.5 54t-28 39q-84 -84 -208 -238t-124 -205q0 -19 11.5 -33t25.5 -22
t25.5 -23.5t11.5 -36.5q0 -34 -31.5 -48.5t-71.5 -14.5h-303q-90 0 -90 57q0 20 14.5 38t26.5 25t37 21q52 27 88 60l494 547l-326 565q-28 40 -53 55q-3 2 -12 7.5t-11.5 7.5t-9 7.5t-8.5 9.5t-4 11.5t-2 15.5q0 24 10.5 39.5t31 22t37.5 8.5t41 2h359h25.5t26 -1.5
t27.5 -5.5t21 -10t17.5 -17.5t5.5 -26.5q0 -24 -12.5 -39t-27.5 -21t-27.5 -18t-12.5 -29q0 -56 78 -188.5t137 -204.5z" />
    <glyph glyph-name="Y" unicode="Y" horiz-adv-x="1515" 
d="M1460 1499h223q20 0 33.5 -1.5t30.5 -6.5t26 -17.5t9 -31.5q0 -16 -9 -30.5t-16.5 -20.5t-27.5 -21q-33 -23 -84 -78l-578 -674l-61 -415q0 -32 20 -50t43.5 -23.5t43.5 -20t20 -41.5q0 -36 -26.5 -52t-64.5 -16h-528q-65 19 -65 61q0 45 75 72q22 7 32.5 10.5t24.5 13
t23 23.5q7 10 13 27t11 40t8 39t7.5 41.5t5.5 30.5l41 238l-178 295l-180 391q-23 55 -64 82q-38 22 -46 35q-9 13 -9 33q0 25 13 40t38 27h524q66 -11 66 -59q0 -35 -45 -60q-2 -1 -11 -6.5t-11.5 -7t-9.5 -6t-9.5 -6.5t-8 -7t-7.5 -8t-5.5 -8.5t-4.5 -10t-2 -11t-1 -13.5
q0 -69 88.5 -242t165.5 -294q40 41 104 112.5t142 163t132 172t54 113.5q0 21 -13 36t-28 22.5t-28 21t-13 31.5q0 23 10 38t30.5 20.5t35.5 7t41 1.5z" />
    <glyph glyph-name="Z" unicode="Z" horiz-adv-x="1269" 
d="M420 1499h1030q49 -7 49 -55q0 -40 -21 -90.5t-60.5 -107t-65 -89.5t-64.5 -80q-27 -30 -262.5 -291.5t-380.5 -428t-145 -183.5q0 -16 41 -16l377 16q80 12 125.5 34t113.5 77q14 13 17 16t16.5 13.5t20.5 14t19 7.5t23 4q27 0 44.5 -13t17.5 -38q0 -11 -15 -56
l-32 -108q-15 -52 -30 -77.5t-36 -35.5q-18 -9 -51 -12h-971q-24 0 -38 0.5t-37.5 4.5t-37 11.5t-24 23.5t-10.5 38q0 42 69 145.5t178 233t185.5 215.5t146.5 162q6 6 66 70t113.5 122t117 128.5t105 123.5t47.5 74q-358 -6 -416 -17q-71 -14 -113.5 -37t-91.5 -77
q-18 -21 -26 -29t-25.5 -16.5t-38.5 -8.5q-26 0 -41.5 15.5t-15.5 42.5q0 35 22 121.5t39 113.5q17 28 66 39z" />
    <glyph glyph-name="bracketleft" unicode="[" horiz-adv-x="696" 
d="M102 -121l256 1546q11 79 32.5 102t96.5 23h338q21 0 33 -1t29 -5.5t25 -16t8 -30.5q0 -9 -2.5 -16.5t-5.5 -13.5t-10 -12t-12 -9.5t-15 -8t-14.5 -6.5t-16.5 -5t-15.5 -4t-16 -4t-13.5 -3q-113 -30 -148 -67q-9 -10 -18 -29.5t-14.5 -37t-12 -46.5t-9 -43.5t-7.5 -44.5
t-6 -33l-191 -1192q0 -43 18 -71t44.5 -40t57.5 -21t57.5 -14.5t44.5 -20.5t18 -40q0 -28 -19 -46.5t-59 -18.5h-381h-26.5t-24 3t-24 8t-14.5 16.5t-7 27.5t5 51t11.5 76t7.5 47z" />
    <glyph glyph-name="backslash" unicode="\" horiz-adv-x="1351" 
d="M1044 0l-641 1550h148l641 -1550h-148z" />
    <glyph glyph-name="bracketright" unicode="]" horiz-adv-x="696" 
d="M805 1321l-256 -1546q-7 -43 -12.5 -62.5t-19 -36.5t-35.5 -21.5t-62 -4.5h-340q-20 0 -32 1t-29 5.5t-25 16t-8 30.5q0 12 4 22.5t13 18t17 13t22 10t22.5 7t24 6.5t20.5 5q113 31 145 68q41 43 68 233l176 1075q16 88 16 117q0 42 -18 70.5t-44.5 40t-57.5 21t-57.5 15
t-44.5 20.5t-18 40q0 16 5.5 28t18.5 19t22 11t29.5 5.5t26.5 1.5h27h330q17 0 26.5 -0.5t24.5 -3t23.5 -8t15 -16.5t6.5 -27q0 -39 -24 -174z" />
    <glyph glyph-name="asciicircum" unicode="^" horiz-adv-x="1351" 
d="M375 365h-191l518 1134h185l524 -1134h-194l-424 931z" />
    <glyph glyph-name="underscore" unicode="_" horiz-adv-x="1024" 
d="M0 -90h1024v-197h-1024v197z" />
    <glyph glyph-name="grave" unicode="`" horiz-adv-x="655" 
d="M592 1374l61 -170q23 -54 23 -71q0 -33 -51 -33q-17 0 -34.5 10t-26 18t-25.5 27l-195 199l-16 16t-22 26t-7 21q0 17 10 28t29 14.5t33.5 4.5t37.5 -0.5t27 -1.5h36.5t29 1t21 -1t17 -2.5t12.5 -7t11 -10.5t8.5 -16t10 -21.5t10.5 -30.5z" />
    <glyph glyph-name="a" unicode="a" horiz-adv-x="1310" 
d="M864 72l15 164q-61 -120 -157.5 -193.5t-219.5 -73.5q-83 0 -150 32t-110.5 86.5t-66.5 125.5t-23 152q0 120 49.5 236.5t131.5 204t195 141.5t234 54q78 0 144 -30t104 -92q50 46 109.5 84t103.5 38q27 0 46 -25.5t9 -66.5q-31 -121 -71 -337.5t-40 -299.5
q0 -39 20 -57.5t43.5 -21t43.5 -13.5t20 -37q0 -45 -83 -78q-4 -2 -12 -5l-7 -3q-179 -88 -244 -88q-40 0 -62 30t-22 73zM616 143q33 0 65.5 18t58.5 48.5t44.5 59.5t34.5 61q38 80 63 185.5t25 189.5q0 65 -30.5 108t-92.5 43q-54 0 -107 -45.5t-87 -101.5
q-46 -80 -75.5 -178t-29.5 -185q0 -35 6 -68t20 -64.5t41 -51t64 -19.5z" />
    <glyph glyph-name="b" unicode="b" horiz-adv-x="1310" 
d="M193 100l208 1170q0 30 -13 48t-28 24t-28 18.5t-13 32.5t10.5 36t30 27.5t34.5 17.5t38 13q59 18 148.5 40.5t109.5 22.5q80 0 80 -73l-121 -648q62 80 147.5 126t184.5 46q174 0 275.5 -118t101.5 -295q0 -112 -50.5 -228t-129.5 -198q-87 -91 -204.5 -142t-242.5 -51
q-81 0 -153.5 30.5t-116.5 90.5q-45 -43 -106 -82t-105 -39q-30 0 -49 19t-19 49q0 8 11 63zM852 811q-61 0 -117 -53t-90 -119t-59 -168t-25 -174q0 -81 36.5 -132.5t113.5 -51.5q68 0 127 52.5t94.5 129t55.5 155.5t20 140q0 42 -7 78t-23 70t-48.5 53.5t-77.5 19.5z" />
    <glyph glyph-name="c" unicode="c" horiz-adv-x="1105" 
d="M696 137q66 0 128 25t99 55t72 55t54 25q24 0 40.5 -15.5t16.5 -39.5q0 -41 -48.5 -89t-101.5 -83q-162 -101 -354 -101q-121 0 -222 48t-163.5 143t-62.5 219q0 125 54 241t142 199t206 132.5t241 49.5q164 0 272 -75q92 -66 92 -150q0 -55 -41 -90t-96 -35
q-44 0 -72 15t-37.5 37t-18 48.5t-15 48.5t-28.5 37t-58 15q-109 0 -203 -150q-42 -66 -65 -154.5t-23 -172.5q0 -101 48 -169.5t144 -68.5z" />
    <glyph glyph-name="d" unicode="d" 
d="M995 862l66 400q0 31 -9.5 47.5t-35.5 31.5q-39 20 -47 35q-6 10 -6 21q0 43 84.5 80.5t173 55t133.5 17.5q69 0 69 -61l-196 -1204q0 -35 14.5 -55t35 -26.5t40.5 -11.5t34.5 -16.5t14.5 -34.5q0 -10 -5 -20.5t-16 -19.5t-21 -16.5t-26 -15t-25 -12t-25 -11t-19 -7.5
q-167 -70 -221 -70q-22 0 -38 12.5t-23 33.5t-10 40.5t-3 40.5l14 197q-60 -145 -168.5 -234.5t-255.5 -89.5q-158 0 -265 115t-107 278q0 154 77.5 301t214.5 242.5t293 95.5q90 0 152 -33t106 -106zM655 145q65 0 116.5 51t88.5 123q37 73 59.5 170t22.5 179
q0 79 -32 130.5t-107 51.5q-103 0 -195 -135q-46 -70 -76 -166t-30 -178q0 -102 41 -160q18 -27 49.5 -46.5t62.5 -19.5z" />
    <glyph glyph-name="e" unicode="e" horiz-adv-x="1187" 
d="M502 373q3 -115 67.5 -176.5t180.5 -61.5q54 0 110.5 18.5t87.5 35.5t96 57q65 45 93 45q24 0 41.5 -15t17.5 -38q0 -27 -32.5 -62.5t-61.5 -56t-60 -39.5q-87 -52 -193 -81.5t-206 -29.5q-98 0 -185 26t-156 76.5t-109.5 132.5t-40.5 185q0 121 61 235.5t160 198.5
q202 178 483 178q160 0 266 -63q52 -31 85.5 -76t33.5 -100q0 -47 -19.5 -89.5t-49 -74.5t-78.5 -61t-92.5 -49t-108 -38.5t-108 -29t-108.5 -21.5t-94.5 -15t-80.5 -11zM504 512q43 3 96 12.5t114 29.5t110.5 47t82.5 68t33 89t-36 76t-85 28q-69 0 -141 -60.5t-118 -140.5
t-56 -149z" />
    <glyph glyph-name="f" unicode="f" horiz-adv-x="860" 
d="M739 977h54q8 0 31 1t36 1t32 -3.5t29.5 -10.5t18.5 -21.5t8 -36.5q0 -15 -3.5 -28t-7.5 -22t-13.5 -16t-16 -12t-20 -8t-21 -5t-24 -2.5t-23.5 -0.5h-24.5h-22.5h-55l-4 -29q-6 -36 -21.5 -135.5t-24.5 -154t-25 -137.5t-34 -152.5t-39 -132.5q-162 -471 -491 -471
q-70 0 -130.5 30.5t-60.5 92.5q0 52 35.5 89t87.5 37q67 0 99 -55q1 -2 3.5 -5.5t3 -5t2.5 -4.5t3 -3.5t3 -2.5t3.5 -3t4 -2t5 -1t6 -0.5t7.5 -0.5q9 0 17.5 3.5t16 10.5t13.5 14t12 18.5t9.5 19.5t8.5 21.5t7 20t5.5 19t4.5 14.5l63 323l86 582h-26q-5 0 -23 -0.5t-25.5 0
t-23 2t-23.5 5.5t-17 10.5t-13 17.5t-4 26q0 62 28 87q9 8 25.5 12t27 4.5t33 0t25.5 -0.5h39q12 64 25 118t34 114.5t46.5 108t62.5 92.5t81.5 74.5t104 47.5t129.5 18q50 0 101 -13t93 -48t42 -86q0 -49 -34.5 -81t-84.5 -32q-31 0 -54.5 13.5t-35 29.5t-27.5 29.5
t-33 13.5q-18 0 -34 -18t-28 -50t-21.5 -67t-17 -79t-12 -75.5t-9 -67t-5.5 -42.5z" />
    <glyph glyph-name="g" unicode="g" horiz-adv-x="1228" 
d="M1122 979l140 4q79 0 79 -63q0 -49 -35 -74t-87 -25h-60l-18 2q84 -87 84 -211q0 -150 -87.5 -284t-226.5 -187q99 -12 168.5 -64t69.5 -143q0 -86 -60 -153.5t-149 -106.5q-166 -73 -408 -73q-43 0 -93 3t-122.5 14t-128 28.5t-95.5 51.5t-40 79q0 76 74 132t154 56
q127 0 127 -45q0 -2 -11 -29q-18 -27 -18 -43q0 -24 23 -42t58 -26.5t64.5 -12t53.5 -3.5q114 0 186 43q86 52 86 125q0 58 -46 91.5t-108 33.5q-16 0 -49 -3t-49 -3q-93 0 -170.5 21.5t-138 64.5t-94 116t-33.5 169q0 111 51.5 224.5t134.5 191.5q85 80 197 121.5t233 41.5
q58 0 172 -11t172 -11zM629 184q63 0 105.5 42t80.5 112q82 152 82 328q0 49 -12 93t-46.5 78.5t-86.5 34.5q-65 0 -118.5 -55.5t-83.5 -136t-45.5 -158t-15.5 -135.5q0 -203 140 -203z" />
    <glyph glyph-name="h" unicode="h" 
d="M205 133l147 780q56 286 56 357q0 30 -13.5 48t-29.5 23t-29.5 17t-13.5 33q0 17 11 32.5t22 24.5t36 19.5t33.5 13t32.5 10.5q193 59 262 59q25 0 41 -15t16 -40t-37 -215l-100 -545q78 130 170 198t229 68q124 0 199 -69q37 -32 60.5 -83.5t23.5 -100.5l-76 -482
q0 -35 20 -53t43.5 -21t43.5 -13t20 -32q0 -13 -6.5 -24.5t-19.5 -22t-23.5 -18t-30 -15.5t-26 -11t-23.5 -9q-63 -27 -149.5 -52.5t-135.5 -25.5q-75 0 -75 109q0 34 6 77.5t17.5 106t13.5 76.5q59 315 59 352q0 57 -25 89t-73 32q-55 0 -104.5 -46t-83 -110.5t-62.5 -150
t-43.5 -146.5t-24.5 -118q-29 -188 -49 -217q-14 -20 -57 -23h-236q-33 11 -33 41q0 27 17 92z" />
    <glyph glyph-name="i" unicode="i" horiz-adv-x="696" 
d="M211 66l106 634q0 25 -11 40.5t-26.5 22t-31 11.5t-26.5 15.5t-11 29.5q0 21 14 39t40 32.5t41.5 21t41.5 16.5q54 25 131.5 49t122.5 24q76 0 76 -94q0 -25 -6 -65l-107 -588q0 -26 17.5 -40t38 -18t38 -17t17.5 -38q0 -13 -4.5 -24.5t-15.5 -21t-19.5 -16.5
t-26.5 -14.5t-25 -10.5t-27 -9.5t-21 -7.5q-49 -21 -127 -44.5t-117 -23.5q-40 0 -61 26.5t-21 70.5zM748 1296q0 -78 -69.5 -132t-150.5 -54q-68 0 -119 37.5t-51 103.5q0 83 69 139t153 56q73 0 120.5 -38.5t47.5 -111.5z" />
    <glyph glyph-name="j" unicode="j" horiz-adv-x="696" 
d="M303 346l37 236q12 93 12 100q0 39 -18 58.5t-39 21.5t-39 12.5t-18 34.5q0 13 7 26t15 21.5t25 19t25.5 15t28.5 14t23 10.5q64 28 147.5 57t123.5 29q37 0 55.5 -27t18.5 -65q0 -52 -25 -209l-88 -487q0 -1 -8.5 -48.5t-10.5 -56.5t-10.5 -52.5t-13 -59.5t-14.5 -51.5
t-18.5 -56t-20.5 -46.5t-25 -47q-63 -96 -164 -145t-223 -49q-34 0 -67.5 5t-68.5 17t-57 37.5t-22 60.5q0 50 39.5 86.5t91.5 36.5q31 0 53 -14t31 -30t22.5 -30t30.5 -14q38 0 58 66l57 254zM557 1110q-69 0 -119.5 37.5t-50.5 103.5q0 83 68.5 139t152.5 56
q73 0 121.5 -38t48.5 -110q0 -79 -69.5 -133.5t-151.5 -54.5z" />
    <glyph glyph-name="k" unicode="k" horiz-adv-x="1228" 
d="M913 735l-14 -20l117 -371q42 -108 71 -135q13 -14 29 -20t25 -6.5t35 -0.5t41 -3t27.5 -16.5t12.5 -39.5q0 -22 -13.5 -39t-27 -24.5t-38.5 -18.5q-56 -26 -132 -49t-124 -23q-59 0 -111.5 69.5t-84 167t-50 188.5t-19.5 147l-86 -74l-16 -64l-49 -243l-14 -82
q-7 -42 -21.5 -60t-54.5 -18h-203q-15 0 -26 13t-11 30q0 3 19 98l202 1135q0 26 -8 42t-19.5 22t-23 10.5t-19.5 12t-8 21.5q0 18 11.5 33t36.5 28t35 17.5t36 14.5q60 25 140 49t122 24q27 0 42.5 -16.5t15.5 -44.5q0 -18 -8.5 -63t-8.5 -48l-157 -782q48 62 119.5 130.5
t155 131t175 103t164.5 40.5q62 0 101.5 -30t39.5 -90t-47.5 -99t-109.5 -39q-40 0 -71 16t-48 32t-25 16q-33 0 -125 -72z" />
    <glyph glyph-name="l" unicode="l" horiz-adv-x="737" 
d="M215 59l209 1203q0 26 -14 42.5t-31 22.5t-31 18.5t-14 30.5q0 38 85.5 81t178 68t131.5 25q27 0 43 -14t16 -41l-215 -1206q0 -42 19 -64t41.5 -25t41.5 -13.5t19 -32.5q0 -9 -2.5 -17t-8.5 -15.5t-11 -13.5t-15.5 -12t-16 -9.5t-18.5 -9.5t-17 -7.5t-17.5 -7
t-14.5 -5.5q-215 -88 -294 -88q-34 0 -49 27t-15 63z" />
    <glyph glyph-name="m" unicode="m" horiz-adv-x="2007" 
d="M1907 582l-62 -314q0 -32 20 -49.5t44.5 -21.5t44.5 -16t20 -34q0 -13 -8.5 -25.5t-19 -21.5t-29 -19t-30 -14.5t-31 -12.5t-23.5 -9q-195 -76 -274 -76q-35 0 -54.5 26t-19.5 62q0 29 17 121t41 205t28 135q3 19 10.5 59t12.5 72.5t5 52.5q0 42 -20.5 73.5t-60.5 31.5
q-42 0 -82 -30t-70 -77.5t-50.5 -90t-35.5 -85.5l-106 -440q-8 -59 -39 -84h-254q-35 14 -35 49q0 26 12 74l55 268q45 244 45 299q0 50 -21 83.5t-67 33.5q-100 0 -194 -205q-64 -135 -107 -366l-26 -134q-14 -79 -39 -94q-9 -5 -39 -8h-227q-33 15 -33 47l69 371
q41 211 41 276q0 34 -16 53.5t-35 24t-35 15.5t-16 32q0 7 2 14t7 14t9 12.5t12.5 11.5t13 10t15 10l14 8t14 7.5t11.5 6.5q48 28 125 58t117 30q72 0 72 -145q0 -49 -23 -194q33 67 71 122.5t89.5 107t116.5 80.5t137 29q105 0 179.5 -60t74.5 -161q0 -26 -13 -102
q62 135 165 229t233 94q113 0 193.5 -66t80.5 -177q0 -48 -22 -176z" />
    <glyph glyph-name="n" unicode="n" 
d="M903 238l58 301q20 107 20 149q0 53 -25 87t-75 34q-40 0 -77.5 -22t-65.5 -56.5t-54 -84t-44 -96.5t-34 -102t-24.5 -93t-16.5 -76l-35 -183q-4 -21 -6 -30t-7 -25t-10.5 -22.5t-14.5 -12.5t-21 -6h-250q-42 0 -28 70l83 419q27 132 27 193q0 41 -17 62.5t-37 25
t-37 15.5t-17 38q0 42 98 83l6 3q188 92 252 92q31 0 50.5 -25t24.5 -52.5t5 -59.5q0 -66 -27 -172q172 309 422 309q117 0 204 -72t87 -192l-84 -473q0 -34 20 -51t43.5 -20t43.5 -14.5t20 -35.5q0 -11 -5.5 -21.5t-17 -20t-21 -16.5t-27.5 -15.5t-26.5 -12t-26 -10.5
t-19.5 -8q-62 -25 -140 -47.5t-127 -22.5q-39 0 -56 29t-17 72q0 35 26 168z" />
    <glyph glyph-name="o" unicode="o" horiz-adv-x="1310" 
d="M688 -31q-100 0 -193.5 28t-169.5 81t-121.5 138.5t-45.5 191.5q0 119 53 230.5t143 195.5q188 167 463 167q104 0 198.5 -29.5t170.5 -84.5t121 -143.5t45 -198.5q0 -117 -54.5 -226t-146.5 -188q-94 -78 -216 -120t-247 -42zM698 115q80 0 141.5 52.5t95 133.5
t50 162.5t16.5 154.5q0 101 -46 169.5t-142 68.5q-64 0 -117.5 -34.5t-87.5 -87.5t-57 -120.5t-33 -131t-10 -120.5q0 -106 45.5 -176.5t144.5 -70.5z" />
    <glyph glyph-name="p" unicode="p" horiz-adv-x="1351" 
d="M565 168l-33 -162q-28 -133 -28 -199q0 -29 10 -48.5t22.5 -28t22.5 -22t10 -32.5t-6.5 -32.5t-22 -21.5t-26.5 -12.5t-35 -6.5t-31.5 -2h-31.5h-144q-138 0 -172 10q-49 14 -49 55q0 29 15.5 44t46.5 28q23 10 34 23t19 36q14 38 45 209l82 449q31 183 31 225
q0 35 -11 52.5t-41 29.5q-2 1 -10.5 4.5t-11 4.5t-9.5 4.5t-9.5 5.5t-7 6.5t-6.5 8.5t-3.5 10t-1.5 13q0 10 4 19.5t12.5 17.5t16 14.5t20.5 13.5t20 10.5t21 9.5t17 7q183 90 249 90q47 0 64.5 -28t17.5 -78q0 -74 -30 -188q37 58 63 94t66 78.5t78.5 66t92 39.5t115.5 16
q169 0 265 -111t96 -292q0 -89 -31 -180.5t-88 -171t-130.5 -142.5t-165 -99t-185.5 -36q-28 0 -56.5 4.5t-60 14.5t-51 32t-19.5 52q0 26 13.5 50.5t38.5 24.5q10 0 30.5 -2t30.5 -2q55 0 101.5 32.5t95.5 86.5q65 70 98 158q29 96 29 182q0 50 -11 90.5t-43 70.5t-82 30
q-47 0 -89.5 -26.5t-74 -66.5t-60 -99.5t-47 -113.5t-36 -121t-26 -108.5t-17.5 -89.5z" />
    <glyph glyph-name="q" unicode="q" horiz-adv-x="1310" 
d="M1339 858l-96 -436l-72 -381q-32 -170 -32 -213q0 -26 10 -43t22.5 -24t22.5 -21t10 -33q0 -25 -11.5 -42t-25.5 -25t-41 -12t-40 -4.5t-42 -0.5h-167q-142 0 -168 8q-47 10 -47 54q0 50 55 71q40 17 56.5 30.5t27.5 47.5q12 30 37 160l34 203q-120 -228 -358 -228
q-164 0 -266.5 109.5t-102.5 271.5q6 130 60 255t135 210q86 89 201 137.5t241 48.5q87 0 165 -30.5t122 -93.5q39 43 105 80.5t116 37.5q26 0 46 -13.5t20 -37.5q0 -21 -17 -86zM653 170q58 0 110 39.5t86.5 99.5t60 132.5t37 138.5t11.5 116q0 71 -36.5 117.5t-108.5 46.5
q-64 0 -123.5 -47t-95.5 -111q-39 -65 -64.5 -158.5t-25.5 -170.5q0 -38 7 -72t23 -64.5t46.5 -48.5t72.5 -18z" />
    <glyph glyph-name="r" unicode="r" horiz-adv-x="942" 
d="M465 0h-150q-4 0 -19.5 -0.5t-22.5 0t-19.5 2.5t-18.5 6.5t-11 13t-5 21.5l107 623q0 28 -2.5 42.5t-13.5 29t-34 24.5q-2 1 -8.5 4t-9 4.5t-8.5 4.5t-8 4.5t-7 5t-7 6.5t-5 7t-4.5 8t-2.5 9t-1 10q0 44 102 90l252 86q78 0 78 -133q0 -41 -24 -192q19 48 40 90.5t53 87
t67.5 76t82.5 51.5t99 20q61 0 91.5 -35.5t30.5 -97.5q0 -45 -13 -91t-45.5 -83t-78.5 -37q-34 0 -56.5 15.5t-31.5 34t-24 34t-35 15.5q-125 0 -246 -639q-3 -12 -6.5 -35t-5.5 -31t-7.5 -21t-14 -17.5t-23 -8.5t-35.5 -4z" />
    <glyph glyph-name="s" unicode="s" horiz-adv-x="1064" 
d="M561 -31q-168 0 -291 60q-63 29 -108 76.5t-45 107.5q0 52 36 87.5t87 35.5q30 0 51.5 -9.5t35.5 -29.5t21.5 -38.5t16.5 -49.5q18 -59 55.5 -81t103.5 -22q74 0 130.5 35.5t56.5 104.5q0 34 -26.5 60.5t-69 45t-93.5 36t-102 40.5t-93.5 52t-69 76t-26.5 108
q0 72 40.5 139t103.5 108q137 90 325 90q170 0 279 -65q113 -68 113 -156q0 -46 -33.5 -75t-79.5 -29t-72 20t-36.5 48t-22.5 56t-43.5 48t-85.5 20q-59 0 -105.5 -30.5t-46.5 -87.5q0 -40 37 -70.5t92 -48.5t120 -43.5t120 -53.5t92 -80.5t37 -123.5q0 -80 -44.5 -149.5
t-115.5 -114.5q-146 -97 -344 -97z" />
    <glyph glyph-name="t" unicode="t" horiz-adv-x="860" 
d="M721 985v-8h51q7 0 31 1t37 0.5t33.5 -4t31.5 -10.5t20 -21.5t9 -35.5q0 -17 -3 -31t-11 -23.5t-15 -17t-21 -11.5t-23 -6.5t-27 -3.5t-26 -1.5t-28 0t-26 0.5h-66l-88 -471q-12 -69 -12 -82q0 -57 53 -57q33 0 87 24.5t69 24.5q27 0 41 -19.5t14 -48.5q0 -12 -4 -23
t-13 -21t-17.5 -18t-23.5 -16t-25 -13t-27.5 -11.5t-25 -9.5t-24.5 -8.5t-20 -6.5q-261 -88 -355 -88q-39 0 -61.5 31.5t-22.5 73.5q0 26 7 70.5t21.5 119.5t14.5 76l95 473h-25q-69 0 -90 9q-34 17 -35 59q0 24 8.5 41t18 26t32 15.5t32.5 8t38 5.5q69 8 104 43.5t62 107.5
q4 11 12.5 36.5t13.5 38.5t14.5 34t20 32t25.5 23.5t35.5 17.5t46.5 5q23 0 38.5 -2.5t29.5 -14.5t14 -34q0 -28 -18 -121z" />
    <glyph glyph-name="u" unicode="u" 
d="M266 397l37 193q14 68 14 104q0 33 -16.5 52t-36.5 23.5t-36.5 16t-16.5 31.5q0 53 98 90q227 94 295 94q27 0 44 -19t22.5 -42.5t5.5 -50.5q0 -32 -9 -86t-23.5 -122t-18.5 -91l-33 -178q-2 -12 -8 -42.5t-9.5 -55t-3.5 -40.5q0 -46 27.5 -74t71.5 -28q58 0 109.5 51
t86 123t63.5 166t44 162t24 129q1 3 4.5 26.5t7 40t8.5 39t11.5 38t13.5 22.5q7 8 20 12t21.5 4.5t28.5 0t23 -0.5h141q3 0 18 0.5t22.5 0t18.5 -3t16 -10.5t5 -20q0 -7 -17 -92l-69 -373q-2 -15 -10 -60t-12.5 -79t-4.5 -55q0 -37 21 -57.5t45.5 -25.5t45.5 -17.5t21 -34.5
q0 -25 -26 -47q-27 -22 -181 -82l-106 -41q-4 -1 -19.5 -7.5t-26 -9t-22.5 -2.5q-75 0 -75 144l10 133l2 35q-63 -135 -168 -223.5t-238 -88.5q-114 0 -199 68t-85 180q0 21 2.5 47t5.5 42.5t8.5 47.5t7.5 43z" />
    <glyph glyph-name="v" unicode="v" horiz-adv-x="1187" 
d="M291 551l16 84q6 60 6 65q0 32 -16 49.5t-35 21.5t-35 14.5t-16 31.5q0 10 2.5 18.5t8.5 16.5t11.5 14.5t16 13t16.5 10.5t18.5 10t18 8.5t18 7.5t15.5 6q193 79 258 79q47 0 63.5 -25t16.5 -75q0 -28 -3.5 -63t-7 -54.5t-12 -65t-10.5 -56.5l-20 -103q-3 -16 -17 -84.5
t-21.5 -117.5t-7.5 -83q0 -57 31 -89.5t86 -32.5q70 0 134.5 46t107 115t67.5 146.5t25 142.5q0 35 -14.5 59.5t-36 40t-42.5 31.5t-35.5 44t-14.5 67q0 62 42.5 109.5t102.5 47.5q50 0 86 -27t54 -71.5t26 -90t8 -93.5q0 -122 -42 -252.5t-113 -230.5
q-79 -116 -201.5 -191.5t-253.5 -75.5q-60 0 -120 15t-114.5 44t-88 80t-33.5 115q0 63 16 129z" />
    <glyph glyph-name="w" unicode="w" horiz-adv-x="1720" 
d="M272 473l37 229q0 32 -15.5 50t-33.5 23t-33.5 16.5t-15.5 31.5q0 11 3.5 20.5t12.5 17.5t15.5 14t20.5 13.5t20 10t21.5 9t17.5 7.5q194 86 258 86q92 0 92 -102q0 -23 -4.5 -58t-9 -61t-13 -68t-10.5 -55l-39 -190q-1 -5 -9 -53t-12 -78.5t-4 -54.5q0 -45 19.5 -78
t62.5 -33q37 0 73 28.5t63.5 75t45 85t31.5 77.5q37 110 58.5 213.5t46.5 263.5q3 18 7 30.5t13 20.5t14 12.5t20 6.5t20.5 2.5t26.5 0t28 -0.5h94h15h18t17 -1.5t18 -4t15 -8t13 -13t7 -19t3 -26.5l-45 -239l-47 -383q0 -53 27.5 -90t77.5 -37q58 0 110 48.5t85 118.5
t52 141.5t19 123.5q0 30 -10 52.5t-24.5 35.5t-32 28.5t-32 29.5t-24.5 40t-10 60q0 61 36.5 110t96.5 49q47 0 80 -30.5t48.5 -80t21.5 -94t6 -89.5q0 -111 -38 -232.5t-100 -224.5q-158 -281 -413 -281q-74 0 -139 27.5t-108.5 85t-43.5 133.5q0 51 14 119
q-26 -71 -62.5 -132t-86 -115.5t-115 -86t-139.5 -31.5q-46 0 -99.5 20t-91.5 50q-80 65 -80 174q0 59 39 260z" />
    <glyph glyph-name="x" unicode="x" horiz-adv-x="1187" 
d="M821 545l170 -273q34 -45 60 -63.5t73 -18.5q18 -1 27 -2.5t22 -6t19 -15t6 -27.5q0 -46 -68 -87.5t-144 -62t-120 -20.5q-46 0 -78 23q-43 31 -108 153l-115 195q-23 -37 -39 -62t-46 -67.5t-54.5 -71.5t-58.5 -64t-65 -56t-68 -35.5t-72 -14.5q-51 0 -85 32t-34 83
q0 60 45 94.5t105 34.5q13 0 35.5 -3t35.5 -3q33 0 72 39q17 18 39 46t35.5 47.5t38.5 56.5t32 46l11 15l-43 80l-105 182q-20 27 -36.5 34.5t-55.5 12.5q-57 8 -57 49q0 39 72.5 84.5t154 73.5t119.5 28q37 0 61 -38q27 -38 72 -140l74 -149q38 58 78 108.5t94 103.5
t116.5 84t124.5 31q58 0 97.5 -30t39.5 -86q0 -51 -37.5 -83t-89.5 -32q-28 0 -63 14q-5 1 -14 4.5t-16.5 5t-14.5 1.5q-74 0 -242 -250z" />
    <glyph glyph-name="y" unicode="y" horiz-adv-x="1146" 
d="M606 915l-18 -352q0 -39 1.5 -77t10 -99t23 -105t44 -77t68.5 -33q45 0 97 56.5t90.5 133t64 153t25.5 118.5q0 33 -7 51t-30 45q-31 35 -45.5 61t-14.5 64q0 58 41.5 102.5t100.5 44.5q40 0 70 -18t45.5 -48t22.5 -63.5t7 -70.5q0 -159 -84 -358.5t-196 -360.5
q-39 -56 -89 -116.5t-117.5 -127t-135 -118t-143 -85.5t-140.5 -34t-114.5 31t-49.5 92q0 49 38.5 78.5t90.5 29.5q34 0 75.5 -23.5t61.5 -23.5q63 0 178.5 103t153.5 175q-38 -32 -56 -46t-51.5 -31t-60.5 -17q-85 0 -150 47t-98 127q-21 48 -31.5 124t-12 126t-1.5 133
l4 189q0 22 -1 32t-5 22t-14.5 19t-28.5 13q-41 16 -50 28q-9 11 -9 29q0 13 8 25t16.5 19.5t26 16t25 11t24.5 8.5q226 63 262 63q78 0 78 -86z" />
    <glyph glyph-name="z" unicode="z" horiz-adv-x="1024" 
d="M479 133h117h21h24.5t23.5 0.5t26 1.5t23 3t24 5t20 7q13 6 21.5 14t13.5 20t7 21.5t5 25.5q8 49 41.5 85t81.5 36q45 0 73.5 -31.5t28.5 -78.5q0 -45 -25 -92.5t-61 -77.5q-86 -72 -244 -72h-534q-86 0 -86 63q0 12 4 26.5t13.5 31.5t18.5 32.5t24 36t25 34.5t27.5 35
t25.5 30t24 28t18 21l438 514h-168q-39 -4 -49 -8q-40 -12 -47 -66q-8 -57 -38 -93t-85 -36q-42 0 -71 32.5t-29 74.5q0 90 76 162q42 39 94 53t121 14h485q33 0 54 -3t41 -19.5t20 -47.5q0 -34 -29 -79q-42 -61 -151 -179z" />
    <glyph glyph-name="braceleft" unicode="{" horiz-adv-x="696" 
d="M88 -55l72 417q12 46 10.5 87.5t-25.5 78.5q-36 59 -108 78q56 6 115 51q33 23 53 57.5t25.5 58.5t15.5 77l63 369q14 84 36.5 147t70.5 107q45 39 105.5 57t123 18h139.5q-127 -56 -161 -250l-70 -391q-11 -65 -25.5 -109.5t-40 -86t-67 -67t-101.5 -38.5
q103 -28 129.5 -94t4.5 -190l-74 -420q-17 -102 1 -161t75 -91h-52.5h-51t-42.5 1t-42.5 3t-35 6t-36.5 10t-30.5 14.5t-31.5 20.5q-26 20 -40 46.5t-15.5 60.5t1 61.5t9.5 71.5z" />
    <glyph glyph-name="bar" unicode="|" horiz-adv-x="1351" 
d="M852 0v1550h141v-1550h-141z" />
    <glyph glyph-name="braceright" unicode="}" horiz-adv-x="696" 
d="M227 -98l74 420q22 125 70.5 190.5t160.5 93.5q-73 17 -107.5 58.5t-35.5 102t12 140.5l70 391q34 194 -76 250h139.5t117 -18t83.5 -57q24 -31 30.5 -79t3 -82.5t-12.5 -92.5l-64 -369q-10 -53 -12.5 -77t5 -58.5t32.5 -57.5q46 -46 98 -51q-78 -19 -137 -78
q-35 -37 -48 -71.5t-24 -94.5l-71 -417q-14 -86 -40.5 -143.5t-86.5 -96.5q-19 -12 -39.5 -20.5t-36 -14.5t-40 -10t-37.5 -6t-43.5 -3t-42.5 -1h-50.5h-52.5q69 32 106.5 90.5t54.5 161.5z" />
    <glyph glyph-name="asciitilde" unicode="~" horiz-adv-x="1351" 
d="M1257 778l152 -96q-3 -5 -10 -14q-34 -47 -52 -71t-53 -61.5t-64.5 -56t-72.5 -33t-90 -14.5q-37 0 -76 8t-64.5 17t-70.5 26l-108 41q-10 3 -41 14.5t-48.5 17.5t-43.5 11.5t-46 5.5q-23 0 -42.5 -4.5t-38 -17.5t-30 -21t-28.5 -31.5t-23 -30.5t-24 -37t-21 -34
l-151 101q36 58 67 98t75 81t97 62t115 21q76 0 175.5 -35.5t188 -71t138.5 -35.5q17 0 33 4.5t28.5 10.5t27.5 19t23.5 21t22.5 26t19 25.5l19 28.5t17 25z" />
    <glyph glyph-name="exclamdown" unicode="&#xa1;" horiz-adv-x="778" 
d="M168 -283l233 760q8 28 15 44.5t19 34.5t31 26t46 8q45 0 63.5 -22.5t18.5 -69.5l-6 -160l-10 -545q0 -183 -17 -237q-15 -47 -46.5 -73.5t-67 -34t-87.5 -7.5q-33 0 -90.5 6t-81.5 14q-57 20 -57 84q0 48 37 172zM596 1001q56 0 100.5 -30.5t44.5 -83.5
q0 -80 -74 -138.5t-155 -58.5q-55 0 -99 29.5t-44 81.5q0 80 73 140t154 60z" />
    <glyph glyph-name="cent" unicode="&#xa2;" horiz-adv-x="1351" 
d="M879 264l-23 -143q-12 -68 -24 -87q-21 -34 -78 -34q-64 0 -64 51l33 213q-165 18 -270 118t-105 263q0 147 74.5 277.5t197.5 215t267 105.5l22 133q1 4 3.5 18.5t3.5 19t4 17.5t5.5 18t7 15t9 14t11.5 10.5t14.5 9.5t18 5t22.5 2q34 0 50.5 -12.5t16.5 -44.5l-31 -197
q42 -4 88.5 -16.5t95 -34t80 -57.5t31.5 -80q0 -56 -43 -89.5t-100 -33.5q-43 0 -70 18t-40.5 44t-26.5 52t-38 44t-65 18q-103 0 -188 -137q-39 -67 -61.5 -152.5t-22.5 -164.5q0 -108 51 -179t154 -71q63 0 121 20.5t91.5 45t66 45t51.5 20.5q23 0 38 -16t15 -38
q0 -49 -109 -127q-125 -82 -284 -98z" />
    <glyph glyph-name="sterling" unicode="&#xa3;" 
d="M791 799h296q3 0 17.5 0.5t20.5 0t19 -1.5t20 -4.5t15 -8.5t11.5 -13.5t3.5 -19.5q0 -40 -27 -64q-7 -5 -15 -8.5t-19.5 -4.5t-18 -1.5t-21 0t-16.5 0.5h-297q-13 -257 -286 -500l4 -4l14 8q60 27 96.5 42t91 28.5t103.5 13.5q53 0 162 -30.5t155 -30.5q63 0 119 67
q2 2 11.5 14t13.5 15t13.5 7.5t20.5 4.5q21 0 35.5 -12.5t14.5 -32.5q0 -29 -29.5 -81.5t-56.5 -88.5q-51 -68 -103 -96.5t-133 -28.5q-72 0 -213 36t-213 36q-130 0 -260 -53q-3 -1 -16.5 -6.5t-25 -9t-17.5 -3.5q-12 0 -23 9t-16.5 16.5t-15 24.5t-9.5 18q-18 31 -18 43
q0 26 41 57q105 94 165 227.5t60 272.5l-2 37h-41q-7 0 -24.5 -0.5t-27 -1t-24 2t-22 8t-13.5 16t-6 26.5q0 26 9.5 42.5t29.5 22.5t34.5 7.5t41.5 1.5h41l-15 229q0 168 71.5 282t195.5 167t293 53q176 0 286 -70q54 -35 85.5 -87t31.5 -113q0 -63 -35 -100.5t-100 -37.5
q-52 0 -90.5 24.5t-38.5 74.5q0 10 1 29.5t1 29.5q0 57 -40.5 87t-100.5 30q-51 0 -98.5 -24.5t-76.5 -67.5q-53 -74 -53 -224l4 -108z" />
    <glyph glyph-name="currency" unicode="&#xa4;" 
d="M1139 1180l98 100q3 3 9.5 10t10 10.5t10 8.5t11 7.5t11.5 4.5t14 2q22 0 41.5 -20.5t19.5 -42.5t-25 -43l-116 -119q72 -100 99.5 -173t27.5 -186q0 -182 -109 -315l100 -100q41 -36 41 -62q0 -23 -22.5 -46t-44.5 -23q-26 0 -64 43l-100 98q-71 -54 -160 -86.5
t-176 -32.5q-179 0 -332 115l-108 -109q-3 -3 -13.5 -13t-16 -14.5t-15.5 -9t-19 -4.5q-22 0 -41.5 20t-19.5 42q0 8 2 15.5t7.5 14.5t9 11t11.5 11.5t11 10.5l108 109q-125 149 -125 358q0 185 109 309l-100 101q-3 4 -12.5 13t-14.5 14.5t-9.5 15.5t-4.5 20q0 23 20 42.5
t43 19.5q25 0 88.5 -68.5t71.5 -73.5q130 127 338 127q88 0 176.5 -29.5t159.5 -82.5zM1161 754q1 148 -104.5 250t-253.5 102q-143 0 -242.5 -106.5t-99.5 -249.5q0 -146 103.5 -247.5t248.5 -101.5q144 0 247 105t101 248z" />
    <glyph glyph-name="yen" unicode="&#xa5;" 
d="M973 528l-41 -229q-12 -62 -12 -90q0 -27 13.5 -43.5t33 -24t38.5 -15t32.5 -22t13.5 -38.5q0 -66 -115 -66h-444q-21 0 -36.5 2t-34 7.5t-28.5 19t-10 34.5q0 16 5 28t10 19t19.5 14t20.5 9t27 8q65 18 86 66q11 32 33 145l30 176h-299h-25.5t-24 1.5t-26 5t-18 10
t-16 17.5t-4.5 26q0 13 4 24t9.5 17.5t17 11.5t18.5 7.5t22.5 3.5t22 1h23.5h20h260l-74 170h-211q-23 0 -34.5 1t-30.5 5.5t-28 16.5t-9 31q0 17 5 30t16.5 20.5t22 12t28.5 6t28 2t29 0.5h6h129l-55 150l-49 143q-17 48 -32 71t-52 46q-21 12 -30 18.5t-18.5 22t-9.5 35.5
q0 65 95 65h471q32 0 53.5 -13.5t21.5 -41.5q0 -15 -10 -30.5t-17 -21t-26 -20.5q-37 -24 -47 -38t-10 -54q0 -39 20 -113l107 -346l18 -51q9 11 67 84.5t94.5 123.5t85 121.5t74 128t25.5 93.5q0 21 -13.5 36.5t-29.5 23t-29.5 22.5t-13.5 35q0 17 8.5 29.5t19 18.5t30 9
t30.5 3.5t31 0.5h254q70 0 70 -49q0 -14 -7 -27.5t-13 -19.5t-23 -20t-21 -17q-54 -42 -75 -67.5t-60 -92.5l-160 -258h117q67 0 87 -12q22 -13 22 -41q0 -35 -27 -55q-17 -17 -92 -17h-203l-139 -170h241q7 0 22.5 0.5t26 0.5t25.5 -1t24.5 -4.5t19 -9.5t14 -17t4.5 -26
q0 -20 -8 -34t-17.5 -20.5t-29.5 -9.5t-29.5 -3.5t-32.5 -0.5h-301z" />
    <glyph glyph-name="brokenbar" unicode="&#xa6;" horiz-adv-x="1351" 
d="M852 0v582h141v-582h-141zM852 969v581h141v-581h-141z" />
    <glyph glyph-name="section" unicode="&#xa7;" 
d="M1212 256q45 -56 65.5 -102t20.5 -109q0 -101 -64 -200.5t-155 -166.5q-87 -66 -206.5 -102.5t-233.5 -36.5q-105 0 -231 28.5t-197 78.5q-22 16 -30 32.5t-15 47.5q-23 117 -23 211q0 102 78 102q21 0 37 -15.5t22.5 -29.5t14.5 -39q43 -123 92 -174q42 -44 109.5 -68
t134.5 -24q122 0 209 61q45 30 76.5 76.5t31.5 95.5q0 29 -9 54.5t-22.5 44t-36.5 35.5t-43 28t-51 22.5t-50.5 18t-52 16t-46.5 13.5q-196 58 -281 108q-145 80 -145 238q0 105 61.5 195.5t159.5 158.5q-96 106 -96 213q0 90 55 176.5t137 151.5q83 65 191 100t217 35
q102 0 211 -24t194 -68q14 -7 24.5 -13.5t18 -14.5t13 -12.5t9 -15.5t5.5 -14.5t3 -19t1 -19v-24.5v-27q0 -4 0.5 -30t0 -39t-2.5 -38.5t-7.5 -40t-13.5 -31.5t-23 -24.5t-34 -7.5q-25 0 -43.5 19.5t-25.5 40t-15 50.5q-1 6 -2 9q-32 100 -104.5 152.5t-179.5 52.5
q-59 0 -122.5 -24t-112 -73t-48.5 -110q0 -74 66 -119q62 -43 243 -102q152 -49 188 -64q156 -66 200 -174q20 -49 20 -111q0 -97 -50 -181t-137 -177zM584 768q-78 -86 -78 -147q0 -24 7 -44t23 -35t30.5 -26t40.5 -21t41 -15t44 -13.5t39 -11.5q7 -2 36 -10t38.5 -11
t35.5 -10.5t38.5 -11.5t35.5 -11t37.5 -13t34 -13.5t36.5 -15.5t34 -17q71 83 71 150q0 72 -90 116q-62 27 -198 64q-177 50 -256 96z" />
    <glyph glyph-name="dieresis" unicode="&#xa8;" horiz-adv-x="1064" 
d="M483 1149q-68 0 -107.5 35t-39.5 104q0 66 50.5 112t117.5 46q66 0 109.5 -31t43.5 -94q0 -75 -49.5 -123.5t-124.5 -48.5zM983 1149q-69 0 -109 35t-40 102q0 68 50 114t117 46q66 0 110 -31t44 -94q0 -75 -49 -123.5t-123 -48.5z" />
    <glyph glyph-name="copyright" unicode="&#xa9;" horiz-adv-x="1720" 
d="M201 750q0 158 62 302.5t166.5 249t249 166.5t302.5 62q159 0 304 -62t249.5 -166.5t166.5 -249t62 -302.5t-62 -303t-166.5 -249.5t-249.5 -166.5t-304 -62q-158 0 -302.5 62t-249 166.5t-166.5 249.5t-62 303zM295 750q0 -140 54.5 -267t146.5 -219t219 -146.5
t266 -54.5q186 0 344.5 92t251 250.5t92.5 344.5q0 140 -54.5 267t-147 218.5t-219.5 146t-267 54.5q-139 0 -266 -54.5t-219 -146t-146.5 -218.5t-54.5 -267zM1249 494q14 20 20 28t20.5 16.5t31.5 8.5q22 0 38.5 -17.5t16.5 -40.5q0 -46 -53 -104q-118 -135 -319 -135
q-140 0 -245 72t-157.5 186.5t-52.5 251.5q0 128 53.5 242.5t156.5 189t232 74.5q77 0 165 -25.5t142 -69.5q8 -6 14.5 -17t10 -20.5t5.5 -26t2.5 -24t1.5 -25.5t1 -20q1 -23 2.5 -45.5t-11.5 -39.5t-42 -17q-23 0 -39.5 22.5t-31.5 54t-37.5 63.5t-69.5 54.5t-115 22.5
q-75 0 -130 -37.5t-83.5 -99.5t-41.5 -127t-13 -135q0 -72 17.5 -138t52.5 -122t94 -89.5t135 -33.5q81 0 132.5 28.5t96.5 94.5z" />
    <glyph glyph-name="ordfeminine" unicode="&#xaa;" horiz-adv-x="901" 
d="M817 1454q28 26 64.5 49t62.5 23q14 0 25.5 -9.5t11.5 -23.5q0 -8 -4 -20q-18 -75 -42 -202.5t-24 -174.5q0 -24 12 -36t26 -13t26 -8t12 -23q0 -29 -87 -65t-124 -36q-24 0 -35.5 19.5t-11.5 44.5q0 15 10 92q-38 -70 -96.5 -114t-130.5 -44q-99 0 -155 68.5t-56 169.5
q0 96 50 183.5t136 141.5t183 54q44 0 83.5 -19.5t63.5 -56.5zM582 1018q40 0 75 39.5t55.5 95t32 109.5t11.5 90q0 39 -18.5 64.5t-57.5 25.5q-50 0 -102 -70q-32 -44 -54 -111t-22 -122q0 -47 18.5 -84t61.5 -37zM768 618h-408q-4 0 -28.5 -0.5t-33.5 0t-28.5 4t-27.5 11
t-15.5 21.5t-7.5 34q0 19 4 32.5t13.5 22t17.5 13.5t24.5 6.5t25 2t29 0t27.5 -0.5h420q5 0 29 0.5t33.5 0t28.5 -3.5t27.5 -10t16 -20.5t7.5 -32.5q0 -18 -4 -31t-10 -22t-17 -14.5t-20 -8.5t-24.5 -4t-25.5 -1t-27.5 0.5t-25.5 0.5z" />
    <glyph glyph-name="guillemotleft" unicode="&#xab;" horiz-adv-x="942" 
d="M668 692l114 113q1 1 13.5 14t16.5 16.5t16 14.5t19 15t18 10.5t20.5 9t19.5 2.5q23 0 38 -12.5t15 -34.5q0 -6 -1 -12.5t-3.5 -13.5t-5 -12.5t-7 -13t-7 -11.5t-8.5 -12t-8 -11t-9 -11.5t-8 -9.5q-53 -64 -108 -168q-17 -38 -17 -73q0 -55 32 -155t32 -126t-15.5 -43.5
t-40.5 -17.5q-23 0 -47 28q-17 20 -60 90.5t-46 75.5l-49 88q-2 4 -11 20t-14.5 26.5t-10.5 24.5t-5 23q0 39 127 166zM285 692l112 113q1 1 20 19.5t26 24t23 17.5t29.5 16.5t26.5 4.5q23 0 37 -12t14 -35q0 -38 -55 -107q-53 -64 -108 -168q-17 -33 -17 -73q0 -55 32 -155
t32 -126t-15.5 -43.5t-40.5 -17.5q-21 0 -49 28q-13 15 -32 44.5t-43 71.5t-29 50q-3 6 -21 36.5t-31.5 54.5t-25.5 51.5t-12 41.5q0 37 127 164z" />
    <glyph glyph-name="logicalnot" unicode="&#xac;" horiz-adv-x="1351" 
d="M1182 203v452h-899v195h1093v-647h-194z" />
    <glyph glyph-name="registered" unicode="&#xae;" horiz-adv-x="1720" 
d="M203 750q0 158 62 302.5t166.5 249t249 166.5t302.5 62q159 0 304 -62t249.5 -166.5t166.5 -249t62 -302.5t-62 -303t-166.5 -249.5t-249.5 -166.5t-304 -62q-158 0 -302.5 62t-249 166.5t-166.5 249.5t-62 303zM297 750q0 -140 54.5 -267t146.5 -219t219 -146.5
t266 -54.5q186 0 344.5 92t251 250.5t92.5 344.5q0 140 -54.5 267t-147 218.5t-219.5 146t-267 54.5q-139 0 -266 -54.5t-219 -146t-146.5 -218.5t-54.5 -267zM1014 709l-209 -43v-217q0 -8 -0.5 -18.5t-1 -16t1 -12t4.5 -10t9.5 -7.5t17.5 -6q19 -5 29 -9.5t18 -16t8 -29.5
q0 -17 -7.5 -28t-22 -15.5t-25.5 -5.5t-29 -1h-143h-26t-22.5 2.5t-22 7.5t-12 16.5t-6.5 27.5q0 36 46 47q25 8 28 12v735q-2 8 -22 13q-19 7 -27 10.5t-16.5 14.5t-8.5 26q0 10 1.5 17.5t5.5 13t7 9.5t10.5 6.5t11 4t13 2t13 0.5h14.5h13h383q144 0 213 -53
q42 -30 69 -78.5t27 -99.5q0 -83 -56 -149t-141 -107q68 -83 106 -144t70 -147q3 -8 8.5 -23.5t8 -21t8.5 -15t14 -15.5t21 -13q2 -2 10.5 -6.5t10.5 -6t7.5 -6t7 -8t3.5 -9.5t2 -13q0 -18 -7 -29t-22 -15t-25 -5t-30 -1h-142q-20 0 -30 1t-25 5t-22 15t-7 29
q0 19 10.5 29.5t22.5 13t22.5 9.5t10.5 19q0 61 -61 159.5t-117 154.5zM803 969v-189q395 59 395 221q0 28 -10 50.5t-24 37t-38 24.5t-44 15t-50.5 7.5t-47.5 3t-46 0.5h-45.5t-34 -3.5t-25 -5t-16 -11t-10 -14t-4 -22.5t-1.5 -28.5t0.5 -39t0.5 -46.5z" />
    <glyph glyph-name="macron" unicode="&#xaf;" horiz-adv-x="983" 
d="M901 1210h-432h-20t-22 0.5t-25 2.5t-22.5 4.5t-22.5 7.5t-16.5 12t-12.5 17t-4 22q0 20 8 36t18 26t29.5 17t32.5 10t37.5 5t34.5 2h32h410h22q23 1 30 0.5t27.5 -2t30 -6t22 -11t18 -17.5t5.5 -25q0 -35 -17 -57t-48.5 -30.5t-55.5 -11t-59 -2.5z" />
    <glyph glyph-name="degree" unicode="&#xb0;" horiz-adv-x="819" 
d="M799 1223q0 -127 -90.5 -217.5t-216.5 -90.5q-128 0 -218 90.5t-90 217.5q-1 126 89.5 216.5t218.5 90.5q126 0 216.5 -90.5t90.5 -216.5zM492 1032q82 0 136 54t54 137q0 82 -55 136t-138 54q-82 0 -135.5 -54t-52.5 -136q0 -83 54 -137t137 -54z" />
    <glyph glyph-name="plusminus" unicode="&#xb1;" horiz-adv-x="1351" 
d="M287 864h436v271h195v-271h434v-194h-434v-273h-195v273h-436v194zM287 41v195h1065v-195h-1065z" />
    <glyph glyph-name="twosuperior" unicode="&#xb2;" horiz-adv-x="835" 
d="M379 770l113 -2l151 4q40 4 62 12.5t55 30.5q37 23 57 23q13 0 24 -7.5t11 -17.5q0 -5 -12 -35l-29 -57q-2 -3 -14 -27.5t-23 -43.5t-18 -25q-15 -13 -70 -13h-561q-53 0 -53 41q0 35 39 86t77 82l199 164q10 9 40 33t47.5 39t47 41.5t48 46.5t41.5 47.5t36 51t22 51
t9 53.5q0 44 -31 68t-80 24q-61 0 -115.5 -40.5t-54.5 -92.5q0 -11 10.5 -31t10.5 -31q0 -34 -37.5 -55t-77.5 -21q-46 0 -74 20.5t-28 55.5q0 71 42 128.5t107.5 90t136.5 49.5t138 17q55 0 106 -11t95.5 -34t71 -64.5t26.5 -95.5q0 -27 -8.5 -54.5t-18.5 -50t-33 -50.5
t-37.5 -46t-47.5 -45.5t-47.5 -40t-52.5 -40t-48 -34t-47 -32.5l-189 -146z" />
    <glyph glyph-name="threesuperior" unicode="&#xb3;" horiz-adv-x="835" 
d="M418 1040h-14h-16t-14.5 0.5t-14.5 2t-12 4.5t-10.5 7t-6 10.5t-2.5 14.5q0 13 6 22.5t12 14.5t21.5 7.5t20.5 3t24 1.5q122 8 184.5 62t62.5 164q0 40 -26.5 63t-71.5 23q-46 0 -80.5 -26.5t-34.5 -67.5v-25q0 -36 -32 -55t-74 -19q-38 0 -71 16.5t-33 43.5
q0 58 37 103.5t95 70t117.5 37t114.5 12.5q59 0 110.5 -9.5t99.5 -31t75.5 -63t27.5 -99.5q0 -92 -82 -153.5t-188 -71.5v-4q102 -10 165.5 -61t63.5 -142q0 -76 -42.5 -136t-110.5 -95t-144.5 -52.5t-154.5 -17.5q-55 0 -105.5 7t-104 24.5t-86 54t-32.5 88.5q0 46 30 74
t81 28q82 0 82 -63v-29q0 -48 33 -74t88 -26q90 0 142 71t52 158q0 133 -182 133z" />
    <glyph glyph-name="acute" unicode="&#xb4;" horiz-adv-x="655" 
d="M723 1343l-260 -198q-21 -17 -31 -24t-28 -14t-37 -7q-18 0 -27 0.5t-19 7.5t-10 20q0 19 37 68l133 195q3 4 16 22.5t18.5 25t19 14.5t28.5 9h21h63q2 0 25 1t37.5 0t35 -4t31 -12.5t10.5 -25.5q0 -34 -63 -78z" />
    <glyph glyph-name="mu" unicode="&#xb5;" 
d="M1339 860l-69 -373q-2 -15 -10 -60t-12.5 -79t-4.5 -55q0 -37 21 -57.5t45.5 -25.5t45.5 -17.5t21 -34.5q0 -25 -26 -47q-27 -22 -181 -82l-106 -41q-4 -1 -19.5 -7.5t-26 -9t-22.5 -2.5q-75 0 -75 144l10 133l2 30l-4 5q-58 -131 -156 -221.5t-205 -90.5q-100 0 -153 80
l-35 -170q-8 -39 7 -115t15 -92q0 -31 -27.5 -51t-70.5 -20h-129q-39 0 -65.5 20.5t-26.5 50.5q0 28 38 101t44 104l139 713q14 68 14 104q0 33 -16.5 52t-36.5 23.5t-36.5 16t-16.5 31.5q0 53 98 90q227 94 295 94q27 0 44 -19t22.5 -42.5t5.5 -50.5q0 -32 -9 -86
t-23.5 -122t-18.5 -91l-33 -178q-2 -12 -8 -42.5t-9.5 -55t-3.5 -40.5q0 -46 27.5 -74t71.5 -28q58 0 109.5 51t86 123t63.5 166t44 162t24 129q1 3 4.5 26.5t7 40t8.5 39t11.5 38t13.5 22.5q7 8 20 12t21.5 4.5t28.5 0t23 -0.5h141q3 0 18 0.5t22.5 0t18.5 -3t16 -10.5
t5 -20q0 -7 -17 -92z" />
    <glyph glyph-name="paragraph" unicode="&#xb6;" horiz-adv-x="1351" 
d="M1511 1350l-276 -1596q-4 -27 -7 -40t-12.5 -34t-23.5 -34q-35 -35 -78 -35q-38 0 -65 27q-17 20 -17.5 50t6.5 58l281 1608h-133l-279 -1600q-13 -80 -41 -108q-38 -35 -82 -35q-36 0 -63 27q-16 20 -16.5 50t6.5 58l129 741q-58 2 -114 9t-115.5 19.5t-112 31t-104 44
t-91.5 58t-73.5 73.5t-51.5 90t-25 108t7 127q18 107 72.5 200.5t144.5 153.5q142 98 405 98h815q6 0 25.5 0.5t29 0t26.5 -2t25.5 -6t18 -12.5t12 -21t-0.5 -31q-3 -19 -9.5 -32.5t-18.5 -22t-21 -13.5t-27.5 -7t-26.5 -2.5t-30.5 0t-28.5 0.5h-60zM991 1354h-73
q-86 0 -155.5 -14t-132.5 -47.5t-104 -96t-57 -152.5q-17 -95 8.5 -175.5t83 -136t133.5 -90.5t164 -48z" />
    <glyph glyph-name="periodcentered" unicode="&#xb7;" horiz-adv-x="696" 
d="M444 424q-76 0 -137 45t-61 119q0 75 59.5 120.5t136.5 45.5q75 0 134 -47.5t59 -120.5q0 -71 -58.5 -116.5t-132.5 -45.5z" />
    <glyph glyph-name="cedilla" unicode="&#xb8;" horiz-adv-x="1105" 
d="M659 0l-22 -104l100 10q70 0 130.5 -34t60.5 -99q0 -41 -26.5 -78.5t-65.5 -63.5q-100 -69 -261 -69q-28 0 -71 5t-95.5 16.5t-89 34.5t-36.5 54q0 21 16 36.5t37 15.5q7 0 47 -15q124 -53 207 -53q38 0 70.5 6t62 29t29.5 61q0 32 -30 48t-65 16q-20 0 -61 -13
q-48 -12 -55 -12q-14 0 -24.5 8.5t-10.5 22.5q0 6 14.5 61t14.5 56l16 61h108z" />
    <glyph glyph-name="onesuperior" unicode="&#xb9;" horiz-adv-x="835" 
d="M782 1417l-118 -663q0 -29 20.5 -40.5t56.5 -13.5q22 -1 33.5 -3t24 -11.5t12.5 -26.5t-9.5 -27.5t-30.5 -14.5t-31.5 -4.5t-34.5 -0.5h-402h-14.5h-17t-15.5 1t-16 3.5t-11.5 6.5t-9 10.5t-2.5 15.5q0 44 84 49q43 2 68 11.5t39 38.5q18 39 38 176l66 387q0 12 -5 20
t-11.5 12t-18.5 6t-20 2.5t-23 0.5h-45q-57 0 -57 34q0 39 78 50q85 15 157 39t110.5 39.5t55.5 15.5q60 0 60 -41q0 -17 -11 -72z" />
    <glyph glyph-name="ordmasculine" unicode="&#xba;" horiz-adv-x="901" 
d="M610 913q-128 0 -222.5 70t-94.5 193q0 102 57.5 184.5t147.5 126t190 43.5q132 0 227 -72.5t95 -200.5q0 -101 -60 -181.5t-150.5 -121.5t-189.5 -41zM616 999q48 0 86 32t58.5 80.5t30.5 97t10 91.5q0 61 -28.5 100.5t-86.5 39.5q-39 0 -71 -20t-52.5 -51t-34.5 -70.5
t-20 -76.5t-6 -71q0 -65 26.5 -108.5t87.5 -43.5zM756 618h-406q-6 0 -25 -0.5t-28.5 0t-26 2t-25.5 6t-19 12t-14.5 20.5t-4.5 30q0 19 4 32.5t13.5 22t17.5 13.5t25 6.5t25.5 2t29.5 0t28 -0.5h418q7 0 25.5 0.5t28.5 0.5t26 -1.5t25 -6t19 -11.5t14.5 -19t4.5 -29
q0 -18 -4 -31t-10 -22t-17.5 -14.5t-20.5 -8.5t-24.5 -4t-25.5 -1t-27.5 0.5t-25.5 0.5z" />
    <glyph glyph-name="guillemotright" unicode="&#xbb;" horiz-adv-x="942" 
d="M444 346l-112 -113q-5 -5 -20.5 -20t-24.5 -23t-23 -19t-28 -16t-27 -5q-24 0 -38.5 13t-14.5 36q0 9 3 19.5t6.5 18t11 18.5t11 16t13.5 17t12 15q125 162 125 240q0 57 -32 156.5t-32 127.5q0 25 14.5 42.5t39.5 17.5q26 0 49 -27q13 -16 32.5 -46.5t42.5 -70t31 -51.5
l52 -88q1 -1 10 -18t13.5 -27t9.5 -25t5 -24q0 -43 -129 -164zM829 346l-114 -113l-14 -14l-16 -16t-16 -15t-19 -15t-18 -11.5t-20 -9t-20 -2.5q-23 0 -38 13t-15 36q0 9 3 19.5t6.5 18t11 18.5t11 16t13.5 17t12 15q125 162 125 240q0 57 -32 156.5t-32 127.5q0 24 15 42
t39 18q26 0 49 -27q13 -16 32.5 -46.5t42.5 -70t31 -51.5l52 -88q38 -76 38 -94q0 -37 -127 -164z" />
    <glyph glyph-name="onequarter" unicode="&#xbc;" horiz-adv-x="2088" 
d="M1921 315h90q5 0 15.5 0.5t15.5 0.5t13 -1.5t12 -5t7 -10t3 -16.5q0 -19 -8.5 -31t-25 -17t-30 -6.5t-33.5 -1.5h-73l-19 -116q0 -16 9 -25t20 -11.5t20 -11t9 -22.5q0 -41 -80 -41h-279q-57 0 -57 35q0 33 51 41q33 7 45 26q9 15 31 125h-281q-1 0 -24 -0.5t-33 0.5
t-27 4t-24.5 11.5t-7.5 21.5q0 52 88 173.5t163 205.5l187 178q7 5 26 20.5t29.5 23t26.5 18.5t30 18q35 17 95 17q17 0 29 -0.5t31 -3.5t30.5 -8t19 -16t4.5 -26zM1395 315h278q53 280 111 463q-241 -203 -389 -463zM1745 1413l-1034 -1354q-1 -2 -11 -14t-13.5 -16
t-13 -14.5t-15.5 -15t-15.5 -11t-18.5 -9t-18 -2.5q-22 0 -40.5 10.5t-18.5 30.5q0 12 7 26.5t13 23t19.5 25t15.5 18.5l1016 1337q4 5 19.5 25t22.5 28t21.5 21t29 18.5t30.5 5.5q23 0 40 -10.5t17 -32.5q0 -4 -0.5 -8t-1 -7t-1.5 -6t-2 -5t-3 -5.5t-3.5 -5.5t-4 -6
t-4.5 -6zM762 1417l-119 -663q0 -50 78 -54q22 -1 33.5 -3t24 -11.5t12.5 -26.5t-9.5 -27.5t-30.5 -14.5t-32 -4.5t-35 -0.5h-401h-14.5h-17t-15.5 1t-16 3.5t-11.5 6.5t-9 10.5t-2.5 15.5q0 44 84 49q43 2 67.5 11.5t38.5 38.5q19 43 39 176l66 387q0 12 -5 20t-11.5 12
t-18.5 6t-20 2.5t-23 0.5h-45q-58 0 -58 34q0 39 78 50q85 15 157 39t111 39.5t56 15.5q59 0 59 -41q0 -22 -10 -72z" />
    <glyph glyph-name="onehalf" unicode="&#xbd;" horiz-adv-x="2088" 
d="M1634 158l113 -2l151 4q40 4 62 12.5t55 30.5q35 22 58 22q13 0 23.5 -7t10.5 -17q0 -5 -12 -35l-29 -57l-14 -28t-23 -43.5t-18 -25.5q-14 -12 -69 -12h-562q-53 0 -53 41q0 34 39.5 85.5t77.5 82.5l198 164q9 8 46 37.5t55.5 46t53 48t54 55.5t41 55t31.5 61t10 59
q0 44 -30.5 68t-79.5 24q-61 0 -115.5 -40.5t-54.5 -92.5q0 -12 10 -31t10 -30q0 -34 -37 -55t-77 -21q-46 0 -74.5 20.5t-28.5 55.5q0 71 42 128.5t107.5 90t136.5 49.5t138 17q55 0 106 -11t95.5 -34t71 -64.5t26.5 -95.5q0 -34 -13 -69.5t-30 -64t-51 -63t-56 -55.5
t-66.5 -54t-62.5 -45.5t-61 -42.5l-188 -145zM1745 1413l-1034 -1354q-1 -2 -11 -14t-13.5 -16t-13 -14.5t-15.5 -15t-15.5 -11t-18.5 -9t-18 -2.5q-22 0 -40.5 10.5t-18.5 30.5q0 12 7 26.5t13 23t19.5 25t15.5 18.5l1016 1337q4 5 19.5 25t22.5 28t21.5 21t29 18.5
t30.5 5.5q23 0 40 -10.5t17 -32.5q0 -4 -0.5 -8t-1 -7t-1.5 -6t-2 -5t-3 -5.5t-3.5 -5.5t-4 -6t-4.5 -6zM762 1417l-119 -663q0 -50 78 -54q22 -1 33.5 -3t24 -11.5t12.5 -26.5t-9.5 -27.5t-30.5 -14.5t-32 -4.5t-35 -0.5h-401h-14.5h-17t-15.5 1t-16 3.5t-11.5 6.5t-9 10.5
t-2.5 15.5q0 44 84 49q43 2 67.5 11.5t38.5 38.5q19 43 39 176l66 387q0 12 -5 20t-11.5 12t-18.5 6t-20 2.5t-23 0.5h-45q-58 0 -58 34q0 39 78 50q85 15 157 39t111 39.5t56 15.5q59 0 59 -41q0 -22 -10 -72z" />
    <glyph glyph-name="threequarters" unicode="&#xbe;" horiz-adv-x="2088" 
d="M1921 315h90q5 0 15.5 0.5t15.5 0.5t13 -1.5t12 -5t7 -10t3 -16.5q0 -19 -8.5 -31t-25 -17t-30 -6.5t-33.5 -1.5h-73l-19 -116q0 -16 9 -25t20 -11.5t20 -11t9 -22.5q0 -41 -80 -41h-279q-57 0 -57 35q0 33 51 41q33 7 45 26q9 15 31 125h-281q-1 0 -24 -0.5t-33 0.5
t-27 4t-24.5 11.5t-7.5 21.5q0 52 88 173.5t163 205.5l187 178q7 5 26 20.5t29.5 23t26.5 18.5t30 18q35 17 95 17q17 0 29 -0.5t31 -3.5t30.5 -8t19 -16t4.5 -26zM1395 315h278q53 280 111 463q-241 -203 -389 -463zM1745 1413l-1034 -1354q-1 -2 -11 -14t-13.5 -16
t-13 -14.5t-15.5 -15t-15.5 -11t-18.5 -9t-18 -2.5q-22 0 -40.5 10.5t-18.5 30.5q0 12 7 26.5t13 23t19.5 25t15.5 18.5l1016 1337q4 5 19.5 25t22.5 28t21.5 21t29 18.5t30.5 5.5q23 0 40 -10.5t17 -32.5q0 -4 -0.5 -8t-1 -7t-1.5 -6t-2 -5t-3 -5.5t-3.5 -5.5t-4 -6
t-4.5 -6zM418 1040h-14h-16t-14.5 0.5t-14.5 2t-12 4.5t-10.5 7t-6 10.5t-2.5 14.5q0 13 6 22.5t12 14.5t21.5 7.5t20.5 3t24 1.5q122 8 184.5 62t62.5 164q0 40 -26.5 63t-71.5 23q-46 0 -80.5 -26.5t-34.5 -67.5v-25q0 -36 -32 -55t-74 -19q-38 0 -71 16.5t-33 43.5
q0 58 37 103.5t95 70t117.5 37t114.5 12.5q59 0 110.5 -9.5t99.5 -31t75.5 -63t27.5 -99.5q0 -92 -82 -153.5t-188 -71.5v-4q102 -10 165.5 -61t63.5 -142q0 -76 -42.5 -136t-110.5 -95t-144.5 -52.5t-154.5 -17.5q-55 0 -105.5 7t-104 24.5t-86 54t-32.5 88.5q0 46 30 74
t81 28q82 0 82 -63v-29q0 -48 33 -74t88 -26q90 0 142 71t52 158q0 133 -182 133z" />
    <glyph glyph-name="questiondown" unicode="&#xbf;" horiz-adv-x="1064" 
d="M858 455l-24 -150q-12 -78 -24.5 -96t-80.5 -53q-55 -28 -85.5 -45.5t-69.5 -49t-68 -69.5q-92 -113 -92 -256q0 -78 42.5 -127t118.5 -49q58 0 105 37q26 20 36 41.5t17 60.5q10 61 22 81q10 18 29 34q50 41 123 41q56 0 95.5 -26t39.5 -79q0 -69 -46 -131.5
t-111 -101.5q-136 -86 -355 -86q-69 0 -133.5 10.5t-128.5 36t-111 64t-76.5 99t-29.5 136.5q0 82 34.5 158.5t93 136t126.5 105t144 77.5l104 45q65 29 80.5 54.5t28.5 103.5q11 72 24 92q24 37 86 37q94 0 94 -70q0 -21 -8 -61zM840 1001q56 0 100.5 -30t44.5 -84
q0 -79 -75 -138t-156 -59q-55 0 -98.5 30t-43.5 83q0 80 73 139t155 59z" />
    <glyph glyph-name="Agrave" unicode="&#xc0;" horiz-adv-x="1556" 
d="M1073 492h-592q-131 -236 -131 -299q0 -27 14.5 -45t31.5 -25.5t31.5 -22t14.5 -34.5t-3 -33.5t-6 -20t-10 -10t-11 -3.5t-12.5 0.5t-10.5 0.5h-348q-3 1 -14.5 1.5t-15.5 3t-8.5 14.5t-4.5 34q0 45 49 70q25 14 42 26.5t30 31t19 28.5t19.5 40t20.5 44l434 776l256 352
q7 8 22 27.5t20.5 25.5t18 19t21 17t22.5 10t30 8t36 2q41 0 67.5 -8t44 -27t28.5 -40t26 -58q3 -8 5.5 -13.5t4.5 -11.5l168 -538l121 -582q0 -1 2.5 -15.5t3 -16.5t3 -14t4 -15.5t5 -13t7 -14t9 -11.5t12 -12.5t14.5 -10.5q31 -22 37 -34q6 -10 6 -25q0 -20 -8.5 -34
t-19 -21t-30 -10.5t-31 -4t-33.5 -0.5h-3.5h-3.5h-390q-41 0 -64.5 11.5t-23.5 47.5q0 24 13 38t39 26q40 18 49.5 30.5t9.5 53.5q0 25 -18 172zM905 1210l-342 -557h484q-47 329 -142 557zM1042 1872l62 -170q22 -51 22 -72q0 -33 -51 -33q-17 0 -35 10.5t-25.5 18
t-25.5 27.5l-194 198q-3 3 -12.5 13t-15.5 16.5t-11.5 16.5t-5.5 18q0 17 10 28t29 14.5t33.5 4.5t37.5 -0.5t27 -1.5h36.5t29 1t21 -1.5t16.5 -2.5t12 -6.5t11 -10t8.5 -16.5t9.5 -22t11 -30z" />
    <glyph glyph-name="Aacute" unicode="&#xc1;" horiz-adv-x="1556" 
d="M1073 492h-592q-131 -236 -131 -299q0 -27 14.5 -45t31.5 -25.5t31.5 -22t14.5 -34.5t-3 -33.5t-6 -20t-10 -10t-11 -3.5t-12.5 0.5t-10.5 0.5h-348q-3 1 -14.5 1.5t-15.5 3t-8.5 14.5t-4.5 34q0 45 49 70q25 14 42 26.5t30 31t19 28.5t19.5 40t20.5 44l434 776l256 352
q7 8 22 27.5t20.5 25.5t18 19t21 17t22.5 10t30 8t36 2q41 0 67.5 -8t44 -27t28.5 -40t26 -58q3 -8 5.5 -13.5t4.5 -11.5l168 -538l121 -582q0 -1 2.5 -15.5t3 -16.5t3 -14t4 -15.5t5 -13t7 -14t9 -11.5t12 -12.5t14.5 -10.5q31 -22 37 -34q6 -10 6 -25q0 -20 -8.5 -34
t-19 -21t-30 -10.5t-31 -4t-33.5 -0.5h-3.5h-3.5h-390q-41 0 -64.5 11.5t-23.5 47.5q0 24 13 38t39 26q40 18 49.5 30.5t9.5 53.5q0 25 -18 172zM905 1210l-342 -557h484q-47 329 -142 557zM1174 1841l-261 -199q-21 -17 -31 -24t-28 -14t-37 -7q-17 0 -26.5 1t-19 8
t-9.5 20q0 19 37 68l133 194q3 4 15.5 22.5t18.5 25.5t19.5 15t28.5 9h20h64q2 0 25 1t37.5 0t35 -4t31 -12.5t10.5 -25.5q0 -34 -63 -78z" />
    <glyph glyph-name="Acircumflex" unicode="&#xc2;" horiz-adv-x="1556" 
d="M1073 492h-592q-131 -236 -131 -299q0 -27 14.5 -45t31.5 -25.5t31.5 -22t14.5 -34.5t-3 -33.5t-6 -20t-10 -10t-11 -3.5t-12.5 0.5t-10.5 0.5h-348q-3 1 -14.5 1.5t-15.5 3t-8.5 14.5t-4.5 34q0 45 49 70q25 14 42 26.5t30 31t19 28.5t19.5 40t20.5 44l434 776l256 352
q7 8 22 27.5t20.5 25.5t18 19t21 17t22.5 10t30 8t36 2q41 0 67.5 -8t44 -27t28.5 -40t26 -58q3 -8 5.5 -13.5t4.5 -11.5l168 -538l121 -582q0 -1 2.5 -15.5t3 -16.5t3 -14t4 -15.5t5 -13t7 -14t9 -11.5t12 -12.5t14.5 -10.5q31 -22 37 -34q6 -10 6 -25q0 -20 -8.5 -34
t-19 -21t-30 -10.5t-31 -4t-33.5 -0.5h-3.5h-3.5h-390q-41 0 -64.5 11.5t-23.5 47.5q0 24 13 38t39 26q40 18 49.5 30.5t9.5 53.5q0 25 -18 172zM905 1210l-342 -557h484q-47 329 -142 557zM999 1767l-225 -129q-4 -2 -19.5 -11.5t-24 -14t-21.5 -9t-23 -4.5q-19 0 -31 12
t-12 29q0 7 2 14t6.5 14.5t8 12.5t11.5 12.5t11.5 11t12.5 11t10 8.5l229 197q1 1 9.5 9t11 10t10.5 9t12 9t11 6.5t12.5 6.5t13 3.5t14.5 1.5q10 0 18 -1.5t15.5 -5.5t12.5 -7t12 -11t9.5 -11t10.5 -13.5t10 -13.5l148 -201q36 -46 36 -72q0 -17 -13 -29t-30 -12
q-8 0 -16.5 2.5t-18.5 8t-15.5 9t-16.5 11.5t-14 10z" />
    <glyph glyph-name="Atilde" unicode="&#xc3;" horiz-adv-x="1556" 
d="M1073 492h-592q-131 -236 -131 -299q0 -27 14.5 -45t31.5 -25.5t31.5 -22t14.5 -34.5t-3 -33.5t-6 -20t-10 -10t-11 -3.5t-12.5 0.5t-10.5 0.5h-348q-3 1 -14.5 1.5t-15.5 3t-8.5 14.5t-4.5 34q0 45 49 70q25 14 42 26.5t30 31t19 28.5t19.5 40t20.5 44l434 776l256 352
q7 8 22 27.5t20.5 25.5t18 19t21 17t22.5 10t30 8t36 2q41 0 67.5 -8t44 -27t28.5 -40t26 -58q3 -8 5.5 -13.5t4.5 -11.5l168 -538l121 -582q0 -1 2.5 -15.5t3 -16.5t3 -14t4 -15.5t5 -13t7 -14t9 -11.5t12 -12.5t14.5 -10.5q31 -22 37 -34q6 -10 6 -25q0 -20 -8.5 -34
t-19 -21t-30 -10.5t-31 -4t-33.5 -0.5h-3.5h-3.5h-390q-41 0 -64.5 11.5t-23.5 47.5q0 24 13 38t39 26q40 18 49.5 30.5t9.5 53.5q0 25 -18 172zM905 1210l-342 -557h484q-47 329 -142 557zM1128 1845q35 0 62.5 20t48.5 40t41 20q18 0 29.5 -13t11.5 -32q0 -30 -19 -67
t-42 -64q-72 -88 -138 -88q-45 0 -133.5 36t-122.5 36t-63 -19.5t-51 -39t-41 -19.5q-17 0 -28 12t-11 29q0 25 21 66t42 65q68 88 137 88q44 0 131 -35t125 -35z" />
    <glyph glyph-name="Adieresis" unicode="&#xc4;" horiz-adv-x="1556" 
d="M1073 492h-592q-131 -236 -131 -299q0 -27 14.5 -45t31.5 -25.5t31.5 -22t14.5 -34.5t-3 -33.5t-6 -20t-10 -10t-11 -3.5t-12.5 0.5t-10.5 0.5h-348q-3 1 -14.5 1.5t-15.5 3t-8.5 14.5t-4.5 34q0 45 49 70q25 14 42 26.5t30 31t19 28.5t19.5 40t20.5 44l434 776l256 352
q7 8 22 27.5t20.5 25.5t18 19t21 17t22.5 10t30 8t36 2q41 0 67.5 -8t44 -27t28.5 -40t26 -58q3 -8 5.5 -13.5t4.5 -11.5l168 -538l121 -582q0 -1 2.5 -15.5t3 -16.5t3 -14t4 -15.5t5 -13t7 -14t9 -11.5t12 -12.5t14.5 -10.5q31 -22 37 -34q6 -10 6 -25q0 -20 -8.5 -34
t-19 -21t-30 -10.5t-31 -4t-33.5 -0.5h-3.5h-3.5h-390q-41 0 -64.5 11.5t-23.5 47.5q0 24 13 38t39 26q40 18 49.5 30.5t9.5 53.5q0 25 -18 172zM905 1210l-342 -557h484q-47 329 -142 557zM729 1647q-68 0 -107.5 35t-39.5 104q0 66 50.5 112t117.5 46q66 0 109.5 -31
t43.5 -94q0 -75 -49.5 -123.5t-124.5 -48.5zM1229 1647q-70 0 -110 35t-40 102q0 68 50 114t118 46q66 0 110 -31t44 -94q0 -75 -49 -123.5t-123 -48.5z" />
    <glyph glyph-name="Aring" unicode="&#xc5;" horiz-adv-x="1556" 
d="M1073 492h-592q-131 -236 -131 -299q0 -27 14.5 -45t31.5 -25.5t31.5 -22t14.5 -34.5t-3 -33.5t-6 -20t-10 -10t-11 -3.5t-12.5 0.5t-10.5 0.5h-348q-3 1 -14.5 1.5t-15.5 3t-8.5 14.5t-4.5 34q0 45 49 70q25 14 42 26.5t30 31t19 28.5t19.5 40t20.5 44l434 776l256 352
q7 8 22 27.5t20.5 25.5t18 19t21 17t22.5 10t30 8t36 2q41 0 67.5 -8t44 -27t28.5 -40t26 -58q3 -8 5.5 -13.5t4.5 -11.5l168 -538l121 -582q0 -1 2.5 -15.5t3 -16.5t3 -14t4 -15.5t5 -13t7 -14t9 -11.5t12 -12.5t14.5 -10.5q31 -22 37 -34q6 -10 6 -25q0 -20 -8.5 -34
t-19 -21t-30 -10.5t-31 -4t-33.5 -0.5h-3.5h-3.5h-390q-41 0 -64.5 11.5t-23.5 47.5q0 24 13 38t39 26q40 18 49.5 30.5t9.5 53.5q0 25 -18 172zM905 1210l-342 -557h484q-47 329 -142 557zM793 1804q0 91 62 154t153 63q89 0 151 -63.5t62 -151.5q0 -89 -63 -152t-152 -63
q-88 0 -150.5 62.5t-62.5 150.5zM1100 1804q0 40 -26.5 68.5t-65.5 28.5q-40 0 -67.5 -28t-27.5 -69q0 -38 27.5 -65t65.5 -27t66 27t28 65z" />
    <glyph glyph-name="AE" unicode="&#xc6;" horiz-adv-x="2048" 
d="M999 487h-487q-3 -6 -18.5 -33.5t-21.5 -39t-20.5 -38t-22 -41t-19 -37.5t-18 -37t-13 -30t-9.5 -27t-3 -18q0 -17 9.5 -31.5t19 -22t28.5 -19.5q16 -9 22.5 -14t12.5 -15t6 -25q0 -59 -76 -59h-317q-60 0 -60 55q0 19 10.5 34t22 22.5t31.5 18.5l6 3q38 19 53.5 37
t38.5 63l295 537l369 543l116 137q24 23 54.5 34.5t52.5 13t67 1.5h867q121 0 149 -8q25 -7 33 -24t8 -46l-4 -67q0 -5 -1.5 -22t-2.5 -24.5t-3.5 -23.5t-5.5 -24.5t-7.5 -21.5t-11 -20t-15 -14.5t-20 -10.5t-25.5 -3q-20 0 -36 8.5t-23.5 18t-22.5 30.5q-32 47 -47 59
q-17 13 -47 23q-68 23 -195 23q-43 0 -70 -1.5t-67 -12t-61 -31.5q-10 -10 -22.5 -48.5t-24.5 -95.5t-21 -105t-19 -104.5t-12 -66.5h322q33 3 54 13t48 34q37 29 62 29q27 0 42 -17.5t15 -44.5q0 -24 -6 -45q-2 -8 -7 -41t-10 -54t-15.5 -47.5t-28.5 -40.5t-42 -14
q-10 0 -17.5 1.5t-14.5 6t-11 7.5t-12 11t-12 11q-10 9 -20 16t-22.5 11.5t-20 7t-24.5 3.5t-22.5 1h-27h-25.5h-223q-72 -422 -72 -479q0 -20 3.5 -36t12.5 -27t17 -19t23.5 -12.5t25.5 -7.5t30.5 -3.5t30.5 -0.5t33 1t31 1l98 4q71 2 126 20.5t86 43.5t55.5 49.5
t48.5 41.5t51 17q70 0 70 -54q0 -22 -19 -73l-33 -107q-19 -65 -45 -79.5t-100 -14.5h-1016q-16 0 -25.5 18.5t-9.5 38.5q0 37 49 66q47 26 62 53q23 47 63 311zM1030 651l98 649q0 35 -26 35q-30 0 -100.5 -83.5t-114.5 -147.5l-291 -453h434z" />
    <glyph glyph-name="Ccedilla" unicode="&#xc7;" horiz-adv-x="1597" 
d="M1710 1288l-10 -123q-3 -29 -5 -46.5t-9.5 -48.5t-18.5 -49.5t-31 -33t-47 -14.5q-38 0 -55 27.5t-25 70.5q-12 68 -33 117.5t-63 91.5q-102 96 -262 96q-109 0 -203 -49.5t-158.5 -129t-110.5 -181t-67.5 -205t-21.5 -201.5q0 -198 84 -311q56 -76 142.5 -116t184.5 -40
q127 0 236.5 56t218.5 157q3 2 9.5 7.5t10 8t10 7t11.5 6.5t12 4t13 2q31 0 54 -21t23 -51q0 -58 -69.5 -125t-140.5 -108q-197 -117 -455 -117q-152 0 -287 43t-239 123.5t-165 207t-61 282.5q0 185 82.5 354.5t216.5 289t310.5 190.5t359.5 71q232 0 424 -107
q87 -42 117 -77q18 -23 18 -58zM905 0l-22 -104l100 10q70 0 130.5 -34t60.5 -99q0 -41 -27 -78.5t-66 -63.5q-100 -69 -260 -69q-28 0 -71 5t-96 16.5t-89.5 34.5t-36.5 54q0 21 16.5 36.5t37.5 15.5q7 0 47 -15q124 -53 207 -53q27 0 51.5 4t51 13t42.5 29.5t16 49.5
q0 32 -29.5 48t-64.5 16q-20 0 -61 -13q-48 -12 -56 -12q-14 0 -24 8.5t-10 22.5q0 4 6.5 31t13.5 55t8 31l17 61h108z" />
    <glyph glyph-name="Egrave" unicode="&#xc8;" horiz-adv-x="1433" 
d="M733 883h371q67 13 119 55q6 3 14.5 9.5t13 9t12 4.5t17.5 2q28 0 41.5 -18t13.5 -46q0 -23 -14 -97.5t-23 -94.5q-20 -48 -71 -48q-13 0 -37 14t-54.5 35t-41.5 27h-383l-72 -483q0 -29 9.5 -48.5t21.5 -29.5t37 -15.5t41 -6t49 -0.5l241 8q78 8 130.5 32t105.5 78
q2 2 10.5 10t11.5 10.5t10 9t11 9t11 7.5t12.5 7t12.5 4.5t14 3.5t15 1q27 0 45.5 -13t18.5 -38q0 -31 -27 -115.5t-45 -120.5q-14 -29 -36.5 -37t-63.5 -8h-1022q-4 0 -21 -0.5t-26 0t-26 1.5t-26.5 5t-20.5 10.5t-16 17.5t-5 25q0 21 11.5 34.5t35.5 27.5q66 43 82 88
l192 1089q0 26 -14.5 44t-31.5 27t-31.5 24t-14.5 34q0 24 10.5 39.5t30.5 22t36.5 8.5t39.5 2h1001q53 0 78 -15t25 -63q0 -45 -8 -105.5t-23 -86.5q-9 -15 -29 -26t-39 -11t-34 8.5t-21.5 16t-22.5 28.5q-24 35 -47.5 53.5t-60.5 30.5q-71 25 -217 25q-168 0 -211 -31
q-31 -19 -47 -74zM981 1872l61 -170q23 -54 23 -72q0 -33 -51 -33q-17 0 -35 10.5t-25.5 18t-25.5 27.5l-195 198q-3 3 -12.5 13t-15.5 16.5t-11.5 16.5t-5.5 18q0 17 10 28t29 14.5t33.5 4.5t37.5 -0.5t27 -1.5h36.5t29 1t21 -1t17 -2.5t12.5 -7t11 -10.5t8.5 -16t10 -21.5
t10.5 -30.5z" />
    <glyph glyph-name="Eacute" unicode="&#xc9;" horiz-adv-x="1433" 
d="M733 883h371q67 13 119 55q6 3 14.5 9.5t13 9t12 4.5t17.5 2q28 0 41.5 -18t13.5 -46q0 -23 -14 -97.5t-23 -94.5q-20 -48 -71 -48q-13 0 -37 14t-54.5 35t-41.5 27h-383l-72 -483q0 -29 9.5 -48.5t21.5 -29.5t37 -15.5t41 -6t49 -0.5l241 8q78 8 130.5 32t105.5 78
q2 2 10.5 10t11.5 10.5t10 9t11 9t11 7.5t12.5 7t12.5 4.5t14 3.5t15 1q27 0 45.5 -13t18.5 -38q0 -31 -27 -115.5t-45 -120.5q-14 -29 -36.5 -37t-63.5 -8h-1022q-4 0 -21 -0.5t-26 0t-26 1.5t-26.5 5t-20.5 10.5t-16 17.5t-5 25q0 21 11.5 34.5t35.5 27.5q66 43 82 88
l192 1089q0 26 -14.5 44t-31.5 27t-31.5 24t-14.5 34q0 24 10.5 39.5t30.5 22t36.5 8.5t39.5 2h1001q53 0 78 -15t25 -63q0 -45 -8 -105.5t-23 -86.5q-9 -15 -29 -26t-39 -11t-34 8.5t-21.5 16t-22.5 28.5q-24 35 -47.5 53.5t-60.5 30.5q-71 25 -217 25q-168 0 -211 -31
q-31 -19 -47 -74zM1112 1841l-260 -199q-21 -17 -31 -24t-28 -14t-37 -7q-13 0 -20 0.5t-17 3t-14.5 9t-4.5 16.5q0 19 37 68l133 194q3 4 15.5 22.5t18.5 25.5t19.5 15t28.5 9h21h63q2 0 25 1t38 0t35 -4t31 -12.5t11 -25.5t-13 -33t-22.5 -24.5t-28.5 -20.5z" />
    <glyph glyph-name="Ecircumflex" unicode="&#xca;" horiz-adv-x="1433" 
d="M733 883h371q67 13 119 55q6 3 14.5 9.5t13 9t12 4.5t17.5 2q28 0 41.5 -18t13.5 -46q0 -23 -14 -97.5t-23 -94.5q-20 -48 -71 -48q-13 0 -37 14t-54.5 35t-41.5 27h-383l-72 -483q0 -29 9.5 -48.5t21.5 -29.5t37 -15.5t41 -6t49 -0.5l241 8q78 8 130.5 32t105.5 78
q2 2 10.5 10t11.5 10.5t10 9t11 9t11 7.5t12.5 7t12.5 4.5t14 3.5t15 1q27 0 45.5 -13t18.5 -38q0 -31 -27 -115.5t-45 -120.5q-14 -29 -36.5 -37t-63.5 -8h-1022q-4 0 -21 -0.5t-26 0t-26 1.5t-26.5 5t-20.5 10.5t-16 17.5t-5 25q0 21 11.5 34.5t35.5 27.5q66 43 82 88
l192 1089q0 26 -14.5 44t-31.5 27t-31.5 24t-14.5 34q0 24 10.5 39.5t30.5 22t36.5 8.5t39.5 2h1001q53 0 78 -15t25 -63q0 -45 -8 -105.5t-23 -86.5q-9 -15 -29 -26t-39 -11t-34 8.5t-21.5 16t-22.5 28.5q-24 35 -47.5 53.5t-60.5 30.5q-71 25 -217 25q-168 0 -211 -31
q-31 -19 -47 -74zM938 1767l-225 -129q-4 -2 -19.5 -11.5t-24 -14t-21.5 -9t-23 -4.5q-19 0 -31 12t-12 29q0 6 2 13t4 12t7.5 12t8.5 10.5t10 10.5l9.5 9.5t10.5 9t9 7.5l229 197q1 1 8 7.5t8.5 8t8 7t9.5 7.5t9 6.5t9.5 6.5t9.5 5t11 4t10.5 2t11.5 1q10 0 18 -1.5
t15.5 -5.5t12.5 -7t12 -11t9.5 -11t10.5 -13.5t10 -13.5l147 -201q37 -48 37 -72q0 -17 -13 -29t-30 -12q-8 0 -16.5 2t-19 8t-15.5 9t-17.5 12t-13.5 10z" />
    <glyph glyph-name="Edieresis" unicode="&#xcb;" horiz-adv-x="1433" 
d="M733 883h371q67 13 119 55q6 3 14.5 9.5t13 9t12 4.5t17.5 2q28 0 41.5 -18t13.5 -46q0 -23 -14 -97.5t-23 -94.5q-20 -48 -71 -48q-13 0 -37 14t-54.5 35t-41.5 27h-383l-72 -483q0 -29 9.5 -48.5t21.5 -29.5t37 -15.5t41 -6t49 -0.5l241 8q78 8 130.5 32t105.5 78
q2 2 10.5 10t11.5 10.5t10 9t11 9t11 7.5t12.5 7t12.5 4.5t14 3.5t15 1q27 0 45.5 -13t18.5 -38q0 -31 -27 -115.5t-45 -120.5q-14 -29 -36.5 -37t-63.5 -8h-1022q-4 0 -21 -0.5t-26 0t-26 1.5t-26.5 5t-20.5 10.5t-16 17.5t-5 25q0 21 11.5 34.5t35.5 27.5q66 43 82 88
l192 1089q0 26 -14.5 44t-31.5 27t-31.5 24t-14.5 34q0 24 10.5 39.5t30.5 22t36.5 8.5t39.5 2h1001q53 0 78 -15t25 -63q0 -45 -8 -105.5t-23 -86.5q-9 -15 -29 -26t-39 -11t-34 8.5t-21.5 16t-22.5 28.5q-24 35 -47.5 53.5t-60.5 30.5q-71 25 -217 25q-168 0 -211 -31
q-31 -19 -47 -74zM668 1647q-68 0 -108 35.5t-40 103.5q0 66 50.5 112t117.5 46q66 0 110 -31t44 -94q0 -75 -49.5 -123.5t-124.5 -48.5zM1167 1647q-69 0 -109 35t-40 102q0 68 50 114t118 46q66 0 109.5 -31t43.5 -94q0 -75 -49 -123.5t-123 -48.5z" />
    <glyph glyph-name="Igrave" unicode="&#xcc;" horiz-adv-x="819" 
d="M262 254l170 1040q0 20 -7.5 35t-14 20t-29.5 23q-14 10 -20.5 15t-13.5 16t-7 24q0 72 115 72h401q27 0 43.5 -2t32.5 -15t16 -38q0 -22 -12 -35.5t-37 -28.5l-25 -18q-33 -24 -45 -43q-10 -14 -26 -72l-180 -1042q0 -29 12 -45t41 -35q15 -11 19.5 -15t12 -16t7.5 -24
q0 -23 -11 -38.5t-31 -21.5t-37 -8t-40 -2h-385q-90 0 -90 55q0 23 11 36.5t34 27.5q33 21 53 39.5t28.5 38.5t10.5 28t4 29zM674 1872l61 -170q23 -54 23 -72q0 -33 -51 -33q-17 0 -35 10.5t-25.5 18t-25.5 27.5l-195 198q-3 3 -12.5 13t-15.5 16.5t-11.5 16.5t-5.5 18
q0 17 10 28t29 14.5t33.5 4.5t37.5 -0.5t27 -1.5h36.5t29 1t21 -1t17 -2.5t12.5 -7t11 -10.5t8.5 -16t10 -21.5t10.5 -30.5z" />
    <glyph glyph-name="Iacute" unicode="&#xcd;" horiz-adv-x="819" 
d="M262 254l170 1040q0 20 -7.5 35t-14 20t-29.5 23q-14 10 -20.5 15t-13.5 16t-7 24q0 72 115 72h401q27 0 43.5 -2t32.5 -15t16 -38q0 -22 -12 -35.5t-37 -28.5l-25 -18q-33 -24 -45 -43q-10 -14 -26 -72l-180 -1042q0 -29 12 -45t41 -35q15 -11 19.5 -15t12 -16t7.5 -24
q0 -23 -11 -38.5t-31 -21.5t-37 -8t-40 -2h-385q-90 0 -90 55q0 23 11 36.5t34 27.5q33 21 53 39.5t28.5 38.5t10.5 28t4 29zM805 1841l-260 -199q-21 -17 -31 -24t-28 -14t-37 -7q-13 0 -20 0.5t-17 3t-14.5 9t-4.5 16.5q0 19 37 68l133 194q3 4 15.5 22.5t18.5 25.5
t19.5 15t28.5 9h21h63q2 0 25 1t37.5 0t35 -4t31 -12.5t10.5 -25.5q0 -34 -63 -78z" />
    <glyph glyph-name="Icircumflex" unicode="&#xce;" horiz-adv-x="819" 
d="M262 254l170 1040q0 20 -7.5 35t-14 20t-29.5 23q-14 10 -20.5 15t-13.5 16t-7 24q0 72 115 72h401q27 0 43.5 -2t32.5 -15t16 -38q0 -22 -12 -35.5t-37 -28.5l-25 -18q-33 -24 -45 -43q-10 -14 -26 -72l-180 -1042q0 -29 12 -45t41 -35q15 -11 19.5 -15t12 -16t7.5 -24
q0 -23 -11 -38.5t-31 -21.5t-37 -8t-40 -2h-385q-90 0 -90 55q0 23 11 36.5t34 27.5q33 21 53 39.5t28.5 38.5t10.5 28t4 29zM631 1767l-225 -129q-3 -2 -19.5 -11.5t-24.5 -14t-21.5 -9t-23.5 -4.5q-19 0 -31 12t-12 29q0 7 2 14t6.5 14.5t8 12.5t11.5 12.5t11.5 11
t12.5 11t10 8.5l229 197q1 1 9.5 9t11 10t10.5 9t12 9t11 6.5t12.5 6.5t13 3.5t14.5 1.5q10 0 18 -1.5t16 -6t12.5 -6.5t12.5 -11t9.5 -10.5t10.5 -14t10 -13.5l147 -201q37 -48 37 -72q0 -17 -13 -29t-30 -12q-8 0 -16.5 2t-19 8t-15.5 9t-17.5 12t-13.5 10z" />
    <glyph glyph-name="Idieresis" unicode="&#xcf;" horiz-adv-x="819" 
d="M262 254l170 1040q0 20 -7.5 35t-14 20t-29.5 23q-14 10 -20.5 15t-13.5 16t-7 24q0 72 115 72h401q27 0 43.5 -2t32.5 -15t16 -38q0 -22 -12 -35.5t-37 -28.5l-25 -18q-33 -24 -45 -43q-10 -14 -26 -72l-180 -1042q0 -29 12 -45t41 -35q15 -11 19.5 -15t12 -16t7.5 -24
q0 -23 -11 -38.5t-31 -21.5t-37 -8t-40 -2h-385q-90 0 -90 55q0 23 11 36.5t34 27.5q33 21 53 39.5t28.5 38.5t10.5 28t4 29zM360 1647q-68 0 -107.5 35t-39.5 104q0 66 50.5 112t117.5 46q66 0 110 -31t44 -94q0 -75 -50 -123.5t-125 -48.5zM860 1647q-69 0 -109 35
t-40 102q0 68 50 114t118 46q66 0 109.5 -31t43.5 -94q0 -75 -49 -123.5t-123 -48.5z" />
    <glyph glyph-name="Eth" unicode="&#xd0;" horiz-adv-x="1761" 
d="M709 676l-80 -440q-3 -20 2 -35t18 -24t28 -15t36.5 -8t36.5 -3t36 -1q124 0 231.5 40.5t184.5 112t132.5 167.5t82.5 207t27 230q0 214 -116 334.5t-333 120.5q-167 0 -180 -70l-76 -438h119h21h26t27 -0.5t29 -2.5t25.5 -5t24.5 -8.5t18.5 -12.5t13.5 -17t4 -22
q0 -23 -8.5 -40.5t-20 -29t-32 -19.5t-37 -12t-42.5 -6t-41 -2.5t-39 -0.5h-118zM356 854l76 453q0 16 -9.5 30t-15.5 18.5t-28 18.5q-39 30 -39 56q0 69 109 69h698q150 0 273.5 -36t217.5 -108t146.5 -190t52.5 -272q0 -202 -78.5 -372t-211.5 -283t-309 -175.5
t-372 -62.5h-612h-18.5h-23.5t-23.5 1t-24.5 3t-21 6.5t-18 11t-11 16.5t-5 23q0 36 47 62l26 18q36 32 45 45q8 12 15 33.5t10.5 37t9 44t6.5 33.5l58 342h-25q-23 0 -33.5 0.5t-37 2t-41 6t-32 12t-26 20.5t-8.5 31q0 20 6 36t20 26.5t26.5 18.5t35.5 12.5t36 7.5t40.5 4
t35.5 1h33z" />
    <glyph glyph-name="Ntilde" unicode="&#xd1;" horiz-adv-x="1638" 
d="M590 1167l-146 -950q0 -32 15.5 -53t34 -30t34 -25.5t15.5 -38.5q0 -36 -31.5 -53t-71.5 -17h-245q-76 0 -76 53q0 24 13.5 39t39.5 29q23 13 33 19.5t22.5 19.5t20.5 30l190 1102q0 25 -16 43t-35 27.5t-35 25t-16 35.5q0 28 19.5 44.5t54.5 31.5h331q64 -12 74 -22
l555 -971l117 784q0 27 -14 47t-31 30t-31 25.5t-14 34.5q0 38 29 55t69 17h229q82 0 82 -57q0 -34 -47 -64q-18 -12 -27 -18.5t-20 -19t-18 -27.5l-217 -1207q-14 -69 -45 -87.5t-107 -18.5h-15h-18t-16.5 0.5t-18.5 2t-15.5 3.5t-16.5 5.5t-13 8.5q-11 9 -24 27t-27.5 45
t-24 45.5t-24 48.5t-16.5 35zM1169 1845q35 0 62.5 20t48.5 40t41 20q18 0 29.5 -13t11.5 -32q0 -30 -19 -67t-43 -64q-33 -41 -65 -64.5t-72 -23.5q-45 0 -133.5 36t-122.5 36t-63 -19.5t-51 -39t-41 -19.5q-17 0 -28 12t-11 29q0 25 21 66t42 65q68 88 137 88
q44 0 131 -35t125 -35z" />
    <glyph glyph-name="Ograve" unicode="&#xd2;" horiz-adv-x="1761" 
d="M924 -31q-152 0 -285 45t-233 128t-158 210t-58 281q0 178 69.5 344t195.5 291q262 262 663 262q151 0 282.5 -44.5t229.5 -127t154.5 -208t56.5 -278.5q0 -189 -71.5 -356.5t-194 -287.5t-292 -189.5t-359.5 -69.5zM934 123q69 0 145 29.5t125 76.5q84 78 144 213
q49 109 78.5 244t29.5 254q0 67 -11 128t-36.5 118.5t-63.5 100t-97 68t-132 25.5q-147 0 -247.5 -83.5t-170.5 -229.5q-52 -110 -82 -242t-30 -254q0 -72 10 -135t35.5 -121.5t64 -100t99.5 -66.5t139 -25zM1145 1872l61 -170q23 -54 23 -72q0 -33 -51 -33q-17 0 -35 10.5
t-25.5 18t-25.5 27.5l-195 198q-3 3 -12.5 13t-15.5 16.5t-11.5 16.5t-5.5 18q0 17 10 28t29 14.5t33.5 4.5t37.5 -0.5t27 -1.5h36.5t29 1t21 -1t17 -2.5t12.5 -7t11 -10.5t8.5 -16t10 -21.5t10.5 -30.5z" />
    <glyph glyph-name="Oacute" unicode="&#xd3;" horiz-adv-x="1761" 
d="M924 -31q-152 0 -285 45t-233 128t-158 210t-58 281q0 178 69.5 344t195.5 291q262 262 663 262q151 0 282.5 -44.5t229.5 -127t154.5 -208t56.5 -278.5q0 -189 -71.5 -356.5t-194 -287.5t-292 -189.5t-359.5 -69.5zM934 123q69 0 145 29.5t125 76.5q84 78 144 213
q49 109 78.5 244t29.5 254q0 67 -11 128t-36.5 118.5t-63.5 100t-97 68t-132 25.5q-147 0 -247.5 -83.5t-170.5 -229.5q-52 -110 -82 -242t-30 -254q0 -72 10 -135t35.5 -121.5t64 -100t99.5 -66.5t139 -25zM1276 1841l-260 -199q-21 -17 -31 -24t-28 -14t-37 -7
q-13 0 -20 0.5t-17 3t-14.5 9t-4.5 16.5q0 19 37 68l133 194q3 4 15.5 22.5t18.5 25.5t19.5 15t28.5 9h21h63q2 0 25 1t37.5 0t35 -4t31 -12.5t10.5 -25.5q0 -34 -63 -78z" />
    <glyph glyph-name="Ocircumflex" unicode="&#xd4;" horiz-adv-x="1761" 
d="M924 -31q-152 0 -285 45t-233 128t-158 210t-58 281q0 178 69.5 344t195.5 291q262 262 663 262q151 0 282.5 -44.5t229.5 -127t154.5 -208t56.5 -278.5q0 -189 -71.5 -356.5t-194 -287.5t-292 -189.5t-359.5 -69.5zM934 123q69 0 145 29.5t125 76.5q84 78 144 213
q49 109 78.5 244t29.5 254q0 67 -11 128t-36.5 118.5t-63.5 100t-97 68t-132 25.5q-147 0 -247.5 -83.5t-170.5 -229.5q-52 -110 -82 -242t-30 -254q0 -72 10 -135t35.5 -121.5t64 -100t99.5 -66.5t139 -25zM1102 1767l-225 -129q-3 -2 -19.5 -11.5t-24.5 -14t-21.5 -9
t-23.5 -4.5q-19 0 -31 12t-12 29q0 7 2 14t6.5 14.5t8 12.5t11.5 12.5t11.5 11t12.5 11t10 8.5l229 197q1 1 9.5 9t11 10t10.5 9t12 9t11 6.5t12.5 6.5t13 3.5t14.5 1.5q10 0 18 -1.5t16 -6t12.5 -6.5t12.5 -11t9.5 -10.5t10.5 -14t10 -13.5l147 -201q37 -48 37 -72
q0 -17 -13 -29t-30 -12q-8 0 -16.5 2t-19 8t-15.5 9t-17.5 12t-13.5 10z" />
    <glyph glyph-name="Otilde" unicode="&#xd5;" horiz-adv-x="1761" 
d="M924 -31q-152 0 -285 45t-233 128t-158 210t-58 281q0 178 69.5 344t195.5 291q262 262 663 262q151 0 282.5 -44.5t229.5 -127t154.5 -208t56.5 -278.5q0 -189 -71.5 -356.5t-194 -287.5t-292 -189.5t-359.5 -69.5zM934 123q69 0 145 29.5t125 76.5q84 78 144 213
q49 109 78.5 244t29.5 254q0 67 -11 128t-36.5 118.5t-63.5 100t-97 68t-132 25.5q-147 0 -247.5 -83.5t-170.5 -229.5q-52 -110 -82 -242t-30 -254q0 -72 10 -135t35.5 -121.5t64 -100t99.5 -66.5t139 -25zM1231 1845q28 0 51.5 12.5t36.5 27.5t30 27.5t33 12.5
q18 0 29.5 -13t11.5 -32q0 -30 -19 -67t-42 -64q-33 -41 -65 -64.5t-72 -23.5q-45 0 -133.5 36t-122.5 36t-63 -19.5t-51.5 -39t-41.5 -19.5q-17 0 -28 12t-11 29q0 25 21.5 65.5t42.5 65.5q68 88 137 88q44 0 131 -35t125 -35z" />
    <glyph glyph-name="Odieresis" unicode="&#xd6;" horiz-adv-x="1761" 
d="M924 -31q-152 0 -285 45t-233 128t-158 210t-58 281q0 178 69.5 344t195.5 291q262 262 663 262q151 0 282.5 -44.5t229.5 -127t154.5 -208t56.5 -278.5q0 -189 -71.5 -356.5t-194 -287.5t-292 -189.5t-359.5 -69.5zM934 123q69 0 145 29.5t125 76.5q84 78 144 213
q49 109 78.5 244t29.5 254q0 67 -11 128t-36.5 118.5t-63.5 100t-97 68t-132 25.5q-147 0 -247.5 -83.5t-170.5 -229.5q-52 -110 -82 -242t-30 -254q0 -72 10 -135t35.5 -121.5t64 -100t99.5 -66.5t139 -25zM831 1647q-68 0 -107.5 35t-39.5 104q0 66 50.5 112t117.5 46
q66 0 110 -31t44 -94q0 -75 -50 -123.5t-125 -48.5zM1331 1647q-69 0 -109 35t-40 102q0 68 50 114t118 46q66 0 109.5 -31t43.5 -94q0 -75 -49 -123.5t-123 -48.5z" />
    <glyph glyph-name="multiply" unicode="&#xd7;" horiz-adv-x="1351" 
d="M287 195l395 395l-395 393l139 137l393 -393l393 393l140 -137l-396 -393l396 -395l-138 -138l-395 396l-395 -396z" />
    <glyph glyph-name="Oslash" unicode="&#xd8;" horiz-adv-x="1761" 
d="M1556 1413l27 29q81 88 117 88q29 0 48 -16.5t19 -43.5t-32 -63l-37 -39l-35 -39q174 -183 174 -459q0 -150 -44.5 -288t-127.5 -248.5t-194 -193t-249.5 -127t-289.5 -44.5q-247 0 -453 125l-26 -28q-2 -2 -17.5 -19.5t-25 -27t-24.5 -23.5t-28.5 -20.5t-25.5 -6.5
q-24 0 -45 19t-21 43q0 15 9 32t17.5 27t27 28.5l22.5 22.5l29 31q-91 89 -138 208.5t-47 250.5q0 167 72 333.5t193 290.5q266 275 651 275q242 0 454 -117zM598 403l778 830q-77 149 -278 149q-108 0 -198.5 -54t-149.5 -139t-100 -192.5t-59 -211.5t-18 -199
q0 -101 25 -183zM1425 1090l-772 -824q42 -72 118.5 -107.5t166.5 -35.5q267 0 405 287q50 105 79.5 242.5t29.5 256.5q0 81 -27 181z" />
    <glyph glyph-name="Ugrave" unicode="&#xd9;" horiz-adv-x="1638" 
d="M332 934l65 283q13 50 13 88q0 28 -12.5 45.5t-27.5 24t-27.5 20t-12.5 35.5q0 69 121 69h358q22 0 37 -1.5t35.5 -6.5t31.5 -18.5t11 -34.5q0 -25 -14 -39t-42 -29q-41 -24 -55 -41t-27 -61q-49 -157 -108.5 -445.5t-59.5 -414.5q0 -135 90 -210t230 -75q122 0 217 63.5
t150 175.5q22 46 43 139.5t28 143.5t21 152l24 225l17 223q0 58 -9 83t-49 54q-21 12 -29 22t-8 28q0 67 103 67h233q20 0 34 -1.5t30 -7t24.5 -19t8.5 -33.5q0 -22 -11.5 -35.5t-35.5 -26.5q-27 -15 -38 -23t-21.5 -23.5t-16.5 -41.5l-21 -139l-20 -188q-9 -95 -17.5 -168
t-25 -173t-41.5 -184.5t-58 -144.5q-45 -87 -106.5 -147t-149.5 -99q-162 -76 -360 -76q-97 0 -179.5 11.5t-164 42t-138 79t-91.5 127t-35 181.5q0 155 86 524zM1083 1872l62 -170q22 -51 22 -72q0 -33 -51 -33q-17 0 -35 10.5t-25.5 18t-25.5 27.5l-194 198q-3 3 -12.5 13
t-15.5 16.5t-11.5 16.5t-5.5 18q0 17 10 28t29 14.5t33.5 4.5t37.5 -0.5t27 -1.5h36.5t29 1t21 -1.5t16.5 -2.5t12 -6.5t11 -10t8.5 -16.5t9.5 -22t11 -30z" />
    <glyph glyph-name="Uacute" unicode="&#xda;" horiz-adv-x="1638" 
d="M332 934l65 283q13 50 13 88q0 28 -12.5 45.5t-27.5 24t-27.5 20t-12.5 35.5q0 69 121 69h358q22 0 37 -1.5t35.5 -6.5t31.5 -18.5t11 -34.5q0 -25 -14 -39t-42 -29q-41 -24 -55 -41t-27 -61q-49 -157 -108.5 -445.5t-59.5 -414.5q0 -135 90 -210t230 -75q122 0 217 63.5
t150 175.5q22 46 43 139.5t28 143.5t21 152l24 225l17 223q0 58 -9 83t-49 54q-21 12 -29 22t-8 28q0 67 103 67h233q20 0 34 -1.5t30 -7t24.5 -19t8.5 -33.5q0 -22 -11.5 -35.5t-35.5 -26.5q-27 -15 -38 -23t-21.5 -23.5t-16.5 -41.5l-21 -139l-20 -188q-9 -95 -17.5 -168
t-25 -173t-41.5 -184.5t-58 -144.5q-45 -87 -106.5 -147t-149.5 -99q-162 -76 -360 -76q-97 0 -179.5 11.5t-164 42t-138 79t-91.5 127t-35 181.5q0 155 86 524zM1214 1841l-260 -199q-21 -17 -31 -24t-28 -14t-37 -7q-17 0 -26.5 1t-19 8t-9.5 20q0 19 37 68l133 194
q3 4 15.5 22.5t18.5 25.5t19.5 15t28.5 9h20h64q2 0 25 1t37.5 0t35 -4t31 -12.5t10.5 -25.5t-13 -33t-22.5 -24.5t-28.5 -20.5z" />
    <glyph glyph-name="Ucircumflex" unicode="&#xdb;" horiz-adv-x="1638" 
d="M332 934l65 283q13 50 13 88q0 28 -12.5 45.5t-27.5 24t-27.5 20t-12.5 35.5q0 69 121 69h358q22 0 37 -1.5t35.5 -6.5t31.5 -18.5t11 -34.5q0 -25 -14 -39t-42 -29q-41 -24 -55 -41t-27 -61q-49 -157 -108.5 -445.5t-59.5 -414.5q0 -135 90 -210t230 -75q122 0 217 63.5
t150 175.5q22 46 43 139.5t28 143.5t21 152l24 225l17 223q0 58 -9 83t-49 54q-21 12 -29 22t-8 28q0 67 103 67h233q20 0 34 -1.5t30 -7t24.5 -19t8.5 -33.5q0 -22 -11.5 -35.5t-35.5 -26.5q-27 -15 -38 -23t-21.5 -23.5t-16.5 -41.5l-21 -139l-20 -188q-9 -95 -17.5 -168
t-25 -173t-41.5 -184.5t-58 -144.5q-45 -87 -106.5 -147t-149.5 -99q-162 -76 -360 -76q-97 0 -179.5 11.5t-164 42t-138 79t-91.5 127t-35 181.5q0 155 86 524zM1040 1767l-225 -129q-4 -2 -19.5 -11.5t-24 -14t-21.5 -9t-23 -4.5q-19 0 -31 12t-12 29q0 6 2 13t4 12
t7.5 12t8.5 10.5t10 10.5l9.5 9.5t10.5 9t9 7.5l230 197q1 1 9.5 9t11 10t10.5 9t12 9t11 6.5t12.5 6.5t13 3.5t14.5 1.5q10 0 18 -1.5t15.5 -5.5t12.5 -7t12 -11t9.5 -11t10.5 -13.5t10 -13.5l148 -201q36 -46 36 -72q0 -17 -13 -29t-30 -12q-8 0 -16.5 2.5t-18.5 8
t-15.5 9t-16.5 11.5t-14 10z" />
    <glyph glyph-name="Udieresis" unicode="&#xdc;" horiz-adv-x="1638" 
d="M332 934l65 283q13 50 13 88q0 28 -12.5 45.5t-27.5 24t-27.5 20t-12.5 35.5q0 69 121 69h358q22 0 37 -1.5t35.5 -6.5t31.5 -18.5t11 -34.5q0 -25 -14 -39t-42 -29q-41 -24 -55 -41t-27 -61q-49 -157 -108.5 -445.5t-59.5 -414.5q0 -135 90 -210t230 -75q122 0 217 63.5
t150 175.5q22 46 43 139.5t28 143.5t21 152l24 225l17 223q0 58 -9 83t-49 54q-21 12 -29 22t-8 28q0 67 103 67h233q20 0 34 -1.5t30 -7t24.5 -19t8.5 -33.5q0 -22 -11.5 -35.5t-35.5 -26.5q-27 -15 -38 -23t-21.5 -23.5t-16.5 -41.5l-21 -139l-20 -188q-9 -95 -17.5 -168
t-25 -173t-41.5 -184.5t-58 -144.5q-45 -87 -106.5 -147t-149.5 -99q-162 -76 -360 -76q-97 0 -179.5 11.5t-164 42t-138 79t-91.5 127t-35 181.5q0 155 86 524zM770 1647q-68 0 -107.5 35t-39.5 104q0 66 50.5 112t117.5 46q66 0 109.5 -31t43.5 -94q0 -75 -49.5 -123.5
t-124.5 -48.5zM1270 1647q-70 0 -110 35t-40 102q0 68 50 114t118 46q66 0 110 -31t44 -94q0 -75 -49 -123.5t-123 -48.5z" />
    <glyph glyph-name="Yacute" unicode="&#xdd;" horiz-adv-x="1515" 
d="M1460 1499h223q20 0 33.5 -1.5t30.5 -6.5t26 -17.5t9 -31.5q0 -16 -9 -30.5t-16.5 -20.5t-27.5 -21q-33 -23 -84 -78l-578 -674l-61 -415q0 -32 20 -50t43.5 -23.5t43.5 -20t20 -41.5q0 -36 -26.5 -52t-64.5 -16h-528q-65 19 -65 61q0 45 75 72q22 7 32.5 10.5t24.5 13
t23 23.5q7 10 13 27t11 40t8 39t7.5 41.5t5.5 30.5l41 238l-178 295l-180 391q-23 55 -64 82q-38 22 -46 35q-9 13 -9 33q0 25 13 40t38 27h524q66 -11 66 -59q0 -35 -45 -60q-2 -1 -11 -6.5t-11.5 -7t-9.5 -6t-9.5 -6.5t-8 -7t-7.5 -8t-5.5 -8.5t-4.5 -10t-2 -11t-1 -13.5
q0 -69 88.5 -242t165.5 -294q40 41 104 112.5t142 163t132 172t54 113.5q0 21 -13 36t-28 22.5t-28 21t-13 31.5q0 23 10 38t30.5 20.5t35.5 7t41 1.5zM1153 1841l-260 -199q-21 -17 -31 -24t-28 -14t-37 -7q-13 0 -20 0.5t-17 3t-14.5 9t-4.5 16.5q0 19 37 68l133 194
q3 4 15.5 22.5t18.5 25.5t19.5 15t28.5 9h21h63q2 0 25 1t38 0t35 -4t31 -12.5t11 -25.5t-13 -33t-22.5 -24.5t-28.5 -20.5z" />
    <glyph glyph-name="Thorn" unicode="&#xde;" horiz-adv-x="1474" 
d="M260 254l170 1040q0 20 -7.5 35t-14 20t-29.5 23q-14 10 -20.5 15t-13.5 16t-7 24q0 72 115 72h401q27 0 43.5 -2t32.5 -15t16 -38q0 -22 -12 -35.5t-37 -28.5l-25 -18q-33 -24 -45 -43q-10 -14 -26 -72l-2 -14h223q575 0 575 -334q0 -82 -30.5 -157.5t-84 -134.5
t-120 -105.5t-143.5 -79.5q-121 -53 -279 -80t-301 -27l-18 -110q0 -29 12 -45t41 -35q15 -11 19.5 -15t12 -16t7.5 -24q0 -23 -11 -38.5t-31 -21.5t-37 -8t-40 -2h-385q-90 0 -90 55q0 23 11 36.5t34 27.5q33 21 53 39.5t28.5 38.5t10.5 28t4 29zM735 924l-76 -465
q201 14 334 92q90 56 150.5 140.5t60.5 176.5q0 119 -77 175.5t-203 56.5q-114 0 -154 -60q-21 -30 -35 -116z" />
    <glyph glyph-name="germandbls" unicode="&#xdf;" horiz-adv-x="1310" 
d="M709 958l-164 -923q-8 -21 -23.5 -28t-42.5 -7h-209q-5 0 -27 -0.5t-34 -0.5t-31.5 3t-30.5 9.5t-19.5 19t-8.5 30.5q0 7 1.5 13.5t3.5 11t6.5 9.5t7 7.5t10 7l10 6t11.5 6l11 5.5q16 8 28 21.5t19 25t13 33t8 31.5t5.5 35.5t4.5 31.5l117 666q16 90 29 145.5t45.5 127
t80.5 124.5q151 162 422 162q173 0 291 -51q77 -36 125.5 -93t48.5 -135q0 -56 -29.5 -110t-71 -95t-83 -76.5t-71 -69.5t-29.5 -60q0 -30 33.5 -98t74 -138t74 -161.5t33.5 -163.5q0 -74 -30.5 -134.5t-82 -98t-116 -57.5t-136.5 -20q-122 0 -223 56q-80 39 -80 100
q0 24 15 42.5t38 18.5q24 0 51.5 -20.5t58.5 -41t64 -20.5q53 0 80 34.5t27 88.5q0 55 -43.5 151t-87 189.5t-43.5 141.5q0 50 29 103t70.5 100t83 95.5t70.5 107.5t29 118q0 69 -42.5 115.5t-110.5 46.5q-128 0 -187 -138q-9 -20 -18 -46.5t-14.5 -47t-12.5 -55t-10 -50
t-10 -54t-8 -46.5z" />
    <glyph glyph-name="agrave" unicode="&#xe0;" horiz-adv-x="1310" 
d="M864 72l15 164q-61 -120 -157.5 -193.5t-219.5 -73.5q-83 0 -150 32t-110.5 86.5t-66.5 125.5t-23 152q0 120 49.5 236.5t131.5 204t195 141.5t234 54q78 0 144 -30t104 -92q50 46 109.5 84t103.5 38q27 0 46 -25.5t9 -66.5q-31 -121 -71 -337.5t-40 -299.5
q0 -39 20 -57.5t43.5 -21t43.5 -13.5t20 -37q0 -45 -83 -78q-4 -2 -12 -5l-7 -3q-179 -88 -244 -88q-40 0 -62 30t-22 73zM616 143q33 0 65.5 18t58.5 48.5t44.5 59.5t34.5 61q38 80 63 185.5t25 189.5q0 65 -30.5 108t-92.5 43q-54 0 -107 -45.5t-87 -101.5
q-46 -80 -75.5 -178t-29.5 -185q0 -35 6 -68t20 -64.5t41 -51t64 -19.5zM920 1374l61 -170q23 -54 23 -71q0 -33 -52 -33q-17 0 -34.5 10t-26 18t-25.5 27l-194 199l-16 16t-22 26t-7 21q0 17 10 28t29 14.5t33.5 4.5t37.5 -0.5t27 -1.5h36.5t29 1t21 -1t17 -2.5t12.5 -7
t11 -10.5t8.5 -16t10 -21.5t10.5 -30.5z" />
    <glyph glyph-name="aacute" unicode="&#xe1;" horiz-adv-x="1310" 
d="M864 72l15 164q-61 -120 -157.5 -193.5t-219.5 -73.5q-83 0 -150 32t-110.5 86.5t-66.5 125.5t-23 152q0 120 49.5 236.5t131.5 204t195 141.5t234 54q78 0 144 -30t104 -92q50 46 109.5 84t103.5 38q27 0 46 -25.5t9 -66.5q-31 -121 -71 -337.5t-40 -299.5
q0 -39 20 -57.5t43.5 -21t43.5 -13.5t20 -37q0 -45 -83 -78q-4 -2 -12 -5l-7 -3q-179 -88 -244 -88q-40 0 -62 30t-22 73zM616 143q33 0 65.5 18t58.5 48.5t44.5 59.5t34.5 61q38 80 63 185.5t25 189.5q0 65 -30.5 108t-92.5 43q-54 0 -107 -45.5t-87 -101.5
q-46 -80 -75.5 -178t-29.5 -185q0 -35 6 -68t20 -64.5t41 -51t64 -19.5zM1051 1343l-260 -198q-20 -16 -31 -23.5t-29 -14.5t-37 -7q-14 0 -20 0.5t-16 2.5t-14.5 8.5t-4.5 16.5q0 19 37 68l133 195q3 4 16 22.5t18.5 25t19 14.5t28.5 9h20h64q2 0 25 1t37.5 0t35 -4
t31 -12.5t10.5 -25.5q0 -34 -63 -78z" />
    <glyph glyph-name="acircumflex" unicode="&#xe2;" horiz-adv-x="1310" 
d="M864 72l15 164q-61 -120 -157.5 -193.5t-219.5 -73.5q-83 0 -150 32t-110.5 86.5t-66.5 125.5t-23 152q0 120 49.5 236.5t131.5 204t195 141.5t234 54q78 0 144 -30t104 -92q50 46 109.5 84t103.5 38q27 0 46 -25.5t9 -66.5q-31 -121 -71 -337.5t-40 -299.5
q0 -39 20 -57.5t43.5 -21t43.5 -13.5t20 -37q0 -45 -83 -78q-4 -2 -12 -5l-7 -3q-179 -88 -244 -88q-40 0 -62 30t-22 73zM616 143q33 0 65.5 18t58.5 48.5t44.5 59.5t34.5 61q38 80 63 185.5t25 189.5q0 65 -30.5 108t-92.5 43q-54 0 -107 -45.5t-87 -101.5
q-46 -80 -75.5 -178t-29.5 -185q0 -35 6 -68t20 -64.5t41 -51t64 -19.5zM877 1270l-226 -129q-4 -2 -19.5 -11.5t-24 -14t-21.5 -9t-23 -4.5q-19 0 -31 12t-12 29q0 7 2 14t6.5 14.5t8 12.5t11.5 12.5t11.5 11t12.5 11t10 8.5l229 196q2 2 11.5 10.5t12.5 11.5t11.5 10
t14 10t13.5 7t15.5 5.5t15.5 1.5q10 0 18 -1.5t15.5 -5.5t12.5 -7.5t11.5 -11t10 -11t10.5 -13.5t10 -14l148 -201q37 -48 37 -71q0 -17 -13 -29t-30 -12q-8 0 -16.5 2t-19 8t-15.5 9t-17.5 12t-13.5 10z" />
    <glyph glyph-name="atilde" unicode="&#xe3;" horiz-adv-x="1310" 
d="M864 72l15 164q-61 -120 -157.5 -193.5t-219.5 -73.5q-83 0 -150 32t-110.5 86.5t-66.5 125.5t-23 152q0 120 49.5 236.5t131.5 204t195 141.5t234 54q78 0 144 -30t104 -92q50 46 109.5 84t103.5 38q27 0 46 -25.5t9 -66.5q-31 -121 -71 -337.5t-40 -299.5
q0 -39 20 -57.5t43.5 -21t43.5 -13.5t20 -37q0 -45 -83 -78q-4 -2 -12 -5l-7 -3q-179 -88 -244 -88q-40 0 -62 30t-22 73zM616 143q33 0 65.5 18t58.5 48.5t44.5 59.5t34.5 61q38 80 63 185.5t25 189.5q0 65 -30.5 108t-92.5 43q-54 0 -107 -45.5t-87 -101.5
q-46 -80 -75.5 -178t-29.5 -185q0 -35 6 -68t20 -64.5t41 -51t64 -19.5zM1006 1348q28 0 51.5 12.5t36.5 27t30 27t33 12.5q18 0 29.5 -13t11.5 -32q0 -30 -19 -67t-42 -64q-72 -88 -138 -88q-45 0 -133.5 36t-122.5 36t-63 -19.5t-51 -39t-41 -19.5q-17 0 -28 12t-11 29
q0 25 21 66t42 65q68 88 138 88q44 0 131 -34.5t125 -34.5z" />
    <glyph glyph-name="adieresis" unicode="&#xe4;" horiz-adv-x="1310" 
d="M864 72l15 164q-61 -120 -157.5 -193.5t-219.5 -73.5q-83 0 -150 32t-110.5 86.5t-66.5 125.5t-23 152q0 120 49.5 236.5t131.5 204t195 141.5t234 54q78 0 144 -30t104 -92q50 46 109.5 84t103.5 38q27 0 46 -25.5t9 -66.5q-31 -121 -71 -337.5t-40 -299.5
q0 -39 20 -57.5t43.5 -21t43.5 -13.5t20 -37q0 -45 -83 -78q-4 -2 -12 -5l-7 -3q-179 -88 -244 -88q-40 0 -62 30t-22 73zM616 143q33 0 65.5 18t58.5 48.5t44.5 59.5t34.5 61q38 80 63 185.5t25 189.5q0 65 -30.5 108t-92.5 43q-54 0 -107 -45.5t-87 -101.5
q-46 -80 -75.5 -178t-29.5 -185q0 -35 6 -68t20 -64.5t41 -51t64 -19.5zM606 1149q-68 0 -107.5 35t-39.5 104q0 66 50.5 112t117.5 46q66 0 109.5 -31t43.5 -94q0 -75 -49.5 -123.5t-124.5 -48.5zM1106 1149q-70 0 -110 35t-40 102q0 68 50 114t118 46q66 0 110 -31t44 -94
q0 -75 -49 -123.5t-123 -48.5z" />
    <glyph glyph-name="aring" unicode="&#xe5;" horiz-adv-x="1310" 
d="M864 72l15 164q-61 -120 -157.5 -193.5t-219.5 -73.5q-83 0 -150 32t-110.5 86.5t-66.5 125.5t-23 152q0 120 49.5 236.5t131.5 204t195 141.5t234 54q78 0 144 -30t104 -92q50 46 109.5 84t103.5 38q27 0 46 -25.5t9 -66.5q-31 -121 -71 -337.5t-40 -299.5
q0 -39 20 -57.5t43.5 -21t43.5 -13.5t20 -37q0 -45 -83 -78q-4 -2 -12 -5l-7 -3q-179 -88 -244 -88q-40 0 -62 30t-22 73zM616 143q33 0 65.5 18t58.5 48.5t44.5 59.5t34.5 61q38 80 63 185.5t25 189.5q0 65 -30.5 108t-92.5 43q-54 0 -107 -45.5t-87 -101.5
q-46 -80 -75.5 -178t-29.5 -185q0 -35 6 -68t20 -64.5t41 -51t64 -19.5zM670 1307q0 91 62 154t153 63q89 0 151 -63.5t62 -151.5q0 -89 -63 -152t-152 -63q-88 0 -150.5 62.5t-62.5 150.5zM977 1307q0 40 -26.5 68t-65.5 28q-40 0 -67 -27.5t-27 -68.5q0 -38 27 -65.5
t65 -27.5t66 27.5t28 65.5z" />
    <glyph glyph-name="ae" unicode="&#xe6;" horiz-adv-x="1843" 
d="M1077 827q84 87 203 130.5t250 43.5q46 0 94.5 -7t100.5 -24.5t92 -43.5t66 -68.5t26 -95.5q0 -56 -22.5 -104.5t-62.5 -84.5t-91 -66t-112.5 -50.5t-122 -36t-124 -24.5t-115 -13.5t-98.5 -5.5q-3 -108 66.5 -171t179.5 -63q76 0 144.5 23.5t107.5 51.5t76.5 51.5
t58.5 23.5q25 0 41 -16t16 -41q0 -67 -151 -160q-182 -107 -389 -107q-119 0 -215.5 45.5t-149.5 141.5q-175 -187 -454 -187q-70 0 -134.5 13.5t-124 43t-95.5 85.5t-36 131q0 65 31 119t80 89.5t119 63t137.5 42.5t146.5 24.5t135.5 12t114.5 3.5q13 59 13 80
q0 81 -46 127.5t-126 46.5q-57 0 -94.5 -17.5t-86.5 -60.5q-34 -32 -48 -43t-42.5 -23t-62.5 -12q-46 0 -83.5 23.5t-37.5 68.5q0 86 135 150q139 65 324 65q55 0 106.5 -8t104.5 -26t94 -54t61 -86zM852 469q-422 -31 -422 -221q0 -56 37 -87.5t94 -31.5q64 0 117 31t87 82
t55.5 108t31.5 119zM1167 508q198 26 308 86q52 29 91.5 72t39.5 92q0 45 -35.5 72.5t-81.5 27.5q-57 0 -115.5 -37t-99.5 -88q-78 -91 -107 -225z" />
    <glyph glyph-name="ccedilla" unicode="&#xe7;" horiz-adv-x="1105" 
d="M696 137q66 0 128 25t99 55t72 55t54 25q24 0 40.5 -15.5t16.5 -39.5q0 -41 -48.5 -89t-101.5 -83q-162 -101 -354 -101q-121 0 -222 48t-163.5 143t-62.5 219q0 125 54 241t142 199t206 132.5t241 49.5q164 0 272 -75q92 -66 92 -150q0 -55 -41 -90t-96 -35
q-44 0 -72 15t-37.5 37t-18 48.5t-15 48.5t-28.5 37t-58 15q-109 0 -203 -150q-42 -66 -65 -154.5t-23 -172.5q0 -101 48 -169.5t144 -68.5zM659 0l-22 -104l100 10q70 0 130.5 -34t60.5 -99q0 -41 -26.5 -78.5t-65.5 -63.5q-100 -69 -261 -69q-28 0 -71 5t-95.5 16.5
t-89 34.5t-36.5 54q0 21 16 36.5t37 15.5q7 0 47 -15q124 -53 207 -53q38 0 70.5 6t62 29t29.5 61q0 32 -30 48t-65 16q-20 0 -61 -13q-48 -12 -55 -12q-14 0 -24.5 8.5t-10.5 22.5q0 6 14.5 61t14.5 56l16 61h108z" />
    <glyph glyph-name="egrave" unicode="&#xe8;" horiz-adv-x="1187" 
d="M502 373q3 -115 67.5 -176.5t180.5 -61.5q54 0 110.5 18.5t87.5 35.5t96 57q65 45 93 45q24 0 41.5 -15t17.5 -38q0 -27 -32.5 -62.5t-61.5 -56t-60 -39.5q-87 -52 -193 -81.5t-206 -29.5q-98 0 -185 26t-156 76.5t-109.5 132.5t-40.5 185q0 121 61 235.5t160 198.5
q202 178 483 178q160 0 266 -63q52 -31 85.5 -76t33.5 -100q0 -47 -19.5 -89.5t-49 -74.5t-78.5 -61t-92.5 -49t-108 -38.5t-108 -29t-108.5 -21.5t-94.5 -15t-80.5 -11zM504 512q43 3 96 12.5t114 29.5t110.5 47t82.5 68t33 89t-36 76t-85 28q-69 0 -141 -60.5t-118 -140.5
t-56 -149zM858 1374l62 -170q22 -51 22 -71q0 -33 -51 -33q-17 0 -34.5 10t-26 18t-25.5 27l-195 199l-16 16t-22 26t-7 21q0 17 10 28t29 14.5t33.5 4.5t37.5 -0.5t27 -1.5h36.5t29 1t21 -1t17 -2.5t12.5 -7t11 -10.5t8.5 -16t10 -21.5t10.5 -30.5z" />
    <glyph glyph-name="eacute" unicode="&#xe9;" horiz-adv-x="1187" 
d="M502 373q3 -115 67.5 -176.5t180.5 -61.5q54 0 110.5 18.5t87.5 35.5t96 57q65 45 93 45q24 0 41.5 -15t17.5 -38q0 -27 -32.5 -62.5t-61.5 -56t-60 -39.5q-87 -52 -193 -81.5t-206 -29.5q-98 0 -185 26t-156 76.5t-109.5 132.5t-40.5 185q0 121 61 235.5t160 198.5
q202 178 483 178q160 0 266 -63q52 -31 85.5 -76t33.5 -100q0 -47 -19.5 -89.5t-49 -74.5t-78.5 -61t-92.5 -49t-108 -38.5t-108 -29t-108.5 -21.5t-94.5 -15t-80.5 -11zM504 512q43 3 96 12.5t114 29.5t110.5 47t82.5 68t33 89t-36 76t-85 28q-69 0 -141 -60.5t-118 -140.5
t-56 -149zM989 1343l-260 -198q-21 -17 -31 -24t-28 -14t-37 -7q-14 0 -20 0.5t-16 2.5t-14.5 8.5t-4.5 16.5q0 20 36 68l134 195q4 5 16 23t18 24.5t19 14.5t28 9h21h63q2 0 25 1t38 0t35 -4t31 -12.5t11 -25.5t-13 -33t-22.5 -24.5t-28.5 -20.5z" />
    <glyph glyph-name="ecircumflex" unicode="&#xea;" horiz-adv-x="1187" 
d="M502 373q3 -115 67.5 -176.5t180.5 -61.5q54 0 110.5 18.5t87.5 35.5t96 57q65 45 93 45q24 0 41.5 -15t17.5 -38q0 -27 -32.5 -62.5t-61.5 -56t-60 -39.5q-87 -52 -193 -81.5t-206 -29.5q-98 0 -185 26t-156 76.5t-109.5 132.5t-40.5 185q0 121 61 235.5t160 198.5
q202 178 483 178q160 0 266 -63q52 -31 85.5 -76t33.5 -100q0 -47 -19.5 -89.5t-49 -74.5t-78.5 -61t-92.5 -49t-108 -38.5t-108 -29t-108.5 -21.5t-94.5 -15t-80.5 -11zM504 512q43 3 96 12.5t114 29.5t110.5 47t82.5 68t33 89t-36 76t-85 28q-69 0 -141 -60.5t-118 -140.5
t-56 -149zM815 1270l-225 -129q-4 -2 -19.5 -11.5t-24 -14t-21.5 -9t-23 -4.5q-19 0 -31 12t-12 29q0 6 2 13t4 12t7.5 12t8.5 10.5t10 10.5l9.5 9.5t10.5 9t9 7.5l230 196q2 2 11.5 10.5t12.5 11.5t11.5 10t14 10t13.5 7t15.5 5.5t15.5 1.5q10 0 18 -1.5t15.5 -5.5
t12.5 -7.5t11.5 -11t10 -11t10.5 -13.5t10 -14l147 -201q37 -48 37 -71q0 -17 -13 -29t-30 -12q-8 0 -16.5 2t-19 8t-15.5 9t-17.5 12t-13.5 10z" />
    <glyph glyph-name="edieresis" unicode="&#xeb;" horiz-adv-x="1187" 
d="M502 373q3 -115 67.5 -176.5t180.5 -61.5q54 0 110.5 18.5t87.5 35.5t96 57q65 45 93 45q24 0 41.5 -15t17.5 -38q0 -27 -32.5 -62.5t-61.5 -56t-60 -39.5q-87 -52 -193 -81.5t-206 -29.5q-98 0 -185 26t-156 76.5t-109.5 132.5t-40.5 185q0 121 61 235.5t160 198.5
q202 178 483 178q160 0 266 -63q52 -31 85.5 -76t33.5 -100q0 -47 -19.5 -89.5t-49 -74.5t-78.5 -61t-92.5 -49t-108 -38.5t-108 -29t-108.5 -21.5t-94.5 -15t-80.5 -11zM504 512q43 3 96 12.5t114 29.5t110.5 47t82.5 68t33 89t-36 76t-85 28q-69 0 -141 -60.5t-118 -140.5
t-56 -149zM545 1149q-68 0 -108 35.5t-40 103.5q0 66 50.5 112t117.5 46q66 0 110 -31t44 -94q0 -75 -49.5 -123.5t-124.5 -48.5zM1044 1149q-69 0 -109 35t-40 102q0 68 50 114t118 46q66 0 110 -31t44 -94q0 -75 -49.5 -123.5t-123.5 -48.5z" />
    <glyph glyph-name="igrave" unicode="&#xec;" horiz-adv-x="696" 
d="M625 584l-52 -330q0 -26 17.5 -40t39 -18t39 -18t17.5 -41q0 -25 -25.5 -46t-49.5 -31.5t-55 -20.5q-2 0 -3.5 -0.5t-3.5 -1.5q-49 -21 -126 -44.5t-116 -23.5q-43 0 -63.5 28.5t-20.5 74.5l94 628q0 31 -16.5 47.5t-36.5 20t-36.5 17t-16.5 38.5q0 51 116 98q3 1 9 4
l8 3q48 22 127.5 47.5t118.5 25.5q84 0 84 -94q0 -31 -9 -91t-23 -136.5t-17 -95.5zM612 1374l62 -170q22 -51 22 -71q0 -33 -51 -33q-17 0 -34.5 10t-26 18t-25.5 27l-194 199l-16.5 16.5t-22 25.5t-7.5 21q0 17 10 28t29.5 14.5t34 4.5t38 -0.5t26.5 -1.5h36.5t29 1
t21 -1.5t16.5 -2.5t12 -6.5t11 -10t8.5 -16.5t9.5 -22t11 -30z" />
    <glyph glyph-name="iacute" unicode="&#xed;" horiz-adv-x="696" 
d="M625 584l-52 -330q0 -26 17.5 -40t39 -18t39 -18t17.5 -41q0 -25 -25.5 -46t-49.5 -31.5t-55 -20.5q-2 0 -3.5 -0.5t-3.5 -1.5q-49 -21 -126 -44.5t-116 -23.5q-43 0 -63.5 28.5t-20.5 74.5l94 628q0 31 -16.5 47.5t-36.5 20t-36.5 17t-16.5 38.5q0 51 116 98q3 1 9 4
l8 3q48 22 127.5 47.5t118.5 25.5q84 0 84 -94q0 -31 -9 -91t-23 -136.5t-17 -95.5zM743 1343l-260 -198q-21 -17 -31 -24t-28 -14t-37 -7q-14 0 -20 0.5t-16 2.5t-14.5 8.5t-4.5 16.5q0 19 37 68l133 195q3 4 16 22.5t18.5 25t19 14.5t28.5 9h20h64q2 0 25 1t37.5 0t35 -4
t31 -12.5t10.5 -25.5t-13 -33t-22.5 -24.5t-28.5 -20.5z" />
    <glyph glyph-name="icircumflex" unicode="&#xee;" horiz-adv-x="696" 
d="M625 584l-52 -330q0 -26 17.5 -40t39 -18t39 -18t17.5 -41q0 -25 -25.5 -46t-49.5 -31.5t-55 -20.5q-2 0 -3.5 -0.5t-3.5 -1.5q-49 -21 -126 -44.5t-116 -23.5q-43 0 -63.5 28.5t-20.5 74.5l94 628q0 31 -16.5 47.5t-36.5 20t-36.5 17t-16.5 38.5q0 51 116 98q3 1 9 4
l8 3q48 22 127.5 47.5t118.5 25.5q84 0 84 -94q0 -31 -9 -91t-23 -136.5t-17 -95.5zM569 1270l-225 -129q-4 -2 -19.5 -11.5t-24 -14t-21.5 -9t-23 -4.5q-19 0 -31 12t-12 29q0 6 2 13t4 12t7.5 12t8.5 10.5t10 10.5l9.5 9.5t10.5 9t9 7.5l230 196q2 2 11.5 10.5t12.5 11.5
t11.5 10t14 10t13.5 7t15.5 5.5t15.5 1.5q10 0 18 -1.5t15.5 -5.5t12.5 -7.5t11.5 -11t10 -11t10.5 -13.5t10 -14l148 -201q36 -46 36 -71q0 -17 -13 -29t-30 -12q-8 0 -16.5 2t-19 8t-15.5 9t-17.5 12t-13.5 10z" />
    <glyph glyph-name="idieresis" unicode="&#xef;" horiz-adv-x="696" 
d="M625 584l-52 -330q0 -26 17.5 -40t39 -18t39 -18t17.5 -41q0 -25 -25.5 -46t-49.5 -31.5t-55 -20.5q-2 0 -3.5 -0.5t-3.5 -1.5q-49 -21 -126 -44.5t-116 -23.5q-43 0 -63.5 28.5t-20.5 74.5l94 628q0 31 -16.5 47.5t-36.5 20t-36.5 17t-16.5 38.5q0 51 116 98q3 1 9 4
l8 3q48 22 127.5 47.5t118.5 25.5q84 0 84 -94q0 -31 -9 -91t-23 -136.5t-17 -95.5zM299 1149q-68 0 -107.5 35t-39.5 104q0 66 50 112t117 46q66 0 110 -31t44 -94q0 -75 -49.5 -123.5t-124.5 -48.5zM799 1149q-70 0 -110 35t-40 102q0 68 50 114t118 46q66 0 110 -31
t44 -94q0 -75 -49 -123.5t-123 -48.5z" />
    <glyph glyph-name="eth" unicode="&#xf0;" horiz-adv-x="1310" 
d="M508 362q0 -106 45.5 -176.5t144.5 -70.5q80 0 141.5 52.5t95 133.5t50 162.5t16.5 154.5q0 101 -46 169.5t-142 68.5q-64 0 -117.5 -34.5t-87.5 -87.5t-57 -120.5t-33 -131t-10 -120.5zM676 1315l-219 -172q-82 -62 -119 -23l-19 21q-13 14 -15.5 28.5t0 25t14.5 24.5
t20 20.5t25.5 20t21.5 16.5l133 104q-127 11 -174 17q-13 2 -51 5t-57 6t-44.5 11t-37 23t-11.5 37q0 71 138 71q230 0 378 -59l144 113q43 34 71.5 50t54 16t44.5 -21l20 -23q8 -8 10.5 -17.5t-2.5 -19.5t-10.5 -18.5t-18.5 -20.5t-21.5 -19t-24.5 -20l-78 -61
q75 -34 145.5 -88t136.5 -133t114.5 -173t78 -216t29.5 -254q0 -128 -58.5 -244.5t-152 -197t-213 -128t-240.5 -47.5q-100 0 -193.5 28t-169.5 81t-121.5 138.5t-45.5 191.5q0 104 36 198t99.5 165t146.5 123.5t180 79.5t197 27q114 0 191 -59q-31 104 -117.5 202.5
t-214.5 170.5z" />
    <glyph glyph-name="ntilde" unicode="&#xf1;" 
d="M903 238l58 301q20 107 20 149q0 53 -25 87t-75 34q-40 0 -77.5 -22t-65.5 -56.5t-54 -84t-44 -96.5t-34 -102t-24.5 -93t-16.5 -76l-35 -183q-4 -21 -6 -30t-7 -25t-10.5 -22.5t-14.5 -12.5t-21 -6h-250q-42 0 -28 70l83 419q27 132 27 193q0 41 -17 62.5t-37 25
t-37 15.5t-17 38q0 42 98 83l6 3q188 92 252 92q31 0 50.5 -25t24.5 -52.5t5 -59.5q0 -66 -27 -172q172 309 422 309q117 0 204 -72t87 -192l-84 -473q0 -34 20 -51t43.5 -20t43.5 -14.5t20 -35.5q0 -11 -5.5 -21.5t-17 -20t-21 -16.5t-27.5 -15.5t-26.5 -12t-26 -10.5
t-19.5 -8q-62 -25 -140 -47.5t-127 -22.5q-39 0 -56 29t-17 72q0 35 26 168zM1047 1348q35 0 62.5 20t48 39.5t40.5 19.5q18 0 29.5 -13t11.5 -32q0 -30 -19 -67t-42 -64q-72 -88 -138 -88q-45 0 -133.5 36t-122.5 36t-63 -19.5t-51 -39t-41 -19.5q-17 0 -28 12t-11 29
q0 25 21 66t42 65q68 88 138 88q44 0 131 -34.5t125 -34.5z" />
    <glyph glyph-name="ograve" unicode="&#xf2;" horiz-adv-x="1310" 
d="M688 -31q-100 0 -193.5 28t-169.5 81t-121.5 138.5t-45.5 191.5q0 119 53 230.5t143 195.5q188 167 463 167q104 0 198.5 -29.5t170.5 -84.5t121 -143.5t45 -198.5q0 -117 -54.5 -226t-146.5 -188q-94 -78 -216 -120t-247 -42zM698 115q80 0 141.5 52.5t95 133.5
t50 162.5t16.5 154.5q0 101 -46 169.5t-142 68.5q-64 0 -117.5 -34.5t-87.5 -87.5t-57 -120.5t-33 -131t-10 -120.5q0 -106 45.5 -176.5t144.5 -70.5zM920 1374l61 -170q23 -54 23 -71q0 -33 -52 -33q-17 0 -34.5 10t-26 18t-25.5 27l-194 199l-16 16t-22 26t-7 21
q0 17 10 28t29 14.5t33.5 4.5t37.5 -0.5t27 -1.5h36.5t29 1t21 -1t17 -2.5t12.5 -7t11 -10.5t8.5 -16t10 -21.5t10.5 -30.5z" />
    <glyph glyph-name="oacute" unicode="&#xf3;" horiz-adv-x="1310" 
d="M688 -31q-100 0 -193.5 28t-169.5 81t-121.5 138.5t-45.5 191.5q0 119 53 230.5t143 195.5q188 167 463 167q104 0 198.5 -29.5t170.5 -84.5t121 -143.5t45 -198.5q0 -117 -54.5 -226t-146.5 -188q-94 -78 -216 -120t-247 -42zM698 115q80 0 141.5 52.5t95 133.5
t50 162.5t16.5 154.5q0 101 -46 169.5t-142 68.5q-64 0 -117.5 -34.5t-87.5 -87.5t-57 -120.5t-33 -131t-10 -120.5q0 -106 45.5 -176.5t144.5 -70.5zM1051 1343l-260 -198q-20 -16 -31 -23.5t-29 -14.5t-37 -7q-14 0 -20 0.5t-16 2.5t-14.5 8.5t-4.5 16.5q0 19 37 68
l133 195q3 4 16 22.5t18.5 25t19 14.5t28.5 9h20h64q2 0 25 1t37.5 0t35 -4t31 -12.5t10.5 -25.5q0 -34 -63 -78z" />
    <glyph glyph-name="ocircumflex" unicode="&#xf4;" horiz-adv-x="1310" 
d="M688 -31q-100 0 -193.5 28t-169.5 81t-121.5 138.5t-45.5 191.5q0 119 53 230.5t143 195.5q188 167 463 167q104 0 198.5 -29.5t170.5 -84.5t121 -143.5t45 -198.5q0 -117 -54.5 -226t-146.5 -188q-94 -78 -216 -120t-247 -42zM698 115q80 0 141.5 52.5t95 133.5
t50 162.5t16.5 154.5q0 101 -46 169.5t-142 68.5q-64 0 -117.5 -34.5t-87.5 -87.5t-57 -120.5t-33 -131t-10 -120.5q0 -106 45.5 -176.5t144.5 -70.5zM877 1270l-226 -129q-4 -2 -19.5 -11.5t-24 -14t-21.5 -9t-23 -4.5q-19 0 -31 12t-12 29q0 7 2 14t6.5 14.5t8 12.5
t11.5 12.5t11.5 11t12.5 11t10 8.5l229 196q2 2 11.5 10.5t12.5 11.5t11.5 10t14 10t13.5 7t15.5 5.5t15.5 1.5q10 0 18 -1.5t15.5 -5.5t12.5 -7.5t11.5 -11t10 -11t10.5 -13.5t10 -14l148 -201q37 -48 37 -71q0 -17 -13 -29t-30 -12q-8 0 -16.5 2t-19 8t-15.5 9t-17.5 12
t-13.5 10z" />
    <glyph glyph-name="otilde" unicode="&#xf5;" horiz-adv-x="1310" 
d="M688 -31q-100 0 -193.5 28t-169.5 81t-121.5 138.5t-45.5 191.5q0 119 53 230.5t143 195.5q188 167 463 167q104 0 198.5 -29.5t170.5 -84.5t121 -143.5t45 -198.5q0 -117 -54.5 -226t-146.5 -188q-94 -78 -216 -120t-247 -42zM698 115q80 0 141.5 52.5t95 133.5
t50 162.5t16.5 154.5q0 101 -46 169.5t-142 68.5q-64 0 -117.5 -34.5t-87.5 -87.5t-57 -120.5t-33 -131t-10 -120.5q0 -106 45.5 -176.5t144.5 -70.5zM1006 1348q28 0 51.5 12.5t36.5 27t30 27t33 12.5q18 0 29.5 -13t11.5 -32q0 -30 -19 -67t-42 -64q-72 -88 -138 -88
q-45 0 -133.5 36t-122.5 36t-63 -19.5t-51 -39t-41 -19.5q-17 0 -28 12t-11 29q0 25 21 66t42 65q68 88 138 88q44 0 131 -34.5t125 -34.5z" />
    <glyph glyph-name="odieresis" unicode="&#xf6;" horiz-adv-x="1310" 
d="M688 -31q-100 0 -193.5 28t-169.5 81t-121.5 138.5t-45.5 191.5q0 119 53 230.5t143 195.5q188 167 463 167q104 0 198.5 -29.5t170.5 -84.5t121 -143.5t45 -198.5q0 -117 -54.5 -226t-146.5 -188q-94 -78 -216 -120t-247 -42zM698 115q80 0 141.5 52.5t95 133.5
t50 162.5t16.5 154.5q0 101 -46 169.5t-142 68.5q-64 0 -117.5 -34.5t-87.5 -87.5t-57 -120.5t-33 -131t-10 -120.5q0 -106 45.5 -176.5t144.5 -70.5zM606 1149q-68 0 -107.5 35t-39.5 104q0 66 50.5 112t117.5 46q66 0 109.5 -31t43.5 -94q0 -75 -49.5 -123.5t-124.5 -48.5
zM1106 1149q-70 0 -110 35t-40 102q0 68 50 114t118 46q66 0 110 -31t44 -94q0 -75 -49 -123.5t-123 -48.5z" />
    <glyph glyph-name="divide" unicode="&#xf7;" horiz-adv-x="1351" 
d="M283 492v194h1032v-194h-1032zM799 0q-66 0 -110 42.5t-44 111.5t44 111t110 42t109.5 -42t43.5 -111t-43.5 -111.5t-109.5 -42.5zM799 870q-66 0 -110 42.5t-44 111.5t44 111.5t110 42.5t109.5 -42.5t43.5 -111.5t-43.5 -111.5t-109.5 -42.5z" />
    <glyph glyph-name="oslash" unicode="&#xf8;" horiz-adv-x="1310" 
d="M1124 928l39 37q3 3 18 17.5t24.5 22.5t24 19.5t27.5 17t25 5.5q23 0 40 -17t17 -39q0 -12 -5 -23.5t-15 -23.5t-17 -19t-21 -19t-17 -15l-39 -37q125 -125 125 -297q0 -123 -56.5 -234.5t-148 -188t-208 -121t-235.5 -44.5q-182 0 -319 70l-39 -39q-1 -1 -11.5 -12.5
t-14.5 -15.5l-14.5 -14.5t-17.5 -15t-17 -11t-19.5 -9t-18.5 -2.5q-23 0 -41 17t-18 40q0 10 5.5 21.5t15.5 23.5t18 20t20 19.5t15 14.5l35 37q-60 58 -92.5 137.5t-32.5 163.5q0 113 58.5 228.5t147.5 195.5q90 78 207.5 120.5t239.5 42.5q180 0 315 -73zM502 311l456 461
q-24 37 -63 60.5t-80 23.5q-67 0 -133.5 -50t-110.5 -116q-82 -130 -82 -291q0 -41 13 -88zM999 649l-458 -461q70 -73 159 -73q74 0 136 41t100 105.5t59 137.5t21 142q0 34 -17 108z" />
    <glyph glyph-name="ugrave" unicode="&#xf9;" 
d="M266 397l37 193q14 68 14 104q0 33 -16.5 52t-36.5 23.5t-36.5 16t-16.5 31.5q0 53 98 90q227 94 295 94q27 0 44 -19t22.5 -42.5t5.5 -50.5q0 -32 -9 -86t-23.5 -122t-18.5 -91l-33 -178q-2 -12 -8 -42.5t-9.5 -55t-3.5 -40.5q0 -46 27.5 -74t71.5 -28q58 0 109.5 51
t86 123t63.5 166t44 162t24 129q1 3 4.5 26.5t7 40t8.5 39t11.5 38t13.5 22.5q7 8 20 12t21.5 4.5t28.5 0t23 -0.5h141q3 0 18 0.5t22.5 0t18.5 -3t16 -10.5t5 -20q0 -7 -17 -92l-69 -373q-2 -15 -10 -60t-12.5 -79t-4.5 -55q0 -37 21 -57.5t45.5 -25.5t45.5 -17.5t21 -34.5
q0 -25 -26 -47q-27 -22 -181 -82l-106 -41q-4 -1 -19.5 -7.5t-26 -9t-22.5 -2.5q-75 0 -75 144l10 133l2 35q-63 -135 -168 -223.5t-238 -88.5q-114 0 -199 68t-85 180q0 21 2.5 47t5.5 42.5t8.5 47.5t7.5 43zM961 1374l61 -170q22 -51 22 -71q0 -33 -51 -33q-17 0 -34.5 10
t-26 18t-25.5 27l-194 199l-16 16t-22 26t-7 21q0 17 10 28t29 14.5t33.5 4.5t37.5 -0.5t27 -1.5h36.5t29 1t21 -1t17 -2.5t12.5 -7t11 -10.5t8.5 -16t10 -21.5t10.5 -30.5z" />
    <glyph glyph-name="uacute" unicode="&#xfa;" 
d="M266 397l37 193q14 68 14 104q0 33 -16.5 52t-36.5 23.5t-36.5 16t-16.5 31.5q0 53 98 90q227 94 295 94q27 0 44 -19t22.5 -42.5t5.5 -50.5q0 -32 -9 -86t-23.5 -122t-18.5 -91l-33 -178q-2 -12 -8 -42.5t-9.5 -55t-3.5 -40.5q0 -46 27.5 -74t71.5 -28q58 0 109.5 51
t86 123t63.5 166t44 162t24 129q1 3 4.5 26.5t7 40t8.5 39t11.5 38t13.5 22.5q7 8 20 12t21.5 4.5t28.5 0t23 -0.5h141q3 0 18 0.5t22.5 0t18.5 -3t16 -10.5t5 -20q0 -7 -17 -92l-69 -373q-2 -15 -10 -60t-12.5 -79t-4.5 -55q0 -37 21 -57.5t45.5 -25.5t45.5 -17.5t21 -34.5
q0 -25 -26 -47q-27 -22 -181 -82l-106 -41q-4 -1 -19.5 -7.5t-26 -9t-22.5 -2.5q-75 0 -75 144l10 133l2 35q-63 -135 -168 -223.5t-238 -88.5q-114 0 -199 68t-85 180q0 21 2.5 47t5.5 42.5t8.5 47.5t7.5 43zM1092 1343l-261 -198q-21 -17 -31 -24t-28 -14t-37 -7
q-14 0 -20 0.5t-16 2.5t-14.5 8.5t-4.5 16.5q0 19 37 68l133 195q3 4 16 22.5t18.5 25t19 14.5t28.5 9h20h64q2 0 25 1t37.5 0t35 -4t31 -12.5t10.5 -25.5q0 -34 -63 -78z" />
    <glyph glyph-name="ucircumflex" unicode="&#xfb;" 
d="M266 397l37 193q14 68 14 104q0 33 -16.5 52t-36.5 23.5t-36.5 16t-16.5 31.5q0 53 98 90q227 94 295 94q27 0 44 -19t22.5 -42.5t5.5 -50.5q0 -32 -9 -86t-23.5 -122t-18.5 -91l-33 -178q-2 -12 -8 -42.5t-9.5 -55t-3.5 -40.5q0 -46 27.5 -74t71.5 -28q58 0 109.5 51
t86 123t63.5 166t44 162t24 129q1 3 4.5 26.5t7 40t8.5 39t11.5 38t13.5 22.5q7 8 20 12t21.5 4.5t28.5 0t23 -0.5h141q3 0 18 0.5t22.5 0t18.5 -3t16 -10.5t5 -20q0 -7 -17 -92l-69 -373q-2 -15 -10 -60t-12.5 -79t-4.5 -55q0 -37 21 -57.5t45.5 -25.5t45.5 -17.5t21 -34.5
q0 -25 -26 -47q-27 -22 -181 -82l-106 -41q-4 -1 -19.5 -7.5t-26 -9t-22.5 -2.5q-75 0 -75 144l10 133l2 35q-63 -135 -168 -223.5t-238 -88.5q-114 0 -199 68t-85 180q0 21 2.5 47t5.5 42.5t8.5 47.5t7.5 43zM918 1270l-226 -129q-4 -2 -19.5 -11.5t-24 -14t-21.5 -9
t-23 -4.5q-19 0 -31 12t-12 29q0 7 2 14t6.5 14.5t8 12.5t11.5 12.5t11.5 11t12.5 11t10 8.5l229 196q2 2 11.5 10.5t12.5 11.5t11.5 10t14 10t13.5 7t15.5 5.5t15.5 1.5q10 0 18 -1.5t15.5 -5.5t12.5 -7.5t11.5 -11t10 -11t10.5 -13.5t10 -14l148 -201q37 -48 37 -71
q0 -17 -13 -29t-30 -12q-8 0 -16.5 2t-19 8t-15.5 9t-17.5 12t-13.5 10z" />
    <glyph glyph-name="udieresis" unicode="&#xfc;" 
d="M266 397l37 193q14 68 14 104q0 33 -16.5 52t-36.5 23.5t-36.5 16t-16.5 31.5q0 53 98 90q227 94 295 94q27 0 44 -19t22.5 -42.5t5.5 -50.5q0 -32 -9 -86t-23.5 -122t-18.5 -91l-33 -178q-2 -12 -8 -42.5t-9.5 -55t-3.5 -40.5q0 -46 27.5 -74t71.5 -28q58 0 109.5 51
t86 123t63.5 166t44 162t24 129q1 3 4.5 26.5t7 40t8.5 39t11.5 38t13.5 22.5q7 8 20 12t21.5 4.5t28.5 0t23 -0.5h141q3 0 18 0.5t22.5 0t18.5 -3t16 -10.5t5 -20q0 -7 -17 -92l-69 -373q-2 -15 -10 -60t-12.5 -79t-4.5 -55q0 -37 21 -57.5t45.5 -25.5t45.5 -17.5t21 -34.5
q0 -25 -26 -47q-27 -22 -181 -82l-106 -41q-4 -1 -19.5 -7.5t-26 -9t-22.5 -2.5q-75 0 -75 144l10 133l2 35q-63 -135 -168 -223.5t-238 -88.5q-114 0 -199 68t-85 180q0 21 2.5 47t5.5 42.5t8.5 47.5t7.5 43zM647 1149q-68 0 -107.5 35t-39.5 104q0 66 50.5 112t117.5 46
q66 0 109.5 -31t43.5 -94q0 -75 -49.5 -123.5t-124.5 -48.5zM1147 1149q-70 0 -110 35t-40 102q0 68 50 114t118 46q66 0 110 -31t44 -94q0 -75 -49 -123.5t-123 -48.5z" />
    <glyph glyph-name="yacute" unicode="&#xfd;" horiz-adv-x="1146" 
d="M606 915l-18 -352q0 -39 1.5 -77t10 -99t23 -105t44 -77t68.5 -33q45 0 97 56.5t90.5 133t64 153t25.5 118.5q0 33 -7 51t-30 45q-31 35 -45.5 61t-14.5 64q0 58 41.5 102.5t100.5 44.5q40 0 70 -18t45.5 -48t22.5 -63.5t7 -70.5q0 -159 -84 -358.5t-196 -360.5
q-39 -56 -89 -116.5t-117.5 -127t-135 -118t-143 -85.5t-140.5 -34t-114.5 31t-49.5 92q0 49 38.5 78.5t90.5 29.5q34 0 75.5 -23.5t61.5 -23.5q63 0 178.5 103t153.5 175q-38 -32 -56 -46t-51.5 -31t-60.5 -17q-85 0 -150 47t-98 127q-21 48 -31.5 124t-12 126t-1.5 133
l4 189q0 22 -1 32t-5 22t-14.5 19t-28.5 13q-41 16 -50 28q-9 11 -9 29q0 13 8 25t16.5 19.5t26 16t25 11t24.5 8.5q226 63 262 63q78 0 78 -86zM969 1343l-260 -198q-20 -16 -31 -23.5t-29 -14.5t-37 -7q-14 0 -20 0.5t-16 2.5t-14.5 8.5t-4.5 16.5q0 19 37 68l133 195
q3 4 16 22.5t18.5 25t19 14.5t28.5 9h20h64q2 0 25 1t37.5 0t35 -4t31 -12.5t10.5 -25.5q0 -34 -63 -78z" />
    <glyph glyph-name="thorn" unicode="&#xfe;" horiz-adv-x="1351" 
d="M565 168l-33 -162q-28 -133 -28 -199q0 -29 10 -48.5t22.5 -28t22.5 -22t10 -32.5t-6.5 -32.5t-22 -21.5t-26.5 -12.5t-35 -6.5t-31.5 -2h-31.5h-144q-138 0 -172 10q-49 14 -49 55q0 29 15.5 44t46.5 28q23 10 34 23t19 36q14 38 45 209l168 914q31 183 31 225
q0 35 -11 52.5t-41 29.5q-2 1 -10.5 4.5t-11 4.5t-9.5 4.5t-9.5 5.5t-7 6.5t-6.5 8.5t-3.5 10t-1.5 13q0 10 4 19.5t12.5 17.5t16 14.5t20.5 13.5t20 10.5t21 9.5t17 7q183 90 249 90q47 0 64.5 -28t17.5 -78q0 -57 -26 -189l-90 -460l4 -4q44 72 78 116.5t83.5 89.5
t111 66.5t138.5 21.5q169 0 265 -111t96 -292q0 -89 -31 -180.5t-88 -171t-130.5 -142.5t-165 -99t-185.5 -36q-28 0 -56.5 4.5t-60 14.5t-51 32t-19.5 52q0 26 13.5 50.5t38.5 24.5q10 0 30.5 -2t30.5 -2q55 0 101.5 32.5t95.5 86.5q65 70 98 158q29 96 29 182
q0 50 -11 90.5t-43 70.5t-82 30q-47 0 -89.5 -26.5t-74 -66.5t-60 -99.5t-47 -113.5t-36 -121t-26 -108.5t-17.5 -89.5z" />
    <glyph glyph-name="ydieresis" unicode="&#xff;" horiz-adv-x="1146" 
d="M606 915l-18 -352q0 -39 1.5 -77t10 -99t23 -105t44 -77t68.5 -33q45 0 97 56.5t90.5 133t64 153t25.5 118.5q0 33 -7 51t-30 45q-31 35 -45.5 61t-14.5 64q0 58 41.5 102.5t100.5 44.5q40 0 70 -18t45.5 -48t22.5 -63.5t7 -70.5q0 -159 -84 -358.5t-196 -360.5
q-39 -56 -89 -116.5t-117.5 -127t-135 -118t-143 -85.5t-140.5 -34t-114.5 31t-49.5 92q0 49 38.5 78.5t90.5 29.5q34 0 75.5 -23.5t61.5 -23.5q63 0 178.5 103t153.5 175q-38 -32 -56 -46t-51.5 -31t-60.5 -17q-85 0 -150 47t-98 127q-21 48 -31.5 124t-12 126t-1.5 133
l4 189q0 22 -1 32t-5 22t-14.5 19t-28.5 13q-41 16 -50 28q-9 11 -9 29q0 13 8 25t16.5 19.5t26 16t25 11t24.5 8.5q226 63 262 63q78 0 78 -86zM524 1149q-68 0 -107.5 35t-39.5 104q0 66 50.5 112t117.5 46q66 0 109.5 -31t43.5 -94q0 -75 -49.5 -123.5t-124.5 -48.5z
M1024 1149q-70 0 -110 35t-40 102q0 68 50 114t118 46q66 0 110 -31t44 -94q0 -75 -49 -123.5t-123 -48.5z" />
    <glyph glyph-name="dotlessi" unicode="&#x131;" horiz-adv-x="696" 
d="M625 584l-52 -330q0 -26 17.5 -40t39 -18t39 -18t17.5 -41q0 -25 -25.5 -46t-49.5 -31.5t-55 -20.5q-2 0 -3.5 -0.5t-3.5 -1.5q-49 -21 -126 -44.5t-116 -23.5q-43 0 -63.5 28.5t-20.5 74.5l94 628q0 31 -16.5 47.5t-36.5 20t-36.5 17t-16.5 38.5q0 51 116 98q3 1 9 4
l8 3q48 22 127.5 47.5t118.5 25.5q84 0 84 -94q0 -31 -9 -91t-23 -136.5t-17 -95.5z" />
    <glyph glyph-name="Lslash" unicode="&#x141;" horiz-adv-x="1433" 
d="M797 971l235 157q3 2 15 9.5t19.5 12t18.5 10t20 8.5t17 3q28 0 47 -19.5t19 -47.5q0 -31 -47 -66l-377 -247l-86 -564q0 -46 33 -61q39 -16 170 -16q68 0 100 0.5t75.5 5.5t66.5 13.5t57 26t64 41.5t73 62q21 18 30 25t28 15.5t38 8.5q25 0 45.5 -15.5t20.5 -39.5
t-31 -94q-2 -4 -8.5 -21t-10.5 -26t-12 -26t-14 -28.5t-13.5 -25t-15 -23.5t-14.5 -16q-16 -15 -41 -23t-42 -9t-48 -1h-934q-2 0 -22 -0.5t-27 0t-25 2t-26 5.5t-19 10.5t-15.5 17t-4.5 24.5q0 16 7.5 28t16 18t25.5 16q46 28 59 47q15 20 25 65l57 328l-104 -69
q-52 -25 -68 -25q-25 0 -42 17t-17 42q0 31 37 68l225 147l90 568q0 21 -14.5 36t-31.5 22t-31.5 22t-14.5 36q0 25 12 41t34 22.5t40 8.5t43 2h360h15.5h17.5t17 -0.5t17.5 -2.5t15 -4.5t14.5 -7t10.5 -10.5t7.5 -14.5t2 -19.5q0 -23 -11.5 -37t-35.5 -27
q-46 -26 -62.5 -50t-25.5 -77z" />
    <glyph glyph-name="lslash" unicode="&#x142;" horiz-adv-x="860" 
d="M784 1036l109 74q2 1 31 20.5t49 29t35 9.5q22 0 36.5 -18t14.5 -41q0 -16 -13.5 -33.5t-27 -27.5t-38.5 -26t-30 -19l-200 -134l-72 -354q-39 -185 -39 -231q0 -40 14 -56.5t52 -29.5q2 -1 10 -3.5t11 -3.5t9.5 -4t9 -6t6.5 -7t5.5 -9.5t1.5 -11.5q0 -17 -10 -32
t-30 -27.5t-31.5 -18t-33.5 -15.5q-56 -25 -161 -58.5t-146 -33.5q-34 0 -50.5 24t-16.5 60q0 59 43 262l73 367l-45 -29q-3 -2 -22.5 -16t-33.5 -23.5t-34 -21.5t-36 -18.5t-27 -6.5q-21 0 -35.5 17t-14.5 39q0 19 14 37.5t25.5 27t34.5 23.5l211 141l35 164q37 170 37 244
q0 25 -9.5 38.5t-33.5 28.5q-1 1 -4 2q-34 19 -38 38q-1 3 -1 7q0 36 87.5 79.5t182 70t131.5 26.5q23 0 38 -15t15 -38z" />
    <glyph glyph-name="OE" unicode="&#x152;" horiz-adv-x="2252" 
d="M1585 737l-72 -487q0 -63 46 -84q41 -16 153 -16q127 0 201 20q39 12 71 31t50.5 35.5t54.5 52.5q42 45 84 45q29 0 51.5 -15.5t22.5 -42.5q0 -13 -5 -30.5t-12 -38t-10 -31.5q-46 -134 -61 -153q-8 -8 -17.5 -13.5t-24 -7.5t-22 -2.5t-26.5 0t-21 0.5h-885
q-17 0 -25.5 1t-17 8.5t-8.5 21.5l4 37q-107 -99 -305 -99q-145 0 -263 51t-196 140.5t-120 210.5t-42 262q0 166 62.5 328t169 288t262 203.5t328.5 77.5q225 0 329 -129q11 70 30.5 84t84.5 14h789q56 0 84 -19.5t28 -72.5l-6 -78q-3 -27 -4.5 -38.5t-7.5 -35.5t-15 -35.5
t-26.5 -21.5t-40.5 -10q-31 0 -48 17t-31.5 41t-41 48t-93 41t-169.5 17q-43 0 -72.5 -2.5t-67.5 -19.5t-51 -48l-77 -399h305q36 8 55.5 17.5t48.5 33.5q34 29 56 29q27 0 44 -17.5t17 -44.5q0 -60 -27 -160q-9 -40 -24.5 -61t-50.5 -21q-33 0 -72 35q-11 11 -22.5 18
t-18.5 11t-23.5 7t-20.5 3.5t-27 2t-27 1.5h-234zM1167 387l129 866q0 69 -41 101q-55 41 -147 41q-78 0 -147 -30t-120.5 -80.5t-94.5 -119t-71 -144t-48 -156t-28.5 -154t-8.5 -140.5q0 -198 76 -311q43 -62 113 -98.5t145 -36.5q64 0 108 18t70.5 56t40.5 81t24 107z" />
    <glyph glyph-name="oe" unicode="&#x153;" horiz-adv-x="2048" 
d="M1305 377q10 -112 88 -176t192 -64q66 0 133 24t109.5 53t81.5 53t57 24q23 0 41 -14.5t18 -36.5q0 -27 -29.5 -60.5t-56.5 -53.5t-57 -38q-89 -57 -196 -88t-213 -31q-234 0 -367 144q-85 -70 -192 -107t-218 -37q-104 0 -198 27.5t-170.5 80.5t-122 140t-45.5 197
q0 117 53 226t143 191q185 170 449 170q268 0 418 -161q187 161 452 161q50 0 101 -6.5t105.5 -24.5t96 -45t68.5 -72t27 -101q0 -289 -768 -375zM702 111q67 0 123.5 44.5t94.5 110.5q92 149 92 350q0 63 -18.5 115t-62.5 87.5t-108 35.5q-68 0 -123 -34.5t-89.5 -88
t-58 -122.5t-33 -133.5t-9.5 -125.5q0 -106 45.5 -172.5t146.5 -66.5zM1309 512q35 4 68.5 8.5t81.5 14.5t89 22t83.5 31.5t72.5 42.5t49 55.5t19 69.5q0 50 -34.5 81t-86.5 31q-67 0 -126.5 -32.5t-101 -85.5t-70.5 -113.5t-44 -124.5z" />
    <glyph glyph-name="Scaron" unicode="&#x160;" 
d="M719 -31q-221 0 -400 86q-96 42 -160.5 110.5t-64.5 160.5q0 70 41.5 118t108.5 48q34 0 58.5 -12.5t40 -39.5t23 -48t17.5 -58q31 -105 115 -154t204 -49q143 0 230 62q46 33 76 82t30 102q0 39 -18 71.5t-38 52t-63 39.5t-65 27.5t-71 22.5q-13 4 -19 6
q-51 16 -78 24.5t-75.5 26t-76.5 30.5t-68.5 35.5t-64.5 43.5t-51.5 51t-42.5 62.5t-25 73.5t-10 87q0 113 56 208.5t153 164.5q188 127 437 127q212 0 407 -86q84 -31 107 -60q18 -20 18 -69q0 -45 -7.5 -117t-19.5 -98q-23 -47 -73 -47q-33 0 -52 18.5t-27.5 48
t-16.5 65.5t-26.5 72t-49 65.5t-91.5 48t-147 18.5q-120 0 -197 -60q-35 -27 -58 -69t-23 -84q0 -50 26 -90t70.5 -68t102 -51.5t121 -45t126.5 -44.5t120.5 -54.5t102 -70.5t70.5 -96t26 -128q0 -106 -42.5 -198t-113 -157t-162.5 -112t-191.5 -69.5t-198.5 -22.5z
M909 1804l226 131q6 3 20 12t23 14t22 10t23 5q19 0 32 -13t13 -32q0 -8 -3.5 -17t-7.5 -15.5t-12.5 -15.5t-13.5 -13t-15 -12.5t-12 -10.5l-229 -196q-1 -1 -8 -7.5t-8.5 -8t-8 -7t-9 -7.5t-8.5 -6.5t-10 -6t-9.5 -4.5t-10.5 -4t-10.5 -2t-11.5 -1q-7 0 -13 1t-11 2
t-10.5 4.5t-8.5 5t-8.5 6.5t-7.5 7t-7.5 8.5t-7 8.5t-7.5 9.5t-7 9.5l-148 203q-37 48 -37 71q0 15 14 29t29 14q10 0 23 -5.5t20 -10t22.5 -15.5t16.5 -12z" />
    <glyph glyph-name="scaron" unicode="&#x161;" horiz-adv-x="1064" 
d="M561 -31q-168 0 -291 60q-63 29 -108 76.5t-45 107.5q0 52 36 87.5t87 35.5q30 0 51.5 -9.5t35.5 -29.5t21.5 -38.5t16.5 -49.5q18 -59 55.5 -81t103.5 -22q74 0 130.5 35.5t56.5 104.5q0 34 -26.5 60.5t-69 45t-93.5 36t-102 40.5t-93.5 52t-69 76t-26.5 108
q0 72 40.5 139t103.5 108q137 90 325 90q170 0 279 -65q113 -68 113 -156q0 -46 -33.5 -75t-79.5 -29t-72 20t-36.5 48t-22.5 56t-43.5 48t-85.5 20q-59 0 -105.5 -30.5t-46.5 -87.5q0 -40 37 -70.5t92 -48.5t120 -43.5t120 -53.5t92 -80.5t37 -123.5q0 -80 -44.5 -149.5
t-115.5 -114.5q-146 -97 -344 -97zM745 1307l226 131q6 3 20 12t23 14t22 10t23 5q19 0 32 -13t13 -32q0 -8 -3.5 -17t-7.5 -15.5t-12.5 -15.5t-13.5 -13t-15 -12.5t-12 -10.5l-229 -197q-20 -19 -29 -26.5t-28 -17t-37 -9.5q-21 0 -38.5 10.5t-24.5 18.5t-25 32l-148 203
q-37 48 -37 72q0 15 14 29t29 14q10 0 23 -5.5t20 -10t22.5 -15.5t16.5 -12z" />
    <glyph glyph-name="Ydieresis" unicode="&#x178;" horiz-adv-x="1515" 
d="M1460 1499h223q20 0 33.5 -1.5t30.5 -6.5t26 -17.5t9 -31.5q0 -16 -9 -30.5t-16.5 -20.5t-27.5 -21q-33 -23 -84 -78l-578 -674l-61 -415q0 -32 20 -50t43.5 -23.5t43.5 -20t20 -41.5q0 -36 -26.5 -52t-64.5 -16h-528q-65 19 -65 61q0 45 75 72q22 7 32.5 10.5t24.5 13
t23 23.5q7 10 13 27t11 40t8 39t7.5 41.5t5.5 30.5l41 238l-178 295l-180 391q-23 55 -64 82q-38 22 -46 35q-9 13 -9 33q0 25 13 40t38 27h524q66 -11 66 -59q0 -35 -45 -60q-2 -1 -11 -6.5t-11.5 -7t-9.5 -6t-9.5 -6.5t-8 -7t-7.5 -8t-5.5 -8.5t-4.5 -10t-2 -11t-1 -13.5
q0 -69 88.5 -242t165.5 -294q40 41 104 112.5t142 163t132 172t54 113.5q0 21 -13 36t-28 22.5t-28 21t-13 31.5q0 23 10 38t30.5 20.5t35.5 7t41 1.5zM709 1647q-68 0 -108 35.5t-40 103.5q0 66 50.5 112t117.5 46q66 0 110 -31t44 -94q0 -75 -49.5 -123.5t-124.5 -48.5z
M1208 1647q-69 0 -109 35t-40 102q0 68 50 114t118 46q66 0 109.5 -31t43.5 -94q0 -75 -49 -123.5t-123 -48.5z" />
    <glyph glyph-name="Zcaron" unicode="&#x17d;" horiz-adv-x="1269" 
d="M420 1499h1030q49 -7 49 -55q0 -40 -21 -90.5t-60.5 -107t-65 -89.5t-64.5 -80q-27 -30 -262.5 -291.5t-380.5 -428t-145 -183.5q0 -16 41 -16l377 16q80 12 125.5 34t113.5 77q14 13 17 16t16.5 13.5t20.5 14t19 7.5t23 4q27 0 44.5 -13t17.5 -38q0 -11 -15 -56
l-32 -108q-15 -52 -30 -77.5t-36 -35.5q-18 -9 -51 -12h-971q-24 0 -38 0.5t-37.5 4.5t-37 11.5t-24 23.5t-10.5 38q0 42 69 145.5t178 233t185.5 215.5t146.5 162q6 6 66 70t113.5 122t117 128.5t105 123.5t47.5 74q-358 -6 -416 -17q-71 -14 -113.5 -37t-91.5 -77
q-18 -21 -26 -29t-25.5 -16.5t-38.5 -8.5q-26 0 -41.5 15.5t-15.5 42.5q0 35 22 121.5t39 113.5q17 28 66 39zM848 1804l225 131q6 3 20 12t23 14t22 10t23 5q19 0 32 -13t13 -32q0 -8 -3.5 -17t-7.5 -15.5t-12.5 -15.5t-12.5 -12.5t-15 -13t-12 -10.5l-230 -196
q-1 -1 -8 -7.5t-8.5 -8t-8 -7t-9 -7.5t-8.5 -6.5t-10 -6t-9.5 -4.5t-10.5 -4t-10.5 -2t-11.5 -1q-7 0 -13 1t-11 2t-10.5 4.5t-8.5 5t-8.5 6.5t-7.5 7t-7.5 8.5t-7 8.5t-7.5 9.5t-7 9.5l-147 203q-37 48 -37 71q0 15 14 29t29 14q10 0 23 -5.5t20 -10t22.5 -15.5t16.5 -12z
" />
    <glyph glyph-name="zcaron" unicode="&#x17e;" horiz-adv-x="1024" 
d="M479 133h117h21h24.5t23.5 0.5t26 1.5t23 3t24 5t20 7q13 6 21.5 14t13.5 20t7 21.5t5 25.5q8 49 41.5 85t81.5 36q45 0 73.5 -31.5t28.5 -78.5q0 -45 -25 -92.5t-61 -77.5q-86 -72 -244 -72h-534q-86 0 -86 63q0 12 4 26.5t13.5 31.5t18.5 32.5t24 36t25 34.5t27.5 35
t25.5 30t24 28t18 21l438 514h-168q-39 -4 -49 -8q-40 -12 -47 -66q-8 -57 -38 -93t-85 -36q-42 0 -71 32.5t-29 74.5q0 90 76 162q42 39 94 53t121 14h485q33 0 54 -3t41 -19.5t20 -47.5q0 -34 -29 -79q-42 -61 -151 -179zM725 1307l225 131q6 3 20 12t23 14t22 10t23 5
q19 0 32 -13t13 -32q0 -8 -3.5 -17t-7.5 -15.5t-12.5 -15.5t-12.5 -12.5t-15 -13t-12 -10.5l-229 -197q-19 -18 -29 -26t-29 -17.5t-37 -9.5q-21 0 -38.5 10.5t-24.5 18.5t-25 32l-147 203q-37 48 -37 72q0 15 14 29t29 14q10 0 23 -5.5t20 -10t22.5 -15.5t16.5 -12z" />
    <glyph glyph-name="florin" unicode="&#x192;" 
d="M395 -63l74 217l70 229l135 451h-49q-4 0 -23.5 -0.5t-28 0t-28 2t-29.5 4t-24.5 8.5t-22 14t-13 20.5t-5.5 28.5q0 80 116 80h150q44 119 65 173t68 143.5t100 152.5q75 90 180 150.5t211 60.5q55 0 114.5 -19.5t106 -63.5t46.5 -101q0 -50 -30.5 -88.5t-80.5 -38.5
q-73 0 -123 90q-30 59 -76 59q-17 0 -33.5 -9t-30 -21.5t-27.5 -34t-23 -38.5t-20.5 -44t-16.5 -41.5t-14 -39.5t-11 -30l-88 -260h125q4 0 21 -0.5t25 -1t23 -2.5t23 -6.5t17.5 -11t13.5 -17t4 -24.5q0 -84 -96 -94h-199q-3 -9 -29 -89t-32 -97t-29.5 -86.5t-33.5 -96
t-32 -85.5t-37.5 -94.5t-36.5 -83t-42 -89.5q-122 -240 -219 -344q-72 -73 -167.5 -120.5t-189.5 -47.5q-108 0 -180 47q-96 66 -96 151q0 55 39.5 95t95.5 40q35 0 59.5 -19.5t39 -47.5t28.5 -56t37.5 -47.5t56.5 -19.5q93 0 172 193z" />
    <glyph glyph-name="circumflex" unicode="&#x2c6;" horiz-adv-x="901" 
d="M672 1270l-226 -129q-4 -2 -19.5 -11.5t-24 -14t-21.5 -9t-23 -4.5q-19 0 -31 12t-12 29q0 7 2 14t6.5 14.5t8 12.5t11.5 12.5t11.5 11t12.5 11t10 8.5l229 196q2 2 11.5 10.5t12.5 11.5t11.5 10t14 10t13.5 7t15.5 5.5t15.5 1.5q10 0 18 -1.5t15.5 -5.5t12.5 -7.5
t11.5 -11t10 -11t10.5 -13.5t10 -14l148 -201q37 -48 37 -71q0 -17 -13 -29t-30 -12q-8 0 -16.5 2t-19 8t-15.5 9t-17.5 12t-13.5 10z" />
    <glyph glyph-name="caron" unicode="&#x2c7;" horiz-adv-x="901" 
d="M664 1307l225 131q6 3 20 12t23 14t22 10t23 5q19 0 32 -13t13 -32q0 -8 -3.5 -17t-7.5 -15.5t-12.5 -15.5t-13.5 -13t-15 -12.5t-12 -10.5l-229 -197q-20 -19 -29 -26.5t-28 -17t-37 -9.5q-21 0 -38.5 10.5t-24.5 18.5t-25 32l-148 203q-37 48 -37 72q0 15 14.5 29
t29.5 14q10 0 23 -5.5t20.5 -10.5t21.5 -15t16 -12z" />
    <glyph glyph-name="breve" unicode="&#x2d8;" horiz-adv-x="901" 
d="M356 1391q0 29 15.5 47t42.5 18q16 0 30.5 -16t30.5 -39t38.5 -46t64.5 -39t98 -16q53 0 96 16t69 39t46.5 46t38.5 39t35 16q21 0 35 -16t14 -37q0 -48 -56 -119q-52 -67 -132.5 -108t-164.5 -41q-165 0 -241 98q-24 32 -42 77t-18 81z" />
    <glyph glyph-name="dotaccent" unicode="&#x2d9;" horiz-adv-x="573" 
d="M483 1149q-68 0 -107.5 35t-39.5 102q0 68 50 114t118 46q66 0 109.5 -31t43.5 -94q0 -75 -49.5 -123.5t-124.5 -48.5z" />
    <glyph glyph-name="ring" unicode="&#x2da;" horiz-adv-x="655" 
d="M342 1307q0 91 62 154t153 63q89 0 151 -63.5t62 -151.5q0 -89 -63 -152t-152 -63q-88 0 -150.5 62.5t-62.5 150.5zM649 1307q0 40 -26.5 68t-65.5 28q-40 0 -67 -27.5t-27 -68.5q0 -38 27 -65.5t65 -27.5t66 27.5t28 65.5z" />
    <glyph glyph-name="ogonek" unicode="&#x2db;" horiz-adv-x="778" 
d="M334 0h133q-31 -23 -50.5 -39.5t-44.5 -43t-37.5 -55.5t-12.5 -59q0 -47 30.5 -75.5t77.5 -28.5q40 0 91 23.5t59 23.5q12 0 23 -9.5t11 -21.5q0 -34 -47 -63q-100 -62 -211 -62q-84 0 -144 43t-60 125q0 71 53.5 133t128.5 109z" />
    <glyph glyph-name="tilde" unicode="&#x2dc;" horiz-adv-x="860" 
d="M780 1348q35 0 62.5 20t48.5 39.5t41 19.5q18 0 29.5 -13t11.5 -32q0 -30 -19 -67t-43 -64q-33 -41 -65 -64.5t-72 -23.5q-45 0 -133.5 36t-122.5 36t-63 -19.5t-51.5 -39t-41.5 -19.5q-17 0 -27.5 11.5t-10.5 29.5q0 25 21 66t42 65q68 88 137 88q44 0 131 -34.5
t125 -34.5z" />
    <glyph glyph-name="hungarumlaut" unicode="&#x2dd;" horiz-adv-x="983" 
d="M678 1354l-238 -207q-3 -2 -14.5 -12t-17 -13.5t-15.5 -10t-19.5 -9t-19.5 -2.5q-15 0 -28 9.5t-13 25.5q0 13 25 69l90 178q31 62 45 70q7 4 18.5 6.5t26.5 3t26.5 1t27 0t18.5 -0.5t25 1.5t37 0.5t34 -4t29 -13t10 -26q0 -6 -1.5 -11.5t-4.5 -11.5t-6 -10t-8.5 -9.5
l-8 -8t-9.5 -8.5t-9 -8zM1069 1354l-238 -207q-1 -1 -17.5 -15t-22 -17.5t-19.5 -9t-27 -5.5q-16 0 -28 9t-12 26q0 15 24 69l107 211q18 36 32 41q11 3 27.5 5t28.5 2t31.5 -0.5t25.5 -0.5q3 0 25 1.5t37.5 0.5t34.5 -4t29.5 -13t10.5 -26q0 -11 -6 -22t-10 -15.5
t-18 -17.5z" />
    <glyph glyph-name="endash" unicode="&#x2013;" horiz-adv-x="1024" 
d="M287 711h690q27 0 37 -0.5t33 -2.5t32.5 -7.5t23 -15.5t18.5 -27t5 -40q0 -31 -13.5 -66t-35.5 -54q-37 -31 -143 -31h-713q-33 0 -51.5 2t-42 10t-34.5 27.5t-11 50.5q0 33 14.5 69.5t38.5 55.5q9 8 21.5 14t23 9t28.5 4.5t26 1.5h28.5h24.5z" />
    <glyph glyph-name="emdash" unicode="&#x2014;" horiz-adv-x="2048" 
d="M287 711h1714q27 0 36.5 -0.5t32.5 -2.5t32.5 -7.5t23.5 -15.5t19 -27t5 -40q0 -31 -13.5 -66t-35.5 -54q-37 -31 -143 -31h-1737q-33 0 -51.5 2t-42 10t-34.5 27.5t-11 50.5q0 32 14.5 68.5t36.5 56.5q9 8 22.5 14t24 9t28.5 4.5t26 1.5h28.5h24.5z" />
    <glyph glyph-name="quoteleft" unicode="&#x2018;" horiz-adv-x="655" 
d="M498 942q-71 0 -125 40.5t-54 109.5q0 71 47 154t107 140q32 32 110 88t105 56q15 0 27 -12t12 -27q0 -20 -29 -41q-48 -35 -105.5 -103t-57.5 -110q0 -8 14 -8q5 0 17 1t20 1q55 0 93 -31t38 -86q0 -73 -71 -122.5t-148 -49.5z" />
    <glyph glyph-name="quoteright" unicode="&#x2019;" horiz-adv-x="655" 
d="M391 942q-15 0 -27 12t-12 27q0 20 29 41q48 37 105 104t57 109q0 8 -13 8q-6 0 -18 -1t-18 -1q-57 0 -95.5 30.5t-38.5 86.5q0 73 72 122.5t148 49.5q71 0 124.5 -40t53.5 -110q0 -68 -44 -150t-100 -136q-32 -32 -114.5 -92t-108.5 -60z" />
    <glyph glyph-name="quotesinglbase" unicode="&#x201a;" horiz-adv-x="655" 
d="M293 256q72 0 125 -38t53 -107q0 -72 -46.5 -155t-107.5 -142q-48 -42 -118.5 -94t-96.5 -52q-15 0 -27 13t-12 28q0 20 29 41q50 40 107 105.5t57 107.5q0 7 -2.5 7.5t-11.5 0.5q-6 0 -18.5 -1t-18.5 -1q-55 0 -93 31.5t-38 87.5q0 73 70.5 120.5t148.5 47.5z" />
    <glyph glyph-name="quotedblleft" unicode="&#x201c;" horiz-adv-x="1146" 
d="M498 942q-71 0 -125 40.5t-54 109.5q0 71 47 154t107 140q33 33 109.5 88.5t103.5 55.5q17 0 29 -12t12 -27q0 -17 -29 -41q-48 -35 -105.5 -103t-57.5 -110q0 -8 12 -8q6 0 18.5 1t18.5 1q57 0 95 -31t38 -86q0 -73 -71.5 -122.5t-147.5 -49.5zM997 942q-71 0 -124.5 40
t-53.5 110q0 72 46.5 155t107.5 139q33 33 109.5 88.5t103.5 55.5q15 0 27 -12t12 -27q0 -19 -27 -41q-48 -36 -106 -103.5t-58 -109.5q0 -8 13 -8q6 0 18 1t18 1q57 0 95.5 -31t38.5 -86q0 -73 -72 -122.5t-148 -49.5z" />
    <glyph glyph-name="quotedblright" unicode="&#x201d;" horiz-adv-x="1146" 
d="M580 1530q71 0 124.5 -40t53.5 -110q0 -72 -46.5 -155.5t-107.5 -139.5q-33 -33 -109.5 -88t-103.5 -55q-15 0 -27 12t-12 27q0 20 29 41q48 37 105 104t57 109q0 8 -13 8q-6 0 -18 -1t-18 -1q-57 0 -95.5 30.5t-38.5 86.5q0 73 72 122.5t148 49.5zM1079 1530
q71 0 124.5 -40t53.5 -110q0 -72 -46 -155.5t-107 -139.5q-33 -33 -109.5 -88t-103.5 -55q-17 0 -29 12t-12 27q0 17 29 41q48 35 105.5 103t57.5 110q0 8 -12 8q-6 0 -18.5 -1t-18.5 -1q-57 0 -95 30.5t-38 86.5q0 73 71.5 122.5t147.5 49.5z" />
    <glyph glyph-name="quotedblbase" unicode="&#x201e;" horiz-adv-x="1146" 
d="M369 256q71 0 124.5 -39t53.5 -108q0 -71 -47 -154.5t-107 -140.5q-40 -38 -113.5 -92t-101.5 -54q-15 0 -27 13t-12 28q0 18 29 39q54 45 109 108.5t55 104.5q0 10 -15 10q-6 0 -19 -1t-19 -1q-55 0 -92 31.5t-37 85.5q0 73 70.5 121.5t148.5 48.5zM866 256
q72 0 126.5 -39t54.5 -108q0 -73 -47 -154t-111 -143q-41 -41 -109 -92.5t-100 -51.5q-16 0 -28.5 12t-12.5 29q0 22 29 39q49 39 105 105t56 108q0 10 -12 10q-6 0 -19.5 -1t-19.5 -1q-56 0 -92.5 31.5t-36.5 85.5q0 73 70.5 121.5t146.5 48.5z" />
    <glyph glyph-name="dagger" unicode="&#x2020;" horiz-adv-x="1310" 
d="M885 942l110 27q17 4 71.5 18t94 21.5t72.5 7.5q70 0 111.5 -36t41.5 -106q0 -67 -43.5 -109t-111.5 -42q-71 0 -238 45l-133 37l-74 -983q-6 -36 -13.5 -64t-21 -57t-32 -47.5t-47.5 -30.5t-66 -12q-67 0 -112 42t-45 109q0 73 38 213l230 830l-21 -6q-5 -2 -44 -14
t-51.5 -15.5t-47 -13t-53.5 -13.5t-48 -10t-52.5 -8t-45.5 -2q-64 0 -101.5 35.5t-37.5 99.5q0 72 45 115t117 43q29 0 60 -3.5t76 -13t62 -13t75 -18.5l59 -16l30 -10l-8 121l-12 211q0 42 3.5 74.5t14.5 68t29.5 59t51.5 39t77 15.5q64 0 102.5 -37.5t38.5 -101.5
q0 -34 -10 -78.5t-30.5 -100.5t-35 -93t-42 -99.5t-33.5 -77.5z" />
    <glyph glyph-name="daggerdbl" unicode="&#x2021;" horiz-adv-x="1310" 
d="M850 954l18 4q9 2 59 16t75 20t67 16t74.5 14t58.5 4q67 0 108.5 -38.5t41.5 -104.5q0 -68 -43 -109t-111 -41q-73 0 -214 40.5t-157 43.5q23 -127 23 -166q0 -83 -27.5 -159.5t-79.5 -165.5l115 28q18 4 57 15t64.5 17.5t60.5 12t62 5.5q58 0 98.5 -40.5t40.5 -99.5
q0 -69 -43.5 -111t-112.5 -42q-26 0 -58 4.5t-72.5 14t-66.5 16t-73.5 20t-58.5 16.5l-35 9l20 -320q0 -41 -3 -73.5t-14 -69.5t-29 -61.5t-50 -41t-76 -16.5q-62 0 -103.5 40.5t-41.5 102.5q0 47 27 124t77.5 189.5t55.5 125.5l-111 -33q-159 -47 -252 -47
q-66 0 -106.5 33.5t-40.5 97.5q0 80 48.5 121t129.5 41q39 0 89 -9t86.5 -18.5t95 -26.5t83.5 -24q-18 95 -18 164q0 142 102 327q-17 -5 -80 -25t-97 -29.5t-85.5 -19.5t-89.5 -10q-66 0 -111 35t-45 100q0 71 43 114.5t113 43.5q43 0 95.5 -8t90 -17.5t99 -25.5t90.5 -23
l-27 334q0 47 8.5 87.5t27 76.5t54.5 57t86 21q66 0 105 -43t39 -109q0 -36 -10 -79t-30.5 -94.5t-36.5 -86t-43.5 -91.5t-35.5 -73z" />
    <glyph glyph-name="bullet" unicode="&#x2022;" horiz-adv-x="696" 
d="M797 750q0 -143 -102 -245t-244 -102t-243.5 102t-101.5 245q0 142 101 243t244 101t244.5 -101t101.5 -243z" />
    <glyph glyph-name="ellipsis" unicode="&#x2026;" horiz-adv-x="2048" 
d="M346 -31q-76 0 -137.5 45t-61.5 119q0 75 60 120.5t137 45.5q75 0 134 -47.5t59 -120.5q0 -71 -58.5 -116.5t-132.5 -45.5zM1026 -31q-76 0 -136.5 45t-60.5 119q0 75 60 120.5t137 45.5q75 0 134 -47.5t59 -120.5q0 -71 -59.5 -116.5t-133.5 -45.5zM1710 -31
q-78 0 -138.5 45t-60.5 119q0 75 60 120.5t137 45.5q75 0 134 -47.5t59 -120.5q0 -71 -58.5 -116.5t-132.5 -45.5z" />
    <glyph glyph-name="perthousand" unicode="&#x2030;" horiz-adv-x="2662" 
d="M506 739q-132 0 -204.5 85t-72.5 220q0 86 25.5 170.5t73 155.5t123.5 115.5t167 44.5q127 0 200 -83.5t73 -213.5q0 -70 -15 -139.5t-46.5 -133.5t-76 -113t-108.5 -78.5t-139 -29.5zM506 823q41 0 75.5 41.5t55 102t35 132t20.5 127t6 91.5q0 31 -5.5 56.5t-25 47
t-51.5 21.5q-46 0 -85.5 -60t-62 -143t-34.5 -158t-12 -118q0 -140 84 -140zM1591 1395l-1020 -1344q-18 -25 -28 -37t-32 -28.5t-42 -16.5q-22 0 -40.5 11t-18.5 32q0 12 6.5 25.5t13.5 22.5t19.5 23.5t15.5 18.5l1001 1328q2 3 13 18.5t15 20.5t14.5 18t17.5 18t18 12.5
t22 10t23 2.5q23 0 40.5 -11.5t17.5 -31.5q0 -4 -0.5 -7t-0.5 -6t-1 -6t-2 -4.5t-2.5 -4.5l-2 -4t-3 -4t-3.5 -4t-4 -4.5t-4 -4.5zM1446 -31q-132 0 -203.5 84.5t-71.5 220.5q0 85 26 170t73 156t122.5 115.5t166.5 44.5q127 0 199.5 -83.5t72.5 -213.5q0 -70 -14.5 -139.5
t-46 -133.5t-76 -113t-109 -78.5t-139.5 -29.5zM1556 672q-46 0 -85.5 -59.5t-61 -142.5t-33.5 -158t-12 -119q0 -136 82 -136q41 0 75.5 41t55 101t35 130.5t20.5 126t6 91.5q0 31 -5.5 56.5t-25 47t-51.5 21.5zM2269 -31q-132 0 -204 84.5t-72 220.5q0 86 25.5 170.5
t72.5 155.5t122.5 115.5t166.5 44.5q127 0 200.5 -83.5t73.5 -213.5q0 -70 -15 -139.5t-46.5 -133.5t-76 -113t-108.5 -78.5t-139 -29.5zM2380 672q-46 0 -86 -59.5t-62 -142.5t-34.5 -158t-12.5 -119q0 -25 2.5 -45.5t10.5 -43t26 -35.5t45 -12q40 0 74.5 41t55.5 101
t36 130.5t21 126.5t6 91q0 31 -5.5 56.5t-25 47t-51.5 21.5z" />
    <glyph glyph-name="guilsinglleft" unicode="&#x2039;" horiz-adv-x="573" 
d="M285 692l114 111q2 2 16 16.5t19.5 20t19.5 17t23 16.5t21.5 9.5t23.5 4.5q23 0 37 -12t14 -35q0 -38 -55 -107q-53 -64 -108 -168q-17 -33 -17 -73q0 -55 32 -155t32 -126t-15.5 -43.5t-40.5 -17.5q-21 0 -49 28q-13 15 -32 44.5t-43 71.5t-29 50l-49 88q-41 68 -41 96
q0 37 127 164z" />
    <glyph glyph-name="guilsinglright" unicode="&#x203a;" horiz-adv-x="573" 
d="M444 346l-112 -113q-5 -5 -20.5 -20t-24.5 -23t-23 -19t-28 -16t-27 -5q-24 0 -38.5 13t-14.5 36q0 9 3 19.5t6.5 18t11 18.5t11 16t13.5 17t12 15q125 162 125 240q0 57 -32 156.5t-32 127.5q0 25 14.5 42.5t39.5 17.5q26 0 49 -27q13 -16 32.5 -46.5t42.5 -70t31 -51.5
q1 -2 15.5 -26t24.5 -41.5t23 -42t20 -43.5t7 -29q0 -44 -129 -164z" />
    <glyph glyph-name="fraction" unicode="&#x2044;" horiz-adv-x="491" 
d="M946 1413l-1034 -1354q-1 -2 -11 -14t-13.5 -16t-13 -14.5t-15.5 -15t-15.5 -11t-18.5 -9t-18 -2.5q-22 0 -40.5 10.5t-18.5 30.5q0 12 7 26.5t13 23t19.5 25t15.5 18.5l1016 1337q4 5 19.5 25t22.5 28t21.5 21t29 18.5t30.5 5.5q23 0 40 -10.5t17 -32.5q0 -4 -0.5 -8
t-1 -7t-1.5 -6t-2 -5t-3 -5.5t-3.5 -5.5t-4 -6t-4.5 -6z" />
    <glyph glyph-name="trademark" unicode="&#x2122;" horiz-adv-x="2048" 
d="M1376 1284v-588q0 -20 45 -30q28 -7 42 -17.5t14 -32.5q0 -17 -11 -27.5t-32.5 -14t-39 -4t-45.5 1t-36 1.5q-6 0 -32 -1.5t-40.5 -0.5t-34.5 4.5t-29.5 14.5t-9.5 28q0 32 35 46q33 14 42 24.5t9 36.5v659q-3 7 -28 17q-22 6 -33.5 10.5t-19 15t-7.5 27.5q0 13 5 22
t10.5 13.5t19.5 7t22 2.5h27h11h116q9 0 22.5 0.5t18.5 0.5t14 -1t12.5 -3.5t9 -6.5t9.5 -10.5t8 -16.5l15 -35l203 -438l198 428q20 61 40 71.5t106 10.5h32q10 0 36.5 1.5t40.5 1t32 -4t26.5 -14.5t8.5 -29q0 -23 -11.5 -35.5t-39.5 -21.5q-6 -2 -10.5 -4.5t-8 -4t-6 -4.5
t-4.5 -5t-3 -6t-2 -6t-1 -7v-7v-8.5v-9.5v-635q3 -17 14.5 -27t23.5 -14t21.5 -14t9.5 -27q0 -16 -6.5 -26t-22 -13.5t-27 -4.5t-34.5 -1h-131q-24 0 -34 0.5t-29.5 4t-28 13t-8.5 25.5q0 21 12 31.5t39 16.5q33 7 33 32v557q-230 -471 -277 -471q-36 0 -59 35zM762 571
h-166q-23 0 -35 1t-28 5t-23.5 14t-7.5 27q0 35 45 44q15 3 24.5 8t14.5 8t7.5 11.5t3 12t0 18t-0.5 19.5v668q-50 0 -137 -12q-56 -11 -88 -28t-60 -54q-7 -12 -11 -18t-15.5 -12.5t-26.5 -6.5q-26 0 -37.5 13.5t-11.5 33.5q0 17 16 70q4 14 9 36t6 28.5t7.5 18t11 13
t17.5 6t27.5 4.5h40.5h670q24 0 39.5 -1t27 -5t17.5 -6.5t11 -13t6 -16.5t4.5 -23.5t6.5 -28.5q17 -53 17 -76q0 -49 -51 -49q-28 0 -43 31q-34 49 -80 66t-131 24q-65 7 -74 6v-668q0 -4 -0.5 -18t0 -19t3.5 -14t11 -14t21 -8q19 -5 30 -9t20 -14t9 -25q0 -17 -7.5 -27
t-24.5 -14t-29 -5t-35 -1z" />
    <glyph glyph-name="minus" unicode="&#x2212;" horiz-adv-x="1351" 
d="M283 492v194h1032v-194h-1032z" />
    <glyph glyph-name="fi" unicode="&#xfb01;" 
d="M270 6l70 440l49 367h-37q-25 0 -35 0.5t-28.5 4.5t-26 12.5t-14 25t-6.5 41.5q0 23 7.5 39t16.5 24t29.5 12t33 4.5t40.5 0.5h14h39q18 109 41 189.5t64 156.5t97.5 123t142.5 75.5t198 28.5q55 0 112.5 -6t124.5 -24t117.5 -45.5t84.5 -75.5t34 -109q0 -79 -56 -126.5
t-135 -47.5q-57 0 -108 33q-29 22 -40 50.5t-16 74.5q0 3 -0.5 15t-1 16t-1.5 13.5t-3.5 14t-6 12t-9 13t-12.5 10.5q-26 18 -78 18q-116 0 -158 -94q-15 -34 -26.5 -77.5t-16.5 -75t-13 -84.5t-12 -78h570q78 0 69 -92l-116 -643q0 -23 17 -36t38 -17t38 -16.5t17 -35.5
q0 -21 -10.5 -37t-33.5 -29t-34.5 -17.5t-39.5 -14.5q-190 -70 -265 -70q-80 0 -80 99q0 23 19 139l88 495q0 23 -6.5 41t-14.5 30t-25 20t-28.5 12t-36 6t-35.5 2h-37h-16h-114q-5 -36 -16 -120q-16 -122 -26.5 -191.5t-36.5 -200.5t-53.5 -212t-75.5 -184t-105 -161.5
t-139.5 -100.5t-180.5 -42q-44 0 -84.5 11t-72.5 41t-32 75q0 51 37.5 84.5t91.5 33.5q28 0 50.5 -13t35 -29t27.5 -29t29 -13q11 0 21 6.5t18.5 19.5t16.5 27t15 34t12 36t10.5 38t8 34t6 29t4.5 20z" />
    <glyph glyph-name="fl" unicode="&#xfb02;" horiz-adv-x="1474" 
d="M924 147l213 1119q0 37 -30.5 64t-67.5 37.5t-72 10.5q-51 0 -87.5 -20.5t-56 -50.5t-32.5 -76t-17.5 -85t-10.5 -89.5t-13 -79.5h63q5 0 29.5 0.5t33.5 0t28 -4t27 -10.5t15.5 -20.5t7.5 -33.5q0 -18 -3 -32t-10 -24t-13 -17.5t-19 -11.5t-21 -6.5t-25 -3.5t-25 -1.5
t-27.5 0t-26.5 0.5h-67q-46 -412 -137 -711q-155 -501 -492 -501q-43 0 -85.5 9.5t-79 37.5t-36.5 71q0 54 39.5 91.5t93.5 37.5q29 0 51 -13.5t32 -29.5t23 -29.5t26 -13.5q23 0 41 15.5t30.5 43t19 47.5t13.5 46q1 5 2 8l53 320l82 571h-43h-12q-28 0 -40.5 1t-28.5 7.5
t-22.5 22.5t-6.5 43q0 46 28 71q7 7 16.5 11.5t22.5 6t21.5 2t24 0t18.5 -0.5h55q14 73 30.5 134.5t42.5 130.5t62.5 121.5t84 96t112.5 67t143 23.5q49 0 146.5 -14t146.5 -14q42 0 125 14t125 14q27 0 41 -18t14 -47q0 -13 -10 -58l-215 -1142q0 -38 18 -56t56 -30
q2 -1 10.5 -3.5t11.5 -3.5t9.5 -3.5t9 -5.5t6 -7t5 -9.5t1.5 -12.5q0 -19 -16 -37.5t-41 -32t-47.5 -23t-44.5 -17.5l-9 -3q-203 -72 -256 -72q-76 0 -76 88q0 23 13 90z" />
    </font>
</defs>
</svg>
