<?xml version="1.0" standalone="no"?>
<!DOCTYPE svg PUBLIC "-//W3C//DTD SVG 1.1//EN" "http://www.w3.org/Graphics/SVG/1.1/DTD/svg11.dtd" >
<svg xmlns="http://www.w3.org/2000/svg" xmlns:xlink="http://www.w3.org/1999/xlink" version="1.1">
<metadata>
Created by FontForge 20170731 at Sat Apr 30 00:25:54 2022
 By Aleksey,,,
Copyright (c) 1989, 1990 Adobe Systems Incorporated.  All Rights Reserved.Souvenir is a registered trademark of International Typeface Corporation.
</metadata>
<defs>
<font id="Souvenir-Bold" horiz-adv-x="1474" >
  <font-face 
    font-family="ITC Souvenir"
    font-weight="700"
    font-stretch="normal"
    units-per-em="2048"
    panose-1="0 0 0 0 0 0 0 0 0 0"
    ascent="1638"
    descent="-410"
    x-height="995"
    cap-height="1499"
    bbox="-342 -516 2691 2050"
    underline-thickness="102"
    underline-position="-307"
    unicode-range="U+0020-FB02"
  />
<missing-glyph horiz-adv-x="737" 
 />
    <glyph glyph-name=".notdef" horiz-adv-x="737" 
 />
    <glyph glyph-name=".null" horiz-adv-x="0" 
 />
    <glyph glyph-name="nonmarkingreturn" horiz-adv-x="682" 
 />
    <glyph glyph-name="space" unicode=" " horiz-adv-x="737" 
 />
    <glyph glyph-name="exclam" unicode="!" horiz-adv-x="798" 
d="M399 -33q-115 0 -182 57t-67 130q0 72 67 129t182 57q116 0 183 -57t67 -129t-67.5 -129.5t-182.5 -57.5zM684 1350q0 -51 -20.5 -156.5t-62 -300.5t-71.5 -363q-11 -65 -39 -92.5t-92 -27.5t-92 27.5t-39 92.5q-30 167 -71 362.5t-61.5 301t-20.5 156.5q0 96 63.5 139
t220.5 43q158 0 221.5 -43t63.5 -139z" />
    <glyph glyph-name="quotedbl" unicode="&#x22;" horiz-adv-x="681" 
d="M152 1532q62 0 90 -34t28 -107t-39 -443q-5 -49 -19 -70.5t-52 -21.5q-50 0 -66.5 21.5t-21.5 70.5q-39 370 -39 443t28.5 107t90.5 34zM530 1532q62 0 90.5 -34t28.5 -107t-39 -443q-5 -49 -19 -70.5t-52 -21.5q-50 0 -66.5 21.5t-21.5 70.5q-39 370 -39 443t28 107
t90 34z" />
    <glyph glyph-name="numbersign" unicode="#" 
d="M1212 621l-8 -193h-190l-62 -428h-215l58 428h-189l-59 -428h-219l61 428h-188l8 193h205l37 258h-189l8 192h205l62 428h217l-58 -428h189l59 428h217l-59 -428h172l-8 -192h-189l-37 -258h172zM860 879h-190l-37 -258h190z" />
    <glyph glyph-name="dollar" unicode="$" 
d="M645 1462v97q0 59 23 86.5t75 27.5t75.5 -27.5t23.5 -86.5v-97q57 -2 123.5 -18t133.5 -46.5t111.5 -85t44.5 -122.5q0 -57 -45 -87t-106 -30q-48 0 -77.5 14t-40.5 36.5t-17 49.5t-14 54t-24.5 49.5t-56 36.5t-100.5 14q-223 0 -223 -170q0 -52 26.5 -92t71 -66
t102.5 -47.5t122 -41.5t128 -42t122 -54.5t102.5 -74t71 -105.5t26.5 -145q0 -101 -44 -182.5t-116 -130.5t-153.5 -76.5t-167.5 -33.5v-99q0 -59 -23.5 -86.5t-75.5 -27.5t-75 27.5t-23 86.5v99q-58 3 -121 14.5t-131 37.5t-121 62.5t-87.5 92.5t-34.5 124q0 44 39.5 75.5
t103.5 31.5q57 0 91.5 -16.5t49 -43.5t23.5 -59t23 -64.5t39.5 -59.5t80.5 -43.5t139 -16.5q95 0 159.5 51t64.5 137q0 50 -26.5 89.5t-71 65t-102.5 47t-122.5 42t-128.5 43t-122 55.5t-102.5 75.5t-71 107t-26.5 145.5q0 78 28 145t74.5 113t106.5 79.5t122.5 49
t123.5 16.5z" />
    <glyph glyph-name="percent" unicode="%" horiz-adv-x="1822" 
d="M39 1137q0 171 114.5 283t284.5 112t285 -112t115 -283t-115 -283.5t-285 -112.5t-284.5 112.5t-114.5 283.5zM438 827q52 0 74.5 73t22.5 237t-22.5 236.5t-74.5 72.5t-74 -72.5t-22 -236.5q0 -165 22 -237.5t74 -72.5zM985 362q0 171 114.5 283.5t284.5 112.5
t285 -112.5t115 -283.5t-115 -283t-285 -112t-284.5 112t-114.5 283zM1384 53q52 0 74.5 72.5t22.5 236.5t-22.5 237t-74.5 73t-74 -72.5t-22 -237.5q0 -164 22 -236.5t74 -72.5zM262 78l1086 1364q3 3 13 16t13 16.5t12 13.5t14.5 13t15.5 10t19.5 9.5t22.5 6t28.5 4.5
t33.5 1q84 0 84 -35q0 -21 -39 -70l-1104 -1402q-29 -36 -60.5 -47t-78.5 -11q-62 0 -83.5 7.5t-21.5 29.5q0 9 7 22t13.5 21.5t24.5 30.5z" />
    <glyph glyph-name="ampersand" unicode="&#x26;" horiz-adv-x="1761" 
d="M936 834l303 -377q102 106 102 194q0 30 -18.5 50.5t-41.5 29.5t-41.5 28t-18.5 46q0 65 108 65h332q42 0 65 -19t23 -54q0 -28 -13 -44t-32.5 -23.5t-51.5 -31t-59 -61.5l-233 -315q44 -58 110.5 -91.5t137.5 -33.5q24 0 60.5 9t51.5 9q25 0 43.5 -19.5t18.5 -45.5
q0 -61 -106 -122t-281 -61q-174 0 -367 123q-189 -123 -434 -123q-111 0 -210 25t-179.5 73t-128 127.5t-47.5 180.5q0 158 97 265.5t257 172.5q-121 157 -121 334q0 171 154.5 279t390.5 108q143 0 251.5 -36t171 -110t62.5 -178q0 -71 -31 -134t-83 -108.5t-113 -78.5
t-129 -53zM426 434q0 -117 72.5 -189.5t189.5 -72.5q86 0 182 49q-207 195 -360 432q-84 -90 -84 -219zM813 1356q-54 0 -85.5 -39.5t-31.5 -95.5q0 -25 6 -48.5t20 -49t23.5 -40.5t31 -44.5t28.5 -39.5q139 82 139 201q0 61 -35.5 108.5t-95.5 47.5z" />
    <glyph glyph-name="quotesingle" unicode="'" horiz-adv-x="454" 
d="M227 1532q62 0 90.5 -34t28.5 -107t-39 -443q-5 -49 -19 -70.5t-52 -21.5q-50 0 -67 21.5t-22 70.5q-38 360 -38 443q0 73 28 107t90 34z" />
    <glyph glyph-name="parenleft" unicode="(" horiz-adv-x="798" 
d="M90 541q0 142 53.5 316.5t136 323t193 250t213.5 101.5q34 0 57 -21.5t23 -56.5q0 -23 -24.5 -81t-59.5 -139t-70 -179t-59.5 -227t-24.5 -257q0 -164 35 -344t77 -301t77 -217t35 -112q0 -36 -31.5 -58t-69.5 -22q-103 0 -208.5 110t-181 268.5t-123.5 335t-48 310.5z
" />
    <glyph glyph-name="parenright" unicode=")" horiz-adv-x="798" 
d="M709 508q0 -142 -53.5 -316.5t-136 -323t-193 -250t-213.5 -101.5q-34 0 -57 21t-23 56q0 23 24.5 81t59.5 139t69.5 179t59 227t24.5 257q0 164 -35 344.5t-76.5 301.5t-76.5 217t-35 112q0 36 31 58t69 22q70 0 142 -51t132.5 -135t114.5 -192.5t91.5 -221.5
t59.5 -224.5t22 -199.5z" />
    <glyph glyph-name="asterisk" unicode="*" horiz-adv-x="860" 
d="M430 1532q33 0 57.5 -29t24.5 -65q0 -45 -31.5 -125t-31.5 -96q0 -19 12 -19q14 0 38 31.5t48.5 69t61.5 69t73 31.5q38 0 62 -25.5t24 -64.5q0 -86 -145 -113q-17 -3 -42 -7t-41 -6.5t-32 -6t-23.5 -9t-7.5 -12.5q0 -8 8 -13t24.5 -8t32.5 -5t42.5 -4.5t44.5 -4.5
q69 -9 110 -33t41 -77q0 -36 -26 -61t-62 -25q-31 0 -69 30t-66 66t-54 66t-36 30q-7 0 -12.5 -6t-5.5 -12q0 -22 39.5 -110.5t39.5 -133.5q0 -40 -27 -66t-71 -26q-34 0 -58 30.5t-24 69.5t34 129.5t34 104.5q0 7 -5.5 12.5t-13.5 5.5q-14 0 -39 -32.5t-49.5 -71t-59.5 -71
t-67 -32.5q-36 0 -63 25.5t-27 60.5q0 50 38.5 76t105.5 43q25 6 65 11.5t58 11t18 16.5q0 9 -7.5 15t-23.5 9.5t-32 5t-41.5 3.5t-43.5 4q-69 9 -109 32t-40 76q0 36 25.5 60t62.5 24q32 0 68.5 -29t63.5 -64t54 -64t41 -29q21 0 21 16q0 18 -40 103t-40 125q0 41 25 67.5
t69 26.5z" />
    <glyph glyph-name="plus" unicode="+" horiz-adv-x="1228" 
d="M455 657v338h319v-338h338v-319h-338v-338h-319v338h-338v319h338z" />
    <glyph glyph-name="comma" unicode="," horiz-adv-x="737" 
d="M362 8q-40 -8 -63 -8q-71 0 -121.5 45t-50.5 117q0 89 75.5 146t168.5 57q105 0 182.5 -61t77.5 -163q0 -72 -43.5 -150t-103 -134t-119.5 -92.5t-95 -36.5q-23 0 -47 15.5t-24 35.5q0 10 31.5 43.5t72.5 85t59 100.5z" />
    <glyph glyph-name="hyphen" unicode="-" horiz-adv-x="737" 
d="M565 330h-393q-66 0 -92.5 40t-26.5 128t26.5 128t92.5 40h393q66 0 92.5 -40t26.5 -128t-26.5 -128t-92.5 -40z" />
    <glyph glyph-name="period" unicode="." horiz-adv-x="737" 
d="M377 369q94 0 172 -56.5t78 -144.5t-78 -144.5t-172 -56.5t-172 56.5t-78 144.5t78 144.5t172 56.5z" />
    <glyph glyph-name="slash" unicode="/" horiz-adv-x="839" 
d="M961 1386l-799 -1353q-41 -66 -168 -66q-60 0 -100.5 15t-40.5 47q0 48 20 84l799 1353q22 35 61.5 50.5t112.5 15.5q57 0 99 -15.5t42 -46.5q0 -38 -26 -84z" />
    <glyph glyph-name="zero" unicode="0" 
d="M737 1532q127 0 238.5 -43t192.5 -117.5t140 -173.5t88 -213.5t29 -234.5t-29 -234.5t-88 -213.5t-140 -174t-192.5 -118t-238.5 -43t-238.5 43t-192.5 118t-140 174t-88 213.5t-29 234.5t29 234.5t88 213.5t140 173.5t192.5 117.5t238.5 43zM737 143q176 0 176 607
q0 182 -15 307.5t-41.5 187.5t-55 86.5t-64.5 24.5t-64.5 -24.5t-55 -86.5t-41.5 -187.5t-15 -307.5q0 -607 176 -607z" />
    <glyph glyph-name="one" unicode="1" 
d="M1128 0h-739q-67 0 -92 21t-25 69q0 86 123 86q56 0 89.5 17.5t33.5 68.5v782q0 104 -26 134t-117 30q-83 0 -106 16t-23 62q0 55 71 78l312 98q14 4 62.5 24t94 33t82.5 13q74 0 108 -35.5t34 -136.5v-1098q0 -53 32 -69.5t101 -16.5q102 0 102 -86q0 -48 -25 -69
t-92 -21z" />
    <glyph glyph-name="two" unicode="2" 
d="M707 319h227q77 0 134 11.5t87.5 28.5t52 33.5t41.5 28t43 11.5q68 0 68 -72q0 -16 -12 -61t-28.5 -104.5t-23.5 -92.5q-14 -63 -41.5 -82.5t-113.5 -19.5h-879q-73 0 -110 24.5t-37 79.5q0 51 24 105.5t64.5 107t93.5 108t111 112t116 114.5t111 120.5t93.5 125
t64.5 133t24 139.5q0 90 -38.5 138.5t-106.5 48.5q-64 0 -115 -52t-51 -120q0 -32 22.5 -77t22.5 -71q0 -52 -55.5 -87.5t-137.5 -35.5q-99 0 -160 55.5t-61 153.5q0 122 83.5 216.5t224 144t311.5 49.5q138 0 249 -32.5t180.5 -89t106.5 -129.5t37 -155q0 -84 -32 -167
t-80 -149t-118 -137.5t-132.5 -123.5t-138.5 -118.5t-121 -111.5z" />
    <glyph glyph-name="three" unicode="3" 
d="M186 1180q0 158 145 255t386 97q254 0 407.5 -106.5t153.5 -280.5q0 -131 -84 -214.5t-219 -113.5v-4q161 -27 264.5 -131.5t103.5 -261.5q0 -134 -81.5 -237.5t-225.5 -159.5t-327 -56q-276 0 -437 91t-161 233q0 86 57 126t147 40q96 0 134 -28.5t47 -119.5
q11 -107 40 -146.5t105 -39.5q88 0 139 73.5t51 215.5q0 76 -12.5 126t-45.5 88.5t-94 56t-155 17.5q-79 0 -113 16t-34 66q0 53 26.5 74t100.5 21q146 0 212 71t66 223q0 100 -30 142.5t-88 42.5q-51 0 -80 -24t-29 -72q0 -17 10 -59t10 -62q0 -52 -47.5 -81.5
t-132.5 -29.5q-209 0 -209 152z" />
    <glyph glyph-name="four" unicode="4" 
d="M1161 369v-164q0 -33 16 -47t34.5 -15t34.5 -16t16 -49q0 -41 -27.5 -59.5t-93.5 -18.5h-488q-69 0 -95 18t-26 58q0 29 12.5 45t31 22t36.5 10.5t30.5 17t12.5 34.5v164h-393q-68 0 -104.5 10.5t-48 29t-11.5 52.5q0 81 87 268t213.5 381.5t228.5 292.5q39 38 63.5 57
t47 33.5t53.5 19t58.5 6t88.5 1.5q53 0 81 -1.5t58 -8t42.5 -18.5t24 -36t14.5 -56.5t3 -82.5v-772h115q56 0 78 -20.5t22 -67.5t-22 -67.5t-78 -20.5h-115zM670 545v618h-6q-223 -297 -340 -618h346z" />
    <glyph glyph-name="five" unicode="5" 
d="M487 1194l-24 -281q129 48 295 48q91 0 175 -18.5t158 -57t129 -94t87 -135.5t32 -175q0 -234 -173 -374t-474 -140q-252 0 -404.5 87.5t-152.5 219.5q0 83 52.5 131t136.5 48q91 0 143.5 -41t52.5 -109v-55q0 -105 111 -105q87 0 141.5 81.5t54.5 236.5q0 161 -66 242
t-188 81q-46 0 -87 -18.5t-65 -40.5t-52 -40.5t-52 -18.5q-40 0 -59.5 26.5t-19.5 69.5q0 40 11.5 160.5t29 300t26.5 309.5q54 -4 159.5 -13.5t194 -14.5t189.5 -5q75 0 209 17q132 16 162 16q67 0 67 -76q0 -36 -24.5 -81t-70 -89.5t-125.5 -75t-177 -30.5
q-79 0 -150.5 2.5t-144 6.5t-107.5 5z" />
    <glyph glyph-name="six" unicode="6" 
d="M756 -33q-312 0 -495 167.5t-183 475.5q0 145 43.5 281.5t128 252t201 202.5t272 136.5t330.5 49.5q147 0 208.5 -24.5t61.5 -71.5q0 -50 -30 -65t-128 -15q-206 0 -345 -117.5t-173 -323.5q101 35 221 35q148 0 266 -51t190.5 -157.5t72.5 -254.5q0 -102 -36 -188.5
t-97.5 -147t-144 -102.5t-174.5 -62t-189 -20zM737 786q-81 0 -114 -77t-33 -244t33 -244.5t114 -77.5t114.5 77.5t33.5 244.5q0 166 -33.5 243.5t-114.5 77.5z" />
    <glyph glyph-name="seven" unicode="7" 
d="M782 0h-372q-101 0 -101 53q0 70 224 471.5t409 655.5h-471q-53 0 -85 -11.5t-44 -28t-21 -33.5t-25 -28.5t-46 -11.5q-51 0 -67.5 24.5t-16.5 110.5q0 64 1.5 106.5t4.5 77t11 53.5t16 32.5t25.5 18.5t33.5 7t45 2h901q56 0 80.5 -8.5t24.5 -32.5q0 -22 -18.5 -68
t-55 -137.5t-80.5 -222t-104.5 -365t-118.5 -520.5q-19 -93 -45 -119t-105 -26z" />
    <glyph glyph-name="eight" unicode="8" 
d="M70 391q0 120 81 212.5t201 127.5q-112 72 -176.5 158t-64.5 201q0 132 85 233.5t234 155t338 53.5q266 0 423 -99.5t157 -261.5q0 -105 -68.5 -177t-177.5 -111q303 -162 303 -432q0 -222 -183 -353t-495 -131q-158 0 -285.5 35t-207.5 95t-122 135t-42 159zM471 416
q0 -114 72 -193.5t180 -79.5q87 0 138.5 47.5t51.5 114.5q0 43 -25.5 83t-72.5 75.5t-88 60t-99.5 55t-78.5 42.5q-78 -114 -78 -205zM602 1208q0 -26 10.5 -50t33 -45.5t42.5 -37t56 -33t55 -26.5t56.5 -24.5t45.5 -18.5q62 97 62 186q0 80 -53 138.5t-140 58.5
q-65 0 -116.5 -44.5t-51.5 -103.5z" />
    <glyph glyph-name="nine" unicode="9" 
d="M719 1532q312 0 495 -167.5t183 -475.5q0 -145 -43.5 -281.5t-128 -252t-201 -202.5t-272 -136.5t-330.5 -49.5q-147 0 -208.5 24.5t-61.5 71.5q0 51 29.5 65.5t127.5 14.5q206 0 345 117.5t173 323.5q-101 -35 -221 -35q-148 0 -266 51t-190 157.5t-72 254.5
q0 102 36 188.5t97.5 147t144 102.5t174.5 62t189 20zM737 713q81 0 114.5 77.5t33.5 243.5q0 167 -33.5 244.5t-114.5 77.5t-114 -77.5t-33 -244.5t33 -244t114 -77z" />
    <glyph glyph-name="colon" unicode=":" horiz-adv-x="737" 
d="M377 369q94 0 172 -56.5t78 -144.5t-78 -144.5t-172 -56.5t-172 56.5t-78 144.5t78 144.5t172 56.5zM377 1004q94 0 172 -56.5t78 -144.5t-78 -144.5t-172 -56.5t-172 56.5t-78 144.5t78 144.5t172 56.5z" />
    <glyph glyph-name="semicolon" unicode=";" horiz-adv-x="737" 
d="M362 8q-40 -8 -63 -8q-71 0 -121.5 45t-50.5 117q0 89 75.5 146t168.5 57q105 0 182.5 -61t77.5 -163q0 -72 -43.5 -150t-103 -134t-119.5 -92.5t-95 -36.5q-23 0 -47 15.5t-24 35.5q0 10 31.5 43.5t72.5 85t59 100.5zM377 1004q94 0 172 -56.5t78 -144.5t-78 -144.5
t-172 -56.5t-172 56.5t-78 144.5t78 144.5t172 56.5z" />
    <glyph glyph-name="less" unicode="&#x3c;" horiz-adv-x="1228" 
d="M1112 258v-324l-995 426v275l995 426v-324l-541 -239z" />
    <glyph glyph-name="equal" unicode="=" horiz-adv-x="1228" 
d="M1112 881v-320h-995v320h995zM1112 434v-319h-995v319h995z" />
    <glyph glyph-name="greater" unicode="&#x3e;" horiz-adv-x="1228" 
d="M117 -66v324l540 240l-540 239v324l995 -426v-275z" />
    <glyph glyph-name="question" unicode="?" horiz-adv-x="1187" 
d="M641 578v-70q0 -54 -27.5 -80.5t-87.5 -26.5q-82 0 -112.5 24.5t-30.5 98.5v226q0 29 14.5 49.5t37.5 33.5t50.5 26.5t55 37t50.5 56.5t37.5 92.5t14.5 138.5q0 87 -34 135.5t-89 48.5q-50 0 -74 -28.5t-24 -77.5q0 -99 -43.5 -147t-147.5 -48q-92 0 -139 42t-47 114
q0 57 35.5 111.5t99.5 99t163 71.5t216 27q266 0 425 -122t159 -314q0 -69 -20.5 -126.5t-58.5 -99t-78 -70t-93 -55.5q-29 -14 -74 -34t-71 -32t-53.5 -28.5t-40.5 -34t-13 -38.5zM528 -33q-115 0 -182 57t-67 130q0 72 67 129t182 57q116 0 183 -57t67 -129t-67.5 -129.5
t-182.5 -57.5z" />
    <glyph glyph-name="at" unicode="@" horiz-adv-x="1761" 
d="M770 647q0 -80 27 -122t67 -42q45 0 98.5 59.5t90.5 152t37 177.5q0 127 -74 127q-49 0 -105.5 -46.5t-98.5 -130.5t-42 -175zM1167 1079l19 45h178l-121 -503q-10 -42 -10 -93q0 -35 13 -52t46 -17q46 0 93.5 61.5t78.5 156t31 185.5q2 91 -38.5 178t-113 155.5
t-183 110.5t-238.5 42q-77 0 -153 -20.5t-151 -69t-131.5 -119.5t-91.5 -180.5t-35 -243.5q0 -123 49.5 -230t131 -179t187 -113t216.5 -41q144 0 240 28t209 88l22 -159q-253 -142 -469 -142q-170 0 -315 49t-241.5 127t-165 178t-99.5 200t-31 194q0 179 67 333.5
t180 259.5t264 164.5t317 59.5q207 0 378 -86.5t269 -240t98 -341.5q0 -120 -38 -226t-99 -176t-136 -110.5t-149 -40.5q-52 0 -94.5 15.5t-65.5 37.5t-34.5 42.5t-10.5 33.5h-4q-87 -118 -252 -125q-43 -2 -84.5 14t-77.5 48.5t-58.5 91.5t-22.5 135q0 70 16 144.5t53 150
t89.5 134.5t132 96.5t174.5 37.5q111 0 161 -88z" />
    <glyph glyph-name="A" unicode="A" horiz-adv-x="1536" 
d="M891 463h-512q-7 -20 -17.5 -50.5t-15.5 -46t-12.5 -37.5t-11 -34.5t-7 -27.5t-5 -26t-1.5 -20q0 -27 16.5 -44t36 -23t36 -23.5t16.5 -46.5q0 -84 -121 -84h-230q-98 0 -98 82q0 24 16 44.5t35 31.5t37.5 25.5t22.5 29.5q38 123 195 549.5t218 552.5q37 76 65 111.5
t75 54t127 18.5q50 0 77.5 -1t55.5 -7.5t40.5 -13.5t30.5 -28t28.5 -40.5t31.5 -60.5q27 -55 234 -568.5t221 -566.5q8 -25 25 -41t32 -23t27 -24.5t12 -46.5q0 -78 -123 -78h-422q-67 0 -104 20.5t-37 57.5q0 21 12.5 37.5t27.5 25t27.5 19.5t12.5 22q0 14 -6 37t-26.5 94
t-41.5 150zM444 668h371l-178 471z" />
    <glyph glyph-name="B" unicode="B" horiz-adv-x="1576" 
d="M137 250v999q0 37 -17 58t-37 28t-37 27t-17 55q0 41 28.5 61.5t102.5 20.5h858q196 0 318 -96.5t122 -235.5q0 -225 -268 -340v-4q165 -36 261.5 -135t96.5 -262q0 -193 -136 -309.5t-372 -116.5h-880q-74 0 -102.5 20.5t-28.5 61.5q0 35 17 55t37 27t37 28t17 58z
M629 1196v-356q73 17 144.5 62t122 116t50.5 147q0 86 -51.5 126t-140.5 40q-78 0 -101.5 -29t-23.5 -106zM629 645v-315q0 -41 3 -64t14.5 -44t36 -29.5t65.5 -8.5q131 0 209.5 74t78.5 197q0 77 -38 143.5t-105 108.5q-124 -43 -264 -62z" />
    <glyph glyph-name="C" unicode="C" horiz-adv-x="1597" 
d="M57 745q0 135 48.5 259t133 218.5t194.5 165t238 107.5t259 37t267 -38t237 -108q40 -27 56 -53.5t22 -75.5t6 -157q0 -46 -30.5 -72.5t-78.5 -26.5q-32 0 -56 19t-41.5 49.5t-35.5 68t-43 74.5t-58 67.5t-87.5 49.5t-124.5 19q-188 0 -291 -158.5t-103 -417.5
q0 -126 22.5 -226t61.5 -166.5t94 -110t117.5 -62.5t134.5 -19q74 0 139.5 25.5t109.5 61.5t81 72t72 61.5t65 25.5q38 0 63 -27t25 -65q0 -68 -60.5 -138t-150 -121t-193.5 -83.5t-189 -32.5q-266 0 -471.5 96t-319 273t-113.5 409z" />
    <glyph glyph-name="D" unicode="D" horiz-adv-x="1761" 
d="M137 250v999q0 37 -17 58t-37 28t-37 27t-17 55q0 41 28.5 61.5t102.5 20.5h719q137 0 256.5 -28t221.5 -87.5t174.5 -146.5t113.5 -211.5t41 -275.5q0 -188 -62.5 -334t-173.5 -235.5t-255 -135t-316 -45.5h-719q-74 0 -102.5 20.5t-28.5 61.5q0 35 17 55t37 27t37 28
t17 58zM629 1157v-815q0 -93 20.5 -125.5t77.5 -32.5q131 0 234.5 80.5t158 209t54.5 276.5t-54.5 276.5t-158 208.5t-234.5 80q-57 0 -77.5 -32.5t-20.5 -125.5z" />
    <glyph glyph-name="E" unicode="E" horiz-adv-x="1413" 
d="M139 250v999q0 37 -17 58t-37 28t-37 27t-17 55q0 41 28.5 61.5t102.5 20.5h999q89 0 127.5 -27t38.5 -96v-94q0 -60 -29.5 -91.5t-68.5 -31.5q-32 0 -52.5 8.5t-31.5 22.5t-22 30.5t-31 33t-50.5 30.5t-88 22.5t-136.5 8.5q-64 0 -96.5 -4t-55 -21.5t-28.5 -46.5t-6 -84
v-246h252q45 0 76 8.5t46.5 21t27 25t28 21t39.5 8.5q46 0 66 -38.5t20 -145.5q0 -108 -20.5 -148t-65.5 -40q-29 0 -48.5 13t-32 29t-47 29t-89.5 13h-252v-310q0 -76 8 -116.5t36 -64t67 -29t116 -5.5t134 10.5t89 27.5t54 37t35 40.5t26 37.5t33 27.5t49 10.5
q49 0 76.5 -29.5t27.5 -79.5q0 -36 -14 -116t-31 -109q-14 -25 -47 -33t-104 -8h-1024q-74 0 -102.5 20.5t-28.5 61.5q0 35 17 55t37 27t37 28t17 58z" />
    <glyph glyph-name="F" unicode="F" horiz-adv-x="1331" 
d="M160 1499h889q141 0 172 -29q30 -27 42.5 -104.5t12.5 -142.5q0 -42 -19 -68.5t-59 -26.5q-38 0 -61.5 19.5t-42 46.5t-46 54.5t-90.5 47t-159 19.5q-40 0 -66.5 -2t-46.5 -8.5t-30.5 -15t-17 -25.5t-8 -35t-1.5 -49v-308h213q45 0 76 8.5t46.5 21t27 25t28 21t39.5 8.5
q46 0 66 -38.5t20 -145.5q0 -108 -20.5 -148t-65.5 -40q-29 0 -48.5 13t-32 29t-47 29t-89.5 13h-213v-418q0 -37 17 -58t37 -28t37 -27t17 -55q0 -41 -28.5 -61.5t-102.5 -20.5h-446q-74 0 -102.5 20.5t-28.5 61.5q0 35 17 55t37 27t37 28t17 58v999q0 37 -17 58t-37 28
t-37 27t-17 55q0 41 28.5 61.5t102.5 20.5z" />
    <glyph glyph-name="G" unicode="G" horiz-adv-x="1617" 
d="M1032 614h-110q-54 0 -79.5 22.5t-25.5 72.5q0 52 30.5 77t106.5 25h480q96 0 130.5 -16t34.5 -62q0 -29 -12 -115.5t-12 -125.5q0 -63 17.5 -141t17.5 -91q0 -58 -81 -115t-193.5 -94.5t-224.5 -60.5t-181 -23q-148 0 -279.5 32.5t-240.5 97.5t-187.5 157.5t-122 219.5
t-43.5 276q0 181 71 331t192 247.5t278 150.5t332 53q129 0 260.5 -29.5t230.5 -83.5q37 -20 60.5 -42t33.5 -47.5t13.5 -46.5t3.5 -50v-131q0 -32 -18.5 -52.5t-38.5 -26t-43 -5.5q-30 0 -54 18t-41 47.5t-35 64.5t-42.5 70t-56 64.5t-82.5 47.5t-115 18q-68 0 -131 -22.5
t-119 -70.5t-97.5 -117t-65.5 -169t-24 -219q0 -157 45.5 -286t124.5 -202.5t174 -73.5q104 0 155.5 59.5t51.5 217.5q0 91 -20.5 120t-67.5 29z" />
    <glyph glyph-name="H" unicode="H" horiz-adv-x="1699" 
d="M627 1249v-344h446v344q0 37 -17 58t-37 28t-37 27t-17 55q0 41 28.5 61.5t102.5 20.5h446q74 0 102.5 -20.5t28.5 -61.5q0 -35 -17 -55t-37 -27t-37 -28t-17 -58v-999q0 -37 17 -58t37 -28t37 -27t17 -55q0 -41 -28.5 -61.5t-102.5 -20.5h-446q-74 0 -102.5 20.5
t-28.5 61.5q0 35 17 55t37 27t37 28t17 58v471h-446v-471q0 -37 17 -58t37 -28t37 -27t17 -55q0 -41 -28.5 -61.5t-102.5 -20.5h-446q-74 0 -102.5 20.5t-28.5 61.5q0 35 17 55t37 27t37 28t17 58v999q0 37 -17 58t-37 28t-37 27t-17 55q0 41 28.5 61.5t102.5 20.5h446
q74 0 102.5 -20.5t28.5 -61.5q0 -35 -17 -55t-37 -27t-37 -28t-17 -58z" />
    <glyph glyph-name="I" unicode="I" horiz-adv-x="778" 
d="M635 1249v-999q0 -37 17 -58t37 -28t37 -27t17 -55q0 -41 -28.5 -61.5t-102.5 -20.5h-446q-74 0 -102.5 20.5t-28.5 61.5q0 35 17 55t37 27t37 28t17 58v999q0 37 -17 58t-37 28t-37 27t-17 55q0 41 28.5 61.5t102.5 20.5h446q74 0 102.5 -20.5t28.5 -61.5q0 -35 -17 -55
t-37 -27t-37 -28t-17 -58z" />
    <glyph glyph-name="J" unicode="J" horiz-adv-x="1228" 
d="M1126 1249v-792q0 -140 -36 -235.5t-109.5 -151t-174.5 -79.5t-243 -24q-281 0 -423 104t-142 267q0 142 98.5 226.5t241.5 84.5q101 0 167 -41.5t66 -109.5q0 -35 -21 -55t-51 -29.5t-60 -21t-51 -39t-21 -72.5q0 -54 32.5 -85.5t87.5 -31.5q73 0 110.5 57t37.5 185v843
q0 37 -17 58t-37.5 28t-37.5 27t-17 55q0 41 28.5 61.5t102.5 20.5h447q74 0 102.5 -20.5t28.5 -61.5q0 -35 -17 -55t-37.5 -27t-37.5 -28t-17 -58z" />
    <glyph glyph-name="K" unicode="K" horiz-adv-x="1679" 
d="M137 250v999q0 37 -17 58t-37 28t-37 27t-17 55q0 41 28.5 61.5t102.5 20.5h446q74 0 102.5 -20.5t28.5 -61.5q0 -35 -17 -55t-37 -27t-37 -28t-17 -58v-426q69 31 196.5 122t239 199.5t111.5 164.5q0 13 -13 25t-28 21t-28 26.5t-13 41.5q0 76 143 76h209q147 0 147 -98
q0 -31 -15.5 -49t-36 -25t-49 -23t-48.5 -40q-57 -67 -164 -176.5t-186 -182.5q85 -86 162 -189t128 -189t95.5 -163t83 -131t71.5 -73q23 -14 33 -21.5t17.5 -22t7.5 -36.5q0 -39 -27 -59.5t-96 -20.5h-475q-138 0 -138 86q0 22 10.5 40.5t23.5 28t23.5 21t10.5 21.5
q0 38 -54 120t-245 342l-96 -53v-356q0 -37 17 -58t37 -28t37 -27t17 -55q0 -41 -28.5 -61.5t-102.5 -20.5h-446q-74 0 -102.5 20.5t-28.5 61.5q0 35 17 55t37 27t37 28t17 58z" />
    <glyph glyph-name="L" unicode="L" horiz-adv-x="1228" 
d="M137 250v999q0 37 -17 58t-37 28t-37 27t-17 55q0 41 28.5 61.5t102.5 20.5h446q74 0 102.5 -20.5t28.5 -61.5q0 -35 -17 -55t-37 -27t-37 -28t-17 -58v-940q0 -32 2 -51t10 -34t17 -22t32 -11.5t45.5 -5.5t65.5 -1q70 0 118.5 24t73.5 58t46 68t50 58t70 24q40 0 69 -25
t29 -65q0 -41 -26.5 -132.5t-48.5 -134.5q-19 -37 -43.5 -48t-87.5 -11h-891q-74 0 -102.5 20.5t-28.5 61.5q0 35 17 55t37 27t37 28t17 58z" />
    <glyph glyph-name="M" unicode="M" horiz-adv-x="1945" 
d="M1796 1266v-1016q0 -37 17 -58t37.5 -28t37.5 -27t17 -55q0 -41 -28.5 -61.5t-102.5 -20.5h-447q-74 0 -102.5 20.5t-28.5 61.5q0 35 17 55t37.5 27t37.5 28t17 58v778h-5l-266 -752q-17 -47 -57.5 -64t-138.5 -17q-78 0 -118 18t-67 84l-274 702h-4v-720
q0 -35 16.5 -58.5t40 -36t47 -23.5t40 -30.5t16.5 -48.5q0 -82 -125 -82h-242q-133 0 -133 86q0 31 14 49.5t33.5 27.5t39.5 19t34 34t14 63v974q0 29 -10.5 46t-26 22t-34 11.5t-34 14t-26 29.5t-10.5 58q0 34 23.5 49.5t78.5 15.5h451q88 0 122.5 -29t73.5 -141l221 -618
l265 702q18 50 48.5 68t90.5 18h383q88 0 118.5 -22t30.5 -70q0 -30 -14.5 -48t-35 -24.5t-40.5 -12.5t-34.5 -19t-14.5 -37z" />
    <glyph glyph-name="N" unicode="N" horiz-adv-x="1576" 
d="M1245 680v508q0 46 -9.5 77t-23.5 44.5t-30.5 24.5t-30.5 17.5t-23.5 22.5t-9.5 41q0 46 26.5 65t100.5 19h205q74 0 100.5 -19t26.5 -65q0 -30 -13 -46.5t-31.5 -25.5t-37.5 -21.5t-32 -46t-13 -87.5v-1049q0 -81 -27.5 -110t-124.5 -29q-65 0 -95 1.5t-56 12
t-37.5 23.5t-36.5 47l-663 907h-4v-680q0 -51 10.5 -85t26.5 -47.5t34.5 -23.5t34.5 -15.5t26.5 -20.5t10.5 -41q0 -40 -30.5 -59t-112.5 -19h-205q-82 0 -113 19t-31 59q0 30 15 45.5t36 23t42 20t36 48.5t15 96v828q0 55 -9.5 93t-24.5 56.5t-33.5 30t-37 17t-33.5 12
t-24.5 22t-9.5 41.5q0 47 23.5 67.5t103.5 20.5h381q62 0 92.5 -15t66.5 -65l545 -739h4z" />
    <glyph glyph-name="O" unicode="O" horiz-adv-x="1822" 
d="M911 1532q135 0 262 -33.5t235.5 -100.5t189.5 -159.5t127.5 -218.5t46.5 -270t-46.5 -270t-127.5 -219t-189.5 -160t-235.5 -100.5t-262 -33.5t-262 33.5t-235 100.5t-189.5 160t-127.5 219t-46 270t46 270t127.5 218.5t189.5 159.5t235 100.5t262 33.5zM563 750
q0 -598 348 -598q349 0 349 598t-349 598q-348 0 -348 -598z" />
    <glyph glyph-name="P" unicode="P" horiz-adv-x="1454" 
d="M137 250v999q0 37 -17 58t-37 28t-37 27t-17 55q0 41 28.5 61.5t102.5 20.5h686q620 0 620 -424q0 -452 -837 -518v-307q0 -37 19.5 -58t43 -28t43 -27t19.5 -55q0 -41 -28.5 -61.5t-102.5 -20.5h-463q-74 0 -102.5 20.5t-28.5 61.5q0 35 17 55t37 27t37 28t17 58z
M629 1225v-475q140 32 232.5 117.5t92.5 217.5q0 104 -63.5 175t-165.5 71q-53 0 -74.5 -26.5t-21.5 -79.5z" />
    <glyph glyph-name="Q" unicode="Q" horiz-adv-x="1822" 
d="M51 750q0 144 46 270t127.5 218.5t189.5 159.5t235 100.5t262 33.5t262 -33.5t235.5 -100.5t189.5 -159.5t127.5 -218.5t46.5 -270q0 -264 -146.5 -453.5t-382.5 -271.5q86 -37 148 -37q33 0 98 10t98 10q62 0 104 -37.5t42 -97.5q0 -43 -26 -75t-67.5 -47.5t-82 -22.5
t-80.5 -7q-134 0 -276 63.5t-253 184.5q-12 -2 -37 -2q-135 0 -262 33.5t-235 100.5t-189.5 160t-127.5 219t-46 270zM563 750q0 -533 279 -590q-31 76 -31 205q0 147 109 147q25 0 42.5 -8.5t27 -20.5t15 -32t6.5 -37t1 -41q0 -120 47 -185q201 110 201 562q0 598 -349 598
q-348 0 -348 -598z" />
    <glyph glyph-name="R" unicode="R" horiz-adv-x="1576" 
d="M137 250v999q0 37 -17 58t-37 28t-37 27t-17 55q0 41 28.5 61.5t102.5 20.5h858q102 0 187.5 -18.5t158 -58.5t113.5 -112.5t41 -172.5q0 -131 -82 -232.5t-211 -163.5q155 -165 262 -473q19 -55 45 -88.5t45 -43t33 -25t14 -41.5q0 -35 -31.5 -52.5t-109.5 -17.5h-463
q-76 0 -107 16.5t-30 59.5q0 23 12 40t27 25.5t27 22t12 29.5q0 70 -74.5 217t-134.5 217l-123 -17v-360q0 -37 17 -58t37 -28t37 -27t17 -55q0 -41 -28.5 -61.5t-102.5 -20.5h-446q-74 0 -102.5 20.5t-28.5 61.5q0 35 17 55t37 27t37 28t17 58zM629 1167v-362q7 0 21.5 -1
t21.5 -1q135 0 234.5 81t99.5 212q0 98 -61.5 166.5t-158.5 68.5q-79 0 -118 -38.5t-39 -125.5z" />
    <glyph glyph-name="S" unicode="S" 
d="M1442 539q0 -112 -42.5 -207.5t-114 -161.5t-165 -112.5t-195.5 -68.5t-206 -22q-164 0 -320 49.5t-256 135t-100 180.5q0 57 37.5 98t93.5 41q37 0 67 -16.5t52.5 -43.5t45 -59t52 -64.5t67 -59.5t96.5 -43.5t134 -16.5q121 0 191.5 57t70.5 131q0 44 -29 76.5t-78.5 53
t-113.5 37t-134.5 33.5t-141 37.5t-134.5 54.5t-113.5 80t-78.5 117.5t-29 162.5q0 150 83.5 269.5t235.5 187t345 67.5q149 0 247.5 -23.5t227.5 -78.5q24 -10 40.5 -21t29 -21t20 -28t12 -32t6.5 -44.5t2.5 -54t0.5 -70.5q0 -123 -103 -123q-31 0 -53.5 18t-38 47t-31 64
t-38.5 70t-53 64t-82 47t-120 18q-116 0 -177.5 -46t-61.5 -116q0 -48 29 -84.5t78.5 -60t113.5 -42.5t134.5 -37.5t141 -40.5t134.5 -55.5t113.5 -77t78.5 -111.5t29 -154z" />
    <glyph glyph-name="T" unicode="T" horiz-adv-x="1433" 
d="M186 1499h1061q103 0 123 -33q14 -22 34.5 -108.5t20.5 -116.5q0 -52 -29 -82.5t-75 -30.5q-33 0 -57 19.5t-41.5 46.5t-38 54.5t-58 47t-90.5 19.5q-42 0 -57.5 -18t-15.5 -70v-977q0 -37 17 -58t37 -28t37 -27t17 -55q0 -41 -28.5 -61.5t-102.5 -20.5h-446
q-74 0 -103 20.5t-29 61.5q0 35 17 55t37.5 27t37.5 28t17 58v977q0 52 -16 70t-58 18q-53 0 -90.5 -19.5t-57.5 -46.5t-37.5 -54.5t-41.5 -47t-57 -19.5q-46 0 -75.5 30.5t-29.5 82.5q0 30 20.5 116.5t34.5 108.5q20 33 123 33z" />
    <glyph glyph-name="U" unicode="U" horiz-adv-x="1556" 
d="M1147 1499h266q62 0 88.5 -17.5t26.5 -58.5q0 -30 -12.5 -48.5t-30 -27t-35.5 -17t-30.5 -26.5t-12.5 -47q0 -102 11.5 -334.5t11.5 -312.5q0 -79 -5 -139.5t-21.5 -130.5t-45 -121.5t-78 -101t-118 -81t-168 -50.5t-224.5 -19q-174 0 -296 35.5t-206.5 115t-124 208.5
t-39.5 315q0 97 13.5 331t13.5 290q0 37 -16.5 57t-35.5 25.5t-35.5 22t-16.5 46.5q0 49 34.5 67.5t128.5 18.5h428q79 0 107.5 -20t28.5 -66q0 -27 -18.5 -43t-41 -22.5t-41 -27.5t-18.5 -58q0 -5 -19.5 -268t-19.5 -363q0 -74 5.5 -133.5t24.5 -127t51 -113t89 -75.5
t135 -30q162 0 231.5 103.5t69.5 326.5q0 99 -13 338t-13 309q0 37 -15 61t-36 35t-42 21t-36 28.5t-15 48.5q0 39 26 57.5t89 18.5z" />
    <glyph glyph-name="V" unicode="V" horiz-adv-x="1556" 
d="M92 1499h459q68 0 99.5 -20t31.5 -64q0 -26 -12 -43.5t-29 -27t-33.5 -18.5t-28.5 -25.5t-12 -40.5q0 -94 59 -243t250 -567q34 -74 52 -114q128 293 196 484.5t81.5 263t13.5 139.5q0 31 -16 52t-38.5 34t-45 25.5t-38.5 33.5t-16 51q0 47 38 63.5t142 16.5h144
q109 0 149.5 -18.5t40.5 -75.5q0 -29 -13 -48.5t-30 -28.5t-35.5 -25.5t-25.5 -38.5q-65 -197 -112 -333.5t-120 -335t-135.5 -331t-110.5 -186.5q-31 -36 -53 -50.5t-63 -21t-125 -6.5q-31 0 -43.5 0.5t-37 3t-37 8.5t-33 17.5t-36 29.5t-35 44t-40.5 61
q-94 158 -208.5 436.5t-201.5 603.5q-14 51 -34 87.5t-35.5 51t-26.5 36.5t-11 51q0 31 30.5 50t84.5 19z" />
    <glyph glyph-name="W" unicode="W" horiz-adv-x="2109" 
d="M899 1499h455q61 0 83.5 -21.5t22.5 -64.5q0 -22 -10.5 -36t-25 -22l-29 -16t-25 -24t-10.5 -41q0 -52 8.5 -114.5t27.5 -135.5t35.5 -131.5t46 -142t44.5 -124.5t46 -122t36 -94q82 195 143 414t61 380q0 44 -14.5 72.5t-35 42.5t-40.5 25t-34.5 29t-14.5 46
q0 36 29.5 58t81.5 22h274q48 0 69 -18.5t21 -57.5q0 -25 -14.5 -44t-33.5 -32.5t-40 -46.5t-31 -81q-189 -937 -339 -1129q-50 -63 -86 -76.5t-148 -13.5q-36 0 -61 2t-51 9.5t-43.5 16.5t-37.5 30t-34 42t-33 61t-33.5 79t-36.5 103t-42 126l-50 155q-4 13 -6 19h-4
q-29 -103 -46 -164t-39 -132t-35 -107.5t-32.5 -80.5t-32.5 -62.5t-34.5 -41.5t-38.5 -30t-45 -15t-53.5 -9t-63.5 -1h-57t-44 4t-34 6t-26.5 14t-22 19t-20.5 30t-21.5 38.5t-24.5 52.5q-60 131 -137 401.5t-147 667.5q-6 35 -19 58.5t-26 35t-25.5 22t-20.5 27t-8 41.5
q0 47 32.5 64.5t104.5 17.5h422q72 0 100.5 -23t28.5 -65q0 -21 -9.5 -35t-23.5 -22l-28 -16t-23.5 -24t-9.5 -40q0 -84 10 -167t37.5 -188.5t41 -154.5t58.5 -184.5t52 -157.5h4q40 125 62.5 207.5t44.5 210.5t22 241q0 90 -13 148.5t-31.5 83t-36.5 38.5t-31 29t-13 41
q0 41 28.5 59.5t102.5 18.5z" />
    <glyph glyph-name="X" unicode="X" horiz-adv-x="1556" 
d="M401 0h-331q-84 0 -84 86q0 28 29.5 58t60.5 44q41 19 77.5 71t128.5 190t218 292q-112 147 -191.5 263t-108 165.5t-50 83.5t-39.5 50q-12 11 -46 35t-50.5 43t-16.5 42q0 43 28 59.5t117 16.5h389q106 0 148.5 -19t42.5 -69q0 -22 -14.5 -37.5t-28.5 -26t-14 -20.5
q0 -18 41 -78.5t194 -269.5q199 256 199 321q0 15 -14.5 29t-31.5 23.5t-31.5 30t-14.5 47.5q0 36 22 52.5t68 16.5h278q49 0 82 -24.5t33 -59.5q0 -34 -20 -56t-49 -38t-38 -27l-364 -463q63 -82 256 -347.5t229 -307.5q3 -4 27 -13.5t41.5 -28t17.5 -50.5
q0 -39 -30.5 -61.5t-85.5 -22.5h-471q-91 0 -128.5 19.5t-37.5 64.5q0 20 9 35.5t20.5 23t20.5 14.5t9 13q0 17 -12.5 44.5t-77.5 123.5t-186 256q-127 -184 -166 -255.5t-39 -121.5q0 -25 14 -45.5t30 -32t30 -31t14 -42.5q0 -66 -103 -66z" />
    <glyph glyph-name="Y" unicode="Y" horiz-adv-x="1556" 
d="M98 1499h529q70 0 95.5 -22t25.5 -68q0 -22 -14.5 -39t-32 -26t-32 -24t-14.5 -34q0 -31 25.5 -88t67.5 -123t78 -120t74 -107t40 -55q66 74 176.5 253.5t110.5 239.5q0 15 -14 29t-31 24t-31 29.5t-14 44.5q0 37 29.5 61.5t90.5 24.5h193q74 0 105.5 -18.5t31.5 -63.5
q0 -32 -19.5 -55.5t-56 -56.5t-59.5 -68l-416 -614v-373q0 -37 17 -58t37.5 -28t37.5 -27t17 -55q0 -41 -28.5 -61.5t-102.5 -20.5h-447q-74 0 -102.5 20.5t-28.5 61.5q0 35 17 55t37.5 27t37.5 28t17 58v344q-74 94 -208 299t-190 315q-20 38 -46 64.5t-48 39.5t-41.5 25
t-31 29.5t-11.5 44.5q0 88 129 88z" />
    <glyph glyph-name="Z" unicode="Z" horiz-adv-x="1310" 
d="M213 1499h948q101 0 136.5 -17t35.5 -75q0 -84 -76 -229.5t-184 -297t-216.5 -294t-184.5 -247.5t-76 -130q0 -15 9 -20t34 -5h188q97 0 162.5 19.5t95.5 47t50.5 54.5t45.5 46.5t62 19.5q40 0 65 -21t25 -61q0 -41 -24 -164q-15 -72 -39 -98.5t-92 -26.5h-985
q-91 0 -130.5 35.5t-39.5 91.5q0 70 77 210t186.5 293.5t219.5 298.5t187 250.5t77 123.5q0 12 -53 12h-156q-89 0 -148 -18.5t-85 -44.5t-44 -52t-41.5 -44.5t-60.5 -18.5q-45 0 -70.5 26.5t-25.5 71.5q0 49 9 126.5t22 106.5q15 31 96 31z" />
    <glyph glyph-name="bracketleft" unicode="[" horiz-adv-x="737" 
d="M549 1225v-1401q0 -41 17.5 -64t42 -31t49 -14.5t42 -24t17.5 -50.5q0 -91 -137 -91h-340q-59 0 -76 18.5t-17 88.5v1737q0 69 16.5 87.5t76.5 18.5h340q137 0 137 -90q0 -33 -17.5 -50.5t-42 -24t-49 -14.5t-42 -31t-17.5 -64z" />
    <glyph glyph-name="backslash" unicode="\" horiz-adv-x="1064" 
d="M842 29l-901 1353q-39 64 -39 88q0 32 38.5 47t98.5 15q91 0 123.5 -10t60.5 -52l901 -1353q39 -60 39 -97q0 -28 -31 -40.5t-104 -12.5q-95 0 -126.5 9.5t-59.5 52.5z" />
    <glyph glyph-name="bracketright" unicode="]" horiz-adv-x="737" 
d="M188 -176v1401q0 41 -17.5 64t-42 31t-49 14.5t-42 24t-17.5 50.5q0 90 138 90h340q59 0 75.5 -18t16.5 -88v-1737q0 -70 -16.5 -88.5t-75.5 -18.5h-340q-138 0 -138 91q0 33 17.5 50.5t42 24t49 14.5t42 31t17.5 64z" />
    <glyph glyph-name="asciicircum" unicode="^" horiz-adv-x="1228" 
d="M401 739h-321l371 760h327l371 -760h-324l-211 457z" />
    <glyph glyph-name="underscore" unicode="_" horiz-adv-x="1024" 
d="M1024 -256h-1024v102h1024v-102z" />
    <glyph glyph-name="grave" unicode="`" horiz-adv-x="675" 
d="M205 1499h92q29 0 46.5 -4t41.5 -25.5t49 -64.5q12 -19 35 -55.5t38 -60.5t31 -52.5t24.5 -48.5t8.5 -31q0 -20 -15 -31.5t-36 -11.5q-17 0 -87.5 42t-169.5 106.5t-105 68.5q-74 48 -74 92q0 26 10 42.5t30.5 23.5t36.5 8.5t44 1.5z" />
    <glyph glyph-name="a" unicode="a" horiz-adv-x="1269" 
d="M1163 623v-361q0 -43 16.5 -69.5t36 -36.5t36 -30t16.5 -50q0 -76 -103 -76h-305q-71 0 -96 19t-37 87q-83 -126 -305 -126q-94 0 -168.5 28t-119 75t-68 103.5t-23.5 116.5q0 352 659 352q-3 117 -29 157t-91 40q-32 0 -57.5 -16t-45.5 -38.5t-41.5 -45t-57 -38.5
t-81.5 -16q-82 0 -127 33.5t-45 87.5q0 93 124.5 145t377.5 52q91 0 164.5 -9.5t145 -36t119 -69t76.5 -113.5t29 -165zM494 301q0 -53 25 -85t65 -32q129 0 129 320q-98 0 -158.5 -53.5t-60.5 -149.5z" />
    <glyph glyph-name="b" unicode="b" horiz-adv-x="1372" 
d="M121 381v836q0 48 -12 76t-29 37.5t-34.5 15t-29.5 18.5t-12 39q0 31 31 52.5t106 47.5q52 18 139 35.5t142 17.5q70 0 109.5 -33t39.5 -81v-496q114 70 275 70q213 0 352 -140t139 -354q0 -109 -37.5 -200t-101.5 -153.5t-150 -105.5t-182 -63t-198 -20
q-91 0 -168.5 11.5t-148.5 40.5t-121 73.5t-79.5 114.5t-29.5 161zM571 633v-279q0 -103 32.5 -150.5t103.5 -47.5q51 0 88 50.5t54 125.5t17 162t-17 162t-54 125t-88 50q-71 0 -103.5 -47.5t-32.5 -150.5z" />
    <glyph glyph-name="c" unicode="c" horiz-adv-x="1126" 
d="M1116 766q0 -61 -45.5 -93t-109.5 -32q-39 0 -71 14.5t-51.5 37t-38.5 48t-34 48t-37.5 37t-48.5 14.5q-77 0 -124 -87.5t-50 -250.5q-1 -79 19 -141t55 -98.5t76.5 -55.5t86.5 -19q56 0 108 23t84.5 51t67.5 51t60 23q30 0 52 -24.5t22 -55.5q0 -71 -81.5 -136.5
t-197 -102.5t-221.5 -37q-116 0 -223.5 34.5t-192.5 98.5t-135.5 164t-50.5 221q0 122 48 222t130.5 163.5t188 98t223.5 34.5q220 0 355.5 -71.5t135.5 -178.5z" />
    <glyph glyph-name="d" unicode="d" horiz-adv-x="1372" 
d="M811 954v263q0 48 -12 76t-29.5 37.5t-34.5 15t-29 18.5t-12 39q0 31 31 52.5t106 47.5q52 18 139 35.5t142 17.5q70 0 110 -33t40 -81v-1153q0 -57 11 -90.5t27 -44t32 -16.5t27 -19.5t11 -42.5q0 -40 -27 -58t-102 -18h-270q-36 0 -57 4.5t-34.5 21t-20 32t-17.5 53.5
q-94 -131 -299 -131q-219 0 -363.5 142t-144.5 361q0 118 47.5 219t127.5 169.5t186.5 106.5t224.5 38q37 0 71.5 -9.5t52 -18t66.5 -34.5zM815 408v200q0 120 -38.5 176t-100.5 56q-71 0 -120.5 -77.5t-49.5 -254.5t49.5 -254.5t120.5 -77.5q62 0 100.5 56t38.5 176z" />
    <glyph glyph-name="e" unicode="e" horiz-adv-x="1208" 
d="M35 483q0 101 38 188.5t102.5 150t148.5 107t177 66t187 21.5q113 0 206 -27t150.5 -71t89 -96.5t31.5 -106.5q0 -40 -11.5 -75t-30.5 -63t-51.5 -53t-65 -43.5t-80.5 -36t-89.5 -30t-100 -25.5t-104.5 -21.5t-110 -19.5q23 -77 83 -126.5t143 -49.5q53 0 100.5 17
t81.5 41t63 48t56.5 41t50.5 17q33 0 56.5 -19t23.5 -51q0 -68 -84 -135.5t-210.5 -109t-246.5 -41.5q-91 0 -178 20t-164.5 61.5t-135.5 100.5t-92 141.5t-34 179.5zM752 733q0 41 -19.5 74t-58.5 33q-75 0 -121.5 -91.5t-46.5 -224.5q97 3 171.5 59.5t74.5 149.5z" />
    <glyph glyph-name="f" unicode="f" horiz-adv-x="798" 
d="M614 799v-549q0 -41 16.5 -65t36 -31.5t36 -25.5t16.5 -48q0 -80 -131 -80h-398q-131 0 -131 80q0 30 16.5 48t36 25.5t36 31.5t16.5 65v549h-33q-55 0 -79.5 24.5t-24.5 73.5t24.5 73.5t79.5 24.5h33v78q0 234 117 358.5t342 124.5q123 0 197.5 -44t74.5 -126
q0 -61 -40.5 -101t-102.5 -40q-15 0 -29.5 2.5t-25 6t-21.5 9.5t-17.5 10t-14.5 12l-11.5 11.5t-9.5 10.5t-7 8q-1 -20 -5.5 -65.5t-4.5 -73.5v-181h109q55 0 79.5 -24.5t24.5 -73.5t-24.5 -73.5t-79.5 -24.5h-101z" />
    <glyph glyph-name="g" unicode="g" horiz-adv-x="1310" 
d="M35 528q0 105 35 189.5t93.5 139.5t139.5 91.5t169 52t187 15.5q80 0 240.5 -10.5t241.5 -10.5q88 0 123.5 -22.5t35.5 -77.5q0 -96 -159 -96q94 -100 94 -264q0 -118 -60 -216.5t-165 -152.5v-4q107 -17 178.5 -73t71.5 -155q0 -144 -153.5 -229.5t-459.5 -85.5
q-600 0 -600 223q0 79 86 123.5t217 44.5q162 0 162 -63q0 -13 -13.5 -30.5t-13.5 -25.5q0 -31 41 -51t115 -20q99 0 154 39.5t55 95.5q0 45 -29.5 73t-79.5 52q-124 -14 -159 -14q-109 0 -206 29t-174 84t-122 145t-45 204zM506 545q0 -146 32.5 -231t96.5 -85t96.5 85
t32.5 231t-32.5 230.5t-96.5 84.5t-96.5 -84.5t-32.5 -230.5z" />
    <glyph glyph-name="h" unicode="h" horiz-adv-x="1331" 
d="M555 1368v-434q141 82 276 82q198 0 297 -109.5t99 -306.5v-362q0 -37 12 -59t27 -30t27 -25t12 -44q0 -29 -29 -54.5t-78 -25.5h-393q-49 0 -78 25.5t-29 54.5q0 27 12 44t27 25t27 30t12 59v401q0 76 -26.5 122t-83.5 46t-84 -46t-27 -122v-401q0 -37 12 -59t27 -30
t27 -25t12 -44q0 -29 -29 -54.5t-78 -25.5h-393q-49 0 -77.5 25t-28.5 55q0 27 12 44t26.5 25t26.5 30t12 59v438v561q0 39 -18.5 61t-40.5 29t-40.5 25t-18.5 49q0 41 25.5 62.5t84.5 27.5q53 5 195.5 35t161.5 30q50 0 76 -42t26 -146z" />
    <glyph glyph-name="i" unicode="i" horiz-adv-x="675" 
d="M115 238v458q0 32 -12.5 52t-29.5 29t-34.5 17.5t-30 24t-12.5 41.5q0 39 39.5 64.5t101.5 31.5q53 5 180 32.5t146 27.5q49 0 75.5 -42.5t26.5 -146.5v-589q0 -37 12 -59t27 -30t27 -25t12 -44q0 -30 -28.5 -55t-77.5 -25h-394q-49 0 -77.5 25t-28.5 55q0 27 12 44
t27 25t27 30t12 59zM311 1106q-115 0 -185.5 58.5t-70.5 138.5t70.5 138t185.5 58t185.5 -58t70.5 -138t-70.5 -138.5t-185.5 -58.5z" />
    <glyph glyph-name="j" unicode="j" horiz-adv-x="696" 
d="M621 827v-852q0 -74 -22.5 -134.5t-60.5 -101t-90.5 -68t-111 -40t-123.5 -12.5q-144 0 -244 59.5t-100 139.5q0 53 42 84.5t97 31.5q57 0 98.5 -36t53.5 -82h4q6 20 6 69v811q0 32 -12.5 52t-30 29t-34.5 17.5t-29.5 24t-12.5 41.5q0 39 40 64.5t102 31.5
q53 5 179.5 32.5t145.5 27.5q50 0 76.5 -42.5t26.5 -146.5zM383 1106q-115 0 -185.5 58.5t-70.5 138.5t70.5 138t185.5 58t185.5 -58t70.5 -138t-70.5 -138.5t-185.5 -58.5z" />
    <glyph glyph-name="k" unicode="k" horiz-adv-x="1331" 
d="M115 238v999q0 32 -12.5 52t-29.5 29t-34.5 17.5t-30 24t-12.5 41.5q0 39 39.5 64.5t101.5 31.5q53 5 180 32t146 27q50 0 76 -42t26 -146v-754q35 5 102.5 43t124 87.5t56.5 80.5q0 13 -14 22t-31 15t-31 22t-14 40q0 39 26.5 55t79.5 16h291q52 0 71 -17t19 -48
q0 -30 -16 -49t-49.5 -39t-46.5 -31l-205 -176q165 -133 301 -397q19 -38 49.5 -64.5t49 -44t18.5 -43.5q0 -50 -33.5 -68t-126.5 -18h-375q-121 0 -121 80q0 22 14 37t27.5 26t13.5 23q0 40 -69 146t-111 134v-208q0 -37 12 -59t27 -30t27 -25t12 -44q0 -30 -28.5 -55
t-77.5 -25h-394q-49 0 -77.5 25t-28.5 55q0 27 12 44t27 25t27 30t12 59z" />
    <glyph glyph-name="l" unicode="l" horiz-adv-x="696" 
d="M141 238v999q0 39 -18.5 61t-40.5 29t-40.5 25t-18.5 49q0 39 39.5 64.5t101.5 31.5q53 5 179.5 32t145.5 27q50 0 76.5 -42t26.5 -146v-1130q0 -37 16.5 -59t36.5 -30t36.5 -25t16.5 -44q0 -30 -28.5 -55t-77.5 -25h-451q-49 0 -77.5 25t-28.5 55q0 27 16.5 44t36.5 25
t36.5 30t16.5 59z" />
    <glyph glyph-name="m" unicode="m" horiz-adv-x="1966" 
d="M1825 0h-340q-65 0 -99 21.5t-34 58.5q0 27 12 43.5t27 22.5t27 23t12 46v408q0 101 -25 142.5t-78 41.5t-77.5 -41.5t-24.5 -142.5v-408q0 -29 12 -46t27 -23t27 -22.5t12 -43.5q0 -37 -34 -58.5t-100 -21.5h-340q-65 0 -99 21.5t-34 58.5q0 27 12 43.5t27 22.5t27 23
t12 46v408q0 101 -24.5 142.5t-77.5 41.5t-78 -41.5t-25 -142.5v-408q0 -29 12 -46t27 -23t27 -22.5t12 -43.5q0 -37 -34 -58.5t-99 -21.5h-340q-65 0 -99 21.5t-34 58.5q0 27 12 43.5t27 22.5t27 23t12 46v457q0 41 -10 64.5t-24 31t-28 13t-24 18.5t-10 39q0 12 5 22.5
t16.5 20t21 16.5t27 14.5t26 11t27 10t20.5 7.5q63 26 144.5 51t125.5 25q22 0 39.5 -9t27 -20.5t17 -33t10.5 -35t7 -37.5q59 66 143.5 100.5t177.5 34.5q92 0 174 -41.5t123 -118.5q52 81 144.5 120.5t197.5 39.5q187 0 285 -93t98 -276v-432q0 -29 12 -46t27 -23
t27 -22.5t12 -43.5q0 -37 -34 -58.5t-99 -21.5z" />
    <glyph glyph-name="n" unicode="n" horiz-adv-x="1331" 
d="M123 238v438q0 38 -10.5 62t-25 33t-29 16t-25 20.5t-10.5 36.5q0 38 34.5 62t118.5 52q51 17 135 37.5t119 20.5q22 0 38.5 -8t26 -19t16.5 -31t10 -35.5t7 -41.5q121 135 322 135q198 0 296.5 -109.5t98.5 -306.5v-362q0 -37 12 -59t27 -30t27 -25t12 -44
q0 -30 -28.5 -55t-77.5 -25h-394q-49 0 -77.5 25t-28.5 55q0 27 12 44t27 25t27 30t12 59v401q0 76 -27 122t-84 46t-84 -46t-27 -122v-401q0 -37 12 -59t27 -30t27 -25t12 -44q0 -30 -28.5 -55t-77.5 -25h-393q-49 0 -78 25.5t-29 54.5q0 27 12 44t27 25t27 30t12 59z" />
    <glyph glyph-name="o" unicode="o" horiz-adv-x="1331" 
d="M666 1016q91 0 180.5 -21t170.5 -65t143 -104.5t98.5 -145t37.5 -182.5q-1 -98 -37.5 -182.5t-98.5 -145t-143 -104.5t-170.5 -65t-180.5 -21t-181 21t-171 65t-143 104.5t-98.5 145t-37.5 182.5q1 98 37.5 182.5t98.5 145t143 104.5t171 65t181 21zM506 498
q0 -342 160 -342q159 0 159 342t-159 342q-160 0 -160 -342z" />
    <glyph glyph-name="p" unicode="p" horiz-adv-x="1372" 
d="M131 -115v791q0 48 -12 76t-29 37.5t-34.5 15t-29.5 18.5t-12 39q0 31 31.5 53t106.5 48q51 17 136 35t132 18q13 0 24.5 -1.5t21 -6t16.5 -7.5t14.5 -12.5t11 -13.5t10 -17l8.5 -17t8.5 -20t8.5 -20q115 115 299 115q144 0 258 -69.5t175.5 -188t61.5 -262.5
q0 -106 -39.5 -201.5t-107.5 -164.5t-163.5 -109.5t-201.5 -40.5q-94 0 -147 33.5t-53 95.5q0 34 17 52.5t48 18.5q78 0 127 82t49 221q0 142 -49.5 237t-118.5 95q-66 0 -91 -53t-25 -152v-725q0 -34 10.5 -55.5t26 -31.5t31 -18.5t26 -24t10.5 -40.5q0 -80 -131 -80h-397
q-131 0 -131 80q0 30 16.5 48t35.5 25.5t35.5 31.5t16.5 65z" />
    <glyph glyph-name="q" unicode="q" horiz-adv-x="1372" 
d="M1243 872v-987q0 -41 16.5 -65t36 -31.5t36 -25.5t16.5 -48q0 -80 -131 -80h-398q-131 0 -131 80q0 30 16.5 48t36 25.5t36 31.5t16.5 65v172q-118 -77 -279 -77q-211 0 -345 137.5t-134 349.5q0 155 74.5 281.5t202.5 197t282 70.5q169 0 324 -113q150 113 229 113
q31 0 51.5 -12t29.5 -35.5t12 -44.5t3 -52zM793 365v266q0 106 -35 157.5t-96 51.5q-62 0 -109 -81.5t-47 -256.5q0 -94 14 -164.5t38 -108.5t50 -55.5t54 -17.5q61 0 96 51.5t35 157.5z" />
    <glyph glyph-name="r" unicode="r" horiz-adv-x="983" 
d="M618 553v-303q0 -41 16.5 -65t36 -31.5t36 -25.5t16.5 -48q0 -42 -29.5 -61t-101.5 -19h-397q-72 0 -102 19t-30 61q0 30 16.5 48t36 25.5t36 31.5t16.5 65v356q0 46 -10.5 79.5t-27 49.5t-35 29t-35 21.5t-27 24t-10.5 38.5q0 34 28.5 56.5t100.5 47.5q51 17 146 40.5
t132 23.5q106 0 121 -189h4q41 81 111.5 135t154.5 54q75 0 124.5 -53t49.5 -129q0 -74 -48 -124.5t-122 -50.5q-22 0 -62.5 10.5t-60.5 10.5q-35 0 -59.5 -34t-24.5 -93z" />
    <glyph glyph-name="s" unicode="s" horiz-adv-x="1126" 
d="M1069 352q0 -163 -148 -267.5t-401 -104.5q-219 0 -349 73t-130 170q0 45 30.5 78t75.5 33q34 0 62 -18.5t49.5 -44.5t45.5 -52t61.5 -44.5t85.5 -18.5q58 0 102.5 24t44.5 68q0 29 -22.5 48.5t-60 29.5t-84.5 21t-97 20.5t-97 30.5t-84.5 48.5t-60 76t-22.5 112.5
q0 170 150 275.5t384 105.5q79 0 180 -20.5t166 -47.5q49 -20 65.5 -57t16.5 -123q0 -46 -19 -76t-63 -30q-27 0 -47.5 14t-33 35t-29.5 46t-35 46t-51.5 35t-77.5 14q-64 0 -99.5 -23.5t-35.5 -66.5q0 -26 18 -44.5t48.5 -30t70 -21t83.5 -19.5t88 -23.5t83.5 -35.5t70 -52
t48.5 -77t18 -107z" />
    <glyph glyph-name="t" unicode="t" horiz-adv-x="860" 
d="M590 1210v-215h92q80 0 113.5 -22t33.5 -76t-33.5 -76t-113.5 -22h-80v-465q0 -87 22 -112t87 -25q81 0 109 -25.5t28 -69.5q0 -102 -178 -102h-312q-114 0 -160 45t-46 154v600h-19q-82 0 -114.5 18.5t-32.5 71.5q0 73 94 94q69 14 113 41t62 58t27 65.5t14.5 66
t17.5 57t43 41t85 15.5q53 0 79.5 -3t43.5 -17t21 -34.5t4 -62.5z" />
    <glyph glyph-name="u" unicode="u" horiz-adv-x="1372" 
d="M559 862v-493q0 -181 109 -181q108 0 108 181v372q0 28 -14 45.5t-31 24t-31 20t-14 35.5q0 39 15 56t55 26l268 60q33 8 78 8q73 0 99 -34.5t26 -119.5v-608q0 -35 10.5 -57t26 -32t31 -19t26 -26t10.5 -44q0 -41 -29.5 -58.5t-99.5 -17.5h-252q-73 0 -99.5 20t-39.5 91
q-77 -71 -156.5 -101t-187.5 -30q-94 0 -158 19t-110.5 65.5t-68 126.5t-21.5 200v350q-1 26 -10.5 43t-22.5 26t-26.5 17.5t-22.5 23t-9 36.5q0 53 68 67l270 54q50 8 78 8q73 0 99 -34.5t26 -119.5z" />
    <glyph glyph-name="v" unicode="v" horiz-adv-x="1187" 
d="M117 995h368q127 0 127 -84q0 -22 -13 -40t-28 -27.5t-28 -22.5t-13 -26q0 -70 71.5 -254t121.5 -271q56 116 99.5 254.5t43.5 239.5q0 31 -16.5 51.5t-36.5 29.5t-36.5 26.5t-16.5 43.5q0 38 24.5 59t65.5 21h242q37 0 59.5 -19.5t22.5 -51.5q0 -37 -76 -113
q-8 -8 -54.5 -142t-98 -283.5t-68.5 -184.5q-27 -55 -45.5 -89.5t-40 -61t-37.5 -39.5t-43.5 -20.5t-51 -9t-67.5 -1.5q-48 0 -68.5 1t-49.5 8.5t-52 24.5q-44 31 -93 111t-92 184t-75 192t-60.5 175.5t-31.5 95.5q-11 30 -29 50.5t-32 29.5t-25 25.5t-11 40.5
q0 44 34.5 60.5t109.5 16.5z" />
    <glyph glyph-name="w" unicode="w" horiz-adv-x="1720" 
d="M770 995h317q77 0 106.5 -18.5t29.5 -61.5q0 -24 -10.5 -40t-22.5 -22.5t-22.5 -15.5t-10.5 -22q0 -38 12.5 -99.5t34.5 -134t40 -128.5t40 -119.5t25 -71.5q50 108 94.5 259t44.5 245q0 29 -16 49t-35 30t-35 29t-16 46q0 43 23.5 59t78.5 16h197q58 0 78 -19t20 -61
q0 -25 -10.5 -41t-24.5 -24.5t-33 -35.5t-33 -69q-15 -47 -51 -162t-66 -208.5t-44 -130.5q-17 -43 -26.5 -66t-26.5 -56t-31.5 -50t-37.5 -38t-49 -30.5t-61 -16.5t-78 -7q-50 0 -89 8t-69 27.5t-50.5 39.5t-40 57.5t-32 66t-32.5 80.5q-7 17 -10 26q-19 -42 -28 -62.5
t-25 -53t-25 -47.5t-24.5 -38.5t-27 -33.5t-29 -25t-34 -21t-38.5 -13t-46 -9t-53 -2q-48 0 -70.5 2.5t-56 13t-52.5 37.5t-47.5 70.5t-55 119t-60 175t-76.5 245.5q-22 74 -43.5 123t-36 67t-25.5 29t-16.5 21t-5.5 30q0 82 144 82h348q70 0 98.5 -18t28.5 -62
q0 -28 -10.5 -44.5t-22.5 -21t-22.5 -15t-10.5 -29.5q0 -71 52 -263.5t100 -279.5q70 163 70 332q0 82 -12 137.5t-29 79.5t-34.5 39t-29.5 30t-12 38q0 40 33.5 58.5t105.5 18.5z" />
    <glyph glyph-name="x" unicode="x" horiz-adv-x="1208" 
d="M342 467l-266 356q-4 6 -28 15.5t-43 30t-19 55.5q0 41 26 56t97 15h430q67 0 92.5 -18.5t25.5 -56.5q0 -20 -19.5 -46t-19.5 -36q0 -26 119 -164q31 31 62.5 74t31.5 69q0 15 -17.5 28.5t-35.5 32t-18 44.5q0 41 30 57t95 16h155q64 0 86.5 -17t22.5 -50
q0 -24 -13 -43.5t-30 -31.5t-39.5 -32t-36.5 -41q-13 -20 -29.5 -41.5t-29 -36.5t-35.5 -39t-33 -34l-37.5 -37.5l-34.5 -34.5l279 -360q17 -22 46 -41.5t46 -35t17 -38.5q0 -82 -89 -82h-452q-65 0 -98 21.5t-33 58.5q0 22 11.5 39t23.5 27t12 16q0 12 -18.5 38.5t-65 82
t-57.5 69.5q-32 -37 -63.5 -83t-31.5 -72q0 -15 15 -27t32.5 -20t32.5 -27t15 -45q0 -43 -21.5 -60.5t-75.5 -17.5h-256q-55 0 -80.5 16t-25.5 54t17.5 57.5t47 33t41.5 27.5z" />
    <glyph glyph-name="y" unicode="y" horiz-adv-x="1167" 
d="M858 995h223q109 0 109 -71q0 -25 -42 -67t-42 -71q0 -42 -12.5 -121t-41.5 -189t-69.5 -225t-103.5 -229t-137 -203t-175.5 -144.5t-214.5 -55.5q-36 0 -74 8t-75 24.5t-60.5 46.5t-23.5 69q0 59 45 96t106 37q40 0 77 -16t63 -32t39 -16q40 0 104.5 63.5t83.5 110.5
q-52 -10 -92 -10q-80 0 -139 16.5t-119.5 65t-104 133t-81 224.5t-62.5 335q-5 41 -21.5 69t-30.5 45.5t-14 35.5q0 71 111 71h381q64 0 92.5 -20t28.5 -64q0 -22 -10 -38.5t-22 -25.5t-22 -30t-10 -53q0 -92 15.5 -184.5t39 -161t49.5 -123t48.5 -83t34.5 -28.5q30 0 65 83
t60.5 226.5t25.5 292.5q0 31 -15 49t-33 23.5t-33 22t-15 45.5q0 39 20.5 54t73.5 15z" />
    <glyph glyph-name="z" unicode="z" horiz-adv-x="1105" 
d="M543 856h-127q-55 0 -93.5 -17.5t-58.5 -42t-35.5 -49t-36.5 -42t-51 -17.5q-39 0 -59.5 24t-20.5 64q0 124 30.5 171.5t115.5 47.5h702q90 0 122 -21t32 -69q0 -56 -66.5 -164.5t-148 -209.5t-170 -212t-115.5 -155h158q55 0 93.5 17.5t58 42t35.5 49t36.5 42t50.5 17.5
q32 0 52 -18t20 -50t-11 -94t-22 -98q-13 -44 -39 -58t-90 -14h-704q-95 0 -136.5 27t-41.5 84q0 81 127 245z" />
    <glyph glyph-name="braceleft" unicode="{" horiz-adv-x="737" 
d="M553 1243v-420q0 -133 -33 -200.5t-133 -96.5v-4q100 -29 133 -96.5t33 -200.5v-420q0 -43 17.5 -67.5t42 -33t49 -15.5t42 -24.5t17.5 -51.5q0 -50 -40 -73t-134 -23q-86 0 -146.5 8.5t-110 30t-78.5 58.5t-44.5 93.5t-15.5 136.5v414q0 117 -32 176t-124 90
q92 31 124 89.5t32 177.5v413q0 80 15.5 136.5t44.5 94t78 59t110 30t147 8.5q94 0 134 -23t40 -73q0 -34 -17.5 -52t-42 -25t-49 -15.5t-42 -33t-17.5 -67.5z" />
    <glyph glyph-name="bar" unicode="|" horiz-adv-x="696" 
d="M188 0v1556h320v-1556h-320z" />
    <glyph glyph-name="braceright" unicode="}" horiz-adv-x="737" 
d="M184 -195v420q0 133 33 200.5t133 96.5v4q-100 29 -133 96.5t-33 200.5v420q0 43 -17.5 67.5t-42 33t-49 15.5t-42 25t-17.5 52q0 50 40 73t134 23q108 0 178.5 -14t121.5 -50.5t73.5 -100.5t22.5 -163v-413q0 -118 31.5 -177t123.5 -90q-92 -31 -123.5 -89t-31.5 -177
v-414q0 -99 -22.5 -163t-73.5 -100t-121.5 -50t-178.5 -14q-94 0 -134 23t-40 73q0 34 17.5 51.5t42 24.5t49 15.5t42 33t17.5 67.5z" />
    <glyph glyph-name="asciitilde" unicode="~" horiz-adv-x="1228" 
d="M1014 715l90 -266q-5 -5 -28.5 -31.5t-30 -33.5t-28 -28t-32.5 -28.5t-32 -21.5t-37.5 -19t-39 -10t-45.5 -5q-38 0 -80 12.5t-62.5 22t-70.5 35.5q-103 53 -231 53q-104 0 -172 -114l-90 266q28 39 50.5 65t56 54t75 42.5t90.5 14.5q84 0 236 -70q118 -53 201 -53
q29 0 54.5 9t49.5 29t38 34.5t38 42.5z" />
    <glyph glyph-name="exclamdown" unicode="&#xa1;" horiz-adv-x="798" 
d="M399 1184q115 0 182.5 -57.5t67.5 -129.5t-67 -129t-183 -57q-115 0 -182 57t-67 129q0 73 67 130t182 57zM115 -199q0 51 20.5 156.5t61.5 301t71 362.5q11 65 39 92.5t92 27.5t92 -27.5t39 -92.5q30 -168 71.5 -363t62 -300.5t20.5 -156.5q0 -96 -63.5 -139t-221.5 -43
q-157 0 -220.5 43t-63.5 139z" />
    <glyph glyph-name="cent" unicode="&#xa2;" 
d="M891 297v-141q0 -74 -22 -95.5t-72 -21.5t-72.5 22t-22.5 95v141q-196 8 -321 135t-125 334q0 132 61 241t161.5 173.5t223.5 79.5v165q0 73 22.5 95t72.5 22t72 -21.5t22 -95.5v-165q37 0 88 -13.5t103.5 -38t89 -67.5t36.5 -94q0 -54 -42.5 -87.5t-98.5 -33.5
q-47 0 -82.5 18t-55.5 43.5t-37 51t-37.5 43.5t-45.5 18q-59 0 -99 -79t-40 -210q0 -149 60.5 -237.5t148.5 -88.5q38 0 71.5 15t58 37t47.5 44t48 37t51 15q36 0 62 -25t26 -63q0 -61 -67 -121t-148.5 -93.5t-136.5 -33.5z" />
    <glyph glyph-name="sterling" unicode="&#xa3;" 
d="M92 901h146v94q0 113 38 209t111.5 170t193 116t271.5 42q245 0 396 -88t151 -227q0 -64 -45 -102t-135 -38q-55 0 -90 15.5t-50.5 40t-23.5 54t-16 59.5t-22 54.5t-47 40t-85 15.5q-91 0 -144 -58.5t-53 -150.5q0 -47 19 -137t22 -109h299q55 0 80 -24.5t25 -73.5
t-25 -73.5t-80 -24.5h-264q1 -14 4.5 -39.5t5.5 -47t2 -43.5q0 -152 -94 -278l4 -4q36 29 63 47t68 33.5t80 15.5q59 0 160.5 -28.5t144.5 -28.5q36 0 66.5 14t51.5 33.5t40 39.5t39 34t41 14q32 0 51.5 -19t19.5 -49q0 -26 -24.5 -77.5t-69.5 -112t-99 -115t-122 -91
t-131 -36.5q-87 0 -200 27.5t-221.5 55.5t-184.5 28q-63 0 -118.5 -17.5t-87 -38t-62 -38t-50.5 -17.5q-38 0 -66 42.5t-28 82.5q0 26 19.5 44t49.5 27.5t64 28.5t64 44t49.5 76.5t19.5 123.5q0 26 -2 53t-7.5 58t-9 50t-11.5 56.5t-11 51.5h-180q-55 0 -79.5 24.5
t-24.5 73.5t24.5 73.5t79.5 24.5z" />
    <glyph glyph-name="currency" unicode="&#xa4;" 
d="M1364 1233l-139 -135q54 -64 84 -156.5t30 -191.5t-30 -192t-84 -157l139 -135l-143 -141l-140 141q-57 -59 -149.5 -91t-194.5 -32q-103 0 -196 32t-150 91l-139 -141l-141 141l137 135q-55 64 -86 157t-31 192t31 191.5t86 156.5l-137 135l141 141l139 -141
q58 58 151 90.5t195 32.5q101 0 193.5 -32.5t150.5 -90.5l140 141zM739 397q140 0 237 105t97 248t-96.5 247.5t-237.5 104.5q-145 0 -243.5 -102.5t-98.5 -249.5q0 -149 98.5 -251t243.5 -102z" />
    <glyph glyph-name="yen" unicode="&#xa5;" 
d="M508 440h-315q-115 0 -115 99q0 98 115 98h249q-1 2 -71 145h-193q-115 0 -115 99q0 98 115 98h107q-20 46 -113 272q-6 17 -32 36.5t-52 34.5t-47 41t-21 56q0 37 35.5 58.5t106.5 21.5h479q74 0 102.5 -22.5t28.5 -69.5q0 -24 -14 -39t-30 -21.5t-30 -22t-14 -40.5
q0 -137 201 -567q105 211 165 369.5t60 203.5q0 11 -14 23t-31 22t-31 30t-14 46q0 49 23 68.5t87 19.5h218q50 0 78 -22t28 -64q0 -25 -10 -42.5t-26.5 -31.5t-35 -28.5t-39.5 -40.5t-36 -60l-107 -231h103q114 0 114 -98q0 -99 -114 -99h-195l-68 -145h246q115 0 115 -98
q0 -99 -115 -99h-307v-190q0 -31 11 -50t26.5 -27.5l31 -17t26.5 -26t11 -45.5q0 -52 -30 -68t-137 -16h-347q-107 0 -137.5 16t-30.5 68q0 28 11 45.5t26 26t30.5 17t26.5 27.5t11 50v190z" />
    <glyph glyph-name="brokenbar" unicode="&#xa6;" horiz-adv-x="696" 
d="M188 0v606h320v-606h-320zM188 950v606h320v-606h-320z" />
    <glyph glyph-name="section" unicode="&#xa7;" horiz-adv-x="1310" 
d="M1200 0q0 -89 -36 -166.5t-95.5 -132.5t-136.5 -94.5t-160.5 -58.5t-165.5 -19q-68 0 -163.5 16t-188.5 53.5t-111 86.5q-21 59 -40 151.5t-19 134.5q0 40 24 68.5t64 28.5q46 0 82.5 -38t65.5 -92t62 -107.5t88.5 -91.5t129.5 -38q81 0 154 57.5t73 135.5
q0 50 -26.5 89.5t-71 65.5t-102 48t-121.5 41.5t-128 41.5t-121.5 53.5t-102 71t-71 99.5t-26.5 135q0 189 201 325q-45 52 -66 79.5t-39 74t-18 100.5q0 187 145.5 300.5t401.5 113.5q194 0 360 -70q46 -19 79.5 -114.5t33.5 -153.5q0 -40 -24.5 -67t-63.5 -27
q-34 0 -66.5 27t-63 65t-66 76t-89 65t-118.5 27q-68 0 -118 -36.5t-50 -100.5q0 -42 25 -74t68 -53.5t98 -39.5t116 -36t122.5 -38.5t116.5 -51.5t98 -70.5t68 -99.5t25 -135q0 -184 -168 -332q72 -69 103.5 -133.5t31.5 -159.5zM369 674q0 -40 26 -67.5t79.5 -49t114 -40
t152 -51.5t170.5 -71q43 57 43 105q0 23 -11 42t-36 37t-54.5 32.5t-79.5 33t-96.5 35t-120 42.5t-136.5 50q-51 -39 -51 -98z" />
    <glyph glyph-name="dieresis" unicode="&#xa8;" horiz-adv-x="675" 
d="M96 1135q-78 0 -125 47t-47 108t47 108.5t125 47.5t125 -47.5t47 -108.5t-47 -108t-125 -47zM580 1135q-78 0 -125 47t-47 108t47 108.5t125 47.5t125 -47.5t47 -108.5t-47 -108t-125 -47z" />
    <glyph glyph-name="copyright" unicode="&#xa9;" horiz-adv-x="1761" 
d="M881 1532q171 0 318 -60.5t248 -165t158.5 -248.5t57.5 -308q0 -219 -97.5 -397t-277 -282t-407.5 -104q-229 0 -408.5 104t-277 282t-97.5 397t97.5 397t277 281.5t408.5 103.5zM1458 750q0 176 -72.5 319.5t-205 226t-299.5 80.5q-167 2 -299.5 -80.5t-205.5 -226
t-73 -319.5t73 -319t205.5 -225.5t299.5 -82.5q125 0 233 48.5t183.5 132t118 199.5t42.5 247zM1194 586h59l-32 -170q-5 -31 -66 -56q-4 -1 -27.5 -8t-42 -11.5t-46.5 -11t-58 -9.5t-59 -3q-231 0 -359.5 119.5t-128.5 339.5q0 89 25.5 164.5t81.5 140.5t158.5 102.5
t242.5 37.5q26 0 51 -2t41.5 -4t39.5 -8t32 -8.5t32.5 -9.5t28.5 -9q50 -17 50 -56v-157h-78q-36 176 -193 176q-98 0 -157 -101.5t-60 -287.5q-1 -56 10.5 -115.5t35 -115.5t67 -92t100.5 -36q82 0 142.5 47.5t109.5 143.5z" />
    <glyph glyph-name="ordfeminine" unicode="&#xaa;" horiz-adv-x="942" 
d="M819 1294v-215q0 -26 11 -42t24 -22t24 -18t11 -30q0 -45 -68 -45h-198q-46 0 -62.5 11.5t-23.5 51.5q-55 -76 -199 -76q-118 0 -183 58.5t-65 136.5q0 211 430 211q-1 70 -18.5 94.5t-59.5 24.5q-25 0 -45.5 -14.5t-34 -32t-40.5 -32t-64 -14.5q-54 0 -82.5 20t-28.5 52
q0 56 80.5 87.5t245.5 31.5q59 0 107 -6t94 -22t77 -42t49.5 -68.5t18.5 -99.5zM385 1102q0 -32 16.5 -51t42.5 -19q80 0 80 193q-62 0 -100.5 -32.5t-38.5 -90.5z" />
    <glyph glyph-name="guillemotleft" unicode="&#xab;" horiz-adv-x="819" 
d="M35 504q0 33 77 127t161 173t104 79q21 0 36 -11.5t15 -31.5q0 -26 -76 -161t-76 -165q0 -23 80 -173t80 -183q0 -21 -15.5 -33t-37.5 -12q-21 0 -106.5 84t-163.5 181t-78 126zM383 504q0 33 77 127t161 173t104 79q21 0 36 -11.5t15 -31.5q0 -26 -75.5 -161t-75.5 -165
q0 -23 79.5 -173t79.5 -183q0 -21 -15.5 -33t-37.5 -12q-21 0 -106.5 84t-163.5 181t-78 126z" />
    <glyph glyph-name="logicalnot" unicode="&#xac;" horiz-adv-x="1228" 
d="M793 115v446h-676v320h995v-766h-319z" />
    <glyph glyph-name="registered" unicode="&#xae;" horiz-adv-x="1761" 
d="M512 1141v53h451q109 0 175 -57t66 -170q0 -74 -44.5 -137t-123.5 -87l125 -184q56 -83 133 -178v-31h-217q-28 0 -62 56t-81.5 157.5t-77.5 151.5h-37v-236q0 -51 14.5 -67t71.5 -17v-45h-393v45q57 1 71.5 17t14.5 67v576q0 50 -15 66.5t-71 19.5zM819 1116v-332h49
q115 0 115 172q0 88 -25.5 124t-80.5 36h-58zM881 1532q171 0 318 -60.5t248 -165t158.5 -248.5t57.5 -308q0 -219 -97.5 -397t-277 -282t-407.5 -104q-229 0 -408.5 104t-277 282t-97.5 397t97.5 397t277 281.5t408.5 103.5zM1458 750q0 176 -72.5 319.5t-205 226
t-299.5 80.5q-167 2 -299.5 -80.5t-205.5 -226t-73 -319.5t73 -319t205.5 -225.5t299.5 -82.5q125 0 233 48.5t183.5 132t118 199.5t42.5 247z" />
    <glyph glyph-name="macron" unicode="&#xaf;" horiz-adv-x="675" 
d="M141 1403h394q90 0 127.5 -23.5t37.5 -89.5t-37 -89t-128 -23h-394q-91 0 -128.5 23t-37.5 89t38 89.5t128 23.5z" />
    <glyph glyph-name="degree" unicode="&#xb0;" horiz-adv-x="819" 
d="M410 1397q-74 0 -124 -53.5t-50 -129.5t50 -129t124 -53t124 53t50 129t-50 129.5t-124 53.5zM410 1532q132 0 226.5 -94.5t94.5 -223.5t-94.5 -223t-226.5 -94t-227 94t-95 223t95 223.5t227 94.5z" />
    <glyph glyph-name="plusminus" unicode="&#xb1;" horiz-adv-x="1228" 
d="M455 834v161h319v-161h338v-320h-338v-162h-319v162h-338v320h338zM117 0v295h995v-295h-995z" />
    <glyph glyph-name="twosuperior" unicode="&#xb2;" horiz-adv-x="860" 
d="M410 805h147q61 0 104 10.5t60 23t35 23t35 10.5q45 0 45 -43q0 -10 -8 -37t-19 -62.5t-16 -55.5q-8 -38 -26.5 -50t-74.5 -12h-571q-96 0 -96 64q0 38 25 81t65.5 84t89 84t97 89.5t89 93t65.5 100.5t25 107q0 106 -94 106q-41 0 -72.5 -29t-31.5 -69q0 -19 13 -46
t13 -42q0 -32 -36 -53t-89 -21q-64 0 -103.5 33t-39.5 92q0 110 115 178t286 68q177 0 276 -70t99 -174q0 -60 -27 -117t-76.5 -108t-97 -90.5t-111 -88.5t-95.5 -79z" />
    <glyph glyph-name="threesuperior" unicode="&#xb3;" horiz-adv-x="860" 
d="M78 1321q0 94 94.5 152.5t251.5 58.5q164 0 264 -64.5t100 -169.5q0 -79 -54.5 -128.5t-143.5 -67.5v-4q104 -14 171.5 -76.5t67.5 -157.5q0 -122 -115 -197t-296 -75q-180 0 -284.5 54.5t-104.5 139.5q0 52 37.5 76.5t95.5 24.5q62 0 86.5 -17t30.5 -71q8 -65 26.5 -89
t67.5 -24q57 0 91 44.5t34 129.5q0 91 -41.5 131.5t-159.5 40.5q-51 0 -72.5 10t-21.5 39q0 32 16.5 45t65.5 13q95 0 137.5 42.5t42.5 133.5q0 60 -19.5 85t-56.5 25q-70 0 -70 -57q0 -10 7.5 -35t7.5 -37q0 -32 -32 -49.5t-89 -17.5q-135 0 -135 92z" />
    <glyph glyph-name="acute" unicode="&#xb4;" horiz-adv-x="675" 
d="M379 1499h92q28 0 44 -1.5t36.5 -8.5t30.5 -23.5t10 -42.5q0 -44 -74 -92q-6 -4 -105 -68.5t-169.5 -106.5t-87.5 -42q-21 0 -36.5 12t-15.5 31q0 11 8.5 31t25 48t31.5 53t38 60.5t35 55.5q36 62 64.5 78t72.5 16z" />
    <glyph glyph-name="mu" unicode="&#xb5;" horiz-adv-x="1372" 
d="M559 862v-493q0 -181 109 -181q108 0 108 181v372q0 28 -14 45.5t-31 24t-31 20t-14 35.5q0 39 15 56t55 26l268 60q33 8 78 8q73 0 99 -34.5t26 -119.5v-608q0 -35 10.5 -57t26 -32t31 -19t26 -26t10.5 -44q0 -41 -29.5 -58.5t-99.5 -17.5h-252q-73 0 -99.5 20t-39.5 91
q-59 -55 -118 -84t-134 -39v-258q0 -67 -46.5 -89t-178.5 -22t-178.5 22t-46.5 89v1011q-1 26 -10.5 43t-22.5 26t-26.5 17.5t-22.5 23t-9 36.5q0 53 68 67l270 54q50 8 78 8q73 0 99 -34.5t26 -119.5z" />
    <glyph glyph-name="paragraph" unicode="&#xb6;" horiz-adv-x="1658" 
d="M725 1499h608q83 0 108 -26t25 -107v-1608q0 -67 -27.5 -95t-103.5 -28t-103.5 28t-27.5 95v1487q0 42 -14 56t-53 14t-53.5 -14t-14.5 -56v-1487q0 -67 -27.5 -95t-103.5 -28t-103.5 28t-27.5 95v787q-56 -41 -105 -59.5t-112 -18.5q-130 0 -234.5 67.5t-160.5 178
t-56 239.5q0 165 78.5 290.5t211 191t296.5 65.5z" />
    <glyph glyph-name="periodcentered" unicode="&#xb7;" horiz-adv-x="737" 
d="M164 498q0 85 60 144.5t145 59.5t144.5 -59.5t59.5 -144.5t-59.5 -145t-144.5 -60t-145 60t-60 145z" />
    <glyph glyph-name="cedilla" unicode="&#xb8;" horiz-adv-x="675" 
d="M367 0l-39 -113h41q100 0 154.5 -48.5t54.5 -139.5q0 -188 -259 -188q-92 0 -143 35.5t-51 74.5q0 21 12.5 35t32.5 14q18 0 60 -20.5t67 -20.5q35 0 59.5 21t24.5 55q0 64 -68 64q-35 0 -69.5 -6.5t-38.5 -6.5q-10 0 -17.5 8t-7.5 17q0 14 13 53l57 166h117z" />
    <glyph glyph-name="onesuperior" unicode="&#xb9;" horiz-adv-x="860" 
d="M684 612h-479q-44 0 -61 12.5t-17 41.5q0 53 80 53q37 0 58.5 10t21.5 41v467q0 63 -16.5 80.5t-75.5 17.5q-54 0 -69 10.5t-15 38.5q0 32 47 48l202 57q7 2 39.5 14.5t62 20.5t54.5 8q46 0 68 -22t22 -83v-657q0 -31 19.5 -41t54.5 -10q80 0 80 -53q0 -29 -16.5 -41.5
t-59.5 -12.5z" />
    <glyph glyph-name="ordmasculine" unicode="&#xba;" horiz-adv-x="942" 
d="M471 1532q74 0 146.5 -21t132 -59t96 -98.5t37.5 -132.5q-1 -97 -64 -170t-155 -107.5t-193 -34.5q-102 0 -193.5 34.5t-154.5 107.5t-64 170q1 73 37.5 133t95.5 98t131.5 59t147.5 21zM367 1221q0 -205 104 -205t104 205q0 204 -104 204t-104 -204z" />
    <glyph glyph-name="guillemotright" unicode="&#xbb;" horiz-adv-x="819" 
d="M784 504q0 -29 -78 -126t-163.5 -181t-106.5 -84q-22 0 -37.5 12t-15.5 33q0 33 80 183t80 173q0 30 -76 165t-76 161q0 20 15 31.5t36 11.5q20 0 104 -79t161 -173t77 -127zM436 504q0 -29 -78 -126t-163.5 -181t-106.5 -84q-22 0 -37.5 12t-15.5 33q0 33 80 183t80 173
q0 30 -76 165t-76 161q0 20 15 31.5t36 11.5q20 0 104 -79t161 -173t77 -127z" />
    <glyph glyph-name="onequarter" unicode="&#xbc;" horiz-adv-x="2211" 
d="M2046 221v-98q0 -20 10 -28.5t21.5 -9t21.5 -9.5t10 -29q0 -25 -17 -36t-60 -11h-318q-44 0 -61 10.5t-17 34.5q0 21 12.5 32t27.5 12.5t27.5 9.5t12.5 24v98h-256q-65 0 -85.5 12t-20.5 43q0 39 49.5 142.5t120 214t159 195.5t154.5 85h117q45 0 68.5 -27t23.5 -95v-463
h74q36 0 50.5 -13t14.5 -41t-14.5 -40.5t-50.5 -12.5h-74zM1726 328v368h-4q-147 -177 -221 -368h225zM1657 1397l-760 -1340q-25 -43 -58 -66.5t-87 -23.5q-86 0 -86 53q0 10 3.5 20.5t7 17.5t13 22t15.5 26l755 1336q51 90 146 90q86 0 86 -53q0 -10 -3 -20.5t-6.5 -17
t-12 -21t-13.5 -23.5zM684 612h-479q-44 0 -61 12.5t-17 41.5q0 53 80 53q37 0 58.5 10t21.5 41v467q0 63 -16.5 80.5t-75.5 17.5q-54 0 -69 10.5t-15 38.5q0 32 47 48l202 57q7 2 39.5 14.5t62 20.5t54.5 8q46 0 68 -22t22 -83v-657q0 -31 19.5 -41t54.5 -10q80 0 80 -53
q0 -29 -16.5 -41.5t-59.5 -12.5z" />
    <glyph glyph-name="onehalf" unicode="&#xbd;" horiz-adv-x="2211" 
d="M1761 193h148q61 0 104 10.5t60 23t34.5 23t34.5 10.5q45 0 45 -43q0 -10 -8 -37t-19 -63t-16 -56q-8 -38 -26 -49.5t-74 -11.5h-571q-97 0 -97 63q0 38 25 81t65.5 84t89 84t97.5 89.5t89.5 93t65.5 100.5t25 107q0 107 -94 107q-41 0 -73 -29t-32 -69q0 -19 13.5 -46
t13.5 -42q0 -32 -36 -53t-89 -21q-64 0 -103.5 33t-39.5 92q0 110 115 178t286 68q177 0 276 -70t99 -174q0 -60 -27 -117t-77 -108t-97.5 -90.5t-111 -88.5t-95.5 -79zM1604 1397l-760 -1340q-51 -90 -146 -90q-86 0 -86 53q0 10 3.5 20.5t7 17.5t13 22t15.5 26l756 1336
q25 43 58 66.5t87 23.5q86 0 86 -53q0 -10 -3 -20.5t-6 -16.5t-12 -21.5t-13 -23.5zM684 612h-479q-44 0 -61 12.5t-17 41.5q0 53 80 53q37 0 58.5 10t21.5 41v467q0 63 -16.5 80.5t-75.5 17.5q-54 0 -69 10.5t-15 38.5q0 32 47 48l202 57q7 2 39.5 14.5t62 20.5t54.5 8
q46 0 68 -22t22 -83v-657q0 -31 19.5 -41t54.5 -10q80 0 80 -53q0 -29 -16.5 -41.5t-59.5 -12.5z" />
    <glyph glyph-name="threequarters" unicode="&#xbe;" horiz-adv-x="2211" 
d="M2046 221v-98q0 -20 10 -28.5t21.5 -9t21.5 -9.5t10 -29q0 -25 -17 -36t-60 -11h-318q-44 0 -61 10.5t-17 34.5q0 21 12.5 32t27.5 12.5t27.5 9.5t12.5 24v98h-256q-65 0 -85.5 12t-20.5 43q0 39 49.5 142.5t120 214t159 195.5t154.5 85h117q45 0 68.5 -27t23.5 -95v-463
h74q36 0 50.5 -13t14.5 -41t-14.5 -40.5t-50.5 -12.5h-74zM1726 328v368h-4q-147 -177 -221 -368h225zM1630 1397l-760 -1340q-25 -43 -58 -66.5t-87 -23.5q-86 0 -86 53q0 10 3.5 20.5t7 17.5t13 22t15.5 26l756 1336q25 43 58 66.5t87 23.5q86 0 86 -53q0 -10 -3 -20.5
t-6.5 -17t-12 -21t-13.5 -23.5zM78 1321q0 94 94.5 152.5t251.5 58.5q164 0 264 -64.5t100 -169.5q0 -79 -54.5 -128.5t-143.5 -67.5v-4q104 -14 171.5 -76.5t67.5 -157.5q0 -122 -115 -197t-296 -75q-180 0 -284.5 54.5t-104.5 139.5q0 52 37.5 76.5t95.5 24.5
q62 0 86.5 -17t30.5 -71q8 -65 26.5 -89t67.5 -24q57 0 91 44.5t34 129.5q0 91 -41.5 131.5t-159.5 40.5q-51 0 -72.5 10t-21.5 39q0 32 16.5 45t65.5 13q95 0 137.5 42.5t42.5 133.5q0 60 -19.5 85t-56.5 25q-70 0 -70 -57q0 -10 7.5 -35t7.5 -37q0 -32 -32 -49.5
t-89 -17.5q-135 0 -135 92z" />
    <glyph glyph-name="questiondown" unicode="&#xbf;" horiz-adv-x="1187" 
d="M547 573v70q0 54 27.5 80.5t87.5 26.5q82 0 112.5 -24.5t30.5 -98.5v-226q0 -29 -14.5 -49.5t-37.5 -33.5t-50.5 -26.5t-55 -37t-50.5 -56.5t-37.5 -92.5t-14.5 -138.5q0 -87 34 -135.5t89 -48.5q50 0 74 28.5t24 77.5q0 99 43 147t147 48q92 0 139.5 -42t47.5 -114
q0 -57 -35.5 -111.5t-99.5 -99t-163 -71.5t-216 -27q-266 0 -425 122t-159 314q0 69 20.5 126.5t58.5 99t78 70t93 55.5q29 14 74 34t71 32t53.5 28.5t40.5 34t13 38.5zM659 1184q115 0 182.5 -57.5t67.5 -129.5t-67 -129t-183 -57q-115 0 -182 57t-67 129q0 73 67 130
t182 57z" />
    <glyph glyph-name="Agrave" unicode="&#xc0;" horiz-adv-x="1536" 
d="M891 463h-512q-7 -20 -17.5 -50.5t-15.5 -46t-12.5 -37.5t-11 -34.5t-7 -27.5t-5 -26t-1.5 -20q0 -27 16.5 -44t36 -23t36 -23.5t16.5 -46.5q0 -84 -121 -84h-230q-98 0 -98 82q0 24 16 44.5t35 31.5t37.5 25.5t22.5 29.5q38 123 195 549.5t218 552.5q37 76 65 111.5
t75 54t127 18.5q50 0 77.5 -1t55.5 -7.5t40.5 -13.5t30.5 -28t28.5 -40.5t31.5 -60.5q27 -55 234 -568.5t221 -566.5q8 -25 25 -41t32 -23t27 -24.5t12 -46.5q0 -78 -123 -78h-422q-67 0 -104 20.5t-37 57.5q0 21 12.5 37.5t27.5 25t27.5 19.5t12.5 22q0 14 -6 37t-26.5 94
t-41.5 150zM444 668h371l-178 471zM635 1962h92q29 0 46.5 -4t41.5 -25.5t49 -64.5q12 -19 35 -55.5t38 -60.5t31 -52.5t24.5 -48.5t8.5 -31q0 -20 -15 -31.5t-36 -11.5q-17 0 -87.5 42t-169.5 106.5t-105 68.5q-74 48 -74 92q0 26 10 42.5t30.5 23.5t36.5 8.5t44 1.5z" />
    <glyph glyph-name="Aacute" unicode="&#xc1;" horiz-adv-x="1536" 
d="M891 463h-512q-7 -20 -17.5 -50.5t-15.5 -46t-12.5 -37.5t-11 -34.5t-7 -27.5t-5 -26t-1.5 -20q0 -27 16.5 -44t36 -23t36 -23.5t16.5 -46.5q0 -84 -121 -84h-230q-98 0 -98 82q0 24 16 44.5t35 31.5t37.5 25.5t22.5 29.5q38 123 195 549.5t218 552.5q37 76 65 111.5
t75 54t127 18.5q50 0 77.5 -1t55.5 -7.5t40.5 -13.5t30.5 -28t28.5 -40.5t31.5 -60.5q27 -55 234 -568.5t221 -566.5q8 -25 25 -41t32 -23t27 -24.5t12 -46.5q0 -78 -123 -78h-422q-67 0 -104 20.5t-37 57.5q0 21 12.5 37.5t27.5 25t27.5 19.5t12.5 22q0 14 -6 37t-26.5 94
t-41.5 150zM444 668h371l-178 471zM821 1962h92q28 0 44 -1.5t36.5 -8.5t30.5 -23.5t10 -42.5q0 -45 -73 -92q-4 -3 -104.5 -68t-171 -107t-87.5 -42q-21 0 -36 11.5t-15 31.5q0 11 8.5 31t24.5 48.5t31 52.5t38 60.5t35 55.5q36 62 64.5 78t72.5 16z" />
    <glyph glyph-name="Acircumflex" unicode="&#xc2;" horiz-adv-x="1536" 
d="M891 463h-512q-7 -20 -17.5 -50.5t-15.5 -46t-12.5 -37.5t-11 -34.5t-7 -27.5t-5 -26t-1.5 -20q0 -27 16.5 -44t36 -23t36 -23.5t16.5 -46.5q0 -84 -121 -84h-230q-98 0 -98 82q0 24 16 44.5t35 31.5t37.5 25.5t22.5 29.5q38 123 195 549.5t218 552.5q37 76 65 111.5
t75 54t127 18.5q50 0 77.5 -1t55.5 -7.5t40.5 -13.5t30.5 -28t28.5 -40.5t31.5 -60.5q27 -55 234 -568.5t221 -566.5q8 -25 25 -41t32 -23t27 -24.5t12 -46.5q0 -78 -123 -78h-422q-67 0 -104 20.5t-37 57.5q0 21 12.5 37.5t27.5 25t27.5 19.5t12.5 22q0 14 -6 37t-26.5 94
t-41.5 150zM444 668h371l-178 471zM770 1765l-258 -153q-50 -35 -74 -35q-15 0 -26 12t-11 27q0 7 2 13.5t7.5 15t9 13t12 15t10.5 13.5l193 202q3 3 16 16.5t16.5 17.5t15 15t17 15t16 11.5t18 10.5t17.5 5.5t19 2.5q8 0 16 -1.5t16.5 -5.5t15 -8t15.5 -11t14.5 -11.5
t15 -14t13.5 -14t14 -15t13 -13.5l193 -202q34 -39 39 -59q2 -8 2 -15q0 -13 -12 -24t-25 -11q-15 0 -74 35z" />
    <glyph glyph-name="Atilde" unicode="&#xc3;" horiz-adv-x="1536" 
d="M891 463h-512q-7 -20 -17.5 -50.5t-15.5 -46t-12.5 -37.5t-11 -34.5t-7 -27.5t-5 -26t-1.5 -20q0 -27 16.5 -44t36 -23t36 -23.5t16.5 -46.5q0 -84 -121 -84h-230q-98 0 -98 82q0 24 16 44.5t35 31.5t37.5 25.5t22.5 29.5q38 123 195 549.5t218 552.5q37 76 65 111.5
t75 54t127 18.5q50 0 77.5 -1t55.5 -7.5t40.5 -13.5t30.5 -28t28.5 -40.5t31.5 -60.5q27 -55 234 -568.5t221 -566.5q8 -25 25 -41t32 -23t27 -24.5t12 -46.5q0 -78 -123 -78h-422q-67 0 -104 20.5t-37 57.5q0 21 12.5 37.5t27.5 25t27.5 19.5t12.5 22q0 14 -6 37t-26.5 94
t-41.5 150zM444 668h371l-178 471zM614 1909q62 0 123.5 -21.5t100.5 -47t81.5 -47t71.5 -21.5q24 0 49 21.5t47 43t39 21.5q39 0 39 -35q0 -68 -84.5 -147t-183.5 -79q-57 0 -117 22t-100.5 48t-83.5 48t-70 22q-29 0 -51.5 -19.5t-33.5 -43t-27 -43t-33 -19.5
q-43 0 -43 39q0 86 90.5 172t185.5 86z" />
    <glyph glyph-name="Adieresis" unicode="&#xc4;" horiz-adv-x="1536" 
d="M891 463h-512q-7 -20 -17.5 -50.5t-15.5 -46t-12.5 -37.5t-11 -34.5t-7 -27.5t-5 -26t-1.5 -20q0 -27 16.5 -44t36 -23t36 -23.5t16.5 -46.5q0 -84 -121 -84h-230q-98 0 -98 82q0 24 16 44.5t35 31.5t37.5 25.5t22.5 29.5q38 123 195 549.5t218 552.5q37 76 65 111.5
t75 54t127 18.5q50 0 77.5 -1t55.5 -7.5t40.5 -13.5t30.5 -28t28.5 -40.5t31.5 -60.5q27 -55 234 -568.5t221 -566.5q8 -25 25 -41t32 -23t27 -24.5t12 -46.5q0 -78 -123 -78h-422q-67 0 -104 20.5t-37 57.5q0 21 12.5 37.5t27.5 25t27.5 19.5t12.5 22q0 14 -6 37t-26.5 94
t-41.5 150zM444 668h371l-178 471zM526 1597q-78 0 -125 47.5t-47 108.5t47 108.5t125 47.5t125 -47.5t47 -108.5t-47 -108.5t-125 -47.5zM1010 1597q-78 0 -125 47.5t-47 108.5t47 108.5t125 47.5t125 -47.5t47 -108.5t-47 -108.5t-125 -47.5z" />
    <glyph glyph-name="Aring" unicode="&#xc5;" horiz-adv-x="1536" 
d="M891 463h-512q-7 -20 -17.5 -50.5t-15.5 -46t-12.5 -37.5t-11 -34.5t-7 -27.5t-5 -26t-1.5 -20q0 -27 16.5 -44t36 -23t36 -23.5t16.5 -46.5q0 -84 -121 -84h-230q-98 0 -98 82q0 24 16 44.5t35 31.5t37.5 25.5t22.5 29.5q38 123 195 549.5t218 552.5q37 76 65 111.5
t75 54t127 18.5q50 0 77.5 -1t55.5 -7.5t40.5 -13.5t30.5 -28t28.5 -40.5t31.5 -60.5q27 -55 234 -568.5t221 -566.5q8 -25 25 -41t32 -23t27 -24.5t12 -46.5q0 -78 -123 -78h-422q-67 0 -104 20.5t-37 57.5q0 21 12.5 37.5t27.5 25t27.5 19.5t12.5 22q0 14 -6 37t-26.5 94
t-41.5 150zM444 668h371l-178 471zM756 2050q101 0 173 -71.5t72 -174.5t-72 -174t-173 -71t-173.5 71t-72.5 174t72.5 174.5t173.5 71.5zM756 1898q-38 0 -66 -27t-28 -67t28 -67t66 -27t66 27t28 67t-28 67t-66 27z" />
    <glyph glyph-name="AE" unicode="&#xc6;" horiz-adv-x="2150" 
d="M967 250v321h-480q-133 -283 -133 -338q0 -24 20 -40.5t43.5 -25t43.5 -31t20 -58.5q0 -78 -125 -78h-299q-104 0 -104 88q0 29 16.5 46.5t37.5 25t44.5 24t34.5 39.5q140 308 306 618t304 517q58 87 108 114t130 27h962q89 0 127.5 -27t38.5 -96v-94q0 -60 -29.5 -91.5
t-68.5 -31.5q-32 0 -55 8.5t-36.5 22.5t-25 30.5t-26 33t-35 30.5t-56.5 22.5t-85 8.5q-64 0 -96.5 -4t-55.5 -21.5t-29 -46.5t-6 -84v-282h160q55 0 89.5 13t47 29t32 29t48.5 13q45 0 65.5 -39t20.5 -146q0 -108 -20.5 -148t-65.5 -40q-29 0 -48.5 13t-32 29t-47 29
t-89.5 13h-160v-273q0 -51 3.5 -84t14.5 -58t25 -38.5t42.5 -22t60 -10.5t82.5 -2q58 0 100 10.5t64.5 27.5t37.5 37t24.5 40.5t20.5 37.5t30.5 27.5t49.5 10.5q49 0 77 -29.5t28 -79.5q0 -36 -14 -116t-31 -109q-14 -25 -47.5 -33t-104.5 -8h-932q-74 0 -102.5 20.5
t-28.5 61.5q0 35 17 55t37.5 27t37.5 28t17 58zM586 776h381v494q0 45 -19 45q-17 0 -56.5 -47t-119.5 -173t-186 -319z" />
    <glyph glyph-name="Ccedilla" unicode="&#xc7;" horiz-adv-x="1597" 
d="M57 745q0 135 48.5 259t133 218.5t194.5 165t238 107.5t259 37t267 -38t237 -108q40 -27 56 -53.5t22 -75.5t6 -157q0 -46 -30.5 -72.5t-78.5 -26.5q-32 0 -56 19t-41.5 49.5t-35.5 68t-43 74.5t-58 67.5t-87.5 49.5t-124.5 19q-188 0 -291 -158.5t-103 -417.5
q0 -126 22.5 -226t61.5 -166.5t94 -110t117.5 -62.5t134.5 -19q74 0 139.5 25.5t109.5 61.5t81 72t72 61.5t65 25.5q38 0 63 -27t25 -65q0 -68 -60.5 -138t-150 -121t-193.5 -83.5t-189 -32.5q-266 0 -471.5 96t-319 273t-113.5 409zM958 0l-38 -113h41q100 0 154 -48.5
t54 -139.5q0 -188 -258 -188q-92 0 -143 35.5t-51 74.5q0 21 12.5 35t32.5 14q18 0 60 -20.5t67 -20.5q35 0 59.5 21t24.5 55q0 64 -68 64q-35 0 -69.5 -6.5t-38.5 -6.5q-10 0 -17.5 8t-7.5 17q0 17 12 53l58 166h116z" />
    <glyph glyph-name="Egrave" unicode="&#xc8;" horiz-adv-x="1413" 
d="M139 250v999q0 37 -17 58t-37 28t-37 27t-17 55q0 41 28.5 61.5t102.5 20.5h999q89 0 127.5 -27t38.5 -96v-94q0 -60 -29.5 -91.5t-68.5 -31.5q-32 0 -52.5 8.5t-31.5 22.5t-22 30.5t-31 33t-50.5 30.5t-88 22.5t-136.5 8.5q-64 0 -96.5 -4t-55 -21.5t-28.5 -46.5t-6 -84
v-246h252q45 0 76 8.5t46.5 21t27 25t28 21t39.5 8.5q46 0 66 -38.5t20 -145.5q0 -108 -20.5 -148t-65.5 -40q-29 0 -48.5 13t-32 29t-47 29t-89.5 13h-252v-310q0 -76 8 -116.5t36 -64t67 -29t116 -5.5t134 10.5t89 27.5t54 37t35 40.5t26 37.5t33 27.5t49 10.5
q49 0 76.5 -29.5t27.5 -79.5q0 -36 -14 -116t-31 -109q-14 -25 -47 -33t-104 -8h-1024q-74 0 -102.5 20.5t-28.5 61.5q0 35 17 55t37 27t37 28t17 58zM573 1962h93q29 0 46.5 -4t41.5 -25.5t49 -64.5q12 -19 35 -55.5t38 -60.5t31 -52.5t24.5 -48.5t8.5 -31q0 -20 -15 -31.5
t-36 -11.5q-17 0 -87.5 42t-171 107t-104.5 68q-73 47 -73 92q0 26 9.5 42.5t30 23.5t36.5 8.5t44 1.5z" />
    <glyph glyph-name="Eacute" unicode="&#xc9;" horiz-adv-x="1413" 
d="M139 250v999q0 37 -17 58t-37 28t-37 27t-17 55q0 41 28.5 61.5t102.5 20.5h999q89 0 127.5 -27t38.5 -96v-94q0 -60 -29.5 -91.5t-68.5 -31.5q-32 0 -52.5 8.5t-31.5 22.5t-22 30.5t-31 33t-50.5 30.5t-88 22.5t-136.5 8.5q-64 0 -96.5 -4t-55 -21.5t-28.5 -46.5t-6 -84
v-246h252q45 0 76 8.5t46.5 21t27 25t28 21t39.5 8.5q46 0 66 -38.5t20 -145.5q0 -108 -20.5 -148t-65.5 -40q-29 0 -48.5 13t-32 29t-47 29t-89.5 13h-252v-310q0 -76 8 -116.5t36 -64t67 -29t116 -5.5t134 10.5t89 27.5t54 37t35 40.5t26 37.5t33 27.5t49 10.5
q49 0 76.5 -29.5t27.5 -79.5q0 -36 -14 -116t-31 -109q-14 -25 -47 -33t-104 -8h-1024q-74 0 -102.5 20.5t-28.5 61.5q0 35 17 55t37 27t37 28t17 58zM776 1962h92q28 0 44 -1.5t36.5 -8.5t30.5 -23.5t10 -42.5q0 -44 -74 -92q-6 -4 -105 -68.5t-169.5 -106.5t-87.5 -42
q-21 0 -36 11.5t-15 31.5q0 11 8.5 31t24.5 48.5t31 52.5t38 60.5t35 55.5q36 62 64.5 78t72.5 16z" />
    <glyph glyph-name="Ecircumflex" unicode="&#xca;" horiz-adv-x="1413" 
d="M139 250v999q0 37 -17 58t-37 28t-37 27t-17 55q0 41 28.5 61.5t102.5 20.5h999q89 0 127.5 -27t38.5 -96v-94q0 -60 -29.5 -91.5t-68.5 -31.5q-32 0 -52.5 8.5t-31.5 22.5t-22 30.5t-31 33t-50.5 30.5t-88 22.5t-136.5 8.5q-64 0 -96.5 -4t-55 -21.5t-28.5 -46.5t-6 -84
v-246h252q45 0 76 8.5t46.5 21t27 25t28 21t39.5 8.5q46 0 66 -38.5t20 -145.5q0 -108 -20.5 -148t-65.5 -40q-29 0 -48.5 13t-32 29t-47 29t-89.5 13h-252v-310q0 -76 8 -116.5t36 -64t67 -29t116 -5.5t134 10.5t89 27.5t54 37t35 40.5t26 37.5t33 27.5t49 10.5
q49 0 76.5 -29.5t27.5 -79.5q0 -36 -14 -116t-31 -109q-14 -25 -47 -33t-104 -8h-1024q-74 0 -102.5 20.5t-28.5 61.5q0 35 17 55t37 27t37 28t17 58zM723 1765l-258 -153q-50 -35 -74 -35q-15 0 -26 12t-11 27q0 7 2 13.5t7.5 15t9 13t12 15t10.5 13.5l193 202q3 3 16 16.5
t16.5 17.5t15 15t17 15t16 11.5t18 10.5t17.5 5.5t19 2.5q8 0 16 -1.5t16.5 -5.5t15 -8t15.5 -11t14.5 -11.5t15 -14t13.5 -14t14 -15t13 -13.5l193 -202q34 -39 39 -59q2 -8 2 -15q0 -13 -12 -24t-25 -11q-15 0 -74 35z" />
    <glyph glyph-name="Edieresis" unicode="&#xcb;" horiz-adv-x="1413" 
d="M139 250v999q0 37 -17 58t-37 28t-37 27t-17 55q0 41 28.5 61.5t102.5 20.5h999q89 0 127.5 -27t38.5 -96v-94q0 -60 -29.5 -91.5t-68.5 -31.5q-32 0 -52.5 8.5t-31.5 22.5t-22 30.5t-31 33t-50.5 30.5t-88 22.5t-136.5 8.5q-64 0 -96.5 -4t-55 -21.5t-28.5 -46.5t-6 -84
v-246h252q45 0 76 8.5t46.5 21t27 25t28 21t39.5 8.5q46 0 66 -38.5t20 -145.5q0 -108 -20.5 -148t-65.5 -40q-29 0 -48.5 13t-32 29t-47 29t-89.5 13h-252v-310q0 -76 8 -116.5t36 -64t67 -29t116 -5.5t134 10.5t89 27.5t54 37t35 40.5t26 37.5t33 27.5t49 10.5
q49 0 76.5 -29.5t27.5 -79.5q0 -36 -14 -116t-31 -109q-14 -25 -47 -33t-104 -8h-1024q-74 0 -102.5 20.5t-28.5 61.5q0 35 17 55t37 27t37 28t17 58zM479 1597q-78 0 -125 47.5t-47 108.5t47 108.5t125 47.5t125 -47.5t47 -108.5t-47 -108.5t-125 -47.5zM963 1597
q-78 0 -125 47.5t-47 108.5t47 108.5t125 47.5t125 -47.5t47 -108.5t-47 -108.5t-125 -47.5z" />
    <glyph glyph-name="Igrave" unicode="&#xcc;" horiz-adv-x="778" 
d="M635 1249v-999q0 -37 17 -58t37 -28t37 -27t17 -55q0 -41 -28.5 -61.5t-102.5 -20.5h-446q-74 0 -102.5 20.5t-28.5 61.5q0 35 17 55t37 27t37 28t17 58v999q0 37 -17 58t-37 28t-37 27t-17 55q0 41 28.5 61.5t102.5 20.5h446q74 0 102.5 -20.5t28.5 -61.5q0 -35 -17 -55
t-37 -27t-37 -28t-17 -58zM231 1962h93q29 0 46.5 -4t41.5 -25.5t49 -64.5q12 -19 35 -55.5t38 -60.5t31 -52.5t24.5 -48.5t8.5 -31q0 -20 -15 -31.5t-36 -11.5q-17 0 -87.5 42t-171 107t-104.5 68q-73 47 -73 92q0 26 9.5 42.5t30 23.5t36.5 8.5t44 1.5z" />
    <glyph glyph-name="Iacute" unicode="&#xcd;" horiz-adv-x="778" 
d="M635 1249v-999q0 -37 17 -58t37 -28t37 -27t17 -55q0 -41 -28.5 -61.5t-102.5 -20.5h-446q-74 0 -102.5 20.5t-28.5 61.5q0 35 17 55t37 27t37 28t17 58v999q0 37 -17 58t-37 28t-37 27t-17 55q0 41 28.5 61.5t102.5 20.5h446q74 0 102.5 -20.5t28.5 -61.5q0 -35 -17 -55
t-37 -27t-37 -28t-17 -58zM446 1962h93q28 0 44 -1.5t36.5 -8.5t30 -23.5t9.5 -42.5q0 -45 -73 -92q-4 -3 -104.5 -68t-171 -107t-87.5 -42q-21 0 -36 11.5t-15 31.5q0 11 8.5 31t24.5 48.5t31 52.5t38 60.5t35 55.5q36 62 64.5 78t72.5 16z" />
    <glyph glyph-name="Icircumflex" unicode="&#xce;" horiz-adv-x="778" 
d="M635 1249v-999q0 -37 17 -58t37 -28t37 -27t17 -55q0 -41 -28.5 -61.5t-102.5 -20.5h-446q-74 0 -102.5 20.5t-28.5 61.5q0 35 17 55t37 27t37 28t17 58v999q0 37 -17 58t-37 28t-37 27t-17 55q0 41 28.5 61.5t102.5 20.5h446q74 0 102.5 -20.5t28.5 -61.5q0 -35 -17 -55
t-37 -27t-37 -28t-17 -58zM391 1765l-258 -153q-50 -35 -74 -35q-15 0 -25.5 12t-10.5 27q0 6 2 12t4 11t7.5 12.5t8 11t9.5 12.5t9 11l193 202q3 3 16 16.5t16.5 17.5t15 15t17 15t16 11.5t18 10.5t17.5 5.5t19 2.5q8 0 16 -1.5t16.5 -5.5t15 -8t15.5 -11t14.5 -11.5
t15 -14t13.5 -14t14 -15t13 -13.5l193 -202q34 -39 39 -59q2 -8 2 -15q0 -13 -12 -24t-25 -11q-15 0 -74 35z" />
    <glyph glyph-name="Idieresis" unicode="&#xcf;" horiz-adv-x="778" 
d="M635 1249v-999q0 -37 17 -58t37 -28t37 -27t17 -55q0 -41 -28.5 -61.5t-102.5 -20.5h-446q-74 0 -102.5 20.5t-28.5 61.5q0 35 17 55t37 27t37 28t17 58v999q0 37 -17 58t-37 28t-37 27t-17 55q0 41 28.5 61.5t102.5 20.5h446q74 0 102.5 -20.5t28.5 -61.5q0 -35 -17 -55
t-37 -27t-37 -28t-17 -58zM147 1597q-78 0 -125 47.5t-47 108.5t47 108.5t125 47.5t125 -47.5t47 -108.5t-47 -108.5t-125 -47.5zM631 1597q-78 0 -125 47.5t-47 108.5t47 108.5t125 47.5t125 -47.5t47 -108.5t-47 -108.5t-125 -47.5z" />
    <glyph glyph-name="Eth" unicode="&#xd0;" horiz-adv-x="1761" 
d="M137 905v344q0 37 -17 58t-37 28t-37 27t-17 55q0 41 28.5 61.5t102.5 20.5h719q137 0 256.5 -28t221.5 -87.5t174.5 -146.5t113.5 -211.5t41 -275.5q0 -188 -62.5 -334t-173.5 -235.5t-255 -135t-316 -45.5h-719q-74 0 -102.5 20.5t-28.5 61.5q0 35 17 55t37 27t37 28
t17 58v471h-45q-49 0 -71.5 22t-22.5 70t22.5 70t71.5 22h45zM629 905h282q49 0 72 -22.5t23 -69.5t-23 -69.5t-72 -22.5h-282v-379q0 -93 20.5 -125.5t77.5 -32.5q131 0 234.5 80.5t158 209t54.5 276.5t-54.5 276.5t-158 208.5t-234.5 80q-57 0 -77.5 -32.5t-20.5 -125.5
v-252z" />
    <glyph glyph-name="Ntilde" unicode="&#xd1;" horiz-adv-x="1576" 
d="M1245 680v508q0 46 -9.5 77t-23.5 44.5t-30.5 24.5t-30.5 17.5t-23.5 22.5t-9.5 41q0 46 26.5 65t100.5 19h205q74 0 100.5 -19t26.5 -65q0 -30 -13 -46.5t-31.5 -25.5t-37.5 -21.5t-32 -46t-13 -87.5v-1049q0 -81 -27.5 -110t-124.5 -29q-65 0 -95 1.5t-56 12
t-37.5 23.5t-36.5 47l-663 907h-4v-680q0 -51 10.5 -85t26.5 -47.5t34.5 -23.5t34.5 -15.5t26.5 -20.5t10.5 -41q0 -40 -30.5 -59t-112.5 -19h-205q-82 0 -113 19t-31 59q0 30 15 45.5t36 23t42 20t36 48.5t15 96v828q0 55 -9.5 93t-24.5 56.5t-33.5 30t-37 17t-33.5 12
t-24.5 22t-9.5 41.5q0 47 23.5 67.5t103.5 20.5h381q62 0 92.5 -15t66.5 -65l545 -739h4zM670 1909q62 0 123.5 -21.5t100.5 -47t81.5 -47t71.5 -21.5q24 0 49 21.5t47 43t39 21.5q39 0 39 -35q0 -68 -85 -147t-184 -79q-57 0 -116.5 22t-100 48t-83.5 48t-70 22
q-29 0 -51.5 -19.5t-34 -43t-27.5 -43t-33 -19.5q-43 0 -43 39q0 86 90.5 172t186.5 86z" />
    <glyph glyph-name="Ograve" unicode="&#xd2;" horiz-adv-x="1822" 
d="M911 1532q135 0 262 -33.5t235.5 -100.5t189.5 -159.5t127.5 -218.5t46.5 -270t-46.5 -270t-127.5 -219t-189.5 -160t-235.5 -100.5t-262 -33.5t-262 33.5t-235 100.5t-189.5 160t-127.5 219t-46 270t46 270t127.5 218.5t189.5 159.5t235 100.5t262 33.5zM563 750
q0 -598 348 -598q349 0 349 598t-349 598q-348 0 -348 -598zM754 1962h92q29 0 46.5 -4t41.5 -25.5t49 -64.5q12 -19 35 -55.5t38 -60.5t31 -52.5t24.5 -48.5t8.5 -31q0 -20 -15 -31.5t-36 -11.5q-17 0 -87.5 42t-169.5 106.5t-105 68.5q-74 48 -74 92q0 26 10 42.5
t30.5 23.5t36.5 8.5t44 1.5z" />
    <glyph glyph-name="Oacute" unicode="&#xd3;" horiz-adv-x="1822" 
d="M911 1532q135 0 262 -33.5t235.5 -100.5t189.5 -159.5t127.5 -218.5t46.5 -270t-46.5 -270t-127.5 -219t-189.5 -160t-235.5 -100.5t-262 -33.5t-262 33.5t-235 100.5t-189.5 160t-127.5 219t-46 270t46 270t127.5 218.5t189.5 159.5t235 100.5t262 33.5zM563 750
q0 -598 348 -598q349 0 349 598t-349 598q-348 0 -348 -598zM989 1962h92q28 0 44 -1.5t36.5 -8.5t30.5 -23.5t10 -42.5q0 -44 -74 -92q-6 -4 -105 -68.5t-169.5 -106.5t-87.5 -42q-21 0 -36 11.5t-15 31.5q0 11 8.5 31t24.5 48.5t31 52.5t38 60.5t35 55.5q36 62 64.5 78
t72.5 16z" />
    <glyph glyph-name="Ocircumflex" unicode="&#xd4;" horiz-adv-x="1822" 
d="M911 1532q135 0 262 -33.5t235.5 -100.5t189.5 -159.5t127.5 -218.5t46.5 -270t-46.5 -270t-127.5 -219t-189.5 -160t-235.5 -100.5t-262 -33.5t-262 33.5t-235 100.5t-189.5 160t-127.5 219t-46 270t46 270t127.5 218.5t189.5 159.5t235 100.5t262 33.5zM563 750
q0 -598 348 -598q349 0 349 598t-349 598q-348 0 -348 -598zM913 1765l-258 -153q-50 -35 -73 -35q-15 0 -26 12t-11 27q0 7 2 13.5t7.5 15t9 13t12 15t10.5 13.5l192 202q3 3 16 16.5t16.5 17.5t15 15t17 15t16 11.5t18 10.5t17.5 5.5t19 2.5q23 0 51 -18.5t39 -29.5
t44 -46l192 -202q34 -39 39 -59q2 -8 2 -15q0 -13 -12 -24t-25 -11q-15 0 -74 35z" />
    <glyph glyph-name="Otilde" unicode="&#xd5;" horiz-adv-x="1822" 
d="M911 1532q135 0 262 -33.5t235.5 -100.5t189.5 -159.5t127.5 -218.5t46.5 -270t-46.5 -270t-127.5 -219t-189.5 -160t-235.5 -100.5t-262 -33.5t-262 33.5t-235 100.5t-189.5 160t-127.5 219t-46 270t46 270t127.5 218.5t189.5 159.5t235 100.5t262 33.5zM563 750
q0 -598 348 -598q349 0 349 598t-349 598q-348 0 -348 -598zM774 1909q62 0 123.5 -21.5t100.5 -47t81.5 -47t71.5 -21.5q24 0 49 21.5t47 43t39 21.5q39 0 39 -35q0 -68 -84.5 -147t-183.5 -79q-57 0 -117 22t-100.5 48t-83.5 48t-70 22q-29 0 -51.5 -19.5t-33.5 -43
t-27 -43t-33 -19.5q-43 0 -43 39q0 86 90.5 172t185.5 86z" />
    <glyph glyph-name="Odieresis" unicode="&#xd6;" horiz-adv-x="1822" 
d="M911 1532q135 0 262 -33.5t235.5 -100.5t189.5 -159.5t127.5 -218.5t46.5 -270t-46.5 -270t-127.5 -219t-189.5 -160t-235.5 -100.5t-262 -33.5t-262 33.5t-235 100.5t-189.5 160t-127.5 219t-46 270t46 270t127.5 218.5t189.5 159.5t235 100.5t262 33.5zM563 750
q0 -598 348 -598q349 0 349 598t-349 598q-348 0 -348 -598zM670 1597q-78 0 -125 47.5t-47 108.5t47 108.5t125 47.5t125 -47.5t47 -108.5t-47 -108.5t-125 -47.5zM1153 1597q-78 0 -125 47.5t-47 108.5t47 108.5t125 47.5t125 -47.5t47 -108.5t-47 -108.5t-125 -47.5z" />
    <glyph glyph-name="multiply" unicode="&#xd7;" horiz-adv-x="1228" 
d="M842 498l270 -273l-227 -225l-271 272l-270 -272l-227 225l270 273l-270 272l227 225l270 -272l271 272l227 -225z" />
    <glyph glyph-name="Oslash" unicode="&#xd8;" horiz-adv-x="1822" 
d="M606 408l510 860q-80 80 -205 80q-348 0 -348 -598q0 -206 43 -342zM1217 1087l-510 -856q79 -79 204 -79q349 0 349 598q0 207 -43 337zM1497 1559l-94 -158q171 -102 270 -269t99 -382q0 -144 -46.5 -270t-127.5 -219t-189.5 -160t-235.5 -100.5t-262 -33.5
q-173 0 -327 56l-82 -138q-24 -39 -51.5 -56t-69.5 -17q-34 0 -54 15.5t-20 43.5q0 37 23 70l94 157q-172 99 -272.5 267t-100.5 385q0 144 46 270t127.5 218.5t189.5 159.5t235 100.5t262 33.5q179 0 328 -57l82 139q24 39 51.5 56.5t69.5 17.5q34 0 54 -16t20 -44
q0 -33 -19 -69z" />
    <glyph glyph-name="Ugrave" unicode="&#xd9;" horiz-adv-x="1556" 
d="M1147 1499h266q62 0 88.5 -17.5t26.5 -58.5q0 -30 -12.5 -48.5t-30 -27t-35.5 -17t-30.5 -26.5t-12.5 -47q0 -102 11.5 -334.5t11.5 -312.5q0 -79 -5 -139.5t-21.5 -130.5t-45 -121.5t-78 -101t-118 -81t-168 -50.5t-224.5 -19q-174 0 -296 35.5t-206.5 115t-124 208.5
t-39.5 315q0 97 13.5 331t13.5 290q0 37 -16.5 57t-35.5 25.5t-35.5 22t-16.5 46.5q0 49 34.5 67.5t128.5 18.5h428q79 0 107.5 -20t28.5 -66q0 -27 -18.5 -43t-41 -22.5t-41 -27.5t-18.5 -58q0 -5 -19.5 -268t-19.5 -363q0 -74 5.5 -133.5t24.5 -127t51 -113t89 -75.5
t135 -30q162 0 231.5 103.5t69.5 326.5q0 99 -13 338t-13 309q0 37 -15 61t-36 35t-42 21t-36 28.5t-15 48.5q0 39 26 57.5t89 18.5zM645 1962h92q29 0 46.5 -4t41.5 -25.5t49 -64.5q12 -20 35 -55.5t38 -60.5t31.5 -53t25 -48t8.5 -31q0 -20 -15 -31.5t-36 -11.5
q-17 0 -87.5 42t-171 107t-104.5 68q-74 48 -74 92q0 26 10 42.5t30.5 23.5t36.5 8.5t44 1.5z" />
    <glyph glyph-name="Uacute" unicode="&#xda;" horiz-adv-x="1556" 
d="M1147 1499h266q62 0 88.5 -17.5t26.5 -58.5q0 -30 -12.5 -48.5t-30 -27t-35.5 -17t-30.5 -26.5t-12.5 -47q0 -102 11.5 -334.5t11.5 -312.5q0 -79 -5 -139.5t-21.5 -130.5t-45 -121.5t-78 -101t-118 -81t-168 -50.5t-224.5 -19q-174 0 -296 35.5t-206.5 115t-124 208.5
t-39.5 315q0 97 13.5 331t13.5 290q0 37 -16.5 57t-35.5 25.5t-35.5 22t-16.5 46.5q0 49 34.5 67.5t128.5 18.5h428q79 0 107.5 -20t28.5 -66q0 -27 -18.5 -43t-41 -22.5t-41 -27.5t-18.5 -58q0 -5 -19.5 -268t-19.5 -363q0 -74 5.5 -133.5t24.5 -127t51 -113t89 -75.5
t135 -30q162 0 231.5 103.5t69.5 326.5q0 99 -13 338t-13 309q0 37 -15 61t-36 35t-42 21t-36 28.5t-15 48.5q0 39 26 57.5t89 18.5zM866 1962h92q28 0 44 -1.5t36.5 -8.5t30.5 -23.5t10 -42.5q0 -45 -73 -92q-4 -3 -104.5 -68t-171 -107t-87.5 -42q-21 0 -36 11.5t-15 31.5
q0 11 8.5 31t24.5 48.5t31 52.5t38 60.5t35 55.5q36 62 64.5 78t72.5 16z" />
    <glyph glyph-name="Ucircumflex" unicode="&#xdb;" horiz-adv-x="1556" 
d="M1147 1499h266q62 0 88.5 -17.5t26.5 -58.5q0 -30 -12.5 -48.5t-30 -27t-35.5 -17t-30.5 -26.5t-12.5 -47q0 -102 11.5 -334.5t11.5 -312.5q0 -79 -5 -139.5t-21.5 -130.5t-45 -121.5t-78 -101t-118 -81t-168 -50.5t-224.5 -19q-174 0 -296 35.5t-206.5 115t-124 208.5
t-39.5 315q0 97 13.5 331t13.5 290q0 37 -16.5 57t-35.5 25.5t-35.5 22t-16.5 46.5q0 49 34.5 67.5t128.5 18.5h428q79 0 107.5 -20t28.5 -66q0 -27 -18.5 -43t-41 -22.5t-41 -27.5t-18.5 -58q0 -5 -19.5 -268t-19.5 -363q0 -74 5.5 -133.5t24.5 -127t51 -113t89 -75.5
t135 -30q162 0 231.5 103.5t69.5 326.5q0 99 -13 338t-13 309q0 37 -15 61t-36 35t-42 21t-36 28.5t-15 48.5q0 39 26 57.5t89 18.5zM827 1765l-258 -153q-50 -35 -73 -35q-15 0 -26 12t-11 27q0 7 2 13.5t7.5 15t9 13t12 15t10.5 13.5l192 202q3 3 16 16.5t16.5 17.5t15 15
t17 15t16 11.5t18 10.5t17.5 5.5t19 2.5q23 0 51 -18.5t39 -29.5t44 -46l192 -202q34 -39 39 -59q2 -8 2 -15q0 -13 -12 -24t-25 -11q-15 0 -74 35z" />
    <glyph glyph-name="Udieresis" unicode="&#xdc;" horiz-adv-x="1556" 
d="M1147 1499h266q62 0 88.5 -17.5t26.5 -58.5q0 -30 -12.5 -48.5t-30 -27t-35.5 -17t-30.5 -26.5t-12.5 -47q0 -102 11.5 -334.5t11.5 -312.5q0 -79 -5 -139.5t-21.5 -130.5t-45 -121.5t-78 -101t-118 -81t-168 -50.5t-224.5 -19q-174 0 -296 35.5t-206.5 115t-124 208.5
t-39.5 315q0 97 13.5 331t13.5 290q0 37 -16.5 57t-35.5 25.5t-35.5 22t-16.5 46.5q0 49 34.5 67.5t128.5 18.5h428q79 0 107.5 -20t28.5 -66q0 -27 -18.5 -43t-41 -22.5t-41 -27.5t-18.5 -58q0 -5 -19.5 -268t-19.5 -363q0 -74 5.5 -133.5t24.5 -127t51 -113t89 -75.5
t135 -30q162 0 231.5 103.5t69.5 326.5q0 99 -13 338t-13 309q0 37 -15 61t-36 35t-42 21t-36 28.5t-15 48.5q0 39 26 57.5t89 18.5zM584 1597q-78 0 -125 47.5t-47 108.5t47 108.5t125 47.5t125 -47.5t47 -108.5t-47 -108.5t-125 -47.5zM1067 1597q-78 0 -125 47.5
t-47 108.5t47 108.5t125 47.5t125 -47.5t47 -108.5t-47 -108.5t-125 -47.5z" />
    <glyph glyph-name="Yacute" unicode="&#xdd;" horiz-adv-x="1556" 
d="M98 1499h529q70 0 95.5 -22t25.5 -68q0 -22 -14.5 -39t-32 -26t-32 -24t-14.5 -34q0 -31 25.5 -88t67.5 -123t78 -120t74 -107t40 -55q66 74 176.5 253.5t110.5 239.5q0 15 -14 29t-31 24t-31 29.5t-14 44.5q0 37 29.5 61.5t90.5 24.5h193q74 0 105.5 -18.5t31.5 -63.5
q0 -32 -19.5 -55.5t-56 -56.5t-59.5 -68l-416 -614v-373q0 -37 17 -58t37.5 -28t37.5 -27t17 -55q0 -41 -28.5 -61.5t-102.5 -20.5h-447q-74 0 -102.5 20.5t-28.5 61.5q0 35 17 55t37.5 27t37.5 28t17 58v344q-74 94 -208 299t-190 315q-20 38 -46 64.5t-48 39.5t-41.5 25
t-31 29.5t-11.5 44.5q0 88 129 88zM866 1962h92q28 0 44 -1.5t36.5 -8.5t30.5 -23.5t10 -42.5q0 -45 -73 -92q-4 -3 -104.5 -68t-171 -107t-87.5 -42q-21 0 -36 11.5t-15 31.5q0 11 8.5 31t24.5 48.5t31 52.5t38 60.5t35 55.5q36 62 64.5 78t72.5 16z" />
    <glyph glyph-name="Thorn" unicode="&#xde;" horiz-adv-x="1454" 
d="M635 1229h211q620 0 620 -424q0 -450 -831 -514v-41q0 -37 17 -58t37 -28t37 -27t17 -55q0 -41 -28.5 -61.5t-102.5 -20.5h-446q-75 0 -106 20.5t-31 61.5q0 35 18 55t39 27t39 28t18 58v999q0 37 -18 58t-39 28t-39 27t-18 55q0 41 31 61.5t106 20.5h446
q74 0 102.5 -20.5t28.5 -61.5q0 -35 -17 -55t-37 -27t-37 -28t-17 -58v-20zM635 1001v-520q139 33 229 118.5t90 215.5q0 104 -63.5 175t-165.5 71q-75 0 -90 -60z" />
    <glyph glyph-name="germandbls" unicode="&#xdf;" horiz-adv-x="1495" 
d="M588 1094v-865q0 -96 -13 -145.5t-38 -66.5t-74 -17h-297q-131 0 -131 78q0 26 10.5 42t25.5 24.5t30 18.5t25.5 32t10.5 57v709q0 291 163 431t460 140q272 0 433 -115.5t161 -296.5q0 -126 -68.5 -205.5t-193.5 -109.5v-4q168 -18 269 -120.5t101 -274.5
q0 -192 -131 -315.5t-340 -123.5q-171 0 -263.5 79t-92.5 216q0 55 18 106t59 87.5t97 36.5q33 0 56.5 -22.5t23.5 -55.5q0 -28 -29 -63t-29 -60q0 -35 22 -58.5t56 -23.5q64 0 106 53t42 168q0 149 -78 224t-225 75q-57 0 -82 19.5t-25 62.5q0 50 25.5 72t83.5 22
q85 0 130.5 50.5t45.5 150.5q0 92 -49.5 148.5t-126.5 56.5q-79 0 -123.5 -54.5t-44.5 -162.5z" />
    <glyph glyph-name="agrave" unicode="&#xe0;" horiz-adv-x="1269" 
d="M1163 623v-361q0 -43 16.5 -69.5t36 -36.5t36 -30t16.5 -50q0 -76 -103 -76h-305q-71 0 -96 19t-37 87q-83 -126 -305 -126q-94 0 -168.5 28t-119 75t-68 103.5t-23.5 116.5q0 352 659 352q-3 117 -29 157t-91 40q-32 0 -57.5 -16t-45.5 -38.5t-41.5 -45t-57 -38.5
t-81.5 -16q-82 0 -127 33.5t-45 87.5q0 93 124.5 145t377.5 52q91 0 164.5 -9.5t145 -36t119 -69t76.5 -113.5t29 -165zM494 301q0 -53 25 -85t65 -32q129 0 129 320q-98 0 -158.5 -53.5t-60.5 -149.5zM489 1499h93q29 0 46.5 -4t41.5 -25.5t49 -64.5q12 -19 35 -55.5
t38 -60.5t31 -52.5t24.5 -48.5t8.5 -31q0 -20 -15 -31.5t-36 -11.5q-17 0 -87.5 42t-171 107t-104.5 68q-73 47 -73 92q0 26 9.5 42.5t30 23.5t36.5 8.5t44 1.5z" />
    <glyph glyph-name="aacute" unicode="&#xe1;" horiz-adv-x="1269" 
d="M1163 623v-361q0 -43 16.5 -69.5t36 -36.5t36 -30t16.5 -50q0 -76 -103 -76h-305q-71 0 -96 19t-37 87q-83 -126 -305 -126q-94 0 -168.5 28t-119 75t-68 103.5t-23.5 116.5q0 352 659 352q-3 117 -29 157t-91 40q-32 0 -57.5 -16t-45.5 -38.5t-41.5 -45t-57 -38.5
t-81.5 -16q-82 0 -127 33.5t-45 87.5q0 93 124.5 145t377.5 52q91 0 164.5 -9.5t145 -36t119 -69t76.5 -113.5t29 -165zM494 301q0 -53 25 -85t65 -32q129 0 129 320q-98 0 -158.5 -53.5t-60.5 -149.5zM676 1499h92q28 0 44 -1.5t36.5 -8.5t30.5 -23.5t10 -42.5
q0 -44 -74 -92q-6 -4 -105 -68.5t-169.5 -106.5t-87.5 -42q-21 0 -36.5 12t-15.5 31q0 11 8.5 31t25 48t31.5 53t38 60.5t35 55.5q36 62 64.5 78t72.5 16z" />
    <glyph glyph-name="acircumflex" unicode="&#xe2;" horiz-adv-x="1269" 
d="M1163 623v-361q0 -43 16.5 -69.5t36 -36.5t36 -30t16.5 -50q0 -76 -103 -76h-305q-71 0 -96 19t-37 87q-83 -126 -305 -126q-94 0 -168.5 28t-119 75t-68 103.5t-23.5 116.5q0 352 659 352q-3 117 -29 157t-91 40q-32 0 -57.5 -16t-45.5 -38.5t-41.5 -45t-57 -38.5
t-81.5 -16q-82 0 -127 33.5t-45 87.5q0 93 124.5 145t377.5 52q91 0 164.5 -9.5t145 -36t119 -69t76.5 -113.5t29 -165zM494 301q0 -53 25 -85t65 -32q129 0 129 320q-98 0 -158.5 -53.5t-60.5 -149.5zM637 1303l-258 -154q-50 -35 -74 -35q-15 0 -26 12t-11 27q0 7 2 13.5
t7.5 15t9 13t12 15t10.5 13.5l193 202q4 4 15.5 16.5t16.5 17.5t16 15.5t17 15l16 12t17.5 10.5t17.5 5.5t19 2.5q10 0 20 -2.5t21.5 -9.5t18.5 -11.5t20 -17.5t17.5 -17t19 -19.5t16.5 -17.5l193 -202q34 -39 39 -59q2 -8 2 -15q0 -13 -12 -24t-25 -11q-15 0 -74 35z" />
    <glyph glyph-name="atilde" unicode="&#xe3;" horiz-adv-x="1269" 
d="M1163 623v-361q0 -43 16.5 -69.5t36 -36.5t36 -30t16.5 -50q0 -76 -103 -76h-305q-71 0 -96 19t-37 87q-83 -126 -305 -126q-94 0 -168.5 28t-119 75t-68 103.5t-23.5 116.5q0 352 659 352q-3 117 -29 157t-91 40q-32 0 -57.5 -16t-45.5 -38.5t-41.5 -45t-57 -38.5
t-81.5 -16q-82 0 -127 33.5t-45 87.5q0 93 124.5 145t377.5 52q91 0 164.5 -9.5t145 -36t119 -69t76.5 -113.5t29 -165zM494 301q0 -53 25 -85t65 -32q129 0 129 320q-98 0 -158.5 -53.5t-60.5 -149.5zM498 1446q62 0 123 -21.5t100.5 -47t81.5 -47t71 -21.5q24 0 49.5 21.5
t47.5 43t39 21.5q39 0 39 -35q0 -68 -85 -146.5t-184 -78.5q-57 0 -116.5 21.5t-100 48t-83.5 48t-70 21.5q-29 0 -51.5 -19.5t-34 -43t-27.5 -43t-33 -19.5q-43 0 -43 39q0 86 90.5 172t186.5 86z" />
    <glyph glyph-name="adieresis" unicode="&#xe4;" horiz-adv-x="1269" 
d="M1163 623v-361q0 -43 16.5 -69.5t36 -36.5t36 -30t16.5 -50q0 -76 -103 -76h-305q-71 0 -96 19t-37 87q-83 -126 -305 -126q-94 0 -168.5 28t-119 75t-68 103.5t-23.5 116.5q0 352 659 352q-3 117 -29 157t-91 40q-32 0 -57.5 -16t-45.5 -38.5t-41.5 -45t-57 -38.5
t-81.5 -16q-82 0 -127 33.5t-45 87.5q0 93 124.5 145t377.5 52q91 0 164.5 -9.5t145 -36t119 -69t76.5 -113.5t29 -165zM494 301q0 -53 25 -85t65 -32q129 0 129 320q-98 0 -158.5 -53.5t-60.5 -149.5zM393 1135q-78 0 -125 47t-47 108t47 108.5t125 47.5t125 -47.5
t47 -108.5t-47 -108t-125 -47zM877 1135q-78 0 -125 47t-47 108t47 108.5t125 47.5t125 -47.5t47 -108.5t-47 -108t-125 -47z" />
    <glyph glyph-name="aring" unicode="&#xe5;" horiz-adv-x="1269" 
d="M1163 623v-361q0 -43 16.5 -69.5t36 -36.5t36 -30t16.5 -50q0 -76 -103 -76h-305q-71 0 -96 19t-37 87q-83 -126 -305 -126q-94 0 -168.5 28t-119 75t-68 103.5t-23.5 116.5q0 352 659 352q-3 117 -29 157t-91 40q-32 0 -57.5 -16t-45.5 -38.5t-41.5 -45t-57 -38.5
t-81.5 -16q-82 0 -127 33.5t-45 87.5q0 93 124.5 145t377.5 52q91 0 164.5 -9.5t145 -36t119 -69t76.5 -113.5t29 -165zM494 301q0 -53 25 -85t65 -32q129 0 129 320q-98 0 -158.5 -53.5t-60.5 -149.5zM635 1587q101 0 173.5 -71.5t72.5 -174.5t-72.5 -174t-173.5 -71
t-173.5 71t-72.5 174t72.5 174.5t173.5 71.5zM635 1436q-38 0 -66 -27.5t-28 -67.5t28 -67t66 -27t66 27t28 67t-28 67.5t-66 27.5z" />
    <glyph glyph-name="ae" unicode="&#xe6;" horiz-adv-x="1904" 
d="M629 840q-43 0 -78.5 -17.5t-61 -42t-52 -49t-64.5 -42t-84 -17.5q-80 0 -126 33.5t-46 82.5q0 58 66.5 110.5t179 85t239.5 32.5q268 0 393 -150q78 76 190 113t230 37q76 0 152.5 -18t145 -53t111 -95.5t42.5 -136.5q0 -63 -28.5 -113t-78 -86t-133.5 -67t-178 -53
t-229 -46q7 -32 21.5 -61t41 -56t70.5 -43t100 -16q65 0 123 22.5t92 49t69.5 49t59.5 22.5q31 0 55.5 -21.5t24.5 -51.5q0 -69 -86 -131.5t-202 -96.5t-216 -34q-265 0 -397 155q-147 -155 -453 -155q-132 0 -237.5 31.5t-173.5 103.5t-68 176q0 164 178.5 239.5
t554.5 75.5q0 73 -11 121t-32.5 72t-45.5 32.5t-58 8.5zM1366 840q-63 0 -118 -94t-46 -222q67 9 117.5 32t78.5 53t41 61.5t13 62.5q0 48 -22.5 77.5t-63.5 29.5zM494 279q0 -95 110 -95q59 0 99.5 39t56.5 93t16 118q-137 0 -209.5 -42.5t-72.5 -112.5z" />
    <glyph glyph-name="ccedilla" unicode="&#xe7;" horiz-adv-x="1126" 
d="M1116 766q0 -61 -45.5 -93t-109.5 -32q-39 0 -71 14.5t-51.5 37t-38.5 48t-34 48t-37.5 37t-48.5 14.5q-77 0 -124 -87.5t-50 -250.5q-1 -79 19 -141t55 -98.5t76.5 -55.5t86.5 -19q56 0 108 23t84.5 51t67.5 51t60 23q30 0 52 -24.5t22 -55.5q0 -71 -81.5 -136.5
t-197 -102.5t-221.5 -37q-116 0 -223.5 34.5t-192.5 98.5t-135.5 164t-50.5 221q0 122 48 222t130.5 163.5t188 98t223.5 34.5q220 0 355.5 -71.5t135.5 -178.5zM635 0l-39 -113h41q100 0 154.5 -48.5t54.5 -139.5q0 -188 -258 -188q-92 0 -143.5 35.5t-51.5 74.5
q0 21 12.5 35t32.5 14q18 0 60 -20.5t67 -20.5q35 0 59.5 21t24.5 55q0 64 -67 64q-35 0 -70 -6.5t-39 -6.5q-10 0 -17 8t-7 17q0 17 12 53l57 166h117z" />
    <glyph glyph-name="egrave" unicode="&#xe8;" horiz-adv-x="1208" 
d="M35 483q0 101 38 188.5t102.5 150t148.5 107t177 66t187 21.5q113 0 206 -27t150.5 -71t89 -96.5t31.5 -106.5q0 -40 -11.5 -75t-30.5 -63t-51.5 -53t-65 -43.5t-80.5 -36t-89.5 -30t-100 -25.5t-104.5 -21.5t-110 -19.5q23 -77 83 -126.5t143 -49.5q53 0 100.5 17
t81.5 41t63 48t56.5 41t50.5 17q33 0 56.5 -19t23.5 -51q0 -68 -84 -135.5t-210.5 -109t-246.5 -41.5q-91 0 -178 20t-164.5 61.5t-135.5 100.5t-92 141.5t-34 179.5zM752 733q0 41 -19.5 74t-58.5 33q-75 0 -121.5 -91.5t-46.5 -224.5q97 3 171.5 59.5t74.5 149.5z
M492 1499h92q29 0 46.5 -4t41.5 -25.5t49 -64.5q12 -19 35 -55.5t38 -60.5t31 -52.5t24.5 -48.5t8.5 -31q0 -20 -15 -31.5t-36 -11.5q-17 0 -87.5 42t-171 107t-104.5 68q-73 47 -73 92q0 26 10 42.5t30.5 23.5t36.5 8.5t44 1.5z" />
    <glyph glyph-name="eacute" unicode="&#xe9;" horiz-adv-x="1208" 
d="M35 483q0 101 38 188.5t102.5 150t148.5 107t177 66t187 21.5q113 0 206 -27t150.5 -71t89 -96.5t31.5 -106.5q0 -40 -11.5 -75t-30.5 -63t-51.5 -53t-65 -43.5t-80.5 -36t-89.5 -30t-100 -25.5t-104.5 -21.5t-110 -19.5q23 -77 83 -126.5t143 -49.5q53 0 100.5 17
t81.5 41t63 48t56.5 41t50.5 17q33 0 56.5 -19t23.5 -51q0 -68 -84 -135.5t-210.5 -109t-246.5 -41.5q-91 0 -178 20t-164.5 61.5t-135.5 100.5t-92 141.5t-34 179.5zM752 733q0 41 -19.5 74t-58.5 33q-75 0 -121.5 -91.5t-46.5 -224.5q97 3 171.5 59.5t74.5 149.5z
M707 1499h92q28 0 44 -1.5t36.5 -8.5t30.5 -23.5t10 -42.5q0 -44 -74 -92q-4 -3 -104.5 -68t-171 -107t-87.5 -42q-21 0 -36 11.5t-15 31.5q0 11 8.5 31t24.5 48.5t31 52.5t38 60.5t35 55.5q25 43 49.5 64.5t41.5 25.5t47 4z" />
    <glyph glyph-name="ecircumflex" unicode="&#xea;" horiz-adv-x="1208" 
d="M35 483q0 101 38 188.5t102.5 150t148.5 107t177 66t187 21.5q113 0 206 -27t150.5 -71t89 -96.5t31.5 -106.5q0 -40 -11.5 -75t-30.5 -63t-51.5 -53t-65 -43.5t-80.5 -36t-89.5 -30t-100 -25.5t-104.5 -21.5t-110 -19.5q23 -77 83 -126.5t143 -49.5q53 0 100.5 17
t81.5 41t63 48t56.5 41t50.5 17q33 0 56.5 -19t23.5 -51q0 -68 -84 -135.5t-210.5 -109t-246.5 -41.5q-91 0 -178 20t-164.5 61.5t-135.5 100.5t-92 141.5t-34 179.5zM752 733q0 41 -19.5 74t-58.5 33q-75 0 -121.5 -91.5t-46.5 -224.5q97 3 171.5 59.5t74.5 149.5z
M649 1303l-258 -154q-50 -35 -74 -35q-15 0 -25.5 12t-10.5 27q0 7 2 13.5t7.5 15t9 13t12 15t10.5 13.5l192 202q4 4 15.5 16.5t16.5 17.5t16 15.5t17 15l16 12t17.5 10.5t17.5 5.5t19 2.5q10 0 20 -2.5t21.5 -9.5t18.5 -11.5t20 -17.5t17.5 -17t19 -19.5t16.5 -17.5
l193 -202q34 -39 39 -59q2 -8 2 -15q0 -13 -12 -24t-25 -11q-15 0 -74 35z" />
    <glyph glyph-name="edieresis" unicode="&#xeb;" horiz-adv-x="1208" 
d="M35 483q0 101 38 188.5t102.5 150t148.5 107t177 66t187 21.5q113 0 206 -27t150.5 -71t89 -96.5t31.5 -106.5q0 -40 -11.5 -75t-30.5 -63t-51.5 -53t-65 -43.5t-80.5 -36t-89.5 -30t-100 -25.5t-104.5 -21.5t-110 -19.5q23 -77 83 -126.5t143 -49.5q53 0 100.5 17
t81.5 41t63 48t56.5 41t50.5 17q33 0 56.5 -19t23.5 -51q0 -68 -84 -135.5t-210.5 -109t-246.5 -41.5q-91 0 -178 20t-164.5 61.5t-135.5 100.5t-92 141.5t-34 179.5zM752 733q0 41 -19.5 74t-58.5 33q-75 0 -121.5 -91.5t-46.5 -224.5q97 3 171.5 59.5t74.5 149.5z
M406 1135q-78 0 -125.5 47t-47.5 108t47.5 108.5t125.5 47.5t125 -47.5t47 -108.5t-47 -108t-125 -47zM889 1135q-78 0 -125 47t-47 108t47 108.5t125 47.5t125 -47.5t47 -108.5t-47 -108t-125 -47z" />
    <glyph glyph-name="igrave" unicode="&#xec;" horiz-adv-x="675" 
d="M115 238v458q0 32 -12.5 52t-29.5 29t-34.5 17.5t-30 24t-12.5 41.5q0 39 39.5 64.5t101.5 31.5q53 5 180 32.5t146 27.5q49 0 75.5 -42.5t26.5 -146.5v-589q0 -37 12 -59t27 -30t27 -25t12 -44q0 -30 -28.5 -55t-77.5 -25h-394q-49 0 -77.5 25t-28.5 55q0 27 12 44
t27 25t27 30t12 59zM174 1499h92q29 0 46.5 -4t41.5 -25.5t49 -64.5q12 -20 35 -55.5t38 -60.5t31.5 -53t25 -48t8.5 -31q0 -19 -15.5 -31t-36.5 -12q-17 0 -87.5 42t-169.5 106.5t-105 68.5q-74 48 -74 92q0 26 10 42.5t30.5 23.5t36.5 8.5t44 1.5z" />
    <glyph glyph-name="iacute" unicode="&#xed;" horiz-adv-x="675" 
d="M115 238v458q0 32 -12.5 52t-29.5 29t-34.5 17.5t-30 24t-12.5 41.5q0 39 39.5 64.5t101.5 31.5q53 5 180 32.5t146 27.5q49 0 75.5 -42.5t26.5 -146.5v-589q0 -37 12 -59t27 -30t27 -25t12 -44q0 -30 -28.5 -55t-77.5 -25h-394q-49 0 -77.5 25t-28.5 55q0 27 12 44
t27 25t27 30t12 59zM379 1499h92q28 0 44 -1.5t36.5 -8.5t30.5 -23.5t10 -42.5q0 -44 -74 -92q-6 -4 -105 -68.5t-169.5 -106.5t-87.5 -42q-21 0 -36.5 12t-15.5 31q0 11 8.5 31t25 48t31.5 53t38 60.5t35 55.5q36 62 64.5 78t72.5 16z" />
    <glyph glyph-name="icircumflex" unicode="&#xee;" horiz-adv-x="675" 
d="M115 238v458q0 32 -12.5 52t-29.5 29t-34.5 17.5t-30 24t-12.5 41.5q0 39 39.5 64.5t101.5 31.5q53 5 180 32.5t146 27.5q49 0 75.5 -42.5t26.5 -146.5v-589q0 -37 12 -59t27 -30t27 -25t12 -44q0 -30 -28.5 -55t-77.5 -25h-394q-49 0 -77.5 25t-28.5 55q0 27 12 44
t27 25t27 30t12 59zM330 1303l-258 -154q-50 -35 -74 -35q-15 0 -26 12t-11 27q0 7 2 13.5t7.5 15t9 13t12 15t10.5 13.5l193 202q4 4 15.5 16.5t16.5 17.5t16 15.5t17 15l16 12t17.5 10.5t17.5 5.5t19 2.5q10 0 20 -2.5t21.5 -9.5t18.5 -11.5t20 -17.5t17.5 -17t19 -19.5
t16.5 -17.5l192 -202q34 -39 39 -59q2 -8 2 -15q0 -13 -12 -24t-25 -11q-6 0 -12.5 2t-14.5 6t-14 7.5t-16.5 10t-15.5 9.5z" />
    <glyph glyph-name="idieresis" unicode="&#xef;" horiz-adv-x="675" 
d="M115 238v458q0 32 -12.5 52t-29.5 29t-34.5 17.5t-30 24t-12.5 41.5q0 39 39.5 64.5t101.5 31.5q53 5 180 32.5t146 27.5q49 0 75.5 -42.5t26.5 -146.5v-589q0 -37 12 -59t27 -30t27 -25t12 -44q0 -30 -28.5 -55t-77.5 -25h-394q-49 0 -77.5 25t-28.5 55q0 27 12 44
t27 25t27 30t12 59zM86 1135q-78 0 -125 47t-47 108t47 108.5t125 47.5t125 -47.5t47 -108.5t-47 -108t-125 -47zM569 1135q-78 0 -125 47t-47 108t47 108.5t125 47.5t125 -47.5t47 -108.5t-47 -108t-125 -47z" />
    <glyph glyph-name="eth" unicode="&#xf0;" horiz-adv-x="1331" 
d="M506 498q0 -342 160 -342q159 0 159 342t-159 342q-160 0 -160 -342zM272 1229l170 86q-104 69 -186 88q-28 8 -47 29t-19 51q0 33 25.5 53t75.5 20q183 0 393 -120l147 73q88 47 138 47q32 0 57 -24.5t25 -54.5q0 -50 -39 -70l-166 -82q198 -151 324.5 -358.5
t125.5 -405.5q-1 -181 -85.5 -314.5t-225.5 -200t-319 -66.5q-91 0 -181 21t-171 65t-143 104.5t-98.5 145t-37.5 182.5q1 97 37.5 181.5t98.5 145t143.5 104t172.5 65t185 22.5q41 0 57 -4q-37 94 -139 186l-201 -100q-63 -29 -96 -29q-31 0 -52.5 21.5t-21.5 52.5
q0 24 15.5 49t37.5 37z" />
    <glyph glyph-name="ntilde" unicode="&#xf1;" horiz-adv-x="1331" 
d="M123 238v438q0 38 -10.5 62t-25 33t-29 16t-25 20.5t-10.5 36.5q0 38 34.5 62t118.5 52q51 17 135 37.5t119 20.5q22 0 38.5 -8t26 -19t16.5 -31t10 -35.5t7 -41.5q121 135 322 135q198 0 296.5 -109.5t98.5 -306.5v-362q0 -37 12 -59t27 -30t27 -25t12 -44
q0 -30 -28.5 -55t-77.5 -25h-394q-49 0 -77.5 25t-28.5 55q0 27 12 44t27 25t27 30t12 59v401q0 76 -27 122t-84 46t-84 -46t-27 -122v-401q0 -37 12 -59t27 -30t27 -25t12 -44q0 -30 -28.5 -55t-77.5 -25h-393q-49 0 -78 25.5t-29 54.5q0 27 12 44t27 25t27 30t12 59z
M528 1446q62 0 123.5 -21.5t100.5 -47t81.5 -47t71.5 -21.5q24 0 49 21.5t47 43t39 21.5q39 0 39 -35q0 -68 -84.5 -146.5t-183.5 -78.5q-57 0 -117 21.5t-100.5 48t-83.5 48t-70 21.5q-29 0 -51.5 -19.5t-33.5 -43t-27 -43t-33 -19.5q-43 0 -43 39q0 86 90.5 172t185.5 86z
" />
    <glyph glyph-name="ograve" unicode="&#xf2;" horiz-adv-x="1331" 
d="M666 1016q91 0 180.5 -21t170.5 -65t143 -104.5t98.5 -145t37.5 -182.5q-1 -98 -37.5 -182.5t-98.5 -145t-143 -104.5t-170.5 -65t-180.5 -21t-181 21t-171 65t-143 104.5t-98.5 145t-37.5 182.5q1 98 37.5 182.5t98.5 145t143 104.5t171 65t181 21zM506 498
q0 -342 160 -342q159 0 159 342t-159 342q-160 0 -160 -342zM520 1499h92q30 0 47 -4t41.5 -25.5t49.5 -64.5q12 -19 35 -55.5t38 -60.5t31 -52.5t24.5 -48.5t8.5 -31q0 -20 -15 -31.5t-36 -11.5q-17 0 -87.5 42t-171 107t-104.5 68q-74 48 -74 92q0 26 10 42.5t30.5 23.5
t36.5 8.5t44 1.5z" />
    <glyph glyph-name="oacute" unicode="&#xf3;" horiz-adv-x="1331" 
d="M666 1016q91 0 180.5 -21t170.5 -65t143 -104.5t98.5 -145t37.5 -182.5q-1 -98 -37.5 -182.5t-98.5 -145t-143 -104.5t-170.5 -65t-180.5 -21t-181 21t-171 65t-143 104.5t-98.5 145t-37.5 182.5q1 98 37.5 182.5t98.5 145t143 104.5t171 65t181 21zM506 498
q0 -342 160 -342q159 0 159 342t-159 342q-160 0 -160 -342zM743 1499h93q28 0 44 -1.5t36.5 -8.5t30 -23.5t9.5 -42.5q0 -45 -73 -92q-4 -3 -104.5 -68t-171 -107t-87.5 -42q-21 0 -36 11.5t-15 31.5q0 11 8.5 31t24.5 48.5t31 52.5t38 60.5t35 55.5q36 62 64.5 78t72.5 16
z" />
    <glyph glyph-name="ocircumflex" unicode="&#xf4;" horiz-adv-x="1331" 
d="M666 1016q91 0 180.5 -21t170.5 -65t143 -104.5t98.5 -145t37.5 -182.5q-1 -98 -37.5 -182.5t-98.5 -145t-143 -104.5t-170.5 -65t-180.5 -21t-181 21t-171 65t-143 104.5t-98.5 145t-37.5 182.5q1 98 37.5 182.5t98.5 145t143 104.5t171 65t181 21zM506 498
q0 -342 160 -342q159 0 159 342t-159 342q-160 0 -160 -342zM668 1303l-258 -154q-50 -35 -74 -35q-15 0 -26 12t-11 27q0 7 2 13.5t7.5 15t9 13t12 15t10.5 13.5l192 202q4 4 14.5 15t14.5 15.5t13.5 14t15 14t14.5 11.5t16 10.5l15 7.5t16.5 5.5t16.5 1.5q10 0 20 -2.5
t21.5 -9.5t18.5 -11.5t20 -17.5t17.5 -17t19 -19.5t16.5 -17.5l192 -202q34 -39 39 -59q2 -8 2 -15q0 -13 -12 -24t-25 -11q-6 0 -12.5 2t-14.5 6t-14 7.5t-16.5 10t-15.5 9.5z" />
    <glyph glyph-name="otilde" unicode="&#xf5;" horiz-adv-x="1331" 
d="M666 1016q91 0 180.5 -21t170.5 -65t143 -104.5t98.5 -145t37.5 -182.5q-1 -98 -37.5 -182.5t-98.5 -145t-143 -104.5t-170.5 -65t-180.5 -21t-181 21t-171 65t-143 104.5t-98.5 145t-37.5 182.5q1 98 37.5 182.5t98.5 145t143 104.5t171 65t181 21zM506 498
q0 -342 160 -342q159 0 159 342t-159 342q-160 0 -160 -342zM528 1446q62 0 123.5 -21.5t100.5 -47t81.5 -47t71.5 -21.5q24 0 49 21.5t47 43t39 21.5q39 0 39 -35q0 -68 -84.5 -146.5t-183.5 -78.5q-57 0 -117 21.5t-100.5 48t-83.5 48t-70 21.5q-29 0 -51.5 -19.5
t-33.5 -43t-27 -43t-33 -19.5q-43 0 -43 39q0 86 90.5 172t185.5 86z" />
    <glyph glyph-name="odieresis" unicode="&#xf6;" horiz-adv-x="1331" 
d="M666 1016q91 0 180.5 -21t170.5 -65t143 -104.5t98.5 -145t37.5 -182.5q-1 -98 -37.5 -182.5t-98.5 -145t-143 -104.5t-170.5 -65t-180.5 -21t-181 21t-171 65t-143 104.5t-98.5 145t-37.5 182.5q1 98 37.5 182.5t98.5 145t143 104.5t171 65t181 21zM506 498
q0 -342 160 -342q159 0 159 342t-159 342q-160 0 -160 -342zM424 1135q-78 0 -125 47t-47 108t47 108.5t125 47.5t125 -47.5t47 -108.5t-47 -108t-125 -47zM907 1135q-78 0 -125 47t-47 108t47 108.5t125 47.5t125 -47.5t47 -108.5t-47 -108t-125 -47z" />
    <glyph glyph-name="divide" unicode="&#xf7;" horiz-adv-x="1228" 
d="M1112 338h-995v319h995v-319zM420 946q0 80 57.5 137.5t136.5 57.5q80 0 137.5 -57.5t57.5 -137.5q0 -79 -57.5 -136.5t-137.5 -57.5t-137 57t-57 137zM420 49q0 80 57.5 137.5t136.5 57.5q80 0 137.5 -58t57.5 -137t-57.5 -136.5t-137.5 -57.5t-137 57.5t-57 136.5z" />
    <glyph glyph-name="oslash" unicode="&#xf8;" horiz-adv-x="1331" 
d="M500 379l245 436q-36 25 -79 25q-87 0 -132 -86.5t-45 -255.5q0 -54 7 -119h4zM831 623l-251 -439q39 -28 86 -28q176 0 176 342q0 70 -6 125h-5zM1077 1044l-65 -112q128 -65 205.5 -176t78.5 -258q-1 -98 -37.5 -182.5t-98.5 -145t-143 -104.5t-170.5 -65t-180.5 -21
q-100 0 -191 24l-78 -133q-11 -17 -29 -25.5t-29.5 -9t-39.5 -0.5q-70 0 -70 53q0 15 5 27.5t15.5 29.5t12.5 21l55 99q-128 65 -204.5 175.5t-77.5 256.5q1 98 37.5 182.5t98.5 145t143 104.5t171 65t181 21q85 0 182 -23l70 125q12 22 36 31.5t70 9.5q67 0 78 -41
q0 -26 -25 -74z" />
    <glyph glyph-name="ugrave" unicode="&#xf9;" horiz-adv-x="1372" 
d="M559 862v-493q0 -181 109 -181q108 0 108 181v372q0 28 -14 45.5t-31 24t-31 20t-14 35.5q0 39 15 56t55 26l268 60q33 8 78 8q73 0 99 -34.5t26 -119.5v-608q0 -35 10.5 -57t26 -32t31 -19t26 -26t10.5 -44q0 -41 -29.5 -58.5t-99.5 -17.5h-252q-73 0 -99.5 20t-39.5 91
q-77 -71 -156.5 -101t-187.5 -30q-94 0 -158 19t-110.5 65.5t-68 126.5t-21.5 200v350q-1 26 -10.5 43t-22.5 26t-26.5 17.5t-22.5 23t-9 36.5q0 53 68 67l270 54q50 8 78 8q73 0 99 -34.5t26 -119.5zM492 1499h92q29 0 46.5 -4t41.5 -25.5t49 -64.5q12 -19 35 -55.5
t38 -60.5t31 -52.5t24.5 -48.5t8.5 -31q0 -20 -15 -31.5t-36 -11.5q-17 0 -87.5 42t-171 107t-104.5 68q-73 47 -73 92q0 26 10 42.5t30.5 23.5t36.5 8.5t44 1.5z" />
    <glyph glyph-name="uacute" unicode="&#xfa;" horiz-adv-x="1372" 
d="M559 862v-493q0 -181 109 -181q108 0 108 181v372q0 28 -14 45.5t-31 24t-31 20t-14 35.5q0 39 15 56t55 26l268 60q33 8 78 8q73 0 99 -34.5t26 -119.5v-608q0 -35 10.5 -57t26 -32t31 -19t26 -26t10.5 -44q0 -41 -29.5 -58.5t-99.5 -17.5h-252q-73 0 -99.5 20t-39.5 91
q-77 -71 -156.5 -101t-187.5 -30q-94 0 -158 19t-110.5 65.5t-68 126.5t-21.5 200v350q-1 26 -10.5 43t-22.5 26t-26.5 17.5t-22.5 23t-9 36.5q0 53 68 67l270 54q50 8 78 8q73 0 99 -34.5t26 -119.5zM709 1499h92q28 0 44 -1.5t36.5 -8.5t30.5 -23.5t10 -42.5
q0 -44 -74 -92q-4 -3 -104.5 -68t-171 -107t-87.5 -42q-21 0 -36 11.5t-15 31.5q0 11 8.5 31t24.5 48.5t31 52.5t38 60.5t35 55.5q25 43 49.5 64.5t41.5 25.5t47 4z" />
    <glyph glyph-name="ucircumflex" unicode="&#xfb;" horiz-adv-x="1372" 
d="M559 862v-493q0 -181 109 -181q108 0 108 181v372q0 28 -14 45.5t-31 24t-31 20t-14 35.5q0 39 15 56t55 26l268 60q33 8 78 8q73 0 99 -34.5t26 -119.5v-608q0 -35 10.5 -57t26 -32t31 -19t26 -26t10.5 -44q0 -41 -29.5 -58.5t-99.5 -17.5h-252q-73 0 -99.5 20t-39.5 91
q-77 -71 -156.5 -101t-187.5 -30q-94 0 -158 19t-110.5 65.5t-68 126.5t-21.5 200v350q-1 26 -10.5 43t-22.5 26t-26.5 17.5t-22.5 23t-9 36.5q0 53 68 67l270 54q50 8 78 8q73 0 99 -34.5t26 -119.5zM670 1303l-258 -154q-50 -35 -74 -35q-15 0 -26 12t-11 27q0 7 2 13.5
t7.5 15t9 13t12 15t10.5 13.5l193 202q4 4 15.5 16.5t16.5 17.5t16 15.5t17 15l16 12t17.5 10.5t17.5 5.5t19 2.5q10 0 20 -2.5t21.5 -9.5t18.5 -11.5t20 -17.5t17.5 -17t19 -19.5t16.5 -17.5l192 -202q34 -39 39 -59q2 -8 2 -15q0 -13 -12 -24t-25 -11q-6 0 -12.5 2
t-14.5 6t-14 7.5t-16.5 10t-15.5 9.5z" />
    <glyph glyph-name="udieresis" unicode="&#xfc;" horiz-adv-x="1372" 
d="M559 862v-493q0 -181 109 -181q108 0 108 181v372q0 28 -14 45.5t-31 24t-31 20t-14 35.5q0 39 15 56t55 26l268 60q33 8 78 8q73 0 99 -34.5t26 -119.5v-608q0 -35 10.5 -57t26 -32t31 -19t26 -26t10.5 -44q0 -41 -29.5 -58.5t-99.5 -17.5h-252q-73 0 -99.5 20t-39.5 91
q-77 -71 -156.5 -101t-187.5 -30q-94 0 -158 19t-110.5 65.5t-68 126.5t-21.5 200v350q-1 26 -10.5 43t-22.5 26t-26.5 17.5t-22.5 23t-9 36.5q0 53 68 67l270 54q50 8 78 8q73 0 99 -34.5t26 -119.5zM426 1135q-78 0 -125 47t-47 108t47 108.5t125 47.5t125 -47.5
t47 -108.5t-47 -108t-125 -47zM909 1135q-78 0 -125 47t-47 108t47 108.5t125 47.5t125 -47.5t47 -108.5t-47 -108t-125 -47z" />
    <glyph glyph-name="yacute" unicode="&#xfd;" horiz-adv-x="1167" 
d="M858 995h223q109 0 109 -71q0 -25 -42 -67t-42 -71q0 -42 -12.5 -121t-41.5 -189t-69.5 -225t-103.5 -229t-137 -203t-175.5 -144.5t-214.5 -55.5q-36 0 -74 8t-75 24.5t-60.5 46.5t-23.5 69q0 59 45 96t106 37q40 0 77 -16t63 -32t39 -16q40 0 104.5 63.5t83.5 110.5
q-52 -10 -92 -10q-80 0 -139 16.5t-119.5 65t-104 133t-81 224.5t-62.5 335q-5 41 -21.5 69t-30.5 45.5t-14 35.5q0 71 111 71h381q64 0 92.5 -20t28.5 -64q0 -22 -10 -38.5t-22 -25.5t-22 -30t-10 -53q0 -92 15.5 -184.5t39 -161t49.5 -123t48.5 -83t34.5 -28.5q30 0 65 83
t60.5 226.5t25.5 292.5q0 31 -15 49t-33 23.5t-33 22t-15 45.5q0 39 20.5 54t73.5 15zM662 1499h92q28 0 44 -1.5t36.5 -8.5t30 -23.5t9.5 -42.5q0 -45 -73 -92q-4 -3 -104.5 -68t-171 -107t-87.5 -42q-21 0 -36 11.5t-15 31.5q0 11 8.5 31t24.5 48.5t31 52.5t38 60.5
t35 55.5q25 43 49.5 64.5t41.5 25.5t47 4z" />
    <glyph glyph-name="thorn" unicode="&#xfe;" horiz-adv-x="1372" 
d="M131 -115v1332q0 48 -12 76t-29 37.5t-34.5 15t-29.5 18.5t-12 39q0 31 31 52.5t107 47.5q52 18 138.5 35.5t141.5 17.5q70 0 110 -33t40 -81v-512q113 86 260 86q144 0 258 -69.5t175.5 -188t61.5 -262.5q0 -106 -39.5 -201.5t-107.5 -164.5t-163.5 -109.5t-201.5 -40.5
q-94 0 -147 33.5t-53 95.5q0 34 17 52.5t48 18.5q78 0 127 82t49 221q0 142 -49.5 237t-118.5 95q-66 0 -91 -53t-25 -152v-725q0 -34 10.5 -55.5t26 -31.5t31 -18.5t26 -24t10.5 -40.5q0 -80 -131 -80h-397q-131 0 -131 80q0 30 16.5 48t35.5 25.5t35.5 31.5t16.5 65z" />
    <glyph glyph-name="ydieresis" unicode="&#xff;" horiz-adv-x="1167" 
d="M858 995h223q109 0 109 -71q0 -25 -42 -67t-42 -71q0 -42 -12.5 -121t-41.5 -189t-69.5 -225t-103.5 -229t-137 -203t-175.5 -144.5t-214.5 -55.5q-36 0 -74 8t-75 24.5t-60.5 46.5t-23.5 69q0 59 45 96t106 37q40 0 77 -16t63 -32t39 -16q40 0 104.5 63.5t83.5 110.5
q-52 -10 -92 -10q-80 0 -139 16.5t-119.5 65t-104 133t-81 224.5t-62.5 335q-5 41 -21.5 69t-30.5 45.5t-14 35.5q0 71 111 71h381q64 0 92.5 -20t28.5 -64q0 -22 -10 -38.5t-22 -25.5t-22 -30t-10 -53q0 -92 15.5 -184.5t39 -161t49.5 -123t48.5 -83t34.5 -28.5q30 0 65 83
t60.5 226.5t25.5 292.5q0 31 -15 49t-33 23.5t-33 22t-15 45.5q0 39 20.5 54t73.5 15zM342 1135q-78 0 -125 47t-47 108t47 108.5t125 47.5t125 -47.5t47 -108.5t-47 -108t-125 -47zM825 1135q-78 0 -125 47t-47 108t47 108.5t125 47.5t125 -47.5t47 -108.5t-47 -108
t-125 -47z" />
    <glyph glyph-name="dotlessi" unicode="&#x131;" horiz-adv-x="675" 
d="M115 238v458q0 32 -12.5 52t-29.5 29t-34.5 17.5t-30 24t-12.5 41.5q0 39 39.5 64.5t101.5 31.5q53 5 180 32.5t146 27.5q49 0 75.5 -42.5t26.5 -146.5v-589q0 -37 12 -59t27 -30t27 -25t12 -44q0 -30 -28.5 -55t-77.5 -25h-394q-49 0 -77.5 25t-28.5 55q0 27 12 44
t27 25t27 30t12 59z" />
    <glyph glyph-name="Lslash" unicode="&#x141;" horiz-adv-x="1228" 
d="M629 713v-404q0 -32 2 -51t10 -34t17 -22t32 -11.5t45.5 -5.5t65.5 -1q70 0 118.5 24t73.5 58t46 68t50 58t70 24q40 0 69 -25t29 -65q0 -41 -26.5 -132.5t-48.5 -134.5q-19 -37 -43.5 -48t-87.5 -11h-891q-74 0 -102.5 20.5t-28.5 61.5q0 35 17 55t37 27t37 28t17 58
v219l-26 -14q-56 -25 -99 -25q-22 0 -32.5 25.5t-10.5 56.5q0 36 26.5 61t72.5 48l69 34v594q0 37 -17 58t-37 28t-37 27t-17 55q0 41 28.5 61.5t102.5 20.5h446q74 0 102.5 -20.5t28.5 -61.5q0 -35 -17 -55t-37 -27t-37 -28t-17 -58v-350l262 131l15 7.5t18 8.5t16.5 7
t18 6t16.5 2q26 0 42.5 -25t16.5 -53q0 -24 -8 -43t-27 -34.5t-29.5 -22t-35.5 -19.5z" />
    <glyph glyph-name="lslash" unicode="&#x142;" horiz-adv-x="696" 
d="M592 844v-606q0 -37 16.5 -59t36.5 -30t36.5 -25t16.5 -44q0 -30 -28.5 -55t-77.5 -25h-451q-49 0 -77.5 25t-28.5 55q0 27 16.5 44t36.5 25t36.5 30t16.5 59v344l-73 -43q-45 -25 -64 -25q-47 0 -47 82q0 41 19.5 66.5t58.5 48.5l106 61v465q0 39 -18.5 61t-40.5 29
t-40.5 25t-18.5 49q0 39 39.5 64.5t101.5 31.5q53 5 179.5 32t145.5 27q50 0 76.5 -42t26.5 -146v-338l63 37q64 37 80 37q20 0 30.5 -25t10.5 -59q0 -42 -20 -67.5t-68 -53.5z" />
    <glyph glyph-name="OE" unicode="&#x152;" horiz-adv-x="2498" 
d="M1720 672v-273q0 -51 3 -84t14 -58t25 -38.5t42 -22t59.5 -10.5t82.5 -2q76 0 132.5 10.5t87.5 27.5t53 37t35 40.5t25.5 37.5t32.5 27.5t49 10.5q49 0 77 -29.5t28 -79.5q0 -36 -14 -116t-31 -109q-14 -25 -47.5 -33t-104.5 -8h-917q-57 0 -67.5 9t-10.5 65v30
q-100 -63 -227 -100t-248 -37q-217 0 -386.5 95.5t-262.5 267t-93 391.5q0 169 64 320t173 258.5t259 170t317 62.5q209 0 406 -121l-2 14q0 45 15 59.5t65 14.5h891q88 0 126.5 -27t38.5 -96v-94q0 -60 -29.5 -91.5t-68.5 -31.5q-32 0 -53.5 8.5t-34.5 22.5t-26 30.5
t-33.5 33t-50.5 30.5t-83.5 22.5t-125.5 8.5q-52 0 -80.5 -3t-52 -11t-33.5 -26.5t-14.5 -45t-4.5 -70.5v-282h246q55 0 89.5 13t47 29t32 29t48.5 13q45 0 65.5 -39t20.5 -146q0 -108 -20.5 -148t-65.5 -40q-29 0 -48.5 13t-32 29t-47 29t-89.5 13h-246zM569 750
q0 -294 89 -446t237 -152t237 152t89 446t-89 446t-237 152t-237 -152t-89 -446z" />
    <glyph glyph-name="oe" unicode="&#x153;" horiz-adv-x="2027" 
d="M506 498q0 -342 160 -342q159 0 159 342t-159 342q-160 0 -160 -342zM35 498q1 98 37.5 182.5t98.5 145t143 104.5t171 65t181 21q110 0 218.5 -32t196.5 -93q90 61 201 93t225 32q113 0 206 -27t151 -71t89.5 -96.5t31.5 -106.5q0 -51 -19.5 -94.5t-49 -75t-81.5 -59.5
t-100.5 -46.5t-122 -36.5t-130.5 -29.5t-141 -25.5q23 -77 83 -126.5t143 -49.5q53 0 100.5 17t81.5 41t63 48t56.5 41t50.5 17q33 0 56.5 -19t23.5 -51q0 -68 -84 -135.5t-210.5 -109t-246.5 -41.5q-228 0 -395 114q-169 -114 -397 -114q-91 0 -181 21t-171 65t-143 104.5
t-98.5 145t-37.5 182.5zM1571 733q0 41 -19.5 74t-58.5 33q-75 0 -121.5 -91.5t-46.5 -224.5q97 3 171.5 59.5t74.5 149.5z" />
    <glyph glyph-name="Scaron" unicode="&#x160;" 
d="M1442 539q0 -112 -42.5 -207.5t-114 -161.5t-165 -112.5t-195.5 -68.5t-206 -22q-164 0 -320 49.5t-256 135t-100 180.5q0 57 37.5 98t93.5 41q37 0 67 -16.5t52.5 -43.5t45 -59t52 -64.5t67 -59.5t96.5 -43.5t134 -16.5q121 0 191.5 57t70.5 131q0 44 -29 76.5t-78.5 53
t-113.5 37t-134.5 33.5t-141 37.5t-134.5 54.5t-113.5 80t-78.5 117.5t-29 162.5q0 150 83.5 269.5t235.5 187t345 67.5q149 0 247.5 -23.5t227.5 -78.5q24 -10 40.5 -21t29 -21t20 -28t12 -32t6.5 -44.5t2.5 -54t0.5 -70.5q0 -123 -103 -123q-31 0 -53.5 18t-38 47t-31 64
t-38.5 70t-53 64t-82 47t-120 18q-116 0 -177.5 -46t-61.5 -116q0 -48 29 -84.5t78.5 -60t113.5 -42.5t134.5 -37.5t141 -40.5t134.5 -55.5t113.5 -77t78.5 -111.5t29 -154zM770 1794l258 154q49 34 74 34q15 0 26 -11.5t11 -26.5q0 -7 -2 -13.5t-7.5 -15t-9 -13t-12 -15
t-10.5 -13.5l-193 -203q-3 -3 -16 -16.5t-16.5 -17.5t-15 -15t-17 -15t-16 -11.5t-18 -10.5t-17.5 -5.5t-19 -2.5q-8 0 -16 1.5t-16.5 5.5t-15 8t-15.5 11t-14.5 11.5t-15 14t-13.5 14t-14 15t-13 13.5l-193 203q-34 39 -39 59q-2 8 -2 15q0 13 12 23.5t25 10.5q17 0 74 -34
z" />
    <glyph glyph-name="scaron" unicode="&#x161;" horiz-adv-x="1126" 
d="M1069 352q0 -163 -148 -267.5t-401 -104.5q-219 0 -349 73t-130 170q0 45 30.5 78t75.5 33q34 0 62 -18.5t49.5 -44.5t45.5 -52t61.5 -44.5t85.5 -18.5q58 0 102.5 24t44.5 68q0 29 -22.5 48.5t-60 29.5t-84.5 21t-97 20.5t-97 30.5t-84.5 48.5t-60 76t-22.5 112.5
q0 170 150 275.5t384 105.5q79 0 180 -20.5t166 -47.5q49 -20 65.5 -57t16.5 -123q0 -46 -19 -76t-63 -30q-27 0 -47.5 14t-33 35t-29.5 46t-35 46t-51.5 35t-77.5 14q-64 0 -99.5 -23.5t-35.5 -66.5q0 -26 18 -44.5t48.5 -30t70 -21t83.5 -19.5t88 -23.5t83.5 -35.5t70 -52
t48.5 -77t18 -107zM561 1331l258 154q50 35 74 35q15 0 26 -12t11 -27q0 -7 -2 -13.5t-7.5 -15t-9 -13t-12 -15t-10.5 -13.5l-193 -203q-3 -3 -16 -16.5t-16.5 -17.5t-15 -15t-17 -15t-16 -11.5t-18 -10.5t-17.5 -5.5t-19 -2.5q-8 0 -16 1.5t-16.5 5.5t-15 8t-15.5 11
t-14.5 11.5t-15 14t-13.5 14t-14 15t-13 13.5l-192 203q-34 39 -39 59q-2 8 -2 15q0 13 12 24t24 11q15 0 74 -35z" />
    <glyph glyph-name="Ydieresis" unicode="&#x178;" horiz-adv-x="1556" 
d="M98 1499h529q70 0 95.5 -22t25.5 -68q0 -22 -14.5 -39t-32 -26t-32 -24t-14.5 -34q0 -31 25.5 -88t67.5 -123t78 -120t74 -107t40 -55q66 74 176.5 253.5t110.5 239.5q0 15 -14 29t-31 24t-31 29.5t-14 44.5q0 37 29.5 61.5t90.5 24.5h193q74 0 105.5 -18.5t31.5 -63.5
q0 -32 -19.5 -55.5t-56 -56.5t-59.5 -68l-416 -614v-373q0 -37 17 -58t37.5 -28t37.5 -27t17 -55q0 -41 -28.5 -61.5t-102.5 -20.5h-447q-74 0 -102.5 20.5t-28.5 61.5q0 35 17 55t37.5 27t37.5 28t17 58v344q-74 94 -208 299t-190 315q-20 38 -46 64.5t-48 39.5t-41.5 25
t-31 29.5t-11.5 44.5q0 88 129 88zM571 1597q-78 0 -125 47.5t-47 108.5t47 108.5t125 47.5t125 -47.5t47 -108.5t-47 -108.5t-125 -47.5zM1055 1597q-78 0 -125 47.5t-47 108.5t47 108.5t125 47.5t125 -47.5t47 -108.5t-47 -108.5t-125 -47.5z" />
    <glyph glyph-name="Zcaron" unicode="&#x17d;" horiz-adv-x="1310" 
d="M213 1499h948q101 0 136.5 -17t35.5 -75q0 -84 -76 -229.5t-184 -297t-216.5 -294t-184.5 -247.5t-76 -130q0 -15 9 -20t34 -5h188q97 0 162.5 19.5t95.5 47t50.5 54.5t45.5 46.5t62 19.5q40 0 65 -21t25 -61q0 -41 -24 -164q-15 -72 -39 -98.5t-92 -26.5h-985
q-91 0 -130.5 35.5t-39.5 91.5q0 70 77 210t186.5 293.5t219.5 298.5t187 250.5t77 123.5q0 12 -53 12h-156q-89 0 -148 -18.5t-85 -44.5t-44 -52t-41.5 -44.5t-60.5 -18.5q-45 0 -70.5 26.5t-25.5 71.5q0 49 9 126.5t22 106.5q15 31 96 31zM688 1794l258 154q49 34 74 34
q15 0 26 -11.5t11 -26.5q0 -7 -2 -13.5t-7.5 -15t-9 -13t-12 -15t-10.5 -13.5l-193 -203q-3 -3 -16 -16.5t-16.5 -17.5t-15 -15t-17 -15t-16 -11.5t-18 -10.5t-17.5 -5.5t-19 -2.5q-8 0 -16 1.5t-16.5 5.5t-15 8t-15.5 11t-14.5 11.5t-15 14t-13.5 14t-14 15t-13 13.5
l-193 203q-40 46 -40 74q0 13 11.5 23.5t24.5 10.5q17 0 74 -34z" />
    <glyph glyph-name="zcaron" unicode="&#x17e;" horiz-adv-x="1105" 
d="M543 856h-127q-55 0 -93.5 -17.5t-58.5 -42t-35.5 -49t-36.5 -42t-51 -17.5q-39 0 -59.5 24t-20.5 64q0 124 30.5 171.5t115.5 47.5h702q90 0 122 -21t32 -69q0 -56 -66.5 -164.5t-148 -209.5t-170 -212t-115.5 -155h158q55 0 93.5 17.5t58 42t35.5 49t36.5 42t50.5 17.5
q32 0 52 -18t20 -50t-11 -94t-22 -98q-13 -44 -39 -58t-90 -14h-704q-95 0 -136.5 27t-41.5 84q0 81 127 245zM551 1331l258 154q50 35 74 35q15 0 26 -12t11 -27q0 -7 -2 -13.5t-7.5 -15t-9 -13t-12 -15t-10.5 -13.5l-193 -203q-3 -3 -16 -16.5t-16.5 -17.5t-15 -15
t-17 -15t-16 -11.5t-18 -10.5t-17.5 -5.5t-19 -2.5q-8 0 -16 1.5t-16.5 5.5t-15 8t-15.5 11t-14.5 11.5t-15 14t-13.5 14t-14 15t-13 13.5l-193 203q-34 39 -39 59q-2 8 -2 15q0 13 12 24t25 11q15 0 74 -35z" />
    <glyph glyph-name="florin" unicode="&#x192;" 
d="M481 258l84 545h-67q-84 0 -115 23t-31 75t31 75t115 23h96q39 316 209.5 484t439.5 168q136 0 235 -68.5t99 -161.5q0 -62 -46.5 -109.5t-109.5 -47.5q-39 0 -73 21t-53.5 45.5t-46 45.5t-52.5 21q-66 0 -96 -83.5t-62 -314.5h62q84 0 114.5 -23t30.5 -75t-30.5 -75
t-114.5 -23h-82l-100 -610q-27 -161 -99 -288t-171.5 -204t-213 -116.5t-233.5 -39.5q-191 0 -318 85.5t-127 183.5q0 74 51 123t127 49q38 0 69 -22.5t52.5 -55t43.5 -64.5t53.5 -54.5t70.5 -22.5q53 0 94.5 33.5t71.5 100.5t51.5 152.5t40.5 204.5z" />
    <glyph glyph-name="circumflex" unicode="&#x2c6;" horiz-adv-x="675" 
d="M340 1303l-258 -154q-50 -35 -74 -35q-15 0 -26 12t-11 27q0 7 2 13.5t7.5 15t9 13t12 15t10.5 13.5l193 202q4 4 15.5 16.5t16.5 17.5t16 15.5t17 15l16 12t17.5 10.5t17.5 5.5t19 2.5q10 0 20 -2.5t21.5 -9.5t18.5 -11.5t20 -17.5t17.5 -17t19 -19.5t16.5 -17.5
l193 -202q34 -39 39 -59q2 -8 2 -15q0 -13 -12 -24t-25 -11q-15 0 -74 35z" />
    <glyph glyph-name="caron" unicode="&#x2c7;" horiz-adv-x="675" 
d="M336 1331l258 154q50 35 74 35q15 0 26 -12t11 -27q0 -7 -2 -13.5t-7.5 -15t-9 -13t-12 -15t-10.5 -13.5l-193 -203q-3 -3 -16 -16.5t-16.5 -17.5t-15 -15t-17 -15t-16 -11.5t-18 -10.5t-17.5 -5.5t-19 -2.5q-8 0 -16 1.5t-16.5 5.5t-15 8t-15.5 11t-14.5 11.5t-15 14
t-13.5 14t-14 15t-13 13.5l-193 203q-34 39 -39 59q-2 8 -2 15q0 13 12 24t25 11q15 0 74 -35z" />
    <glyph glyph-name="breve" unicode="&#x2d8;" horiz-adv-x="675" 
d="M668 1448q39 0 39 -57q0 -118 -112 -214t-257 -96q-146 0 -257.5 95.5t-111.5 214.5q0 65 37 65q19 0 38.5 -20t42 -49t52 -58t81.5 -49t118 -20t118 19.5t82 47t52.5 55t41.5 47t36 19.5z" />
    <glyph glyph-name="dotaccent" unicode="&#x2d9;" horiz-adv-x="675" 
d="M338 1135q-78 0 -125 47t-47 108t47 108.5t125 47.5t125 -47.5t47 -108.5t-47 -108t-125 -47z" />
    <glyph glyph-name="ring" unicode="&#x2da;" horiz-adv-x="675" 
d="M338 1587q101 0 173.5 -71.5t72.5 -174.5t-72.5 -174t-173.5 -71t-173.5 71t-72.5 174t72.5 174.5t173.5 71.5zM338 1436q-38 0 -66 -27.5t-28 -67.5t28 -67t66 -27t66 27t28 67t-28 67.5t-66 27.5z" />
    <glyph glyph-name="ogonek" unicode="&#x2db;" horiz-adv-x="675" 
d="M217 0h186q-43 -34 -72.5 -80.5t-29.5 -97.5q0 -84 86 -84q42 0 89.5 27.5t60.5 27.5q23 0 37 -15t14 -44q0 -45 -75 -80t-191 -35q-103 0 -160.5 49t-57.5 139q0 53 34 105t79 88z" />
    <glyph glyph-name="tilde" unicode="&#x2dc;" horiz-adv-x="675" 
d="M201 1446q62 0 123.5 -21.5t100.5 -47t81.5 -47t71.5 -21.5q30 0 73 43t62 43q39 0 39 -35q0 -68 -85 -146.5t-184 -78.5q-57 0 -116.5 21.5t-100 48t-83.5 48t-70 21.5q-29 0 -51.5 -19.5t-34 -43t-27.5 -43t-33 -19.5q-43 0 -43 39q0 86 90.5 172t186.5 86z" />
    <glyph glyph-name="hungarumlaut" unicode="&#x2dd;" horiz-adv-x="675" 
d="M176 1499h94q28 0 44 -1.5t36.5 -8.5t30.5 -23.5t10 -42.5q0 -45 -76 -92q-11 -7 -101.5 -69t-159.5 -105t-85 -43q-21 0 -36 11.5t-15 31.5q0 11 8.5 31t24.5 48.5t31 52.5t38 60.5t35 55.5q21 42 43 64t37.5 26t40.5 4zM606 1499h92q28 0 44 -1.5t36.5 -8.5t30.5 -23.5
t10 -42.5q0 -44 -74 -92q-6 -4 -105 -68.5t-169.5 -106.5t-87.5 -42q-21 0 -36 11.5t-15 31.5q0 11 8.5 31t24.5 48.5t31 52.5t38 60.5t35 55.5q36 62 64.5 78t72.5 16z" />
    <glyph glyph-name="endash" unicode="&#x2013;" horiz-adv-x="1024" 
d="M942 330h-860q-66 0 -92.5 40t-26.5 128t26.5 128t92.5 40h860q66 0 92.5 -40t26.5 -128t-26.5 -128t-92.5 -40z" />
    <glyph glyph-name="emdash" unicode="&#x2014;" horiz-adv-x="2048" 
d="M1966 330h-1884q-66 0 -92.5 40t-26.5 128t26.5 128t92.5 40h1884q66 0 92.5 -40t26.5 -128t-26.5 -128t-92.5 -40z" />
    <glyph glyph-name="quoteleft" unicode="&#x2018;" horiz-adv-x="696" 
d="M356 958q-94 0 -163.5 54.5t-69.5 146.5q0 66 39.5 137t93 121t106.5 82.5t82 32.5q21 0 43.5 -14t22.5 -33q0 -6 -28.5 -36.5t-66 -78.5t-53.5 -92q36 8 56 8q66 0 110.5 -40t44.5 -105q0 -80 -68 -131.5t-149 -51.5z" />
    <glyph glyph-name="quoteright" unicode="&#x2019;" horiz-adv-x="696" 
d="M340 1532q94 0 163.5 -54.5t69.5 -146.5q0 -66 -39.5 -137t-93 -121t-106.5 -82.5t-82 -32.5q-21 0 -43.5 14.5t-22.5 33.5q0 6 28.5 36t66 78t53.5 92q-36 -8 -55 -8q-66 0 -111 40.5t-45 105.5q0 80 68 131t149 51z" />
    <glyph glyph-name="quotesinglbase" unicode="&#x201a;" horiz-adv-x="696" 
d="M340 328q94 0 163.5 -54.5t69.5 -146.5q0 -66 -39.5 -137t-93 -121t-106.5 -82.5t-82 -32.5q-21 0 -43.5 14t-22.5 33q0 6 28.5 36.5t66 78.5t53.5 92q-36 -8 -55 -8q-66 0 -111 40t-45 105q0 80 68 131.5t149 51.5z" />
    <glyph glyph-name="quotedblleft" unicode="&#x201c;" horiz-adv-x="1187" 
d="M330 958q-94 0 -164 54.5t-70 146.5q0 53 26 110.5t65.5 102.5t84 82t84 57.5t62.5 20.5q21 0 43 -14t22 -33q0 -6 -28.5 -36.5t-65.5 -78.5t-53 -92q36 8 55 8q66 0 111 -40t45 -105q0 -80 -68 -131.5t-149 -51.5zM874 958q-94 0 -163.5 54.5t-69.5 146.5q0 53 26 110.5
t65.5 102.5t84 82t84 57.5t62.5 20.5q21 0 43 -14t22 -33q0 -6 -28.5 -36.5t-65.5 -78.5t-53 -92q36 8 55 8q66 0 111 -40t45 -105q0 -80 -68.5 -131.5t-149.5 -51.5z" />
    <glyph glyph-name="quotedblright" unicode="&#x201d;" horiz-adv-x="1187" 
d="M858 1532q94 0 164 -54.5t70 -146.5q0 -53 -26 -110.5t-65.5 -102.5t-84 -82t-84 -57.5t-62.5 -20.5q-21 0 -43 14.5t-22 33.5q0 6 28.5 36t65.5 78t53 92q-36 -8 -55 -8q-66 0 -111 40.5t-45 105.5q0 80 68 131t149 51zM313 1532q94 0 164 -54.5t70 -146.5
q0 -53 -26 -110.5t-65.5 -102.5t-84 -82t-84 -57.5t-62.5 -20.5q-21 0 -43 14.5t-22 33.5q0 6 28.5 36t65.5 78t53 92q-36 -8 -55 -8q-66 0 -111 40.5t-45 105.5q0 80 68 131t149 51z" />
    <glyph glyph-name="quotedblbase" unicode="&#x201e;" horiz-adv-x="1187" 
d="M858 328q94 0 164 -54.5t70 -146.5q0 -53 -26 -110.5t-65.5 -102.5t-84 -82t-84 -57.5t-62.5 -20.5q-21 0 -43 14t-22 33q0 6 28.5 36.5t65.5 78.5t53 92q-36 -8 -55 -8q-66 0 -111 40t-45 105q0 80 68 131.5t149 51.5zM313 328q94 0 164 -54.5t70 -146.5
q0 -53 -26 -110.5t-65.5 -102.5t-84 -82t-84 -57.5t-62.5 -20.5q-21 0 -43 14t-22 33q0 6 28.5 36.5t65.5 78.5t53 92q-36 -8 -55 -8q-66 0 -111 40t-45 105q0 80 68 131.5t149 51.5z" />
    <glyph glyph-name="dagger" unicode="&#x2020;" horiz-adv-x="1085" 
d="M455 -334l-84 930l63 268q-210 -35 -268 -35q-64 0 -106 41.5t-42 106.5q0 61 43.5 102t104.5 41q35 0 90.5 -8t115.5 -19t64 -12q-5 47 -24 162.5t-19 153.5q0 57 46 96t104 39t103.5 -39t45.5 -96q0 -38 -19 -153.5t-24 -162.5q4 1 64.5 12t116 19t90.5 8q61 0 104 -41
t43 -102q0 -65 -41.5 -106.5t-105.5 -41.5q-59 0 -269 35l64 -268l-84 -930l-3 -34.5t-6.5 -31t-14 -29.5t-25 -18t-39.5 -8t-39.5 8t-25 18t-14 29.5t-6.5 31z" />
    <glyph glyph-name="daggerdbl" unicode="&#x2021;" horiz-adv-x="1085" 
d="M651 864l27 -162l-27 -167q6 1 46 8.5t74.5 13t78 11t70.5 5.5q61 0 104 -41t43 -102q0 -65 -41.5 -106t-105.5 -41q-65 0 -269 34l33 -219l-53 -489q-7 -71 -27.5 -98t-58.5 -27t-57.5 27t-28.5 98l-58 489l33 219q-204 -34 -268 -34t-106 41t-42 106q0 61 43.5 102
t104.5 41q27 0 70.5 -5.5t78 -11t74 -13t45.5 -8.5l-28 167l28 162q-210 -35 -268 -35q-64 0 -106 41.5t-42 106.5q0 61 43.5 102t104.5 41q27 0 70.5 -5.5t78.5 -11.5t73.5 -13.5t45.5 -8.5q-5 52 -23 166t-18 150q0 57 46 96t104 39t103.5 -39t45.5 -96q0 -36 -18 -150
t-23 -166q7 1 46 8.5t74 13.5t78.5 11.5t70.5 5.5q61 0 104 -41t43 -102q0 -65 -41.5 -106.5t-105.5 -41.5q-59 0 -269 35z" />
    <glyph glyph-name="bullet" unicode="&#x2022;" horiz-adv-x="819" 
d="M35 750q0 155 110 264.5t265 109.5t264.5 -109.5t109.5 -264.5t-109.5 -265t-264.5 -110t-265 110t-110 265z" />
    <glyph glyph-name="ellipsis" unicode="&#x2026;" horiz-adv-x="2048" 
d="M342 369q94 0 172 -56.5t78 -144.5t-78 -144.5t-172 -56.5t-172 56.5t-78 144.5t78 144.5t172 56.5zM1024 369q94 0 172 -56.5t78 -144.5t-78 -144.5t-172 -56.5t-172 56.5t-78 144.5t78 144.5t172 56.5zM1706 369q94 0 172 -56.5t78 -144.5t-78 -144.5t-172 -56.5
t-172 56.5t-78 144.5t78 144.5t172 56.5z" />
    <glyph glyph-name="perthousand" unicode="&#x2030;" horiz-adv-x="2723" 
d="M1892 362q0 171 115 283.5t285 112.5t284.5 -112.5t114.5 -283.5t-114.5 -283t-284.5 -112t-285 112t-115 283zM2292 53q52 0 74 72.5t22 236.5q0 165 -22 237.5t-74 72.5t-74.5 -73t-22.5 -237t22.5 -236.5t74.5 -72.5zM33 1137q0 171 114.5 283t284.5 112t284.5 -112
t114.5 -283t-114.5 -283.5t-284.5 -112.5t-284.5 112.5t-114.5 283.5zM432 827q52 0 74 72.5t22 237.5q0 164 -22 236.5t-74 72.5t-74 -72.5t-22 -236.5q0 -165 22 -237.5t74 -72.5zM979 362q0 171 114.5 283.5t284.5 112.5t285 -112.5t115 -283.5t-115 -283t-285 -112
t-284.5 112t-114.5 283zM1378 53q52 0 74.5 72.5t22.5 236.5t-22.5 237t-74.5 73t-74 -72.5t-22 -237.5q0 -164 22 -236.5t74 -72.5zM256 78l1085 1364q3 3 13 16t13 16.5t12 13.5t14.5 13t15.5 10t19.5 9.5t22.5 6t28.5 4.5t33.5 1q84 0 84 -35q0 -23 -38 -70l-1104 -1402
q-29 -36 -61 -47t-79 -11q-61 0 -82.5 7.5t-21.5 29.5q0 9 7 22t13.5 21.5t24.5 30.5z" />
    <glyph glyph-name="guilsinglleft" unicode="&#x2039;" horiz-adv-x="471" 
d="M35 504q0 33 77 127t161 173t104 79q21 0 36 -11.5t15 -31.5q0 -26 -76 -161t-76 -165q0 -23 80 -173t80 -183q0 -21 -15.5 -33t-37.5 -12q-21 0 -106.5 84t-163.5 181t-78 126z" />
    <glyph glyph-name="guilsinglright" unicode="&#x203a;" horiz-adv-x="471" 
d="M436 504q0 -29 -78 -126t-163.5 -181t-106.5 -84q-22 0 -37.5 12t-15.5 33q0 33 80 183t80 173q0 30 -76 165t-76 161q0 20 15 31.5t36 11.5q20 0 104 -79t161 -173t77 -127z" />
    <glyph glyph-name="fraction" unicode="&#x2044;" horiz-adv-x="342" 
d="M649 1397l-760 -1340q-25 -43 -58 -66.5t-87 -23.5q-86 0 -86 53q0 10 3.5 20.5t7 17.5t13 22t15.5 26l756 1336q25 43 58 66.5t87 23.5q86 0 86 -53q0 -10 -3 -20.5t-6.5 -17t-12 -21t-13.5 -23.5z" />
    <glyph glyph-name="trademark" unicode="&#x2122;" horiz-adv-x="2027" 
d="M524 1417v-622q0 -51 16.5 -66.5t80.5 -19.5v-66h-445v66q66 4 82 19.5t16 66.5v622h-77q-112 0 -121 -98h-66v180h776v-180h-65q-9 98 -121 98h-76zM1358 645l-268 584h-5v-371q0 -86 23 -116t76 -33v-66h-277v66q51 3 69.5 32t18.5 117v451q-6 49 -43.5 79t-87.5 33v78
h322l256 -545l284 545h291v-78q-64 -3 -81 -20t-17 -66v-540q0 -51 16 -66.5t80 -19.5v-66h-442v66q64 4 80 19.5t16 66.5v417h-6l-272 -567h-33z" />
    <glyph glyph-name="minus" unicode="&#x2212;" horiz-adv-x="1228" 
d="M1112 338h-995v319h995v-319z" />
    <glyph glyph-name="fi" unicode="&#xfb01;" horiz-adv-x="1454" 
d="M614 995h572q91 0 119 -33.5t28 -150.5v-573q0 -37 12 -59t27 -30t27 -25t12 -44q0 -30 -28.5 -55t-77.5 -25h-394q-49 0 -77.5 25t-28.5 55q0 27 12 44t27 25t27 30t12 59v331q0 60 -1.5 92t-10.5 62t-20.5 41.5t-40.5 21.5t-61.5 11.5t-91.5 1.5h-43v-549
q0 -41 16.5 -65t36 -31.5t36 -25.5t16.5 -48q0 -80 -131 -80h-398q-131 0 -131 80q0 30 16.5 48t36 25.5t36 31.5t16.5 65v549h-33q-55 0 -79.5 24.5t-24.5 73.5t24.5 73.5t79.5 24.5h33v35q0 130 26 223t72 151.5t122.5 92.5t164 46.5t209.5 12.5q123 0 219 -16.5
t153.5 -42t95 -60.5t51 -69.5t13.5 -71.5q0 -90 -55 -137t-156 -47q-79 0 -144.5 43t-76.5 117q-6 40 -32 58t-81 18q-80 0 -105.5 -27t-25.5 -119v-207z" />
    <glyph glyph-name="fl" unicode="&#xfb02;" horiz-adv-x="1454" 
d="M614 799v-545q0 -41 16.5 -65t36 -31.5t36 -25.5t16.5 -48q0 -80 -131 -80h-398q-131 0 -131 80q0 30 16.5 48t36 25.5t36 31.5t16.5 65v549h-33q-55 0 -79.5 24.5t-24.5 73.5t24.5 73.5t79.5 24.5h33v115q0 197 111.5 319.5t328.5 122.5h623q47 0 71.5 -16t38 -66
t13.5 -147v-1089q0 -37 16.5 -59t36.5 -30t36.5 -25t16.5 -44q0 -30 -28.5 -55t-77.5 -25h-451q-49 0 -77.5 25t-28.5 55q0 27 16.5 44t36.5 25t36.5 30t16.5 59v966q0 84 -36 116t-107 32q-82 0 -112 -39t-30 -142v-176h101q55 0 79.5 -24.5t24.5 -73.5t-24.5 -73.5
t-79.5 -24.5h-101z" />
    </font>
</defs>
</svg>
