<?xml version="1.0" encoding="UTF-8"?>
<svg width="32" height="32" version="1.1" viewBox="0 0 32 32" xmlns="http://www.w3.org/2000/svg" xmlns:cc="http://creativecommons.org/ns#" xmlns:dc="http://purl.org/dc/elements/1.1/" xmlns:rdf="http://www.w3.org/1999/02/22-rdf-syntax-ns#">
	<metadata>
		<rdf:RDF>
			<cc:Work rdf:about="">
				<dc:format>image/svg+xml</dc:format>
				<dc:type rdf:resource="http://purl.org/dc/dcmitype/StillImage"/>
				<dc:creator>
					<cc:Agent>
						<dc:title>Ian Sannar</dc:title>
					</cc:Agent>
				</dc:creator>
			</cc:Work>
		</rdf:RDF>
	</metadata>
	<path d="m15.9 0.9707-8.6 0.5918a1.5 1.5 0 0 0-0.02734 0.005859 1.5 1.5 0 0 0-0.4102 0.09766 1.5 1.5 0 0 0-0.08008 0.0332 1.5 1.5 0 0 0-0.3516 0.2227 1.5 1.5 0 0 0-0.05273 0.04883 1.5 1.5 0 0 0-0.2656 0.332 1.5 1.5 0 0 0-0.01758 0.02148l-4.738 8.457a1.5 1.5 0 0 0-0.1738 0.502l-1.162 7.445a1.5 1.5 0 0 0 0.001953 0.04688 1.5 1.5 0 0 0 0.01953 0.5059 1.5 1.5 0 0 0 0.005859 0.03711 1.5 1.5 0 0 0 0.2168 0.4688 1.5 1.5 0 0 0 0.02148 0.04883l5.9 8.178a1.5 1.5 0 0 0 0.8145 0.5664l8.6 2.398a1.5 1.5 0 0 0 0.0293 0.003906 1.5 1.5 0 0 0 0.373 0.05078 1.5 1.5 0 0 0 0.373-0.05078 1.5 1.5 0 0 0 0.0293-0.003906l8.6-2.398a1.5 1.5 0 0 0 0.8145-0.5664l5.9-8.178a1.5 1.5 0 0 0 0.1172-0.1914 1.5 1.5 0 0 0 0.0293-0.06055 1.5 1.5 0 0 0 0.01758-0.04102 1.5 1.5 0 0 0 0.01953-0.04883 1.5 1.5 0 0 0 0.02148-0.05664 1.5 1.5 0 0 0 0.003906-0.01367 1.5 1.5 0 0 0 0.05078-0.2031 1.5 1.5 0 0 0 0.01563-0.1035 1.5 1.5 0 0 0 0-0.007813 1.5 1.5 0 0 0 0.003906-0.04688 1.5 1.5 0 0 0 0.001953-0.04297 1.5 1.5 0 0 0 0.001953-0.0625 1.5 1.5 0 0 0-0.001953-0.07226 1.5 1.5 0 0 0 0-0.009766 1.5 1.5 0 0 0-0.009766-0.1016 1.5 1.5 0 0 0-0.001953-0.009766 1.5 1.5 0 0 0-0.003906-0.03516l-1.162-7.445a1.5 1.5 0 0 0-0.1738-0.502l-4.738-8.457a1.5 1.5 0 0 0-0.01758-0.02148 1.5 1.5 0 0 0-0.2656-0.332 1.5 1.5 0 0 0-0.05273-0.04883 1.5 1.5 0 0 0-0.3516-0.2227 1.5 1.5 0 0 0-0.08008-0.0332 1.5 1.5 0 0 0-0.4102-0.09766 1.5 1.5 0 0 0-0.02734-0.005859l-8.6-0.5918a1.5 1.5 0 0 0-0.207 0zm-7.834 3.977 0.07617 0.03125-3.328 9.242-1.213 1.018 0.5039-3.227 3.961-7.064zm15.88 0 3.961 7.064 0.5039 3.227-1.213-1.018-3.328-9.242 0.07617-0.03125zm-12.85 0.6855h9.818l3.211 8.916-8.121 5.764-8.121-5.764 3.213-8.916zm-4.932 11.37 8.34 5.922v4.631l-6.191-1.727-4.777-6.619 2.629-2.207zm19.68 0 2.629 2.207-4.777 6.619-6.191 1.727v-4.631l8.34-5.922z" color="#000000" fill="#333" stroke-linecap="round" stroke-linejoin="round" style="-inkscape-stroke:none"/>
</svg>
